G04 #@! TF.GenerationSoftware,KiCad,Pcbnew,(5.1.0)-1*
G04 #@! TF.CreationDate,2019-05-09T16:13:53+02:00*
G04 #@! TF.ProjectId,Actuator,41637475-6174-46f7-922e-6b696361645f,rev?*
G04 #@! TF.SameCoordinates,Original*
G04 #@! TF.FileFunction,Copper,L2,Bot*
G04 #@! TF.FilePolarity,Positive*
%FSLAX46Y46*%
G04 Gerber Fmt 4.6, Leading zero omitted, Abs format (unit mm)*
G04 Created by KiCad (PCBNEW (5.1.0)-1) date 2019-05-09 16:13:53*
%MOMM*%
%LPD*%
G04 APERTURE LIST*
%ADD10C,7.000000*%
%ADD11C,0.800000*%
%ADD12C,2.600000*%
%ADD13R,2.600000X2.600000*%
%ADD14C,3.000000*%
%ADD15C,2.500000*%
%ADD16R,1.600000X1.600000*%
%ADD17O,1.600000X1.600000*%
%ADD18R,1.800000X2.500000*%
%ADD19R,1.700000X1.700000*%
%ADD20O,1.700000X1.700000*%
%ADD21C,0.100000*%
%ADD22C,1.700000*%
%ADD23O,1.700000X1.950000*%
%ADD24O,1.500000X1.050000*%
%ADD25R,1.500000X1.050000*%
%ADD26R,1.050000X1.500000*%
%ADD27O,1.050000X1.500000*%
%ADD28C,0.875000*%
%ADD29C,0.300000*%
%ADD30C,1.000000*%
%ADD31C,2.000000*%
%ADD32C,0.700000*%
%ADD33C,0.254000*%
G04 APERTURE END LIST*
D10*
X123800000Y-98000000D03*
D11*
X126425000Y-98000000D03*
X125656155Y-99856155D03*
X123800000Y-100625000D03*
X121943845Y-99856155D03*
X121175000Y-98000000D03*
X121943845Y-96143845D03*
X123800000Y-95375000D03*
X125656155Y-96143845D03*
D12*
X91600000Y-80040000D03*
X91600000Y-74960000D03*
X91600000Y-69880000D03*
D13*
X91600000Y-64800000D03*
D11*
X116056155Y-132743845D03*
X114200000Y-131975000D03*
X112343845Y-132743845D03*
X111575000Y-134600000D03*
X112343845Y-136456155D03*
X114200000Y-137225000D03*
X116056155Y-136456155D03*
X116825000Y-134600000D03*
D10*
X114200000Y-134600000D03*
D11*
X146456155Y-62343845D03*
X144600000Y-61575000D03*
X142743845Y-62343845D03*
X141975000Y-64200000D03*
X142743845Y-66056155D03*
X144600000Y-66825000D03*
X146456155Y-66056155D03*
X147225000Y-64200000D03*
D10*
X144600000Y-64200000D03*
D12*
X120400000Y-130400000D03*
D13*
X125400000Y-130400000D03*
D14*
X108700000Y-109800000D03*
D15*
X114650000Y-111750000D03*
D14*
X114700000Y-124000000D03*
X102650000Y-123950000D03*
D15*
X102650000Y-111750000D03*
D14*
X92800000Y-109800000D03*
D15*
X98750000Y-111750000D03*
D14*
X98800000Y-124000000D03*
X86750000Y-123950000D03*
D15*
X86750000Y-111750000D03*
D16*
X131000000Y-101600000D03*
D17*
X115760000Y-68580000D03*
X131000000Y-99060000D03*
X115760000Y-71120000D03*
X131000000Y-96520000D03*
X115760000Y-73660000D03*
X131000000Y-93980000D03*
X115760000Y-76200000D03*
X131000000Y-91440000D03*
X115760000Y-78740000D03*
X131000000Y-88900000D03*
X115760000Y-81280000D03*
X131000000Y-86360000D03*
X115760000Y-83820000D03*
X131000000Y-83820000D03*
X115760000Y-86360000D03*
X131000000Y-81280000D03*
X115760000Y-88900000D03*
X131000000Y-78740000D03*
X115760000Y-91440000D03*
X131000000Y-76200000D03*
X115760000Y-93980000D03*
X131000000Y-73660000D03*
X115760000Y-96520000D03*
X131000000Y-71120000D03*
X115760000Y-99060000D03*
X131000000Y-68580000D03*
X115760000Y-101600000D03*
X131000000Y-66040000D03*
X115760000Y-66040000D03*
X112500000Y-84400000D03*
X99800000Y-102180000D03*
X112500000Y-86940000D03*
X99800000Y-99640000D03*
X112500000Y-89480000D03*
X99800000Y-97100000D03*
X112500000Y-92020000D03*
X99800000Y-94560000D03*
X112500000Y-94560000D03*
X99800000Y-92020000D03*
X112500000Y-97100000D03*
X99800000Y-89480000D03*
X112500000Y-99640000D03*
X99800000Y-86940000D03*
X112500000Y-102180000D03*
D16*
X99800000Y-84400000D03*
X99800000Y-63400000D03*
D17*
X112500000Y-81180000D03*
X99800000Y-65940000D03*
X112500000Y-78640000D03*
X99800000Y-68480000D03*
X112500000Y-76100000D03*
X99800000Y-71020000D03*
X112500000Y-73560000D03*
X99800000Y-73560000D03*
X112500000Y-71020000D03*
X99800000Y-76100000D03*
X112500000Y-68480000D03*
X99800000Y-78640000D03*
X112500000Y-65940000D03*
X99800000Y-81180000D03*
X112500000Y-63400000D03*
D18*
X140400000Y-91800000D03*
X140400000Y-95800000D03*
X140400000Y-77400000D03*
X140400000Y-81400000D03*
X140400000Y-84500000D03*
X140400000Y-88500000D03*
X140400000Y-70400000D03*
X140400000Y-74400000D03*
D13*
X90000000Y-52100000D03*
D12*
X95080000Y-52100000D03*
D19*
X141380000Y-51900000D03*
D20*
X143920000Y-51900000D03*
X146460000Y-51900000D03*
X149000000Y-51900000D03*
D19*
X147000000Y-95340000D03*
D20*
X147000000Y-92800000D03*
D19*
X147000000Y-80340000D03*
D20*
X147000000Y-77800000D03*
X135620000Y-52200000D03*
X133080000Y-52200000D03*
X130540000Y-52200000D03*
D19*
X128000000Y-52200000D03*
D20*
X147000000Y-87940000D03*
D19*
X147000000Y-85400000D03*
D20*
X147000000Y-73540000D03*
D19*
X147000000Y-71000000D03*
D21*
G36*
X141976504Y-46984204D02*
G01*
X142000773Y-46987804D01*
X142024571Y-46993765D01*
X142047671Y-47002030D01*
X142069849Y-47012520D01*
X142090893Y-47025133D01*
X142110598Y-47039747D01*
X142128777Y-47056223D01*
X142145253Y-47074402D01*
X142159867Y-47094107D01*
X142172480Y-47115151D01*
X142182970Y-47137329D01*
X142191235Y-47160429D01*
X142197196Y-47184227D01*
X142200796Y-47208496D01*
X142202000Y-47233000D01*
X142202000Y-48683000D01*
X142200796Y-48707504D01*
X142197196Y-48731773D01*
X142191235Y-48755571D01*
X142182970Y-48778671D01*
X142172480Y-48800849D01*
X142159867Y-48821893D01*
X142145253Y-48841598D01*
X142128777Y-48859777D01*
X142110598Y-48876253D01*
X142090893Y-48890867D01*
X142069849Y-48903480D01*
X142047671Y-48913970D01*
X142024571Y-48922235D01*
X142000773Y-48928196D01*
X141976504Y-48931796D01*
X141952000Y-48933000D01*
X140752000Y-48933000D01*
X140727496Y-48931796D01*
X140703227Y-48928196D01*
X140679429Y-48922235D01*
X140656329Y-48913970D01*
X140634151Y-48903480D01*
X140613107Y-48890867D01*
X140593402Y-48876253D01*
X140575223Y-48859777D01*
X140558747Y-48841598D01*
X140544133Y-48821893D01*
X140531520Y-48800849D01*
X140521030Y-48778671D01*
X140512765Y-48755571D01*
X140506804Y-48731773D01*
X140503204Y-48707504D01*
X140502000Y-48683000D01*
X140502000Y-47233000D01*
X140503204Y-47208496D01*
X140506804Y-47184227D01*
X140512765Y-47160429D01*
X140521030Y-47137329D01*
X140531520Y-47115151D01*
X140544133Y-47094107D01*
X140558747Y-47074402D01*
X140575223Y-47056223D01*
X140593402Y-47039747D01*
X140613107Y-47025133D01*
X140634151Y-47012520D01*
X140656329Y-47002030D01*
X140679429Y-46993765D01*
X140703227Y-46987804D01*
X140727496Y-46984204D01*
X140752000Y-46983000D01*
X141952000Y-46983000D01*
X141976504Y-46984204D01*
X141976504Y-46984204D01*
G37*
D22*
X141352000Y-47958000D03*
D23*
X143852000Y-47958000D03*
X146352000Y-47958000D03*
X148852000Y-47958000D03*
D12*
X102800000Y-133400000D03*
D13*
X107880000Y-133400000D03*
X92800000Y-133400000D03*
D12*
X87720000Y-133400000D03*
D13*
X91600000Y-85600000D03*
D12*
X91600000Y-90680000D03*
X91600000Y-95760000D03*
X91600000Y-100840000D03*
D23*
X135590000Y-47958000D03*
X133090000Y-47958000D03*
X130590000Y-47958000D03*
D21*
G36*
X128714504Y-46984204D02*
G01*
X128738773Y-46987804D01*
X128762571Y-46993765D01*
X128785671Y-47002030D01*
X128807849Y-47012520D01*
X128828893Y-47025133D01*
X128848598Y-47039747D01*
X128866777Y-47056223D01*
X128883253Y-47074402D01*
X128897867Y-47094107D01*
X128910480Y-47115151D01*
X128920970Y-47137329D01*
X128929235Y-47160429D01*
X128935196Y-47184227D01*
X128938796Y-47208496D01*
X128940000Y-47233000D01*
X128940000Y-48683000D01*
X128938796Y-48707504D01*
X128935196Y-48731773D01*
X128929235Y-48755571D01*
X128920970Y-48778671D01*
X128910480Y-48800849D01*
X128897867Y-48821893D01*
X128883253Y-48841598D01*
X128866777Y-48859777D01*
X128848598Y-48876253D01*
X128828893Y-48890867D01*
X128807849Y-48903480D01*
X128785671Y-48913970D01*
X128762571Y-48922235D01*
X128738773Y-48928196D01*
X128714504Y-48931796D01*
X128690000Y-48933000D01*
X127490000Y-48933000D01*
X127465496Y-48931796D01*
X127441227Y-48928196D01*
X127417429Y-48922235D01*
X127394329Y-48913970D01*
X127372151Y-48903480D01*
X127351107Y-48890867D01*
X127331402Y-48876253D01*
X127313223Y-48859777D01*
X127296747Y-48841598D01*
X127282133Y-48821893D01*
X127269520Y-48800849D01*
X127259030Y-48778671D01*
X127250765Y-48755571D01*
X127244804Y-48731773D01*
X127241204Y-48707504D01*
X127240000Y-48683000D01*
X127240000Y-47233000D01*
X127241204Y-47208496D01*
X127244804Y-47184227D01*
X127250765Y-47160429D01*
X127259030Y-47137329D01*
X127269520Y-47115151D01*
X127282133Y-47094107D01*
X127296747Y-47074402D01*
X127313223Y-47056223D01*
X127331402Y-47039747D01*
X127351107Y-47025133D01*
X127372151Y-47012520D01*
X127394329Y-47002030D01*
X127417429Y-46993765D01*
X127441227Y-46987804D01*
X127465496Y-46984204D01*
X127490000Y-46983000D01*
X128690000Y-46983000D01*
X128714504Y-46984204D01*
X128714504Y-46984204D01*
G37*
D22*
X128090000Y-47958000D03*
D12*
X140200000Y-130400000D03*
D13*
X145200000Y-130400000D03*
D24*
X143000000Y-93970000D03*
X143000000Y-95240000D03*
D25*
X143000000Y-92700000D03*
D24*
X143000000Y-79070000D03*
X143000000Y-80340000D03*
D25*
X143000000Y-77800000D03*
D24*
X143000000Y-86670000D03*
X143000000Y-87940000D03*
D25*
X143000000Y-85400000D03*
D24*
X143000000Y-72470000D03*
X143000000Y-73740000D03*
D25*
X143000000Y-71200000D03*
D26*
X107200000Y-101600000D03*
D27*
X109740000Y-101600000D03*
X108470000Y-101600000D03*
D26*
X86400000Y-106200000D03*
D27*
X88940000Y-106200000D03*
X87670000Y-106200000D03*
D21*
G36*
X110077691Y-104338553D02*
G01*
X110098926Y-104341703D01*
X110119750Y-104346919D01*
X110139962Y-104354151D01*
X110159368Y-104363330D01*
X110177781Y-104374366D01*
X110195024Y-104387154D01*
X110210930Y-104401570D01*
X110225346Y-104417476D01*
X110238134Y-104434719D01*
X110249170Y-104453132D01*
X110258349Y-104472538D01*
X110265581Y-104492750D01*
X110270797Y-104513574D01*
X110273947Y-104534809D01*
X110275000Y-104556250D01*
X110275000Y-104993750D01*
X110273947Y-105015191D01*
X110270797Y-105036426D01*
X110265581Y-105057250D01*
X110258349Y-105077462D01*
X110249170Y-105096868D01*
X110238134Y-105115281D01*
X110225346Y-105132524D01*
X110210930Y-105148430D01*
X110195024Y-105162846D01*
X110177781Y-105175634D01*
X110159368Y-105186670D01*
X110139962Y-105195849D01*
X110119750Y-105203081D01*
X110098926Y-105208297D01*
X110077691Y-105211447D01*
X110056250Y-105212500D01*
X109543750Y-105212500D01*
X109522309Y-105211447D01*
X109501074Y-105208297D01*
X109480250Y-105203081D01*
X109460038Y-105195849D01*
X109440632Y-105186670D01*
X109422219Y-105175634D01*
X109404976Y-105162846D01*
X109389070Y-105148430D01*
X109374654Y-105132524D01*
X109361866Y-105115281D01*
X109350830Y-105096868D01*
X109341651Y-105077462D01*
X109334419Y-105057250D01*
X109329203Y-105036426D01*
X109326053Y-105015191D01*
X109325000Y-104993750D01*
X109325000Y-104556250D01*
X109326053Y-104534809D01*
X109329203Y-104513574D01*
X109334419Y-104492750D01*
X109341651Y-104472538D01*
X109350830Y-104453132D01*
X109361866Y-104434719D01*
X109374654Y-104417476D01*
X109389070Y-104401570D01*
X109404976Y-104387154D01*
X109422219Y-104374366D01*
X109440632Y-104363330D01*
X109460038Y-104354151D01*
X109480250Y-104346919D01*
X109501074Y-104341703D01*
X109522309Y-104338553D01*
X109543750Y-104337500D01*
X110056250Y-104337500D01*
X110077691Y-104338553D01*
X110077691Y-104338553D01*
G37*
D28*
X109800000Y-104775000D03*
D21*
G36*
X110077691Y-102763553D02*
G01*
X110098926Y-102766703D01*
X110119750Y-102771919D01*
X110139962Y-102779151D01*
X110159368Y-102788330D01*
X110177781Y-102799366D01*
X110195024Y-102812154D01*
X110210930Y-102826570D01*
X110225346Y-102842476D01*
X110238134Y-102859719D01*
X110249170Y-102878132D01*
X110258349Y-102897538D01*
X110265581Y-102917750D01*
X110270797Y-102938574D01*
X110273947Y-102959809D01*
X110275000Y-102981250D01*
X110275000Y-103418750D01*
X110273947Y-103440191D01*
X110270797Y-103461426D01*
X110265581Y-103482250D01*
X110258349Y-103502462D01*
X110249170Y-103521868D01*
X110238134Y-103540281D01*
X110225346Y-103557524D01*
X110210930Y-103573430D01*
X110195024Y-103587846D01*
X110177781Y-103600634D01*
X110159368Y-103611670D01*
X110139962Y-103620849D01*
X110119750Y-103628081D01*
X110098926Y-103633297D01*
X110077691Y-103636447D01*
X110056250Y-103637500D01*
X109543750Y-103637500D01*
X109522309Y-103636447D01*
X109501074Y-103633297D01*
X109480250Y-103628081D01*
X109460038Y-103620849D01*
X109440632Y-103611670D01*
X109422219Y-103600634D01*
X109404976Y-103587846D01*
X109389070Y-103573430D01*
X109374654Y-103557524D01*
X109361866Y-103540281D01*
X109350830Y-103521868D01*
X109341651Y-103502462D01*
X109334419Y-103482250D01*
X109329203Y-103461426D01*
X109326053Y-103440191D01*
X109325000Y-103418750D01*
X109325000Y-102981250D01*
X109326053Y-102959809D01*
X109329203Y-102938574D01*
X109334419Y-102917750D01*
X109341651Y-102897538D01*
X109350830Y-102878132D01*
X109361866Y-102859719D01*
X109374654Y-102842476D01*
X109389070Y-102826570D01*
X109404976Y-102812154D01*
X109422219Y-102799366D01*
X109440632Y-102788330D01*
X109460038Y-102779151D01*
X109480250Y-102771919D01*
X109501074Y-102766703D01*
X109522309Y-102763553D01*
X109543750Y-102762500D01*
X110056250Y-102762500D01*
X110077691Y-102763553D01*
X110077691Y-102763553D01*
G37*
D28*
X109800000Y-103200000D03*
D21*
G36*
X93077691Y-105788553D02*
G01*
X93098926Y-105791703D01*
X93119750Y-105796919D01*
X93139962Y-105804151D01*
X93159368Y-105813330D01*
X93177781Y-105824366D01*
X93195024Y-105837154D01*
X93210930Y-105851570D01*
X93225346Y-105867476D01*
X93238134Y-105884719D01*
X93249170Y-105903132D01*
X93258349Y-105922538D01*
X93265581Y-105942750D01*
X93270797Y-105963574D01*
X93273947Y-105984809D01*
X93275000Y-106006250D01*
X93275000Y-106443750D01*
X93273947Y-106465191D01*
X93270797Y-106486426D01*
X93265581Y-106507250D01*
X93258349Y-106527462D01*
X93249170Y-106546868D01*
X93238134Y-106565281D01*
X93225346Y-106582524D01*
X93210930Y-106598430D01*
X93195024Y-106612846D01*
X93177781Y-106625634D01*
X93159368Y-106636670D01*
X93139962Y-106645849D01*
X93119750Y-106653081D01*
X93098926Y-106658297D01*
X93077691Y-106661447D01*
X93056250Y-106662500D01*
X92543750Y-106662500D01*
X92522309Y-106661447D01*
X92501074Y-106658297D01*
X92480250Y-106653081D01*
X92460038Y-106645849D01*
X92440632Y-106636670D01*
X92422219Y-106625634D01*
X92404976Y-106612846D01*
X92389070Y-106598430D01*
X92374654Y-106582524D01*
X92361866Y-106565281D01*
X92350830Y-106546868D01*
X92341651Y-106527462D01*
X92334419Y-106507250D01*
X92329203Y-106486426D01*
X92326053Y-106465191D01*
X92325000Y-106443750D01*
X92325000Y-106006250D01*
X92326053Y-105984809D01*
X92329203Y-105963574D01*
X92334419Y-105942750D01*
X92341651Y-105922538D01*
X92350830Y-105903132D01*
X92361866Y-105884719D01*
X92374654Y-105867476D01*
X92389070Y-105851570D01*
X92404976Y-105837154D01*
X92422219Y-105824366D01*
X92440632Y-105813330D01*
X92460038Y-105804151D01*
X92480250Y-105796919D01*
X92501074Y-105791703D01*
X92522309Y-105788553D01*
X92543750Y-105787500D01*
X93056250Y-105787500D01*
X93077691Y-105788553D01*
X93077691Y-105788553D01*
G37*
D28*
X92800000Y-106225000D03*
D21*
G36*
X93077691Y-107363553D02*
G01*
X93098926Y-107366703D01*
X93119750Y-107371919D01*
X93139962Y-107379151D01*
X93159368Y-107388330D01*
X93177781Y-107399366D01*
X93195024Y-107412154D01*
X93210930Y-107426570D01*
X93225346Y-107442476D01*
X93238134Y-107459719D01*
X93249170Y-107478132D01*
X93258349Y-107497538D01*
X93265581Y-107517750D01*
X93270797Y-107538574D01*
X93273947Y-107559809D01*
X93275000Y-107581250D01*
X93275000Y-108018750D01*
X93273947Y-108040191D01*
X93270797Y-108061426D01*
X93265581Y-108082250D01*
X93258349Y-108102462D01*
X93249170Y-108121868D01*
X93238134Y-108140281D01*
X93225346Y-108157524D01*
X93210930Y-108173430D01*
X93195024Y-108187846D01*
X93177781Y-108200634D01*
X93159368Y-108211670D01*
X93139962Y-108220849D01*
X93119750Y-108228081D01*
X93098926Y-108233297D01*
X93077691Y-108236447D01*
X93056250Y-108237500D01*
X92543750Y-108237500D01*
X92522309Y-108236447D01*
X92501074Y-108233297D01*
X92480250Y-108228081D01*
X92460038Y-108220849D01*
X92440632Y-108211670D01*
X92422219Y-108200634D01*
X92404976Y-108187846D01*
X92389070Y-108173430D01*
X92374654Y-108157524D01*
X92361866Y-108140281D01*
X92350830Y-108121868D01*
X92341651Y-108102462D01*
X92334419Y-108082250D01*
X92329203Y-108061426D01*
X92326053Y-108040191D01*
X92325000Y-108018750D01*
X92325000Y-107581250D01*
X92326053Y-107559809D01*
X92329203Y-107538574D01*
X92334419Y-107517750D01*
X92341651Y-107497538D01*
X92350830Y-107478132D01*
X92361866Y-107459719D01*
X92374654Y-107442476D01*
X92389070Y-107426570D01*
X92404976Y-107412154D01*
X92422219Y-107399366D01*
X92440632Y-107388330D01*
X92460038Y-107379151D01*
X92480250Y-107371919D01*
X92501074Y-107366703D01*
X92522309Y-107363553D01*
X92543750Y-107362500D01*
X93056250Y-107362500D01*
X93077691Y-107363553D01*
X93077691Y-107363553D01*
G37*
D28*
X92800000Y-107800000D03*
D21*
G36*
X108677691Y-102788553D02*
G01*
X108698926Y-102791703D01*
X108719750Y-102796919D01*
X108739962Y-102804151D01*
X108759368Y-102813330D01*
X108777781Y-102824366D01*
X108795024Y-102837154D01*
X108810930Y-102851570D01*
X108825346Y-102867476D01*
X108838134Y-102884719D01*
X108849170Y-102903132D01*
X108858349Y-102922538D01*
X108865581Y-102942750D01*
X108870797Y-102963574D01*
X108873947Y-102984809D01*
X108875000Y-103006250D01*
X108875000Y-103443750D01*
X108873947Y-103465191D01*
X108870797Y-103486426D01*
X108865581Y-103507250D01*
X108858349Y-103527462D01*
X108849170Y-103546868D01*
X108838134Y-103565281D01*
X108825346Y-103582524D01*
X108810930Y-103598430D01*
X108795024Y-103612846D01*
X108777781Y-103625634D01*
X108759368Y-103636670D01*
X108739962Y-103645849D01*
X108719750Y-103653081D01*
X108698926Y-103658297D01*
X108677691Y-103661447D01*
X108656250Y-103662500D01*
X108143750Y-103662500D01*
X108122309Y-103661447D01*
X108101074Y-103658297D01*
X108080250Y-103653081D01*
X108060038Y-103645849D01*
X108040632Y-103636670D01*
X108022219Y-103625634D01*
X108004976Y-103612846D01*
X107989070Y-103598430D01*
X107974654Y-103582524D01*
X107961866Y-103565281D01*
X107950830Y-103546868D01*
X107941651Y-103527462D01*
X107934419Y-103507250D01*
X107929203Y-103486426D01*
X107926053Y-103465191D01*
X107925000Y-103443750D01*
X107925000Y-103006250D01*
X107926053Y-102984809D01*
X107929203Y-102963574D01*
X107934419Y-102942750D01*
X107941651Y-102922538D01*
X107950830Y-102903132D01*
X107961866Y-102884719D01*
X107974654Y-102867476D01*
X107989070Y-102851570D01*
X108004976Y-102837154D01*
X108022219Y-102824366D01*
X108040632Y-102813330D01*
X108060038Y-102804151D01*
X108080250Y-102796919D01*
X108101074Y-102791703D01*
X108122309Y-102788553D01*
X108143750Y-102787500D01*
X108656250Y-102787500D01*
X108677691Y-102788553D01*
X108677691Y-102788553D01*
G37*
D28*
X108400000Y-103225000D03*
D21*
G36*
X108677691Y-104363553D02*
G01*
X108698926Y-104366703D01*
X108719750Y-104371919D01*
X108739962Y-104379151D01*
X108759368Y-104388330D01*
X108777781Y-104399366D01*
X108795024Y-104412154D01*
X108810930Y-104426570D01*
X108825346Y-104442476D01*
X108838134Y-104459719D01*
X108849170Y-104478132D01*
X108858349Y-104497538D01*
X108865581Y-104517750D01*
X108870797Y-104538574D01*
X108873947Y-104559809D01*
X108875000Y-104581250D01*
X108875000Y-105018750D01*
X108873947Y-105040191D01*
X108870797Y-105061426D01*
X108865581Y-105082250D01*
X108858349Y-105102462D01*
X108849170Y-105121868D01*
X108838134Y-105140281D01*
X108825346Y-105157524D01*
X108810930Y-105173430D01*
X108795024Y-105187846D01*
X108777781Y-105200634D01*
X108759368Y-105211670D01*
X108739962Y-105220849D01*
X108719750Y-105228081D01*
X108698926Y-105233297D01*
X108677691Y-105236447D01*
X108656250Y-105237500D01*
X108143750Y-105237500D01*
X108122309Y-105236447D01*
X108101074Y-105233297D01*
X108080250Y-105228081D01*
X108060038Y-105220849D01*
X108040632Y-105211670D01*
X108022219Y-105200634D01*
X108004976Y-105187846D01*
X107989070Y-105173430D01*
X107974654Y-105157524D01*
X107961866Y-105140281D01*
X107950830Y-105121868D01*
X107941651Y-105102462D01*
X107934419Y-105082250D01*
X107929203Y-105061426D01*
X107926053Y-105040191D01*
X107925000Y-105018750D01*
X107925000Y-104581250D01*
X107926053Y-104559809D01*
X107929203Y-104538574D01*
X107934419Y-104517750D01*
X107941651Y-104497538D01*
X107950830Y-104478132D01*
X107961866Y-104459719D01*
X107974654Y-104442476D01*
X107989070Y-104426570D01*
X108004976Y-104412154D01*
X108022219Y-104399366D01*
X108040632Y-104388330D01*
X108060038Y-104379151D01*
X108080250Y-104371919D01*
X108101074Y-104366703D01*
X108122309Y-104363553D01*
X108143750Y-104362500D01*
X108656250Y-104362500D01*
X108677691Y-104363553D01*
X108677691Y-104363553D01*
G37*
D28*
X108400000Y-104800000D03*
D21*
G36*
X94477691Y-107338553D02*
G01*
X94498926Y-107341703D01*
X94519750Y-107346919D01*
X94539962Y-107354151D01*
X94559368Y-107363330D01*
X94577781Y-107374366D01*
X94595024Y-107387154D01*
X94610930Y-107401570D01*
X94625346Y-107417476D01*
X94638134Y-107434719D01*
X94649170Y-107453132D01*
X94658349Y-107472538D01*
X94665581Y-107492750D01*
X94670797Y-107513574D01*
X94673947Y-107534809D01*
X94675000Y-107556250D01*
X94675000Y-107993750D01*
X94673947Y-108015191D01*
X94670797Y-108036426D01*
X94665581Y-108057250D01*
X94658349Y-108077462D01*
X94649170Y-108096868D01*
X94638134Y-108115281D01*
X94625346Y-108132524D01*
X94610930Y-108148430D01*
X94595024Y-108162846D01*
X94577781Y-108175634D01*
X94559368Y-108186670D01*
X94539962Y-108195849D01*
X94519750Y-108203081D01*
X94498926Y-108208297D01*
X94477691Y-108211447D01*
X94456250Y-108212500D01*
X93943750Y-108212500D01*
X93922309Y-108211447D01*
X93901074Y-108208297D01*
X93880250Y-108203081D01*
X93860038Y-108195849D01*
X93840632Y-108186670D01*
X93822219Y-108175634D01*
X93804976Y-108162846D01*
X93789070Y-108148430D01*
X93774654Y-108132524D01*
X93761866Y-108115281D01*
X93750830Y-108096868D01*
X93741651Y-108077462D01*
X93734419Y-108057250D01*
X93729203Y-108036426D01*
X93726053Y-108015191D01*
X93725000Y-107993750D01*
X93725000Y-107556250D01*
X93726053Y-107534809D01*
X93729203Y-107513574D01*
X93734419Y-107492750D01*
X93741651Y-107472538D01*
X93750830Y-107453132D01*
X93761866Y-107434719D01*
X93774654Y-107417476D01*
X93789070Y-107401570D01*
X93804976Y-107387154D01*
X93822219Y-107374366D01*
X93840632Y-107363330D01*
X93860038Y-107354151D01*
X93880250Y-107346919D01*
X93901074Y-107341703D01*
X93922309Y-107338553D01*
X93943750Y-107337500D01*
X94456250Y-107337500D01*
X94477691Y-107338553D01*
X94477691Y-107338553D01*
G37*
D28*
X94200000Y-107775000D03*
D21*
G36*
X94477691Y-105763553D02*
G01*
X94498926Y-105766703D01*
X94519750Y-105771919D01*
X94539962Y-105779151D01*
X94559368Y-105788330D01*
X94577781Y-105799366D01*
X94595024Y-105812154D01*
X94610930Y-105826570D01*
X94625346Y-105842476D01*
X94638134Y-105859719D01*
X94649170Y-105878132D01*
X94658349Y-105897538D01*
X94665581Y-105917750D01*
X94670797Y-105938574D01*
X94673947Y-105959809D01*
X94675000Y-105981250D01*
X94675000Y-106418750D01*
X94673947Y-106440191D01*
X94670797Y-106461426D01*
X94665581Y-106482250D01*
X94658349Y-106502462D01*
X94649170Y-106521868D01*
X94638134Y-106540281D01*
X94625346Y-106557524D01*
X94610930Y-106573430D01*
X94595024Y-106587846D01*
X94577781Y-106600634D01*
X94559368Y-106611670D01*
X94539962Y-106620849D01*
X94519750Y-106628081D01*
X94498926Y-106633297D01*
X94477691Y-106636447D01*
X94456250Y-106637500D01*
X93943750Y-106637500D01*
X93922309Y-106636447D01*
X93901074Y-106633297D01*
X93880250Y-106628081D01*
X93860038Y-106620849D01*
X93840632Y-106611670D01*
X93822219Y-106600634D01*
X93804976Y-106587846D01*
X93789070Y-106573430D01*
X93774654Y-106557524D01*
X93761866Y-106540281D01*
X93750830Y-106521868D01*
X93741651Y-106502462D01*
X93734419Y-106482250D01*
X93729203Y-106461426D01*
X93726053Y-106440191D01*
X93725000Y-106418750D01*
X93725000Y-105981250D01*
X93726053Y-105959809D01*
X93729203Y-105938574D01*
X93734419Y-105917750D01*
X93741651Y-105897538D01*
X93750830Y-105878132D01*
X93761866Y-105859719D01*
X93774654Y-105842476D01*
X93789070Y-105826570D01*
X93804976Y-105812154D01*
X93822219Y-105799366D01*
X93840632Y-105788330D01*
X93860038Y-105779151D01*
X93880250Y-105771919D01*
X93901074Y-105766703D01*
X93922309Y-105763553D01*
X93943750Y-105762500D01*
X94456250Y-105762500D01*
X94477691Y-105763553D01*
X94477691Y-105763553D01*
G37*
D28*
X94200000Y-106200000D03*
D11*
X137000000Y-96400000D03*
X135600000Y-96400000D03*
X114200000Y-80000000D03*
X122000000Y-128000000D03*
X123600000Y-128000000D03*
X122800000Y-127200000D03*
X121600000Y-127200000D03*
X124000000Y-127200000D03*
X124400000Y-126400000D03*
X122800000Y-126200000D03*
X121200000Y-126400000D03*
X106600000Y-49800000D03*
X106600000Y-45800000D03*
X108600000Y-45800000D03*
X110600000Y-45800000D03*
X112600000Y-45800000D03*
X114600000Y-45800000D03*
X116600000Y-45800000D03*
X115600000Y-46800000D03*
X113600000Y-46800000D03*
X111600000Y-46800000D03*
X109600000Y-46800000D03*
X107600000Y-46800000D03*
X106600000Y-47800000D03*
X108600000Y-47800000D03*
X110600000Y-47800000D03*
X112600000Y-47800000D03*
X114600000Y-47800000D03*
X116600000Y-47800000D03*
X115600000Y-48800000D03*
X116600000Y-49800000D03*
X115600000Y-50800000D03*
X116600000Y-51800000D03*
X107600000Y-48800000D03*
X107600000Y-50800000D03*
X107600000Y-52800000D03*
X106600000Y-51800000D03*
X115600000Y-52800000D03*
X131600000Y-130000000D03*
X132600000Y-130000000D03*
X132600000Y-131000000D03*
X131600000Y-131000000D03*
X131800000Y-108200000D03*
X131800000Y-109200000D03*
X132800000Y-109200000D03*
X122800000Y-120815000D03*
X142732000Y-120600000D03*
X91000000Y-50000000D03*
X90000000Y-50000000D03*
X89000000Y-50000000D03*
X89000000Y-49000000D03*
X90000000Y-49000000D03*
X91000000Y-49000000D03*
X91000000Y-48000000D03*
X89000000Y-48000000D03*
X90000000Y-48000000D03*
X114600000Y-103800000D03*
X145000000Y-71600000D03*
X145000000Y-70600000D03*
X141800000Y-127000000D03*
X143800000Y-127000000D03*
X142800000Y-127000000D03*
X141400000Y-126200000D03*
X144200000Y-126200000D03*
X142800000Y-126000000D03*
X142200000Y-127800000D03*
X143400000Y-127800000D03*
X117600000Y-46800000D03*
X118600000Y-47800000D03*
X118600000Y-45800000D03*
X104400000Y-89000000D03*
X103400000Y-89000000D03*
X104400000Y-88000000D03*
X103400000Y-88000000D03*
X120260000Y-120815000D03*
X118000000Y-79800000D03*
X140192000Y-120600000D03*
X118000000Y-82800000D03*
X130755001Y-105044999D03*
X126644999Y-105044999D03*
X118200000Y-84000000D03*
X133080000Y-66280000D03*
X125300000Y-69100000D03*
X141462000Y-120600000D03*
X118200000Y-86400000D03*
X124700000Y-67100000D03*
X129000000Y-60000000D03*
X118200000Y-85200000D03*
X129504315Y-79104315D03*
X121600000Y-85200000D03*
X118200000Y-87600000D03*
X127400000Y-78400000D03*
X115600000Y-58600000D03*
X115600000Y-57600000D03*
X115600000Y-56600000D03*
X116600000Y-56600000D03*
X116600000Y-57600000D03*
X116600000Y-58600000D03*
X117600000Y-58600000D03*
X117600000Y-57600000D03*
X117600000Y-56600000D03*
X118600000Y-56600000D03*
X118600000Y-57600000D03*
X118600000Y-58600000D03*
X119600000Y-58600000D03*
X119600000Y-57600000D03*
X119600000Y-56600000D03*
X121530000Y-120815000D03*
X124070000Y-120815000D03*
X125000000Y-64400000D03*
X136400000Y-69800000D03*
X144000000Y-120600000D03*
D29*
X143070001Y-52749999D02*
X143920000Y-51900000D01*
X137949999Y-57870001D02*
X143070001Y-52749999D01*
X137949999Y-95450001D02*
X137949999Y-57870001D01*
X137000000Y-96400000D02*
X137949999Y-95450001D01*
X145610001Y-51050001D02*
X146460000Y-51900000D01*
X145259999Y-50699999D02*
X145610001Y-51050001D01*
X140249999Y-50699999D02*
X145259999Y-50699999D01*
X137449989Y-53500009D02*
X140249999Y-50699999D01*
X137449989Y-94550011D02*
X137449989Y-53500009D01*
X135600000Y-96400000D02*
X137449989Y-94550011D01*
D30*
X109775000Y-104800000D02*
X109800000Y-104775000D01*
X108400000Y-104800000D02*
X109775000Y-104800000D01*
D29*
X110375000Y-104775000D02*
X109800000Y-104775000D01*
X111607002Y-104775000D02*
X110375000Y-104775000D01*
X114609999Y-101772003D02*
X111607002Y-104775000D01*
X114609999Y-80409999D02*
X114609999Y-101772003D01*
X114200000Y-80000000D02*
X114609999Y-80409999D01*
D30*
X90540000Y-107800000D02*
X92800000Y-107800000D01*
X88940000Y-106200000D02*
X90540000Y-107800000D01*
X88940000Y-106200000D02*
X89200000Y-106200000D01*
X92800000Y-107800000D02*
X92800000Y-109800000D01*
X91900000Y-108700000D02*
X91700000Y-108700000D01*
X92800000Y-107800000D02*
X91900000Y-108700000D01*
X89200000Y-106200000D02*
X91700000Y-108700000D01*
X91700000Y-108700000D02*
X92800000Y-109800000D01*
X92540000Y-109800000D02*
X88940000Y-106200000D01*
X92800000Y-109800000D02*
X92540000Y-109800000D01*
X94175000Y-106225000D02*
X94200000Y-106200000D01*
X92800000Y-106225000D02*
X94175000Y-106225000D01*
D29*
X100352001Y-103330001D02*
X101600000Y-102082002D01*
X94200000Y-106200000D02*
X97069999Y-103330001D01*
X97069999Y-103330001D02*
X100352001Y-103330001D01*
X114960001Y-76999999D02*
X115760000Y-76200000D01*
X114709999Y-77250001D02*
X114960001Y-76999999D01*
X112187997Y-77250001D02*
X114709999Y-77250001D01*
X101600000Y-87837998D02*
X112187997Y-77250001D01*
X101600000Y-102082002D02*
X101600000Y-87837998D01*
X117600001Y-80199999D02*
X118000000Y-79800000D01*
X116910001Y-80889999D02*
X117600001Y-80199999D01*
X116910001Y-117465001D02*
X116910001Y-80889999D01*
X120260000Y-120815000D02*
X116910001Y-117465001D01*
X140192000Y-114481998D02*
X130755001Y-105044999D01*
X140192000Y-120600000D02*
X140192000Y-114481998D01*
X130755001Y-105044999D02*
X130710002Y-105000000D01*
X126644999Y-105044999D02*
X118644999Y-105044999D01*
X118644999Y-105044999D02*
X117410011Y-103810011D01*
X117410011Y-83389989D02*
X118000000Y-82800000D01*
X117410011Y-103810011D02*
X117410011Y-83389989D01*
X118200000Y-84000000D02*
X118765685Y-84000000D01*
X118200000Y-84000000D02*
X118800000Y-84000000D01*
X133080000Y-52200000D02*
X133080000Y-66280000D01*
X133080000Y-66280000D02*
X133080000Y-66280000D01*
X125899990Y-76900010D02*
X125600000Y-77200000D01*
X125899990Y-69699990D02*
X125899990Y-76900010D01*
X125300000Y-69100000D02*
X125899990Y-69699990D01*
X118800000Y-84000000D02*
X125600000Y-77200000D01*
X125600000Y-77200000D02*
X125800000Y-77000000D01*
X141462000Y-107369120D02*
X141462000Y-120600000D01*
X133699990Y-99607110D02*
X141462000Y-107369120D01*
X131000000Y-83820000D02*
X133699990Y-86519990D01*
X133699990Y-86519990D02*
X133699990Y-99607110D01*
X118200000Y-86400000D02*
X121600000Y-86400000D01*
X126400000Y-81600000D02*
X126400000Y-68800000D01*
X121600000Y-86400000D02*
X126400000Y-81600000D01*
X126400000Y-68800000D02*
X124700000Y-67100000D01*
X129000000Y-60000000D02*
X130000000Y-60000000D01*
X130540000Y-59460000D02*
X130540000Y-52200000D01*
X130000000Y-60000000D02*
X130540000Y-59460000D01*
X129868630Y-78740000D02*
X129604315Y-79004315D01*
X131000000Y-78740000D02*
X129868630Y-78740000D01*
X129504315Y-79104315D02*
X129408630Y-79200000D01*
X129604315Y-79004315D02*
X129504315Y-79104315D01*
X121600000Y-85200000D02*
X118200000Y-85200000D01*
X127400000Y-80000000D02*
X127400000Y-86000000D01*
X125800000Y-87600000D02*
X121200000Y-87600000D01*
X127400000Y-86000000D02*
X125800000Y-87600000D01*
X118200000Y-87600000D02*
X121200000Y-87600000D01*
X121200000Y-87600000D02*
X121800000Y-87600000D01*
X127400000Y-80000000D02*
X127400000Y-78400000D01*
D31*
X99800000Y-86940000D02*
X98540000Y-86940000D01*
X98668630Y-65940000D02*
X96200000Y-63471370D01*
X99800000Y-65940000D02*
X98668630Y-65940000D01*
D29*
X124295012Y-121699990D02*
X128700010Y-117294992D01*
X121530000Y-120815000D02*
X122414990Y-121699990D01*
X122414990Y-121699990D02*
X124295012Y-121699990D01*
X128700010Y-75959990D02*
X131000000Y-73660000D01*
X128700010Y-117294992D02*
X128700010Y-75959990D01*
X128200000Y-73920000D02*
X131000000Y-71120000D01*
X124070000Y-120815000D02*
X124472882Y-120815000D01*
X128200000Y-117087882D02*
X128200000Y-115800000D01*
X124472882Y-120815000D02*
X128200000Y-117087882D01*
X128200000Y-116119315D02*
X128200000Y-115800000D01*
X128200000Y-115800000D02*
X128200000Y-73920000D01*
X125820000Y-63400000D02*
X131000000Y-68580000D01*
X112500000Y-63400000D02*
X125820000Y-63400000D01*
X112500000Y-65940000D02*
X114040000Y-64400000D01*
X114040000Y-64400000D02*
X125000000Y-64400000D01*
X125000000Y-64400000D02*
X125000000Y-64400000D01*
X126757998Y-66040000D02*
X130517998Y-69800000D01*
X115760000Y-66040000D02*
X126757998Y-66040000D01*
X130517998Y-69800000D02*
X136400000Y-69800000D01*
X136400000Y-69800000D02*
X136400000Y-69800000D01*
D31*
X140835010Y-75235010D02*
X140000000Y-74400000D01*
X140000000Y-74400000D02*
X140000000Y-77400000D01*
X141325001Y-76074999D02*
X140000000Y-77400000D01*
X145274999Y-76074999D02*
X141325001Y-76074999D01*
X147000000Y-77800000D02*
X145274999Y-76074999D01*
X147000000Y-77800000D02*
X147000000Y-73540000D01*
X145274999Y-75265001D02*
X145274999Y-76074999D01*
X147000000Y-73540000D02*
X145274999Y-75265001D01*
X141225001Y-90974999D02*
X140400000Y-91800000D01*
X145174999Y-90974999D02*
X141225001Y-90974999D01*
X147000000Y-92800000D02*
X145174999Y-90974999D01*
X141565010Y-89665010D02*
X140400000Y-88500000D01*
X147000000Y-87940000D02*
X145274990Y-89665010D01*
X145274990Y-89665010D02*
X141565010Y-89665010D01*
X140400000Y-88500000D02*
X140400000Y-91800000D01*
X147000000Y-92800000D02*
X147000000Y-87940000D01*
X147000000Y-89149998D02*
X145174999Y-90974999D01*
X147000000Y-87940000D02*
X147000000Y-89149998D01*
X141065010Y-75465010D02*
X140000000Y-74400000D01*
X145074990Y-75465010D02*
X141065010Y-75465010D01*
X147000000Y-73540000D02*
X145074990Y-75465010D01*
D32*
X142524707Y-92700000D02*
X143000000Y-92700000D01*
X140400000Y-94824707D02*
X142524707Y-92700000D01*
X140400000Y-95800000D02*
X140400000Y-94824707D01*
X142524707Y-77800000D02*
X143000000Y-77800000D01*
X141699990Y-78624717D02*
X142524707Y-77800000D01*
X141699990Y-79350010D02*
X141699990Y-78624717D01*
X140000000Y-81050000D02*
X141699990Y-79350010D01*
X140000000Y-81400000D02*
X140000000Y-81050000D01*
X141300000Y-85400000D02*
X140400000Y-84500000D01*
X143000000Y-85400000D02*
X141300000Y-85400000D01*
X142430000Y-70400000D02*
X143000000Y-70970000D01*
X140000000Y-70400000D02*
X142430000Y-70400000D01*
D30*
X86400000Y-111400000D02*
X86750000Y-111750000D01*
X86400000Y-106200000D02*
X86400000Y-111400000D01*
X108470000Y-103155000D02*
X108470000Y-101600000D01*
X108400000Y-103225000D02*
X108470000Y-103155000D01*
X95575000Y-107775000D02*
X94200000Y-107775000D01*
X87670000Y-109070000D02*
X91600000Y-113000000D01*
X87670000Y-106200000D02*
X87670000Y-109070000D01*
X91600000Y-113000000D02*
X93800000Y-113000000D01*
X93800000Y-113000000D02*
X96200000Y-110600000D01*
X96200000Y-110600000D02*
X96200000Y-108400000D01*
X96200000Y-108400000D02*
X95575000Y-107775000D01*
D29*
X144000000Y-120600000D02*
X144000000Y-109200000D01*
X144000000Y-109200000D02*
X134200000Y-99400000D01*
X134200000Y-84480000D02*
X131000000Y-81280000D01*
X134200000Y-99400000D02*
X134200000Y-84480000D01*
D33*
G36*
X119882570Y-59033000D02*
G01*
X113410000Y-59033000D01*
X113409643Y-59033001D01*
X99199643Y-59073001D01*
X99174873Y-59075511D01*
X99151069Y-59082805D01*
X99129146Y-59094602D01*
X99105602Y-59115041D01*
X97305602Y-61115041D01*
X97290841Y-61135090D01*
X97280275Y-61157633D01*
X97274310Y-61181804D01*
X97273000Y-61200000D01*
X97273000Y-63725000D01*
X97275440Y-63749776D01*
X97282667Y-63773601D01*
X97294403Y-63795557D01*
X97305044Y-63809334D01*
X98583000Y-65248254D01*
X98583000Y-66813000D01*
X97400000Y-66813000D01*
X97375224Y-66815440D01*
X97351399Y-66822667D01*
X97329443Y-66834403D01*
X97310197Y-66850197D01*
X97294403Y-66869443D01*
X97282667Y-66891399D01*
X97275440Y-66915224D01*
X97273000Y-66940000D01*
X97273000Y-83800000D01*
X97275440Y-83824776D01*
X97282667Y-83848601D01*
X97292855Y-83868183D01*
X98673000Y-86036982D01*
X98673000Y-87813000D01*
X97664297Y-87813000D01*
X95127000Y-84358373D01*
X95127000Y-59252606D01*
X98052606Y-56327000D01*
X119873429Y-56327000D01*
X119882570Y-59033000D01*
X119882570Y-59033000D01*
G37*
X119882570Y-59033000D02*
X113410000Y-59033000D01*
X113409643Y-59033001D01*
X99199643Y-59073001D01*
X99174873Y-59075511D01*
X99151069Y-59082805D01*
X99129146Y-59094602D01*
X99105602Y-59115041D01*
X97305602Y-61115041D01*
X97290841Y-61135090D01*
X97280275Y-61157633D01*
X97274310Y-61181804D01*
X97273000Y-61200000D01*
X97273000Y-63725000D01*
X97275440Y-63749776D01*
X97282667Y-63773601D01*
X97294403Y-63795557D01*
X97305044Y-63809334D01*
X98583000Y-65248254D01*
X98583000Y-66813000D01*
X97400000Y-66813000D01*
X97375224Y-66815440D01*
X97351399Y-66822667D01*
X97329443Y-66834403D01*
X97310197Y-66850197D01*
X97294403Y-66869443D01*
X97282667Y-66891399D01*
X97275440Y-66915224D01*
X97273000Y-66940000D01*
X97273000Y-83800000D01*
X97275440Y-83824776D01*
X97282667Y-83848601D01*
X97292855Y-83868183D01*
X98673000Y-86036982D01*
X98673000Y-87813000D01*
X97664297Y-87813000D01*
X95127000Y-84358373D01*
X95127000Y-59252606D01*
X98052606Y-56327000D01*
X119873429Y-56327000D01*
X119882570Y-59033000D01*
G36*
X151340001Y-141140000D02*
G01*
X85660000Y-141140000D01*
X85660000Y-133209419D01*
X85785000Y-133209419D01*
X85785000Y-133590581D01*
X85859361Y-133964419D01*
X86005225Y-134316566D01*
X86216987Y-134633491D01*
X86486509Y-134903013D01*
X86803434Y-135114775D01*
X87155581Y-135260639D01*
X87529419Y-135335000D01*
X87910581Y-135335000D01*
X88284419Y-135260639D01*
X88636566Y-135114775D01*
X88953491Y-134903013D01*
X89223013Y-134633491D01*
X89434775Y-134316566D01*
X89580639Y-133964419D01*
X89655000Y-133590581D01*
X89655000Y-133209419D01*
X89580639Y-132835581D01*
X89434775Y-132483434D01*
X89223013Y-132166509D01*
X88953491Y-131896987D01*
X88636566Y-131685225D01*
X88284419Y-131539361D01*
X87910581Y-131465000D01*
X87529419Y-131465000D01*
X87155581Y-131539361D01*
X86803434Y-131685225D01*
X86486509Y-131896987D01*
X86216987Y-132166509D01*
X86005225Y-132483434D01*
X85859361Y-132835581D01*
X85785000Y-133209419D01*
X85660000Y-133209419D01*
X85660000Y-128800000D01*
X89873000Y-128800000D01*
X89873000Y-138200000D01*
X89875440Y-138224776D01*
X89882667Y-138248601D01*
X89894403Y-138270557D01*
X89910197Y-138289803D01*
X89929443Y-138305597D01*
X89951399Y-138317333D01*
X89975224Y-138324560D01*
X90000000Y-138327000D01*
X95400000Y-138327000D01*
X95424776Y-138324560D01*
X95448601Y-138317333D01*
X95470557Y-138305597D01*
X95489803Y-138289803D01*
X95505597Y-138270557D01*
X95517333Y-138248601D01*
X95524560Y-138224776D01*
X95527000Y-138200000D01*
X95527000Y-133209419D01*
X100865000Y-133209419D01*
X100865000Y-133590581D01*
X100939361Y-133964419D01*
X101085225Y-134316566D01*
X101296987Y-134633491D01*
X101566509Y-134903013D01*
X101883434Y-135114775D01*
X102235581Y-135260639D01*
X102609419Y-135335000D01*
X102990581Y-135335000D01*
X103364419Y-135260639D01*
X103716566Y-135114775D01*
X104033491Y-134903013D01*
X104303013Y-134633491D01*
X104514775Y-134316566D01*
X104660639Y-133964419D01*
X104735000Y-133590581D01*
X104735000Y-133209419D01*
X104660639Y-132835581D01*
X104514775Y-132483434D01*
X104303013Y-132166509D01*
X104033491Y-131896987D01*
X103716566Y-131685225D01*
X103364419Y-131539361D01*
X102990581Y-131465000D01*
X102609419Y-131465000D01*
X102235581Y-131539361D01*
X101883434Y-131685225D01*
X101566509Y-131896987D01*
X101296987Y-132166509D01*
X101085225Y-132483434D01*
X100939361Y-132835581D01*
X100865000Y-133209419D01*
X95527000Y-133209419D01*
X95527000Y-129200000D01*
X104873000Y-129200000D01*
X104873000Y-138600000D01*
X104875440Y-138624776D01*
X104882667Y-138648601D01*
X104894403Y-138670557D01*
X104910197Y-138689803D01*
X104929443Y-138705597D01*
X104951399Y-138717333D01*
X104975224Y-138724560D01*
X105000000Y-138727000D01*
X110400000Y-138727000D01*
X110424776Y-138724560D01*
X110448601Y-138717333D01*
X110470557Y-138705597D01*
X110489803Y-138689803D01*
X110505597Y-138670557D01*
X110517333Y-138648601D01*
X110524560Y-138624776D01*
X110527000Y-138600000D01*
X110527000Y-136537868D01*
X110535611Y-136558657D01*
X110988136Y-137235909D01*
X111564091Y-137811864D01*
X112241343Y-138264389D01*
X112993865Y-138576094D01*
X113792738Y-138735000D01*
X114607262Y-138735000D01*
X115406135Y-138576094D01*
X116158657Y-138264389D01*
X116835909Y-137811864D01*
X117411864Y-137235909D01*
X117864389Y-136558657D01*
X118176094Y-135806135D01*
X118335000Y-135007262D01*
X118335000Y-134192738D01*
X118176094Y-133393865D01*
X117864389Y-132641343D01*
X117411864Y-131964091D01*
X116835909Y-131388136D01*
X116158657Y-130935611D01*
X115406135Y-130623906D01*
X114607262Y-130465000D01*
X113792738Y-130465000D01*
X112993865Y-130623906D01*
X112241343Y-130935611D01*
X111564091Y-131388136D01*
X110988136Y-131964091D01*
X110535611Y-132641343D01*
X110527000Y-132662132D01*
X110527000Y-129200000D01*
X110524560Y-129175224D01*
X110517333Y-129151399D01*
X110505597Y-129129443D01*
X110489803Y-129110197D01*
X110470557Y-129094403D01*
X110448601Y-129082667D01*
X110424776Y-129075440D01*
X110400000Y-129073000D01*
X105000000Y-129073000D01*
X104975224Y-129075440D01*
X104951399Y-129082667D01*
X104929443Y-129094403D01*
X104910197Y-129110197D01*
X104894403Y-129129443D01*
X104882667Y-129151399D01*
X104875440Y-129175224D01*
X104873000Y-129200000D01*
X95527000Y-129200000D01*
X95527000Y-128800000D01*
X95524560Y-128775224D01*
X95517333Y-128751399D01*
X95505597Y-128729443D01*
X95489803Y-128710197D01*
X95470557Y-128694403D01*
X95448601Y-128682667D01*
X95424776Y-128675440D01*
X95400000Y-128673000D01*
X90000000Y-128673000D01*
X89975224Y-128675440D01*
X89951399Y-128682667D01*
X89929443Y-128694403D01*
X89910197Y-128710197D01*
X89894403Y-128729443D01*
X89882667Y-128751399D01*
X89875440Y-128775224D01*
X89873000Y-128800000D01*
X85660000Y-128800000D01*
X85660000Y-128200000D01*
X117873000Y-128200000D01*
X117873000Y-132600000D01*
X117875440Y-132624776D01*
X117882667Y-132648601D01*
X117894403Y-132670557D01*
X117910197Y-132689803D01*
X117929443Y-132705597D01*
X117951399Y-132717333D01*
X117975224Y-132724560D01*
X118000000Y-132727000D01*
X127800000Y-132727000D01*
X127824776Y-132724560D01*
X127848601Y-132717333D01*
X127870557Y-132705597D01*
X127889803Y-132689803D01*
X127905597Y-132670557D01*
X127917333Y-132648601D01*
X127924560Y-132624776D01*
X127927000Y-132600000D01*
X127927000Y-128200000D01*
X137673000Y-128200000D01*
X137673000Y-132600000D01*
X137675440Y-132624776D01*
X137682667Y-132648601D01*
X137694403Y-132670557D01*
X137710197Y-132689803D01*
X137729443Y-132705597D01*
X137751399Y-132717333D01*
X137775224Y-132724560D01*
X137800000Y-132727000D01*
X147600000Y-132727000D01*
X147624776Y-132724560D01*
X147648601Y-132717333D01*
X147670557Y-132705597D01*
X147689803Y-132689803D01*
X147705597Y-132670557D01*
X147717333Y-132648601D01*
X147724560Y-132624776D01*
X147727000Y-132600000D01*
X147727000Y-128200000D01*
X147724560Y-128175224D01*
X147717333Y-128151399D01*
X147705597Y-128129443D01*
X147689803Y-128110197D01*
X147670557Y-128094403D01*
X147648601Y-128082667D01*
X147624776Y-128075440D01*
X147600000Y-128073000D01*
X137800000Y-128073000D01*
X137775224Y-128075440D01*
X137751399Y-128082667D01*
X137729443Y-128094403D01*
X137710197Y-128110197D01*
X137694403Y-128129443D01*
X137682667Y-128151399D01*
X137675440Y-128175224D01*
X137673000Y-128200000D01*
X127927000Y-128200000D01*
X127924560Y-128175224D01*
X127917333Y-128151399D01*
X127905597Y-128129443D01*
X127889803Y-128110197D01*
X127870557Y-128094403D01*
X127848601Y-128082667D01*
X127824776Y-128075440D01*
X127800000Y-128073000D01*
X118000000Y-128073000D01*
X117975224Y-128075440D01*
X117951399Y-128082667D01*
X117929443Y-128094403D01*
X117910197Y-128110197D01*
X117894403Y-128129443D01*
X117882667Y-128151399D01*
X117875440Y-128175224D01*
X117873000Y-128200000D01*
X85660000Y-128200000D01*
X85660000Y-125789428D01*
X85738698Y-125842012D01*
X86127244Y-126002953D01*
X86539721Y-126085000D01*
X86960279Y-126085000D01*
X87372756Y-126002953D01*
X87761302Y-125842012D01*
X88110983Y-125608363D01*
X88408363Y-125310983D01*
X88642012Y-124961302D01*
X88802953Y-124572756D01*
X88885000Y-124160279D01*
X88885000Y-123789721D01*
X96665000Y-123789721D01*
X96665000Y-124210279D01*
X96747047Y-124622756D01*
X96907988Y-125011302D01*
X97141637Y-125360983D01*
X97439017Y-125658363D01*
X97788698Y-125892012D01*
X98177244Y-126052953D01*
X98589721Y-126135000D01*
X99010279Y-126135000D01*
X99422756Y-126052953D01*
X99811302Y-125892012D01*
X100160983Y-125658363D01*
X100458363Y-125360983D01*
X100692012Y-125011302D01*
X100735355Y-124906662D01*
X100757988Y-124961302D01*
X100991637Y-125310983D01*
X101289017Y-125608363D01*
X101638698Y-125842012D01*
X102027244Y-126002953D01*
X102439721Y-126085000D01*
X102860279Y-126085000D01*
X103272756Y-126002953D01*
X103661302Y-125842012D01*
X104010983Y-125608363D01*
X104308363Y-125310983D01*
X104542012Y-124961302D01*
X104702953Y-124572756D01*
X104785000Y-124160279D01*
X104785000Y-123789721D01*
X112565000Y-123789721D01*
X112565000Y-124210279D01*
X112647047Y-124622756D01*
X112807988Y-125011302D01*
X113041637Y-125360983D01*
X113339017Y-125658363D01*
X113688698Y-125892012D01*
X114077244Y-126052953D01*
X114489721Y-126135000D01*
X114910279Y-126135000D01*
X115322756Y-126052953D01*
X115711302Y-125892012D01*
X116060983Y-125658363D01*
X116358363Y-125360983D01*
X116592012Y-125011302D01*
X116752953Y-124622756D01*
X116835000Y-124210279D01*
X116835000Y-123789721D01*
X116752953Y-123377244D01*
X116592012Y-122988698D01*
X116358363Y-122639017D01*
X116060983Y-122341637D01*
X115711302Y-122107988D01*
X115322756Y-121947047D01*
X114910279Y-121865000D01*
X114489721Y-121865000D01*
X114077244Y-121947047D01*
X113688698Y-122107988D01*
X113339017Y-122341637D01*
X113041637Y-122639017D01*
X112807988Y-122988698D01*
X112647047Y-123377244D01*
X112565000Y-123789721D01*
X104785000Y-123789721D01*
X104785000Y-123739721D01*
X104702953Y-123327244D01*
X104542012Y-122938698D01*
X104308363Y-122589017D01*
X104010983Y-122291637D01*
X103661302Y-122057988D01*
X103272756Y-121897047D01*
X102860279Y-121815000D01*
X102439721Y-121815000D01*
X102027244Y-121897047D01*
X101638698Y-122057988D01*
X101289017Y-122291637D01*
X100991637Y-122589017D01*
X100757988Y-122938698D01*
X100714645Y-123043338D01*
X100692012Y-122988698D01*
X100458363Y-122639017D01*
X100160983Y-122341637D01*
X99811302Y-122107988D01*
X99422756Y-121947047D01*
X99010279Y-121865000D01*
X98589721Y-121865000D01*
X98177244Y-121947047D01*
X97788698Y-122107988D01*
X97439017Y-122341637D01*
X97141637Y-122639017D01*
X96907988Y-122988698D01*
X96747047Y-123377244D01*
X96665000Y-123789721D01*
X88885000Y-123789721D01*
X88885000Y-123739721D01*
X88802953Y-123327244D01*
X88642012Y-122938698D01*
X88408363Y-122589017D01*
X88110983Y-122291637D01*
X87761302Y-122057988D01*
X87372756Y-121897047D01*
X86960279Y-121815000D01*
X86539721Y-121815000D01*
X86127244Y-121897047D01*
X85738698Y-122057988D01*
X85660000Y-122110572D01*
X85660000Y-113288756D01*
X85857118Y-113420466D01*
X86200166Y-113562561D01*
X86564344Y-113635000D01*
X86935656Y-113635000D01*
X87299834Y-113562561D01*
X87642882Y-113420466D01*
X87951618Y-113214175D01*
X88214175Y-112951618D01*
X88420466Y-112642882D01*
X88562561Y-112299834D01*
X88635000Y-111935656D01*
X88635000Y-111640131D01*
X90758009Y-113763141D01*
X90793551Y-113806449D01*
X90966377Y-113948284D01*
X91163553Y-114053676D01*
X91377501Y-114118577D01*
X91544248Y-114135000D01*
X91544257Y-114135000D01*
X91599999Y-114140490D01*
X91655741Y-114135000D01*
X93744249Y-114135000D01*
X93800000Y-114140491D01*
X93855751Y-114135000D01*
X93855752Y-114135000D01*
X94022499Y-114118577D01*
X94236447Y-114053676D01*
X94433623Y-113948284D01*
X94606449Y-113806449D01*
X94641996Y-113763136D01*
X96073000Y-112332132D01*
X96073000Y-114000000D01*
X96075440Y-114024776D01*
X96082667Y-114048601D01*
X96094403Y-114070557D01*
X96110197Y-114089803D01*
X96129443Y-114105597D01*
X96151399Y-114117333D01*
X96175224Y-114124560D01*
X96200000Y-114127000D01*
X100600000Y-114127000D01*
X100624776Y-114124560D01*
X100648601Y-114117333D01*
X100670557Y-114105597D01*
X100689803Y-114089803D01*
X100705597Y-114070557D01*
X100717333Y-114048601D01*
X100724560Y-114024776D01*
X100727000Y-114000000D01*
X100727000Y-111564344D01*
X100765000Y-111564344D01*
X100765000Y-111935656D01*
X100837439Y-112299834D01*
X100979534Y-112642882D01*
X101185825Y-112951618D01*
X101448382Y-113214175D01*
X101757118Y-113420466D01*
X102100166Y-113562561D01*
X102464344Y-113635000D01*
X102835656Y-113635000D01*
X103199834Y-113562561D01*
X103542882Y-113420466D01*
X103851618Y-113214175D01*
X104114175Y-112951618D01*
X104320466Y-112642882D01*
X104462561Y-112299834D01*
X104535000Y-111935656D01*
X104535000Y-111564344D01*
X104462561Y-111200166D01*
X104320466Y-110857118D01*
X104114175Y-110548382D01*
X103851618Y-110285825D01*
X103542882Y-110079534D01*
X103199834Y-109937439D01*
X102835656Y-109865000D01*
X102464344Y-109865000D01*
X102100166Y-109937439D01*
X101757118Y-110079534D01*
X101448382Y-110285825D01*
X101185825Y-110548382D01*
X100979534Y-110857118D01*
X100837439Y-111200166D01*
X100765000Y-111564344D01*
X100727000Y-111564344D01*
X100727000Y-109000000D01*
X100724560Y-108975224D01*
X100717333Y-108951399D01*
X100705597Y-108929443D01*
X100689803Y-108910197D01*
X100670557Y-108894403D01*
X100648601Y-108882667D01*
X100624776Y-108875440D01*
X100600000Y-108873000D01*
X97335000Y-108873000D01*
X97335000Y-108455741D01*
X97340490Y-108399999D01*
X97335000Y-108344257D01*
X97335000Y-108344248D01*
X97318577Y-108177501D01*
X97253676Y-107963553D01*
X97148284Y-107766377D01*
X97006449Y-107593551D01*
X96963135Y-107558004D01*
X96416996Y-107011865D01*
X96381449Y-106968551D01*
X96208623Y-106826716D01*
X96011447Y-106721324D01*
X95797499Y-106656423D01*
X95630752Y-106640000D01*
X95630751Y-106640000D01*
X95575000Y-106634509D01*
X95519249Y-106640000D01*
X95280199Y-106640000D01*
X95296608Y-106585908D01*
X95309879Y-106451169D01*
X95318576Y-106422499D01*
X95340490Y-106200001D01*
X95337770Y-106172387D01*
X97395156Y-104115001D01*
X100313448Y-104115001D01*
X100352001Y-104118798D01*
X100390554Y-104115001D01*
X100390562Y-104115001D01*
X100505888Y-104103642D01*
X100653861Y-104058755D01*
X100790234Y-103985863D01*
X100909765Y-103887765D01*
X100934348Y-103857811D01*
X102127817Y-102664343D01*
X102157764Y-102639766D01*
X102189377Y-102601247D01*
X102222570Y-102560801D01*
X102255862Y-102520235D01*
X102328754Y-102383862D01*
X102341145Y-102343013D01*
X102373641Y-102235890D01*
X102376514Y-102206717D01*
X102385000Y-102120563D01*
X102385000Y-102120556D01*
X102388797Y-102082003D01*
X102385000Y-102043450D01*
X102385000Y-88163155D01*
X105273000Y-85275155D01*
X105273000Y-87200000D01*
X105275440Y-87224776D01*
X105282667Y-87248601D01*
X105294403Y-87270557D01*
X105310197Y-87289803D01*
X105329443Y-87305597D01*
X105351399Y-87317333D01*
X105375224Y-87324560D01*
X105400000Y-87327000D01*
X111117825Y-87327000D01*
X111167818Y-87491808D01*
X111301068Y-87741101D01*
X111480392Y-87959608D01*
X111698899Y-88138932D01*
X111831858Y-88210000D01*
X111698899Y-88281068D01*
X111480392Y-88460392D01*
X111301068Y-88678899D01*
X111167818Y-88928192D01*
X111085764Y-89198691D01*
X111058057Y-89480000D01*
X111085764Y-89761309D01*
X111167818Y-90031808D01*
X111301068Y-90281101D01*
X111480392Y-90499608D01*
X111698899Y-90678932D01*
X111831858Y-90750000D01*
X111698899Y-90821068D01*
X111480392Y-91000392D01*
X111301068Y-91218899D01*
X111167818Y-91468192D01*
X111085764Y-91738691D01*
X111058057Y-92020000D01*
X111085764Y-92301309D01*
X111167818Y-92571808D01*
X111301068Y-92821101D01*
X111480392Y-93039608D01*
X111698899Y-93218932D01*
X111831858Y-93290000D01*
X111698899Y-93361068D01*
X111480392Y-93540392D01*
X111301068Y-93758899D01*
X111167818Y-94008192D01*
X111085764Y-94278691D01*
X111058057Y-94560000D01*
X111085764Y-94841309D01*
X111167818Y-95111808D01*
X111301068Y-95361101D01*
X111480392Y-95579608D01*
X111698899Y-95758932D01*
X111831858Y-95830000D01*
X111698899Y-95901068D01*
X111480392Y-96080392D01*
X111301068Y-96298899D01*
X111167818Y-96548192D01*
X111085764Y-96818691D01*
X111058057Y-97100000D01*
X111085764Y-97381309D01*
X111167818Y-97651808D01*
X111301068Y-97901101D01*
X111480392Y-98119608D01*
X111698899Y-98298932D01*
X111831858Y-98370000D01*
X111698899Y-98441068D01*
X111480392Y-98620392D01*
X111301068Y-98838899D01*
X111167818Y-99088192D01*
X111085764Y-99358691D01*
X111058057Y-99640000D01*
X111085764Y-99921309D01*
X111167818Y-100191808D01*
X111301068Y-100441101D01*
X111480392Y-100659608D01*
X111698899Y-100838932D01*
X111831858Y-100910000D01*
X111698899Y-100981068D01*
X111480392Y-101160392D01*
X111301068Y-101378899D01*
X111167818Y-101628192D01*
X111085764Y-101898691D01*
X111058057Y-102180000D01*
X111085764Y-102461309D01*
X111167818Y-102731808D01*
X111301068Y-102981101D01*
X111480392Y-103199608D01*
X111698899Y-103378932D01*
X111825333Y-103446512D01*
X111281845Y-103990000D01*
X110694626Y-103990000D01*
X110662115Y-103950385D01*
X110532275Y-103843829D01*
X110384142Y-103764650D01*
X110223408Y-103715892D01*
X110216194Y-103715181D01*
X110022498Y-103656424D01*
X109799999Y-103634510D01*
X109577501Y-103656424D01*
X109549230Y-103665000D01*
X109484361Y-103665000D01*
X109523676Y-103591447D01*
X109588577Y-103377499D01*
X109605000Y-103210752D01*
X109605000Y-103210751D01*
X109610491Y-103155000D01*
X109605000Y-103099249D01*
X109605000Y-102079480D01*
X109613215Y-102052399D01*
X109630000Y-101881978D01*
X109630000Y-101318021D01*
X109613215Y-101147600D01*
X109546885Y-100928940D01*
X109439171Y-100727421D01*
X109294212Y-100550788D01*
X109117578Y-100405829D01*
X108916059Y-100298115D01*
X108697399Y-100231785D01*
X108470000Y-100209388D01*
X108242600Y-100231785D01*
X108033902Y-100295093D01*
X107969180Y-100260498D01*
X107849482Y-100224188D01*
X107725000Y-100211928D01*
X106675000Y-100211928D01*
X106550518Y-100224188D01*
X106430820Y-100260498D01*
X106320506Y-100319463D01*
X106223815Y-100398815D01*
X106144463Y-100495506D01*
X106085498Y-100605820D01*
X106049188Y-100725518D01*
X106036928Y-100850000D01*
X106036928Y-102350000D01*
X106049188Y-102474482D01*
X106085498Y-102594180D01*
X106144463Y-102704494D01*
X106223815Y-102801185D01*
X106320506Y-102880537D01*
X106430820Y-102939502D01*
X106550518Y-102975812D01*
X106675000Y-102988072D01*
X107285800Y-102988072D01*
X107281423Y-103002502D01*
X107259509Y-103225000D01*
X107281423Y-103447498D01*
X107290121Y-103476173D01*
X107303392Y-103610908D01*
X107352150Y-103771642D01*
X107431329Y-103919775D01*
X107507426Y-104012500D01*
X107431329Y-104105225D01*
X107352150Y-104253358D01*
X107303392Y-104414092D01*
X107290122Y-104548826D01*
X107281423Y-104577501D01*
X107259509Y-104800000D01*
X107281423Y-105022499D01*
X107290122Y-105051174D01*
X107303392Y-105185908D01*
X107352150Y-105346642D01*
X107431329Y-105494775D01*
X107537885Y-105624615D01*
X107667725Y-105731171D01*
X107815858Y-105810350D01*
X107976592Y-105859108D01*
X107983800Y-105859818D01*
X108177501Y-105918577D01*
X108344248Y-105935000D01*
X109719249Y-105935000D01*
X109775000Y-105940491D01*
X109830751Y-105935000D01*
X109830752Y-105935000D01*
X109997499Y-105918577D01*
X110211447Y-105853676D01*
X110280402Y-105816819D01*
X110384142Y-105785350D01*
X110532275Y-105706171D01*
X110662115Y-105599615D01*
X110694626Y-105560000D01*
X111568449Y-105560000D01*
X111607002Y-105563797D01*
X111645555Y-105560000D01*
X111645563Y-105560000D01*
X111760889Y-105548641D01*
X111908862Y-105503754D01*
X112045235Y-105430862D01*
X112164766Y-105332764D01*
X112189349Y-105302810D01*
X114812980Y-102679180D01*
X114958899Y-102798932D01*
X115208192Y-102932182D01*
X115478691Y-103014236D01*
X115689508Y-103035000D01*
X115830492Y-103035000D01*
X116041309Y-103014236D01*
X116125001Y-102988848D01*
X116125001Y-109073000D01*
X112200000Y-109073000D01*
X112175224Y-109075440D01*
X112151399Y-109082667D01*
X112129443Y-109094403D01*
X112110197Y-109110197D01*
X112094403Y-109129443D01*
X112082667Y-109151399D01*
X112075440Y-109175224D01*
X112073000Y-109200000D01*
X112073000Y-114200000D01*
X112075440Y-114224776D01*
X112082667Y-114248601D01*
X112094403Y-114270557D01*
X112110197Y-114289803D01*
X112129443Y-114305597D01*
X112151399Y-114317333D01*
X112175224Y-114324560D01*
X112200000Y-114327000D01*
X116125001Y-114327000D01*
X116125001Y-117426448D01*
X116121204Y-117465001D01*
X116125001Y-117503554D01*
X116125001Y-117503561D01*
X116136360Y-117618887D01*
X116181247Y-117766860D01*
X116254139Y-117903233D01*
X116352237Y-118022765D01*
X116382191Y-118047348D01*
X119225000Y-120890158D01*
X119225000Y-120916939D01*
X119264774Y-121116898D01*
X119342795Y-121305256D01*
X119456063Y-121474774D01*
X119600226Y-121618937D01*
X119769744Y-121732205D01*
X119958102Y-121810226D01*
X120158061Y-121850000D01*
X120361939Y-121850000D01*
X120561898Y-121810226D01*
X120750256Y-121732205D01*
X120895000Y-121635490D01*
X121039744Y-121732205D01*
X121228102Y-121810226D01*
X121428061Y-121850000D01*
X121454843Y-121850000D01*
X121832643Y-122227800D01*
X121857226Y-122257754D01*
X121976757Y-122355852D01*
X122113130Y-122428744D01*
X122261103Y-122473632D01*
X122336016Y-122481010D01*
X122376429Y-122484990D01*
X122376434Y-122484990D01*
X122414990Y-122488787D01*
X122453546Y-122484990D01*
X124256459Y-122484990D01*
X124295012Y-122488787D01*
X124333565Y-122484990D01*
X124333573Y-122484990D01*
X124448899Y-122473631D01*
X124596872Y-122428744D01*
X124733245Y-122355852D01*
X124852776Y-122257754D01*
X124877359Y-122227800D01*
X129227827Y-117877333D01*
X129257774Y-117852756D01*
X129287418Y-117816636D01*
X129328268Y-117766860D01*
X129355872Y-117733225D01*
X129428764Y-117596852D01*
X129450222Y-117526115D01*
X129473652Y-117448879D01*
X129481030Y-117373966D01*
X129485010Y-117333553D01*
X129485010Y-117333548D01*
X129488807Y-117294992D01*
X129485010Y-117256436D01*
X129485010Y-96520000D01*
X129558057Y-96520000D01*
X129585764Y-96801309D01*
X129667818Y-97071808D01*
X129801068Y-97321101D01*
X129980392Y-97539608D01*
X130198899Y-97718932D01*
X130331858Y-97790000D01*
X130198899Y-97861068D01*
X129980392Y-98040392D01*
X129801068Y-98258899D01*
X129667818Y-98508192D01*
X129585764Y-98778691D01*
X129558057Y-99060000D01*
X129585764Y-99341309D01*
X129667818Y-99611808D01*
X129801068Y-99861101D01*
X129980392Y-100079608D01*
X130093482Y-100172419D01*
X130075518Y-100174188D01*
X129955820Y-100210498D01*
X129845506Y-100269463D01*
X129748815Y-100348815D01*
X129669463Y-100445506D01*
X129610498Y-100555820D01*
X129574188Y-100675518D01*
X129561928Y-100800000D01*
X129561928Y-102400000D01*
X129574188Y-102524482D01*
X129610498Y-102644180D01*
X129669463Y-102754494D01*
X129748815Y-102851185D01*
X129845506Y-102930537D01*
X129955820Y-102989502D01*
X130075518Y-103025812D01*
X130200000Y-103038072D01*
X131800000Y-103038072D01*
X131924482Y-103025812D01*
X132044180Y-102989502D01*
X132154494Y-102930537D01*
X132251185Y-102851185D01*
X132330537Y-102754494D01*
X132389502Y-102644180D01*
X132425812Y-102524482D01*
X132438072Y-102400000D01*
X132438072Y-100800000D01*
X132425812Y-100675518D01*
X132389502Y-100555820D01*
X132330537Y-100445506D01*
X132251185Y-100348815D01*
X132154494Y-100269463D01*
X132044180Y-100210498D01*
X131924482Y-100174188D01*
X131906518Y-100172419D01*
X132019608Y-100079608D01*
X132198932Y-99861101D01*
X132332182Y-99611808D01*
X132414236Y-99341309D01*
X132441943Y-99060000D01*
X132414236Y-98778691D01*
X132332182Y-98508192D01*
X132198932Y-98258899D01*
X132019608Y-98040392D01*
X131801101Y-97861068D01*
X131668142Y-97790000D01*
X131801101Y-97718932D01*
X132019608Y-97539608D01*
X132198932Y-97321101D01*
X132332182Y-97071808D01*
X132414236Y-96801309D01*
X132441943Y-96520000D01*
X132414236Y-96238691D01*
X132332182Y-95968192D01*
X132198932Y-95718899D01*
X132019608Y-95500392D01*
X131801101Y-95321068D01*
X131551808Y-95187818D01*
X131281309Y-95105764D01*
X131070492Y-95085000D01*
X130929508Y-95085000D01*
X130718691Y-95105764D01*
X130448192Y-95187818D01*
X130198899Y-95321068D01*
X129980392Y-95500392D01*
X129801068Y-95718899D01*
X129667818Y-95968192D01*
X129585764Y-96238691D01*
X129558057Y-96520000D01*
X129485010Y-96520000D01*
X129485010Y-80139315D01*
X129606254Y-80139315D01*
X129806213Y-80099541D01*
X129994571Y-80021520D01*
X130162670Y-79909200D01*
X130198899Y-79938932D01*
X130331858Y-80010000D01*
X130198899Y-80081068D01*
X129980392Y-80260392D01*
X129801068Y-80478899D01*
X129667818Y-80728192D01*
X129585764Y-80998691D01*
X129558057Y-81280000D01*
X129585764Y-81561309D01*
X129667818Y-81831808D01*
X129801068Y-82081101D01*
X129980392Y-82299608D01*
X130198899Y-82478932D01*
X130331858Y-82550000D01*
X130198899Y-82621068D01*
X129980392Y-82800392D01*
X129801068Y-83018899D01*
X129667818Y-83268192D01*
X129585764Y-83538691D01*
X129558057Y-83820000D01*
X129585764Y-84101309D01*
X129667818Y-84371808D01*
X129801068Y-84621101D01*
X129980392Y-84839608D01*
X130198899Y-85018932D01*
X130331858Y-85090000D01*
X130198899Y-85161068D01*
X129980392Y-85340392D01*
X129801068Y-85558899D01*
X129667818Y-85808192D01*
X129585764Y-86078691D01*
X129558057Y-86360000D01*
X129585764Y-86641309D01*
X129667818Y-86911808D01*
X129801068Y-87161101D01*
X129980392Y-87379608D01*
X130198899Y-87558932D01*
X130331858Y-87630000D01*
X130198899Y-87701068D01*
X129980392Y-87880392D01*
X129801068Y-88098899D01*
X129667818Y-88348192D01*
X129585764Y-88618691D01*
X129558057Y-88900000D01*
X129585764Y-89181309D01*
X129667818Y-89451808D01*
X129801068Y-89701101D01*
X129980392Y-89919608D01*
X130198899Y-90098932D01*
X130331858Y-90170000D01*
X130198899Y-90241068D01*
X129980392Y-90420392D01*
X129801068Y-90638899D01*
X129667818Y-90888192D01*
X129585764Y-91158691D01*
X129558057Y-91440000D01*
X129585764Y-91721309D01*
X129667818Y-91991808D01*
X129801068Y-92241101D01*
X129980392Y-92459608D01*
X130198899Y-92638932D01*
X130448192Y-92772182D01*
X130718691Y-92854236D01*
X130929508Y-92875000D01*
X131070492Y-92875000D01*
X131281309Y-92854236D01*
X131551808Y-92772182D01*
X131801101Y-92638932D01*
X132019608Y-92459608D01*
X132198932Y-92241101D01*
X132332182Y-91991808D01*
X132414236Y-91721309D01*
X132441943Y-91440000D01*
X132414236Y-91158691D01*
X132332182Y-90888192D01*
X132198932Y-90638899D01*
X132019608Y-90420392D01*
X131801101Y-90241068D01*
X131668142Y-90170000D01*
X131801101Y-90098932D01*
X132019608Y-89919608D01*
X132198932Y-89701101D01*
X132332182Y-89451808D01*
X132414236Y-89181309D01*
X132441943Y-88900000D01*
X132414236Y-88618691D01*
X132332182Y-88348192D01*
X132198932Y-88098899D01*
X132019608Y-87880392D01*
X131801101Y-87701068D01*
X131668142Y-87630000D01*
X131801101Y-87558932D01*
X132019608Y-87379608D01*
X132198932Y-87161101D01*
X132332182Y-86911808D01*
X132414236Y-86641309D01*
X132440858Y-86371016D01*
X132914990Y-86845148D01*
X132914991Y-99568547D01*
X132911193Y-99607110D01*
X132926349Y-99760996D01*
X132971236Y-99908969D01*
X132971237Y-99908970D01*
X133044129Y-100045343D01*
X133052762Y-100055862D01*
X133117645Y-100134922D01*
X133117649Y-100134926D01*
X133142227Y-100164874D01*
X133172175Y-100189452D01*
X140677000Y-107694277D01*
X140677000Y-113856841D01*
X131790001Y-104969842D01*
X131790001Y-104943060D01*
X131750227Y-104743101D01*
X131672206Y-104554743D01*
X131558938Y-104385225D01*
X131414775Y-104241062D01*
X131245257Y-104127794D01*
X131056899Y-104049773D01*
X130856940Y-104009999D01*
X130653062Y-104009999D01*
X130453103Y-104049773D01*
X130264745Y-104127794D01*
X130095227Y-104241062D01*
X129951064Y-104385225D01*
X129837796Y-104554743D01*
X129759775Y-104743101D01*
X129720001Y-104943060D01*
X129720001Y-105146938D01*
X129759775Y-105346897D01*
X129837796Y-105535255D01*
X129951064Y-105704773D01*
X130095227Y-105848936D01*
X130264745Y-105962204D01*
X130453103Y-106040225D01*
X130653062Y-106079999D01*
X130679844Y-106079999D01*
X139407001Y-114807157D01*
X139407000Y-119921289D01*
X139388063Y-119940226D01*
X139274795Y-120109744D01*
X139196774Y-120298102D01*
X139157000Y-120498061D01*
X139157000Y-120701939D01*
X139196774Y-120901898D01*
X139274795Y-121090256D01*
X139388063Y-121259774D01*
X139532226Y-121403937D01*
X139701744Y-121517205D01*
X139890102Y-121595226D01*
X140090061Y-121635000D01*
X140293939Y-121635000D01*
X140493898Y-121595226D01*
X140682256Y-121517205D01*
X140827000Y-121420490D01*
X140971744Y-121517205D01*
X141160102Y-121595226D01*
X141360061Y-121635000D01*
X141563939Y-121635000D01*
X141763898Y-121595226D01*
X141952256Y-121517205D01*
X142121774Y-121403937D01*
X142265937Y-121259774D01*
X142379205Y-121090256D01*
X142457226Y-120901898D01*
X142497000Y-120701939D01*
X142497000Y-120498061D01*
X142457226Y-120298102D01*
X142379205Y-120109744D01*
X142265937Y-119940226D01*
X142247000Y-119921289D01*
X142247000Y-108557158D01*
X143215001Y-109525159D01*
X143215000Y-119921289D01*
X143196063Y-119940226D01*
X143082795Y-120109744D01*
X143004774Y-120298102D01*
X142965000Y-120498061D01*
X142965000Y-120701939D01*
X143004774Y-120901898D01*
X143082795Y-121090256D01*
X143196063Y-121259774D01*
X143340226Y-121403937D01*
X143509744Y-121517205D01*
X143698102Y-121595226D01*
X143898061Y-121635000D01*
X144101939Y-121635000D01*
X144301898Y-121595226D01*
X144490256Y-121517205D01*
X144659774Y-121403937D01*
X144803937Y-121259774D01*
X144917205Y-121090256D01*
X144995226Y-120901898D01*
X145035000Y-120701939D01*
X145035000Y-120498061D01*
X144995226Y-120298102D01*
X144917205Y-120109744D01*
X144803937Y-119940226D01*
X144785000Y-119921289D01*
X144785000Y-109238556D01*
X144788797Y-109200000D01*
X144785000Y-109161444D01*
X144785000Y-109161439D01*
X144779953Y-109110197D01*
X144773642Y-109046113D01*
X144728754Y-108898140D01*
X144726315Y-108893577D01*
X144655862Y-108761767D01*
X144557764Y-108642236D01*
X144527816Y-108617658D01*
X134985000Y-99074843D01*
X134985000Y-97233854D01*
X135109744Y-97317205D01*
X135298102Y-97395226D01*
X135498061Y-97435000D01*
X135701939Y-97435000D01*
X135901898Y-97395226D01*
X136090256Y-97317205D01*
X136259774Y-97203937D01*
X136300000Y-97163711D01*
X136340226Y-97203937D01*
X136509744Y-97317205D01*
X136698102Y-97395226D01*
X136898061Y-97435000D01*
X137101939Y-97435000D01*
X137301898Y-97395226D01*
X137490256Y-97317205D01*
X137659774Y-97203937D01*
X137803937Y-97059774D01*
X137917205Y-96890256D01*
X137995226Y-96701898D01*
X138035000Y-96501939D01*
X138035000Y-96475158D01*
X138477816Y-96032342D01*
X138507763Y-96007765D01*
X138540241Y-95968192D01*
X138556449Y-95948442D01*
X138605861Y-95888234D01*
X138678753Y-95751861D01*
X138723640Y-95603888D01*
X138734999Y-95488562D01*
X138734999Y-95488555D01*
X138738796Y-95450002D01*
X138734999Y-95411449D01*
X138734999Y-78435857D01*
X138838287Y-78561714D01*
X138861928Y-78581116D01*
X138861928Y-78650000D01*
X138874188Y-78774482D01*
X138910498Y-78894180D01*
X138969463Y-79004494D01*
X139048815Y-79101185D01*
X139145506Y-79180537D01*
X139255820Y-79239502D01*
X139375518Y-79275812D01*
X139500000Y-79288072D01*
X140368927Y-79288072D01*
X140145072Y-79511928D01*
X139500000Y-79511928D01*
X139375518Y-79524188D01*
X139255820Y-79560498D01*
X139145506Y-79619463D01*
X139048815Y-79698815D01*
X138969463Y-79795506D01*
X138910498Y-79905820D01*
X138874188Y-80025518D01*
X138861928Y-80150000D01*
X138861928Y-82650000D01*
X138874188Y-82774482D01*
X138910498Y-82894180D01*
X138940335Y-82950000D01*
X138910498Y-83005820D01*
X138874188Y-83125518D01*
X138861928Y-83250000D01*
X138861928Y-85750000D01*
X138874188Y-85874482D01*
X138910498Y-85994180D01*
X138969463Y-86104494D01*
X139048815Y-86201185D01*
X139145506Y-86280537D01*
X139255820Y-86339502D01*
X139375518Y-86375812D01*
X139500000Y-86388072D01*
X141282810Y-86388072D01*
X141299999Y-86389765D01*
X141348379Y-86385000D01*
X141649258Y-86385000D01*
X141631785Y-86442600D01*
X141609388Y-86670000D01*
X141612024Y-86696762D01*
X141544180Y-86660498D01*
X141424482Y-86624188D01*
X141300000Y-86611928D01*
X139500000Y-86611928D01*
X139375518Y-86624188D01*
X139255820Y-86660498D01*
X139145506Y-86719463D01*
X139048815Y-86798815D01*
X138969463Y-86895506D01*
X138910498Y-87005820D01*
X138874188Y-87125518D01*
X138861928Y-87250000D01*
X138861928Y-87937943D01*
X138788657Y-88179485D01*
X138765000Y-88419678D01*
X138757089Y-88500000D01*
X138765000Y-88580320D01*
X138765001Y-91719671D01*
X138757089Y-91800000D01*
X138788658Y-92120516D01*
X138861928Y-92362057D01*
X138861928Y-93050000D01*
X138874188Y-93174482D01*
X138910498Y-93294180D01*
X138969463Y-93404494D01*
X139048815Y-93501185D01*
X139145506Y-93580537D01*
X139255820Y-93639502D01*
X139375518Y-93675812D01*
X139500000Y-93688072D01*
X140143635Y-93688072D01*
X139919779Y-93911928D01*
X139500000Y-93911928D01*
X139375518Y-93924188D01*
X139255820Y-93960498D01*
X139145506Y-94019463D01*
X139048815Y-94098815D01*
X138969463Y-94195506D01*
X138910498Y-94305820D01*
X138874188Y-94425518D01*
X138861928Y-94550000D01*
X138861928Y-97050000D01*
X138874188Y-97174482D01*
X138910498Y-97294180D01*
X138969463Y-97404494D01*
X139048815Y-97501185D01*
X139145506Y-97580537D01*
X139255820Y-97639502D01*
X139375518Y-97675812D01*
X139500000Y-97688072D01*
X141300000Y-97688072D01*
X141424482Y-97675812D01*
X141544180Y-97639502D01*
X141654494Y-97580537D01*
X141751185Y-97501185D01*
X141830537Y-97404494D01*
X141889502Y-97294180D01*
X141925812Y-97174482D01*
X141938072Y-97050000D01*
X141938072Y-94778718D01*
X141950788Y-94794212D01*
X142127421Y-94939171D01*
X142328940Y-95046885D01*
X142547600Y-95113215D01*
X142718021Y-95130000D01*
X143281979Y-95130000D01*
X143452400Y-95113215D01*
X143671060Y-95046885D01*
X143872579Y-94939171D01*
X144049212Y-94794212D01*
X144194171Y-94617579D01*
X144301885Y-94416060D01*
X144368215Y-94197400D01*
X144390612Y-93970000D01*
X144368215Y-93742600D01*
X144304907Y-93533902D01*
X144339502Y-93469180D01*
X144375812Y-93349482D01*
X144388072Y-93225000D01*
X144388072Y-92609999D01*
X144497761Y-92609999D01*
X145787081Y-93899320D01*
X145823958Y-93944255D01*
X145795506Y-93959463D01*
X145698815Y-94038815D01*
X145619463Y-94135506D01*
X145560498Y-94245820D01*
X145524188Y-94365518D01*
X145511928Y-94490000D01*
X145511928Y-96190000D01*
X145524188Y-96314482D01*
X145560498Y-96434180D01*
X145619463Y-96544494D01*
X145698815Y-96641185D01*
X145795506Y-96720537D01*
X145905820Y-96779502D01*
X146025518Y-96815812D01*
X146150000Y-96828072D01*
X147850000Y-96828072D01*
X147974482Y-96815812D01*
X148094180Y-96779502D01*
X148204494Y-96720537D01*
X148301185Y-96641185D01*
X148380537Y-96544494D01*
X148439502Y-96434180D01*
X148475812Y-96314482D01*
X148488072Y-96190000D01*
X148488072Y-94490000D01*
X148475812Y-94365518D01*
X148439502Y-94245820D01*
X148380537Y-94135506D01*
X148301185Y-94038815D01*
X148204494Y-93959463D01*
X148176042Y-93944255D01*
X148366031Y-93712752D01*
X148517852Y-93428715D01*
X148611343Y-93120516D01*
X148635000Y-92880322D01*
X148635000Y-92880319D01*
X148642911Y-92799999D01*
X148635000Y-92719680D01*
X148635000Y-89230318D01*
X148642911Y-89149999D01*
X148635000Y-89069679D01*
X148635000Y-88020330D01*
X148642912Y-87940000D01*
X148611343Y-87619484D01*
X148517852Y-87311285D01*
X148510826Y-87298140D01*
X148366031Y-87027248D01*
X148176042Y-86795745D01*
X148204494Y-86780537D01*
X148301185Y-86701185D01*
X148380537Y-86604494D01*
X148439502Y-86494180D01*
X148475812Y-86374482D01*
X148488072Y-86250000D01*
X148488072Y-84550000D01*
X148475812Y-84425518D01*
X148439502Y-84305820D01*
X148380537Y-84195506D01*
X148301185Y-84098815D01*
X148204494Y-84019463D01*
X148094180Y-83960498D01*
X147974482Y-83924188D01*
X147850000Y-83911928D01*
X146150000Y-83911928D01*
X146025518Y-83924188D01*
X145905820Y-83960498D01*
X145795506Y-84019463D01*
X145698815Y-84098815D01*
X145619463Y-84195506D01*
X145560498Y-84305820D01*
X145524188Y-84425518D01*
X145511928Y-84550000D01*
X145511928Y-86250000D01*
X145524188Y-86374482D01*
X145560498Y-86494180D01*
X145619463Y-86604494D01*
X145698815Y-86701185D01*
X145795506Y-86780537D01*
X145823958Y-86795745D01*
X145787085Y-86840675D01*
X144597751Y-88030010D01*
X142242249Y-88030010D01*
X141938072Y-87725834D01*
X141938072Y-87478718D01*
X141950788Y-87494212D01*
X142127421Y-87639171D01*
X142328940Y-87746885D01*
X142547600Y-87813215D01*
X142718021Y-87830000D01*
X143281979Y-87830000D01*
X143452400Y-87813215D01*
X143671060Y-87746885D01*
X143872579Y-87639171D01*
X144049212Y-87494212D01*
X144194171Y-87317579D01*
X144301885Y-87116060D01*
X144368215Y-86897400D01*
X144390612Y-86670000D01*
X144368215Y-86442600D01*
X144304907Y-86233902D01*
X144339502Y-86169180D01*
X144375812Y-86049482D01*
X144388072Y-85925000D01*
X144388072Y-84875000D01*
X144375812Y-84750518D01*
X144339502Y-84630820D01*
X144280537Y-84520506D01*
X144201185Y-84423815D01*
X144104494Y-84344463D01*
X143994180Y-84285498D01*
X143874482Y-84249188D01*
X143750000Y-84236928D01*
X142250000Y-84236928D01*
X142125518Y-84249188D01*
X142005820Y-84285498D01*
X141938072Y-84321711D01*
X141938072Y-83250000D01*
X141925812Y-83125518D01*
X141889502Y-83005820D01*
X141859665Y-82950000D01*
X141889502Y-82894180D01*
X141925812Y-82774482D01*
X141938072Y-82650000D01*
X141938072Y-80504929D01*
X142307549Y-80135452D01*
X142328940Y-80146885D01*
X142547600Y-80213215D01*
X142718021Y-80230000D01*
X143281979Y-80230000D01*
X143452400Y-80213215D01*
X143671060Y-80146885D01*
X143872579Y-80039171D01*
X144049212Y-79894212D01*
X144194171Y-79717579D01*
X144301885Y-79516060D01*
X144368215Y-79297400D01*
X144390612Y-79070000D01*
X144368215Y-78842600D01*
X144304907Y-78633902D01*
X144339502Y-78569180D01*
X144375812Y-78449482D01*
X144388072Y-78325000D01*
X144388072Y-77709999D01*
X144597761Y-77709999D01*
X145787081Y-78899320D01*
X145823958Y-78944255D01*
X145795506Y-78959463D01*
X145698815Y-79038815D01*
X145619463Y-79135506D01*
X145560498Y-79245820D01*
X145524188Y-79365518D01*
X145511928Y-79490000D01*
X145511928Y-81190000D01*
X145524188Y-81314482D01*
X145560498Y-81434180D01*
X145619463Y-81544494D01*
X145698815Y-81641185D01*
X145795506Y-81720537D01*
X145905820Y-81779502D01*
X146025518Y-81815812D01*
X146150000Y-81828072D01*
X147850000Y-81828072D01*
X147974482Y-81815812D01*
X148094180Y-81779502D01*
X148204494Y-81720537D01*
X148301185Y-81641185D01*
X148380537Y-81544494D01*
X148439502Y-81434180D01*
X148475812Y-81314482D01*
X148488072Y-81190000D01*
X148488072Y-79490000D01*
X148475812Y-79365518D01*
X148439502Y-79245820D01*
X148380537Y-79135506D01*
X148301185Y-79038815D01*
X148204494Y-78959463D01*
X148176042Y-78944255D01*
X148366031Y-78712752D01*
X148517852Y-78428715D01*
X148611343Y-78120516D01*
X148635000Y-77880322D01*
X148635000Y-77880321D01*
X148642911Y-77800000D01*
X148635000Y-77719678D01*
X148635000Y-73620322D01*
X148642911Y-73540000D01*
X148611343Y-73219484D01*
X148584563Y-73131202D01*
X148517852Y-72911285D01*
X148366031Y-72627248D01*
X148176042Y-72395745D01*
X148204494Y-72380537D01*
X148301185Y-72301185D01*
X148380537Y-72204494D01*
X148439502Y-72094180D01*
X148475812Y-71974482D01*
X148488072Y-71850000D01*
X148488072Y-70150000D01*
X148475812Y-70025518D01*
X148439502Y-69905820D01*
X148380537Y-69795506D01*
X148301185Y-69698815D01*
X148204494Y-69619463D01*
X148094180Y-69560498D01*
X147974482Y-69524188D01*
X147850000Y-69511928D01*
X146150000Y-69511928D01*
X146025518Y-69524188D01*
X145905820Y-69560498D01*
X145795506Y-69619463D01*
X145698815Y-69698815D01*
X145619463Y-69795506D01*
X145560498Y-69905820D01*
X145524188Y-70025518D01*
X145511928Y-70150000D01*
X145511928Y-71850000D01*
X145524188Y-71974482D01*
X145560498Y-72094180D01*
X145619463Y-72204494D01*
X145698815Y-72301185D01*
X145795506Y-72380537D01*
X145823958Y-72395745D01*
X145787085Y-72440676D01*
X144397752Y-73830010D01*
X141938072Y-73830010D01*
X141938072Y-73278718D01*
X141950788Y-73294212D01*
X142127421Y-73439171D01*
X142328940Y-73546885D01*
X142547600Y-73613215D01*
X142718021Y-73630000D01*
X143281979Y-73630000D01*
X143452400Y-73613215D01*
X143671060Y-73546885D01*
X143872579Y-73439171D01*
X144049212Y-73294212D01*
X144194171Y-73117579D01*
X144301885Y-72916060D01*
X144368215Y-72697400D01*
X144390612Y-72470000D01*
X144368215Y-72242600D01*
X144304907Y-72033902D01*
X144339502Y-71969180D01*
X144375812Y-71849482D01*
X144388072Y-71725000D01*
X144388072Y-70675000D01*
X144375812Y-70550518D01*
X144339502Y-70430820D01*
X144280537Y-70320506D01*
X144201185Y-70223815D01*
X144104494Y-70144463D01*
X143994180Y-70085498D01*
X143874482Y-70049188D01*
X143750000Y-70036928D01*
X143459928Y-70036928D01*
X143160716Y-69737716D01*
X143129870Y-69700130D01*
X142979884Y-69577040D01*
X142808767Y-69485576D01*
X142623094Y-69429253D01*
X142478380Y-69415000D01*
X142430000Y-69410235D01*
X142381620Y-69415000D01*
X141938072Y-69415000D01*
X141938072Y-69150000D01*
X141925812Y-69025518D01*
X141889502Y-68905820D01*
X141830537Y-68795506D01*
X141751185Y-68698815D01*
X141654494Y-68619463D01*
X141544180Y-68560498D01*
X141424482Y-68524188D01*
X141300000Y-68511928D01*
X139500000Y-68511928D01*
X139375518Y-68524188D01*
X139255820Y-68560498D01*
X139145506Y-68619463D01*
X139048815Y-68698815D01*
X138969463Y-68795506D01*
X138910498Y-68905820D01*
X138874188Y-69025518D01*
X138861928Y-69150000D01*
X138861928Y-71650000D01*
X138874188Y-71774482D01*
X138910498Y-71894180D01*
X138969463Y-72004494D01*
X139048815Y-72101185D01*
X139145506Y-72180537D01*
X139255820Y-72239502D01*
X139375518Y-72275812D01*
X139500000Y-72288072D01*
X141300000Y-72288072D01*
X141424482Y-72275812D01*
X141544180Y-72239502D01*
X141649860Y-72183014D01*
X141631785Y-72242600D01*
X141609388Y-72470000D01*
X141622420Y-72602319D01*
X141544180Y-72560498D01*
X141424482Y-72524188D01*
X141300000Y-72511928D01*
X139500000Y-72511928D01*
X139375518Y-72524188D01*
X139255820Y-72560498D01*
X139145506Y-72619463D01*
X139048815Y-72698815D01*
X138969463Y-72795506D01*
X138910498Y-72905820D01*
X138874188Y-73025518D01*
X138861928Y-73150000D01*
X138861928Y-73218884D01*
X138838286Y-73238286D01*
X138734999Y-73364143D01*
X138734999Y-63792738D01*
X140465000Y-63792738D01*
X140465000Y-64607262D01*
X140623906Y-65406135D01*
X140935611Y-66158657D01*
X141388136Y-66835909D01*
X141964091Y-67411864D01*
X142641343Y-67864389D01*
X143393865Y-68176094D01*
X144192738Y-68335000D01*
X145007262Y-68335000D01*
X145806135Y-68176094D01*
X146558657Y-67864389D01*
X147235909Y-67411864D01*
X147811864Y-66835909D01*
X148264389Y-66158657D01*
X148576094Y-65406135D01*
X148735000Y-64607262D01*
X148735000Y-63792738D01*
X148576094Y-62993865D01*
X148264389Y-62241343D01*
X147811864Y-61564091D01*
X147235909Y-60988136D01*
X146558657Y-60535611D01*
X145806135Y-60223906D01*
X145007262Y-60065000D01*
X144192738Y-60065000D01*
X143393865Y-60223906D01*
X142641343Y-60535611D01*
X141964091Y-60988136D01*
X141388136Y-61564091D01*
X140935611Y-62241343D01*
X140623906Y-62993865D01*
X140465000Y-63792738D01*
X138734999Y-63792738D01*
X138734999Y-58195158D01*
X143581132Y-53349026D01*
X143628889Y-53363513D01*
X143847050Y-53385000D01*
X143992950Y-53385000D01*
X144211111Y-53363513D01*
X144331478Y-53327000D01*
X146048522Y-53327000D01*
X146168889Y-53363513D01*
X146387050Y-53385000D01*
X146532950Y-53385000D01*
X146751111Y-53363513D01*
X146871478Y-53327000D01*
X148588522Y-53327000D01*
X148708889Y-53363513D01*
X148927050Y-53385000D01*
X149072950Y-53385000D01*
X149291111Y-53363513D01*
X149411478Y-53327000D01*
X150200000Y-53327000D01*
X150224776Y-53324560D01*
X150248601Y-53317333D01*
X150270557Y-53305597D01*
X150289803Y-53289803D01*
X150305597Y-53270557D01*
X150317333Y-53248601D01*
X150324560Y-53224776D01*
X150327000Y-53200000D01*
X150327000Y-52567569D01*
X150378599Y-52471034D01*
X150463513Y-52191111D01*
X150492185Y-51900000D01*
X150463513Y-51608889D01*
X150378599Y-51328966D01*
X150327000Y-51232431D01*
X150327000Y-48257481D01*
X150337000Y-48155949D01*
X150337000Y-47760050D01*
X150327000Y-47658518D01*
X150327000Y-46400000D01*
X150324560Y-46375224D01*
X150317333Y-46351399D01*
X150305597Y-46329443D01*
X150289803Y-46310197D01*
X150270557Y-46294403D01*
X150248601Y-46282667D01*
X150224776Y-46275440D01*
X150200000Y-46273000D01*
X142600000Y-46273000D01*
X142575224Y-46275440D01*
X142551399Y-46282667D01*
X142529443Y-46294403D01*
X142510197Y-46310197D01*
X142494403Y-46329443D01*
X142482667Y-46351399D01*
X142475440Y-46375224D01*
X142473000Y-46400000D01*
X142473000Y-47263289D01*
X142388487Y-47541890D01*
X142367000Y-47760051D01*
X142367000Y-48155950D01*
X142388487Y-48374111D01*
X142473000Y-48652712D01*
X142473000Y-49914999D01*
X140288551Y-49914999D01*
X140249998Y-49911202D01*
X140211445Y-49914999D01*
X140211438Y-49914999D01*
X140110489Y-49924942D01*
X140096111Y-49926358D01*
X139948139Y-49971245D01*
X139811766Y-50044137D01*
X139751558Y-50093549D01*
X139722186Y-50117654D01*
X139722183Y-50117657D01*
X139692235Y-50142235D01*
X139667657Y-50172183D01*
X137127000Y-52712841D01*
X137127000Y-46400000D01*
X137124560Y-46375224D01*
X137117333Y-46351399D01*
X137105597Y-46329443D01*
X137089803Y-46310197D01*
X137070557Y-46294403D01*
X137048601Y-46282667D01*
X137024776Y-46275440D01*
X137000000Y-46273000D01*
X129400000Y-46273000D01*
X129375224Y-46275440D01*
X129351399Y-46282667D01*
X129329443Y-46294403D01*
X129310197Y-46310197D01*
X129294403Y-46329443D01*
X129282667Y-46351399D01*
X129275440Y-46375224D01*
X129273000Y-46400000D01*
X129273000Y-47146723D01*
X129211401Y-47261967D01*
X129126487Y-47541890D01*
X129105000Y-47760051D01*
X129105000Y-48155950D01*
X129126487Y-48374111D01*
X129211401Y-48654034D01*
X129273000Y-48769278D01*
X129273000Y-51420179D01*
X129161401Y-51628966D01*
X129076487Y-51908889D01*
X129047815Y-52200000D01*
X129076487Y-52491111D01*
X129161401Y-52771034D01*
X129273000Y-52979821D01*
X129273000Y-53200000D01*
X129275440Y-53224776D01*
X129282667Y-53248601D01*
X129294403Y-53270557D01*
X129310197Y-53289803D01*
X129329443Y-53305597D01*
X129351399Y-53317333D01*
X129375224Y-53324560D01*
X129400000Y-53327000D01*
X129572435Y-53327000D01*
X129710986Y-53440706D01*
X129755001Y-53464232D01*
X129755000Y-59134842D01*
X129676777Y-59213066D01*
X129659774Y-59196063D01*
X129490256Y-59082795D01*
X129301898Y-59004774D01*
X129101939Y-58965000D01*
X128898061Y-58965000D01*
X128698102Y-59004774D01*
X128509744Y-59082795D01*
X128340226Y-59196063D01*
X128196063Y-59340226D01*
X128082795Y-59509744D01*
X128004774Y-59698102D01*
X127965000Y-59898061D01*
X127965000Y-60101939D01*
X128004774Y-60301898D01*
X128082795Y-60490256D01*
X128196063Y-60659774D01*
X128340226Y-60803937D01*
X128509744Y-60917205D01*
X128698102Y-60995226D01*
X128898061Y-61035000D01*
X129101939Y-61035000D01*
X129301898Y-60995226D01*
X129490256Y-60917205D01*
X129659774Y-60803937D01*
X129678711Y-60785000D01*
X129961447Y-60785000D01*
X130000000Y-60788797D01*
X130038553Y-60785000D01*
X130038561Y-60785000D01*
X130153887Y-60773641D01*
X130301860Y-60728754D01*
X130438233Y-60655862D01*
X130557764Y-60557764D01*
X130582346Y-60527811D01*
X131067816Y-60042342D01*
X131097764Y-60017764D01*
X131195862Y-59898233D01*
X131268754Y-59761860D01*
X131303194Y-59648328D01*
X131313641Y-59613888D01*
X131318774Y-59561768D01*
X131325000Y-59498561D01*
X131325000Y-59498554D01*
X131328797Y-59460001D01*
X131325000Y-59421448D01*
X131325000Y-53464232D01*
X131369014Y-53440706D01*
X131507565Y-53327000D01*
X132112435Y-53327000D01*
X132250986Y-53440706D01*
X132295000Y-53464232D01*
X132295001Y-65418631D01*
X132198932Y-65238899D01*
X132019608Y-65020392D01*
X131801101Y-64841068D01*
X131551808Y-64707818D01*
X131281309Y-64625764D01*
X131070492Y-64605000D01*
X130929508Y-64605000D01*
X130718691Y-64625764D01*
X130448192Y-64707818D01*
X130198899Y-64841068D01*
X129980392Y-65020392D01*
X129801068Y-65238899D01*
X129667818Y-65488192D01*
X129585764Y-65758691D01*
X129559142Y-66028984D01*
X126402347Y-62872190D01*
X126377764Y-62842236D01*
X126258233Y-62744138D01*
X126121860Y-62671246D01*
X125973887Y-62626359D01*
X125858561Y-62615000D01*
X125858553Y-62615000D01*
X125820000Y-62611203D01*
X125781447Y-62615000D01*
X113707538Y-62615000D01*
X113698932Y-62598899D01*
X113519608Y-62380392D01*
X113301101Y-62201068D01*
X113051808Y-62067818D01*
X112781309Y-61985764D01*
X112570492Y-61965000D01*
X112429508Y-61965000D01*
X112218691Y-61985764D01*
X111948192Y-62067818D01*
X111698899Y-62201068D01*
X111480392Y-62380392D01*
X111301068Y-62598899D01*
X111167818Y-62848192D01*
X111085764Y-63118691D01*
X111058057Y-63400000D01*
X111085764Y-63681309D01*
X111167818Y-63951808D01*
X111301068Y-64201101D01*
X111480392Y-64419608D01*
X111698899Y-64598932D01*
X111831858Y-64670000D01*
X111698899Y-64741068D01*
X111480392Y-64920392D01*
X111301068Y-65138899D01*
X111167818Y-65388192D01*
X111085764Y-65658691D01*
X111058057Y-65940000D01*
X111085764Y-66221309D01*
X111167818Y-66491808D01*
X111301068Y-66741101D01*
X111480392Y-66959608D01*
X111698899Y-67138932D01*
X111831858Y-67210000D01*
X111698899Y-67281068D01*
X111480392Y-67460392D01*
X111301068Y-67678899D01*
X111167818Y-67928192D01*
X111085764Y-68198691D01*
X111058057Y-68480000D01*
X111085764Y-68761309D01*
X111167818Y-69031808D01*
X111301068Y-69281101D01*
X111480392Y-69499608D01*
X111698899Y-69678932D01*
X111831858Y-69750000D01*
X111698899Y-69821068D01*
X111480392Y-70000392D01*
X111301068Y-70218899D01*
X111167818Y-70468192D01*
X111085764Y-70738691D01*
X111058057Y-71020000D01*
X111085764Y-71301309D01*
X111167818Y-71571808D01*
X111301068Y-71821101D01*
X111480392Y-72039608D01*
X111698899Y-72218932D01*
X111831858Y-72290000D01*
X111698899Y-72361068D01*
X111480392Y-72540392D01*
X111301068Y-72758899D01*
X111167818Y-73008192D01*
X111085764Y-73278691D01*
X111058057Y-73560000D01*
X111085764Y-73841309D01*
X111167818Y-74111808D01*
X111301068Y-74361101D01*
X111480392Y-74579608D01*
X111698899Y-74758932D01*
X111831858Y-74830000D01*
X111698899Y-74901068D01*
X111480392Y-75080392D01*
X111301068Y-75298899D01*
X111167818Y-75548192D01*
X111085764Y-75818691D01*
X111060716Y-76073000D01*
X105400000Y-76073000D01*
X105375224Y-76075440D01*
X105351399Y-76082667D01*
X105329443Y-76094403D01*
X105310197Y-76110197D01*
X105294403Y-76129443D01*
X105282667Y-76151399D01*
X105275440Y-76175224D01*
X105273000Y-76200000D01*
X105273000Y-83054841D01*
X101437973Y-86889868D01*
X101411343Y-86619484D01*
X101317852Y-86311285D01*
X101166031Y-86027248D01*
X100961714Y-85778286D01*
X100712752Y-85573969D01*
X100428715Y-85422148D01*
X100120516Y-85328657D01*
X99880322Y-85305000D01*
X99007867Y-85305000D01*
X98327000Y-83773049D01*
X98327000Y-81180000D01*
X98358057Y-81180000D01*
X98385764Y-81461309D01*
X98467818Y-81731808D01*
X98601068Y-81981101D01*
X98780392Y-82199608D01*
X98998899Y-82378932D01*
X99248192Y-82512182D01*
X99518691Y-82594236D01*
X99729508Y-82615000D01*
X99870492Y-82615000D01*
X100081309Y-82594236D01*
X100351808Y-82512182D01*
X100601101Y-82378932D01*
X100819608Y-82199608D01*
X100998932Y-81981101D01*
X101132182Y-81731808D01*
X101214236Y-81461309D01*
X101241943Y-81180000D01*
X101214236Y-80898691D01*
X101132182Y-80628192D01*
X100998932Y-80378899D01*
X100819608Y-80160392D01*
X100601101Y-79981068D01*
X100351808Y-79847818D01*
X100081309Y-79765764D01*
X99870492Y-79745000D01*
X99729508Y-79745000D01*
X99518691Y-79765764D01*
X99248192Y-79847818D01*
X98998899Y-79981068D01*
X98780392Y-80160392D01*
X98601068Y-80378899D01*
X98467818Y-80628192D01*
X98385764Y-80898691D01*
X98358057Y-81180000D01*
X98327000Y-81180000D01*
X98327000Y-67706819D01*
X98619969Y-67655868D01*
X98601068Y-67678899D01*
X98467818Y-67928192D01*
X98385764Y-68198691D01*
X98358057Y-68480000D01*
X98385764Y-68761309D01*
X98467818Y-69031808D01*
X98601068Y-69281101D01*
X98780392Y-69499608D01*
X98998899Y-69678932D01*
X99131858Y-69750000D01*
X98998899Y-69821068D01*
X98780392Y-70000392D01*
X98601068Y-70218899D01*
X98467818Y-70468192D01*
X98385764Y-70738691D01*
X98358057Y-71020000D01*
X98385764Y-71301309D01*
X98467818Y-71571808D01*
X98601068Y-71821101D01*
X98780392Y-72039608D01*
X98998899Y-72218932D01*
X99131858Y-72290000D01*
X98998899Y-72361068D01*
X98780392Y-72540392D01*
X98601068Y-72758899D01*
X98467818Y-73008192D01*
X98385764Y-73278691D01*
X98358057Y-73560000D01*
X98385764Y-73841309D01*
X98467818Y-74111808D01*
X98601068Y-74361101D01*
X98780392Y-74579608D01*
X98998899Y-74758932D01*
X99131858Y-74830000D01*
X98998899Y-74901068D01*
X98780392Y-75080392D01*
X98601068Y-75298899D01*
X98467818Y-75548192D01*
X98385764Y-75818691D01*
X98358057Y-76100000D01*
X98385764Y-76381309D01*
X98467818Y-76651808D01*
X98601068Y-76901101D01*
X98780392Y-77119608D01*
X98998899Y-77298932D01*
X99248192Y-77432182D01*
X99518691Y-77514236D01*
X99729508Y-77535000D01*
X99870492Y-77535000D01*
X100081309Y-77514236D01*
X100351808Y-77432182D01*
X100601101Y-77298932D01*
X100819608Y-77119608D01*
X100998932Y-76901101D01*
X101132182Y-76651808D01*
X101214236Y-76381309D01*
X101241943Y-76100000D01*
X101214236Y-75818691D01*
X101132182Y-75548192D01*
X100998932Y-75298899D01*
X100819608Y-75080392D01*
X100601101Y-74901068D01*
X100468142Y-74830000D01*
X100601101Y-74758932D01*
X100819608Y-74579608D01*
X100998932Y-74361101D01*
X101132182Y-74111808D01*
X101214236Y-73841309D01*
X101241943Y-73560000D01*
X101214236Y-73278691D01*
X101132182Y-73008192D01*
X100998932Y-72758899D01*
X100819608Y-72540392D01*
X100601101Y-72361068D01*
X100468142Y-72290000D01*
X100601101Y-72218932D01*
X100819608Y-72039608D01*
X100998932Y-71821101D01*
X101132182Y-71571808D01*
X101214236Y-71301309D01*
X101241943Y-71020000D01*
X101214236Y-70738691D01*
X101132182Y-70468192D01*
X100998932Y-70218899D01*
X100819608Y-70000392D01*
X100601101Y-69821068D01*
X100468142Y-69750000D01*
X100601101Y-69678932D01*
X100819608Y-69499608D01*
X100998932Y-69281101D01*
X101132182Y-69031808D01*
X101214236Y-68761309D01*
X101241943Y-68480000D01*
X101214236Y-68198691D01*
X101132182Y-67928192D01*
X100998932Y-67678899D01*
X100819608Y-67460392D01*
X100663558Y-67332326D01*
X100712752Y-67306031D01*
X100961714Y-67101714D01*
X101166031Y-66852752D01*
X101317852Y-66568715D01*
X101411343Y-66260516D01*
X101442911Y-65940000D01*
X101411343Y-65619484D01*
X101317852Y-65311285D01*
X101166031Y-65027248D01*
X101127167Y-64979892D01*
X101120483Y-64959839D01*
X101110333Y-64937106D01*
X101095943Y-64916789D01*
X101075336Y-64897758D01*
X101035937Y-64868727D01*
X100961714Y-64778286D01*
X100712752Y-64573969D01*
X100432904Y-64424387D01*
X100125336Y-64197758D01*
X100103942Y-64185025D01*
X100080475Y-64176711D01*
X100061002Y-64173477D01*
X99133712Y-64092844D01*
X98127000Y-63086132D01*
X98127000Y-61252606D01*
X99453102Y-59926504D01*
X120601198Y-59726994D01*
X120625950Y-59724320D01*
X120649705Y-59716869D01*
X120671550Y-59704926D01*
X120690646Y-59688951D01*
X120706258Y-59669558D01*
X120717786Y-59647492D01*
X120724788Y-59623600D01*
X120727000Y-59600000D01*
X120727000Y-55600000D01*
X120724560Y-55575224D01*
X120717333Y-55551399D01*
X120705597Y-55529443D01*
X120689803Y-55510197D01*
X120670557Y-55494403D01*
X120648601Y-55482667D01*
X120624776Y-55475440D01*
X120600000Y-55473000D01*
X97800000Y-55473000D01*
X97775224Y-55475440D01*
X97751399Y-55482667D01*
X97729443Y-55494403D01*
X97710197Y-55510197D01*
X94310197Y-58910197D01*
X94294403Y-58929443D01*
X94282667Y-58951399D01*
X94275440Y-58975224D01*
X94273004Y-59000984D01*
X94296818Y-62073000D01*
X89000000Y-62073000D01*
X88975224Y-62075440D01*
X88951399Y-62082667D01*
X88929443Y-62094403D01*
X88910197Y-62110197D01*
X88894403Y-62129443D01*
X88882667Y-62151399D01*
X88875440Y-62175224D01*
X88873000Y-62200000D01*
X88873000Y-103400000D01*
X88875440Y-103424776D01*
X88882667Y-103448601D01*
X88894403Y-103470557D01*
X88910197Y-103489803D01*
X88929443Y-103505597D01*
X88951399Y-103517333D01*
X88975224Y-103524560D01*
X89000000Y-103527000D01*
X94800000Y-103527000D01*
X94824776Y-103524560D01*
X94848601Y-103517333D01*
X94870557Y-103505597D01*
X94889803Y-103489803D01*
X94905597Y-103470557D01*
X94917333Y-103448601D01*
X94924560Y-103424776D01*
X94927000Y-103400000D01*
X94927000Y-85427289D01*
X97299752Y-88477970D01*
X97316890Y-88496030D01*
X97337221Y-88510398D01*
X97359965Y-88520525D01*
X97384248Y-88526019D01*
X97400000Y-88527000D01*
X98139236Y-88527000D01*
X98219484Y-88551343D01*
X98459678Y-88575000D01*
X98686336Y-88575000D01*
X98601068Y-88678899D01*
X98467818Y-88928192D01*
X98385764Y-89198691D01*
X98358057Y-89480000D01*
X98385764Y-89761309D01*
X98467818Y-90031808D01*
X98601068Y-90281101D01*
X98780392Y-90499608D01*
X98998899Y-90678932D01*
X99131858Y-90750000D01*
X98998899Y-90821068D01*
X98780392Y-91000392D01*
X98601068Y-91218899D01*
X98467818Y-91468192D01*
X98385764Y-91738691D01*
X98358057Y-92020000D01*
X98385764Y-92301309D01*
X98467818Y-92571808D01*
X98601068Y-92821101D01*
X98780392Y-93039608D01*
X98998899Y-93218932D01*
X99131858Y-93290000D01*
X98998899Y-93361068D01*
X98780392Y-93540392D01*
X98601068Y-93758899D01*
X98467818Y-94008192D01*
X98385764Y-94278691D01*
X98358057Y-94560000D01*
X98385764Y-94841309D01*
X98467818Y-95111808D01*
X98601068Y-95361101D01*
X98780392Y-95579608D01*
X98998899Y-95758932D01*
X99131858Y-95830000D01*
X98998899Y-95901068D01*
X98780392Y-96080392D01*
X98601068Y-96298899D01*
X98467818Y-96548192D01*
X98385764Y-96818691D01*
X98358057Y-97100000D01*
X98385764Y-97381309D01*
X98467818Y-97651808D01*
X98601068Y-97901101D01*
X98780392Y-98119608D01*
X98998899Y-98298932D01*
X99248192Y-98432182D01*
X99518691Y-98514236D01*
X99729508Y-98535000D01*
X99870492Y-98535000D01*
X100081309Y-98514236D01*
X100351808Y-98432182D01*
X100601101Y-98298932D01*
X100815000Y-98123389D01*
X100815000Y-101156610D01*
X100601101Y-100981068D01*
X100351808Y-100847818D01*
X100081309Y-100765764D01*
X99870492Y-100745000D01*
X99729508Y-100745000D01*
X99518691Y-100765764D01*
X99248192Y-100847818D01*
X98998899Y-100981068D01*
X98780392Y-101160392D01*
X98601068Y-101378899D01*
X98467818Y-101628192D01*
X98385764Y-101898691D01*
X98358057Y-102180000D01*
X98385764Y-102461309D01*
X98411151Y-102545001D01*
X97108555Y-102545001D01*
X97069999Y-102541204D01*
X97031443Y-102545001D01*
X97031438Y-102545001D01*
X96991025Y-102548981D01*
X96916112Y-102556359D01*
X96768139Y-102601247D01*
X96631766Y-102674139D01*
X96512235Y-102772237D01*
X96487654Y-102802189D01*
X94227613Y-105062230D01*
X94199999Y-105059510D01*
X93977501Y-105081424D01*
X93949230Y-105090000D01*
X92744248Y-105090000D01*
X92577501Y-105106423D01*
X92383800Y-105165182D01*
X92376592Y-105165892D01*
X92215858Y-105214650D01*
X92067725Y-105293829D01*
X91937885Y-105400385D01*
X91831329Y-105530225D01*
X91752150Y-105678358D01*
X91703392Y-105839092D01*
X91690122Y-105973826D01*
X91681423Y-106002501D01*
X91659509Y-106225000D01*
X91681423Y-106447499D01*
X91690122Y-106476174D01*
X91703392Y-106610908D01*
X91752150Y-106771642D01*
X91831329Y-106919775D01*
X91937885Y-107049615D01*
X92067725Y-107156171D01*
X92215858Y-107235350D01*
X92376592Y-107284108D01*
X92383800Y-107284818D01*
X92577501Y-107343577D01*
X92744248Y-107360000D01*
X93112217Y-107360000D01*
X93103392Y-107389092D01*
X93090122Y-107523826D01*
X93081423Y-107552501D01*
X93059509Y-107775000D01*
X93081423Y-107997499D01*
X93090122Y-108026174D01*
X93103392Y-108160908D01*
X93152150Y-108321642D01*
X93231329Y-108469775D01*
X93337885Y-108599615D01*
X93467725Y-108706171D01*
X93615858Y-108785350D01*
X93776592Y-108834108D01*
X93783800Y-108834818D01*
X93977501Y-108893577D01*
X94144248Y-108910000D01*
X95065001Y-108910000D01*
X95065000Y-110129867D01*
X93329869Y-111865000D01*
X92070132Y-111865000D01*
X88805000Y-108599869D01*
X88805000Y-106679480D01*
X88813215Y-106652399D01*
X88830000Y-106481978D01*
X88830000Y-105918021D01*
X88813215Y-105747600D01*
X88746885Y-105528940D01*
X88639171Y-105327421D01*
X88494212Y-105150788D01*
X88317578Y-105005829D01*
X88116059Y-104898115D01*
X87897399Y-104831785D01*
X87670000Y-104809388D01*
X87442600Y-104831785D01*
X87233902Y-104895093D01*
X87169180Y-104860498D01*
X87049482Y-104824188D01*
X86925000Y-104811928D01*
X85875000Y-104811928D01*
X85750518Y-104824188D01*
X85660000Y-104851646D01*
X85660000Y-49400000D01*
X92073000Y-49400000D01*
X92073000Y-54600000D01*
X92075440Y-54624776D01*
X92082667Y-54648601D01*
X92094403Y-54670557D01*
X92110197Y-54689803D01*
X92129443Y-54705597D01*
X92151399Y-54717333D01*
X92175224Y-54724560D01*
X92200000Y-54727000D01*
X98000000Y-54727000D01*
X98024776Y-54724560D01*
X98048601Y-54717333D01*
X98070557Y-54705597D01*
X98089803Y-54689803D01*
X98105597Y-54670557D01*
X98117333Y-54648601D01*
X98124560Y-54624776D01*
X98127000Y-54600000D01*
X98127000Y-49400000D01*
X98124560Y-49375224D01*
X98117333Y-49351399D01*
X98105597Y-49329443D01*
X98089803Y-49310197D01*
X98070557Y-49294403D01*
X98048601Y-49282667D01*
X98024776Y-49275440D01*
X98000000Y-49273000D01*
X92200000Y-49273000D01*
X92175224Y-49275440D01*
X92151399Y-49282667D01*
X92129443Y-49294403D01*
X92110197Y-49310197D01*
X92094403Y-49329443D01*
X92082667Y-49351399D01*
X92075440Y-49375224D01*
X92073000Y-49400000D01*
X85660000Y-49400000D01*
X85660000Y-44460000D01*
X151340000Y-44460000D01*
X151340001Y-141140000D01*
X151340001Y-141140000D01*
G37*
X151340001Y-141140000D02*
X85660000Y-141140000D01*
X85660000Y-133209419D01*
X85785000Y-133209419D01*
X85785000Y-133590581D01*
X85859361Y-133964419D01*
X86005225Y-134316566D01*
X86216987Y-134633491D01*
X86486509Y-134903013D01*
X86803434Y-135114775D01*
X87155581Y-135260639D01*
X87529419Y-135335000D01*
X87910581Y-135335000D01*
X88284419Y-135260639D01*
X88636566Y-135114775D01*
X88953491Y-134903013D01*
X89223013Y-134633491D01*
X89434775Y-134316566D01*
X89580639Y-133964419D01*
X89655000Y-133590581D01*
X89655000Y-133209419D01*
X89580639Y-132835581D01*
X89434775Y-132483434D01*
X89223013Y-132166509D01*
X88953491Y-131896987D01*
X88636566Y-131685225D01*
X88284419Y-131539361D01*
X87910581Y-131465000D01*
X87529419Y-131465000D01*
X87155581Y-131539361D01*
X86803434Y-131685225D01*
X86486509Y-131896987D01*
X86216987Y-132166509D01*
X86005225Y-132483434D01*
X85859361Y-132835581D01*
X85785000Y-133209419D01*
X85660000Y-133209419D01*
X85660000Y-128800000D01*
X89873000Y-128800000D01*
X89873000Y-138200000D01*
X89875440Y-138224776D01*
X89882667Y-138248601D01*
X89894403Y-138270557D01*
X89910197Y-138289803D01*
X89929443Y-138305597D01*
X89951399Y-138317333D01*
X89975224Y-138324560D01*
X90000000Y-138327000D01*
X95400000Y-138327000D01*
X95424776Y-138324560D01*
X95448601Y-138317333D01*
X95470557Y-138305597D01*
X95489803Y-138289803D01*
X95505597Y-138270557D01*
X95517333Y-138248601D01*
X95524560Y-138224776D01*
X95527000Y-138200000D01*
X95527000Y-133209419D01*
X100865000Y-133209419D01*
X100865000Y-133590581D01*
X100939361Y-133964419D01*
X101085225Y-134316566D01*
X101296987Y-134633491D01*
X101566509Y-134903013D01*
X101883434Y-135114775D01*
X102235581Y-135260639D01*
X102609419Y-135335000D01*
X102990581Y-135335000D01*
X103364419Y-135260639D01*
X103716566Y-135114775D01*
X104033491Y-134903013D01*
X104303013Y-134633491D01*
X104514775Y-134316566D01*
X104660639Y-133964419D01*
X104735000Y-133590581D01*
X104735000Y-133209419D01*
X104660639Y-132835581D01*
X104514775Y-132483434D01*
X104303013Y-132166509D01*
X104033491Y-131896987D01*
X103716566Y-131685225D01*
X103364419Y-131539361D01*
X102990581Y-131465000D01*
X102609419Y-131465000D01*
X102235581Y-131539361D01*
X101883434Y-131685225D01*
X101566509Y-131896987D01*
X101296987Y-132166509D01*
X101085225Y-132483434D01*
X100939361Y-132835581D01*
X100865000Y-133209419D01*
X95527000Y-133209419D01*
X95527000Y-129200000D01*
X104873000Y-129200000D01*
X104873000Y-138600000D01*
X104875440Y-138624776D01*
X104882667Y-138648601D01*
X104894403Y-138670557D01*
X104910197Y-138689803D01*
X104929443Y-138705597D01*
X104951399Y-138717333D01*
X104975224Y-138724560D01*
X105000000Y-138727000D01*
X110400000Y-138727000D01*
X110424776Y-138724560D01*
X110448601Y-138717333D01*
X110470557Y-138705597D01*
X110489803Y-138689803D01*
X110505597Y-138670557D01*
X110517333Y-138648601D01*
X110524560Y-138624776D01*
X110527000Y-138600000D01*
X110527000Y-136537868D01*
X110535611Y-136558657D01*
X110988136Y-137235909D01*
X111564091Y-137811864D01*
X112241343Y-138264389D01*
X112993865Y-138576094D01*
X113792738Y-138735000D01*
X114607262Y-138735000D01*
X115406135Y-138576094D01*
X116158657Y-138264389D01*
X116835909Y-137811864D01*
X117411864Y-137235909D01*
X117864389Y-136558657D01*
X118176094Y-135806135D01*
X118335000Y-135007262D01*
X118335000Y-134192738D01*
X118176094Y-133393865D01*
X117864389Y-132641343D01*
X117411864Y-131964091D01*
X116835909Y-131388136D01*
X116158657Y-130935611D01*
X115406135Y-130623906D01*
X114607262Y-130465000D01*
X113792738Y-130465000D01*
X112993865Y-130623906D01*
X112241343Y-130935611D01*
X111564091Y-131388136D01*
X110988136Y-131964091D01*
X110535611Y-132641343D01*
X110527000Y-132662132D01*
X110527000Y-129200000D01*
X110524560Y-129175224D01*
X110517333Y-129151399D01*
X110505597Y-129129443D01*
X110489803Y-129110197D01*
X110470557Y-129094403D01*
X110448601Y-129082667D01*
X110424776Y-129075440D01*
X110400000Y-129073000D01*
X105000000Y-129073000D01*
X104975224Y-129075440D01*
X104951399Y-129082667D01*
X104929443Y-129094403D01*
X104910197Y-129110197D01*
X104894403Y-129129443D01*
X104882667Y-129151399D01*
X104875440Y-129175224D01*
X104873000Y-129200000D01*
X95527000Y-129200000D01*
X95527000Y-128800000D01*
X95524560Y-128775224D01*
X95517333Y-128751399D01*
X95505597Y-128729443D01*
X95489803Y-128710197D01*
X95470557Y-128694403D01*
X95448601Y-128682667D01*
X95424776Y-128675440D01*
X95400000Y-128673000D01*
X90000000Y-128673000D01*
X89975224Y-128675440D01*
X89951399Y-128682667D01*
X89929443Y-128694403D01*
X89910197Y-128710197D01*
X89894403Y-128729443D01*
X89882667Y-128751399D01*
X89875440Y-128775224D01*
X89873000Y-128800000D01*
X85660000Y-128800000D01*
X85660000Y-128200000D01*
X117873000Y-128200000D01*
X117873000Y-132600000D01*
X117875440Y-132624776D01*
X117882667Y-132648601D01*
X117894403Y-132670557D01*
X117910197Y-132689803D01*
X117929443Y-132705597D01*
X117951399Y-132717333D01*
X117975224Y-132724560D01*
X118000000Y-132727000D01*
X127800000Y-132727000D01*
X127824776Y-132724560D01*
X127848601Y-132717333D01*
X127870557Y-132705597D01*
X127889803Y-132689803D01*
X127905597Y-132670557D01*
X127917333Y-132648601D01*
X127924560Y-132624776D01*
X127927000Y-132600000D01*
X127927000Y-128200000D01*
X137673000Y-128200000D01*
X137673000Y-132600000D01*
X137675440Y-132624776D01*
X137682667Y-132648601D01*
X137694403Y-132670557D01*
X137710197Y-132689803D01*
X137729443Y-132705597D01*
X137751399Y-132717333D01*
X137775224Y-132724560D01*
X137800000Y-132727000D01*
X147600000Y-132727000D01*
X147624776Y-132724560D01*
X147648601Y-132717333D01*
X147670557Y-132705597D01*
X147689803Y-132689803D01*
X147705597Y-132670557D01*
X147717333Y-132648601D01*
X147724560Y-132624776D01*
X147727000Y-132600000D01*
X147727000Y-128200000D01*
X147724560Y-128175224D01*
X147717333Y-128151399D01*
X147705597Y-128129443D01*
X147689803Y-128110197D01*
X147670557Y-128094403D01*
X147648601Y-128082667D01*
X147624776Y-128075440D01*
X147600000Y-128073000D01*
X137800000Y-128073000D01*
X137775224Y-128075440D01*
X137751399Y-128082667D01*
X137729443Y-128094403D01*
X137710197Y-128110197D01*
X137694403Y-128129443D01*
X137682667Y-128151399D01*
X137675440Y-128175224D01*
X137673000Y-128200000D01*
X127927000Y-128200000D01*
X127924560Y-128175224D01*
X127917333Y-128151399D01*
X127905597Y-128129443D01*
X127889803Y-128110197D01*
X127870557Y-128094403D01*
X127848601Y-128082667D01*
X127824776Y-128075440D01*
X127800000Y-128073000D01*
X118000000Y-128073000D01*
X117975224Y-128075440D01*
X117951399Y-128082667D01*
X117929443Y-128094403D01*
X117910197Y-128110197D01*
X117894403Y-128129443D01*
X117882667Y-128151399D01*
X117875440Y-128175224D01*
X117873000Y-128200000D01*
X85660000Y-128200000D01*
X85660000Y-125789428D01*
X85738698Y-125842012D01*
X86127244Y-126002953D01*
X86539721Y-126085000D01*
X86960279Y-126085000D01*
X87372756Y-126002953D01*
X87761302Y-125842012D01*
X88110983Y-125608363D01*
X88408363Y-125310983D01*
X88642012Y-124961302D01*
X88802953Y-124572756D01*
X88885000Y-124160279D01*
X88885000Y-123789721D01*
X96665000Y-123789721D01*
X96665000Y-124210279D01*
X96747047Y-124622756D01*
X96907988Y-125011302D01*
X97141637Y-125360983D01*
X97439017Y-125658363D01*
X97788698Y-125892012D01*
X98177244Y-126052953D01*
X98589721Y-126135000D01*
X99010279Y-126135000D01*
X99422756Y-126052953D01*
X99811302Y-125892012D01*
X100160983Y-125658363D01*
X100458363Y-125360983D01*
X100692012Y-125011302D01*
X100735355Y-124906662D01*
X100757988Y-124961302D01*
X100991637Y-125310983D01*
X101289017Y-125608363D01*
X101638698Y-125842012D01*
X102027244Y-126002953D01*
X102439721Y-126085000D01*
X102860279Y-126085000D01*
X103272756Y-126002953D01*
X103661302Y-125842012D01*
X104010983Y-125608363D01*
X104308363Y-125310983D01*
X104542012Y-124961302D01*
X104702953Y-124572756D01*
X104785000Y-124160279D01*
X104785000Y-123789721D01*
X112565000Y-123789721D01*
X112565000Y-124210279D01*
X112647047Y-124622756D01*
X112807988Y-125011302D01*
X113041637Y-125360983D01*
X113339017Y-125658363D01*
X113688698Y-125892012D01*
X114077244Y-126052953D01*
X114489721Y-126135000D01*
X114910279Y-126135000D01*
X115322756Y-126052953D01*
X115711302Y-125892012D01*
X116060983Y-125658363D01*
X116358363Y-125360983D01*
X116592012Y-125011302D01*
X116752953Y-124622756D01*
X116835000Y-124210279D01*
X116835000Y-123789721D01*
X116752953Y-123377244D01*
X116592012Y-122988698D01*
X116358363Y-122639017D01*
X116060983Y-122341637D01*
X115711302Y-122107988D01*
X115322756Y-121947047D01*
X114910279Y-121865000D01*
X114489721Y-121865000D01*
X114077244Y-121947047D01*
X113688698Y-122107988D01*
X113339017Y-122341637D01*
X113041637Y-122639017D01*
X112807988Y-122988698D01*
X112647047Y-123377244D01*
X112565000Y-123789721D01*
X104785000Y-123789721D01*
X104785000Y-123739721D01*
X104702953Y-123327244D01*
X104542012Y-122938698D01*
X104308363Y-122589017D01*
X104010983Y-122291637D01*
X103661302Y-122057988D01*
X103272756Y-121897047D01*
X102860279Y-121815000D01*
X102439721Y-121815000D01*
X102027244Y-121897047D01*
X101638698Y-122057988D01*
X101289017Y-122291637D01*
X100991637Y-122589017D01*
X100757988Y-122938698D01*
X100714645Y-123043338D01*
X100692012Y-122988698D01*
X100458363Y-122639017D01*
X100160983Y-122341637D01*
X99811302Y-122107988D01*
X99422756Y-121947047D01*
X99010279Y-121865000D01*
X98589721Y-121865000D01*
X98177244Y-121947047D01*
X97788698Y-122107988D01*
X97439017Y-122341637D01*
X97141637Y-122639017D01*
X96907988Y-122988698D01*
X96747047Y-123377244D01*
X96665000Y-123789721D01*
X88885000Y-123789721D01*
X88885000Y-123739721D01*
X88802953Y-123327244D01*
X88642012Y-122938698D01*
X88408363Y-122589017D01*
X88110983Y-122291637D01*
X87761302Y-122057988D01*
X87372756Y-121897047D01*
X86960279Y-121815000D01*
X86539721Y-121815000D01*
X86127244Y-121897047D01*
X85738698Y-122057988D01*
X85660000Y-122110572D01*
X85660000Y-113288756D01*
X85857118Y-113420466D01*
X86200166Y-113562561D01*
X86564344Y-113635000D01*
X86935656Y-113635000D01*
X87299834Y-113562561D01*
X87642882Y-113420466D01*
X87951618Y-113214175D01*
X88214175Y-112951618D01*
X88420466Y-112642882D01*
X88562561Y-112299834D01*
X88635000Y-111935656D01*
X88635000Y-111640131D01*
X90758009Y-113763141D01*
X90793551Y-113806449D01*
X90966377Y-113948284D01*
X91163553Y-114053676D01*
X91377501Y-114118577D01*
X91544248Y-114135000D01*
X91544257Y-114135000D01*
X91599999Y-114140490D01*
X91655741Y-114135000D01*
X93744249Y-114135000D01*
X93800000Y-114140491D01*
X93855751Y-114135000D01*
X93855752Y-114135000D01*
X94022499Y-114118577D01*
X94236447Y-114053676D01*
X94433623Y-113948284D01*
X94606449Y-113806449D01*
X94641996Y-113763136D01*
X96073000Y-112332132D01*
X96073000Y-114000000D01*
X96075440Y-114024776D01*
X96082667Y-114048601D01*
X96094403Y-114070557D01*
X96110197Y-114089803D01*
X96129443Y-114105597D01*
X96151399Y-114117333D01*
X96175224Y-114124560D01*
X96200000Y-114127000D01*
X100600000Y-114127000D01*
X100624776Y-114124560D01*
X100648601Y-114117333D01*
X100670557Y-114105597D01*
X100689803Y-114089803D01*
X100705597Y-114070557D01*
X100717333Y-114048601D01*
X100724560Y-114024776D01*
X100727000Y-114000000D01*
X100727000Y-111564344D01*
X100765000Y-111564344D01*
X100765000Y-111935656D01*
X100837439Y-112299834D01*
X100979534Y-112642882D01*
X101185825Y-112951618D01*
X101448382Y-113214175D01*
X101757118Y-113420466D01*
X102100166Y-113562561D01*
X102464344Y-113635000D01*
X102835656Y-113635000D01*
X103199834Y-113562561D01*
X103542882Y-113420466D01*
X103851618Y-113214175D01*
X104114175Y-112951618D01*
X104320466Y-112642882D01*
X104462561Y-112299834D01*
X104535000Y-111935656D01*
X104535000Y-111564344D01*
X104462561Y-111200166D01*
X104320466Y-110857118D01*
X104114175Y-110548382D01*
X103851618Y-110285825D01*
X103542882Y-110079534D01*
X103199834Y-109937439D01*
X102835656Y-109865000D01*
X102464344Y-109865000D01*
X102100166Y-109937439D01*
X101757118Y-110079534D01*
X101448382Y-110285825D01*
X101185825Y-110548382D01*
X100979534Y-110857118D01*
X100837439Y-111200166D01*
X100765000Y-111564344D01*
X100727000Y-111564344D01*
X100727000Y-109000000D01*
X100724560Y-108975224D01*
X100717333Y-108951399D01*
X100705597Y-108929443D01*
X100689803Y-108910197D01*
X100670557Y-108894403D01*
X100648601Y-108882667D01*
X100624776Y-108875440D01*
X100600000Y-108873000D01*
X97335000Y-108873000D01*
X97335000Y-108455741D01*
X97340490Y-108399999D01*
X97335000Y-108344257D01*
X97335000Y-108344248D01*
X97318577Y-108177501D01*
X97253676Y-107963553D01*
X97148284Y-107766377D01*
X97006449Y-107593551D01*
X96963135Y-107558004D01*
X96416996Y-107011865D01*
X96381449Y-106968551D01*
X96208623Y-106826716D01*
X96011447Y-106721324D01*
X95797499Y-106656423D01*
X95630752Y-106640000D01*
X95630751Y-106640000D01*
X95575000Y-106634509D01*
X95519249Y-106640000D01*
X95280199Y-106640000D01*
X95296608Y-106585908D01*
X95309879Y-106451169D01*
X95318576Y-106422499D01*
X95340490Y-106200001D01*
X95337770Y-106172387D01*
X97395156Y-104115001D01*
X100313448Y-104115001D01*
X100352001Y-104118798D01*
X100390554Y-104115001D01*
X100390562Y-104115001D01*
X100505888Y-104103642D01*
X100653861Y-104058755D01*
X100790234Y-103985863D01*
X100909765Y-103887765D01*
X100934348Y-103857811D01*
X102127817Y-102664343D01*
X102157764Y-102639766D01*
X102189377Y-102601247D01*
X102222570Y-102560801D01*
X102255862Y-102520235D01*
X102328754Y-102383862D01*
X102341145Y-102343013D01*
X102373641Y-102235890D01*
X102376514Y-102206717D01*
X102385000Y-102120563D01*
X102385000Y-102120556D01*
X102388797Y-102082003D01*
X102385000Y-102043450D01*
X102385000Y-88163155D01*
X105273000Y-85275155D01*
X105273000Y-87200000D01*
X105275440Y-87224776D01*
X105282667Y-87248601D01*
X105294403Y-87270557D01*
X105310197Y-87289803D01*
X105329443Y-87305597D01*
X105351399Y-87317333D01*
X105375224Y-87324560D01*
X105400000Y-87327000D01*
X111117825Y-87327000D01*
X111167818Y-87491808D01*
X111301068Y-87741101D01*
X111480392Y-87959608D01*
X111698899Y-88138932D01*
X111831858Y-88210000D01*
X111698899Y-88281068D01*
X111480392Y-88460392D01*
X111301068Y-88678899D01*
X111167818Y-88928192D01*
X111085764Y-89198691D01*
X111058057Y-89480000D01*
X111085764Y-89761309D01*
X111167818Y-90031808D01*
X111301068Y-90281101D01*
X111480392Y-90499608D01*
X111698899Y-90678932D01*
X111831858Y-90750000D01*
X111698899Y-90821068D01*
X111480392Y-91000392D01*
X111301068Y-91218899D01*
X111167818Y-91468192D01*
X111085764Y-91738691D01*
X111058057Y-92020000D01*
X111085764Y-92301309D01*
X111167818Y-92571808D01*
X111301068Y-92821101D01*
X111480392Y-93039608D01*
X111698899Y-93218932D01*
X111831858Y-93290000D01*
X111698899Y-93361068D01*
X111480392Y-93540392D01*
X111301068Y-93758899D01*
X111167818Y-94008192D01*
X111085764Y-94278691D01*
X111058057Y-94560000D01*
X111085764Y-94841309D01*
X111167818Y-95111808D01*
X111301068Y-95361101D01*
X111480392Y-95579608D01*
X111698899Y-95758932D01*
X111831858Y-95830000D01*
X111698899Y-95901068D01*
X111480392Y-96080392D01*
X111301068Y-96298899D01*
X111167818Y-96548192D01*
X111085764Y-96818691D01*
X111058057Y-97100000D01*
X111085764Y-97381309D01*
X111167818Y-97651808D01*
X111301068Y-97901101D01*
X111480392Y-98119608D01*
X111698899Y-98298932D01*
X111831858Y-98370000D01*
X111698899Y-98441068D01*
X111480392Y-98620392D01*
X111301068Y-98838899D01*
X111167818Y-99088192D01*
X111085764Y-99358691D01*
X111058057Y-99640000D01*
X111085764Y-99921309D01*
X111167818Y-100191808D01*
X111301068Y-100441101D01*
X111480392Y-100659608D01*
X111698899Y-100838932D01*
X111831858Y-100910000D01*
X111698899Y-100981068D01*
X111480392Y-101160392D01*
X111301068Y-101378899D01*
X111167818Y-101628192D01*
X111085764Y-101898691D01*
X111058057Y-102180000D01*
X111085764Y-102461309D01*
X111167818Y-102731808D01*
X111301068Y-102981101D01*
X111480392Y-103199608D01*
X111698899Y-103378932D01*
X111825333Y-103446512D01*
X111281845Y-103990000D01*
X110694626Y-103990000D01*
X110662115Y-103950385D01*
X110532275Y-103843829D01*
X110384142Y-103764650D01*
X110223408Y-103715892D01*
X110216194Y-103715181D01*
X110022498Y-103656424D01*
X109799999Y-103634510D01*
X109577501Y-103656424D01*
X109549230Y-103665000D01*
X109484361Y-103665000D01*
X109523676Y-103591447D01*
X109588577Y-103377499D01*
X109605000Y-103210752D01*
X109605000Y-103210751D01*
X109610491Y-103155000D01*
X109605000Y-103099249D01*
X109605000Y-102079480D01*
X109613215Y-102052399D01*
X109630000Y-101881978D01*
X109630000Y-101318021D01*
X109613215Y-101147600D01*
X109546885Y-100928940D01*
X109439171Y-100727421D01*
X109294212Y-100550788D01*
X109117578Y-100405829D01*
X108916059Y-100298115D01*
X108697399Y-100231785D01*
X108470000Y-100209388D01*
X108242600Y-100231785D01*
X108033902Y-100295093D01*
X107969180Y-100260498D01*
X107849482Y-100224188D01*
X107725000Y-100211928D01*
X106675000Y-100211928D01*
X106550518Y-100224188D01*
X106430820Y-100260498D01*
X106320506Y-100319463D01*
X106223815Y-100398815D01*
X106144463Y-100495506D01*
X106085498Y-100605820D01*
X106049188Y-100725518D01*
X106036928Y-100850000D01*
X106036928Y-102350000D01*
X106049188Y-102474482D01*
X106085498Y-102594180D01*
X106144463Y-102704494D01*
X106223815Y-102801185D01*
X106320506Y-102880537D01*
X106430820Y-102939502D01*
X106550518Y-102975812D01*
X106675000Y-102988072D01*
X107285800Y-102988072D01*
X107281423Y-103002502D01*
X107259509Y-103225000D01*
X107281423Y-103447498D01*
X107290121Y-103476173D01*
X107303392Y-103610908D01*
X107352150Y-103771642D01*
X107431329Y-103919775D01*
X107507426Y-104012500D01*
X107431329Y-104105225D01*
X107352150Y-104253358D01*
X107303392Y-104414092D01*
X107290122Y-104548826D01*
X107281423Y-104577501D01*
X107259509Y-104800000D01*
X107281423Y-105022499D01*
X107290122Y-105051174D01*
X107303392Y-105185908D01*
X107352150Y-105346642D01*
X107431329Y-105494775D01*
X107537885Y-105624615D01*
X107667725Y-105731171D01*
X107815858Y-105810350D01*
X107976592Y-105859108D01*
X107983800Y-105859818D01*
X108177501Y-105918577D01*
X108344248Y-105935000D01*
X109719249Y-105935000D01*
X109775000Y-105940491D01*
X109830751Y-105935000D01*
X109830752Y-105935000D01*
X109997499Y-105918577D01*
X110211447Y-105853676D01*
X110280402Y-105816819D01*
X110384142Y-105785350D01*
X110532275Y-105706171D01*
X110662115Y-105599615D01*
X110694626Y-105560000D01*
X111568449Y-105560000D01*
X111607002Y-105563797D01*
X111645555Y-105560000D01*
X111645563Y-105560000D01*
X111760889Y-105548641D01*
X111908862Y-105503754D01*
X112045235Y-105430862D01*
X112164766Y-105332764D01*
X112189349Y-105302810D01*
X114812980Y-102679180D01*
X114958899Y-102798932D01*
X115208192Y-102932182D01*
X115478691Y-103014236D01*
X115689508Y-103035000D01*
X115830492Y-103035000D01*
X116041309Y-103014236D01*
X116125001Y-102988848D01*
X116125001Y-109073000D01*
X112200000Y-109073000D01*
X112175224Y-109075440D01*
X112151399Y-109082667D01*
X112129443Y-109094403D01*
X112110197Y-109110197D01*
X112094403Y-109129443D01*
X112082667Y-109151399D01*
X112075440Y-109175224D01*
X112073000Y-109200000D01*
X112073000Y-114200000D01*
X112075440Y-114224776D01*
X112082667Y-114248601D01*
X112094403Y-114270557D01*
X112110197Y-114289803D01*
X112129443Y-114305597D01*
X112151399Y-114317333D01*
X112175224Y-114324560D01*
X112200000Y-114327000D01*
X116125001Y-114327000D01*
X116125001Y-117426448D01*
X116121204Y-117465001D01*
X116125001Y-117503554D01*
X116125001Y-117503561D01*
X116136360Y-117618887D01*
X116181247Y-117766860D01*
X116254139Y-117903233D01*
X116352237Y-118022765D01*
X116382191Y-118047348D01*
X119225000Y-120890158D01*
X119225000Y-120916939D01*
X119264774Y-121116898D01*
X119342795Y-121305256D01*
X119456063Y-121474774D01*
X119600226Y-121618937D01*
X119769744Y-121732205D01*
X119958102Y-121810226D01*
X120158061Y-121850000D01*
X120361939Y-121850000D01*
X120561898Y-121810226D01*
X120750256Y-121732205D01*
X120895000Y-121635490D01*
X121039744Y-121732205D01*
X121228102Y-121810226D01*
X121428061Y-121850000D01*
X121454843Y-121850000D01*
X121832643Y-122227800D01*
X121857226Y-122257754D01*
X121976757Y-122355852D01*
X122113130Y-122428744D01*
X122261103Y-122473632D01*
X122336016Y-122481010D01*
X122376429Y-122484990D01*
X122376434Y-122484990D01*
X122414990Y-122488787D01*
X122453546Y-122484990D01*
X124256459Y-122484990D01*
X124295012Y-122488787D01*
X124333565Y-122484990D01*
X124333573Y-122484990D01*
X124448899Y-122473631D01*
X124596872Y-122428744D01*
X124733245Y-122355852D01*
X124852776Y-122257754D01*
X124877359Y-122227800D01*
X129227827Y-117877333D01*
X129257774Y-117852756D01*
X129287418Y-117816636D01*
X129328268Y-117766860D01*
X129355872Y-117733225D01*
X129428764Y-117596852D01*
X129450222Y-117526115D01*
X129473652Y-117448879D01*
X129481030Y-117373966D01*
X129485010Y-117333553D01*
X129485010Y-117333548D01*
X129488807Y-117294992D01*
X129485010Y-117256436D01*
X129485010Y-96520000D01*
X129558057Y-96520000D01*
X129585764Y-96801309D01*
X129667818Y-97071808D01*
X129801068Y-97321101D01*
X129980392Y-97539608D01*
X130198899Y-97718932D01*
X130331858Y-97790000D01*
X130198899Y-97861068D01*
X129980392Y-98040392D01*
X129801068Y-98258899D01*
X129667818Y-98508192D01*
X129585764Y-98778691D01*
X129558057Y-99060000D01*
X129585764Y-99341309D01*
X129667818Y-99611808D01*
X129801068Y-99861101D01*
X129980392Y-100079608D01*
X130093482Y-100172419D01*
X130075518Y-100174188D01*
X129955820Y-100210498D01*
X129845506Y-100269463D01*
X129748815Y-100348815D01*
X129669463Y-100445506D01*
X129610498Y-100555820D01*
X129574188Y-100675518D01*
X129561928Y-100800000D01*
X129561928Y-102400000D01*
X129574188Y-102524482D01*
X129610498Y-102644180D01*
X129669463Y-102754494D01*
X129748815Y-102851185D01*
X129845506Y-102930537D01*
X129955820Y-102989502D01*
X130075518Y-103025812D01*
X130200000Y-103038072D01*
X131800000Y-103038072D01*
X131924482Y-103025812D01*
X132044180Y-102989502D01*
X132154494Y-102930537D01*
X132251185Y-102851185D01*
X132330537Y-102754494D01*
X132389502Y-102644180D01*
X132425812Y-102524482D01*
X132438072Y-102400000D01*
X132438072Y-100800000D01*
X132425812Y-100675518D01*
X132389502Y-100555820D01*
X132330537Y-100445506D01*
X132251185Y-100348815D01*
X132154494Y-100269463D01*
X132044180Y-100210498D01*
X131924482Y-100174188D01*
X131906518Y-100172419D01*
X132019608Y-100079608D01*
X132198932Y-99861101D01*
X132332182Y-99611808D01*
X132414236Y-99341309D01*
X132441943Y-99060000D01*
X132414236Y-98778691D01*
X132332182Y-98508192D01*
X132198932Y-98258899D01*
X132019608Y-98040392D01*
X131801101Y-97861068D01*
X131668142Y-97790000D01*
X131801101Y-97718932D01*
X132019608Y-97539608D01*
X132198932Y-97321101D01*
X132332182Y-97071808D01*
X132414236Y-96801309D01*
X132441943Y-96520000D01*
X132414236Y-96238691D01*
X132332182Y-95968192D01*
X132198932Y-95718899D01*
X132019608Y-95500392D01*
X131801101Y-95321068D01*
X131551808Y-95187818D01*
X131281309Y-95105764D01*
X131070492Y-95085000D01*
X130929508Y-95085000D01*
X130718691Y-95105764D01*
X130448192Y-95187818D01*
X130198899Y-95321068D01*
X129980392Y-95500392D01*
X129801068Y-95718899D01*
X129667818Y-95968192D01*
X129585764Y-96238691D01*
X129558057Y-96520000D01*
X129485010Y-96520000D01*
X129485010Y-80139315D01*
X129606254Y-80139315D01*
X129806213Y-80099541D01*
X129994571Y-80021520D01*
X130162670Y-79909200D01*
X130198899Y-79938932D01*
X130331858Y-80010000D01*
X130198899Y-80081068D01*
X129980392Y-80260392D01*
X129801068Y-80478899D01*
X129667818Y-80728192D01*
X129585764Y-80998691D01*
X129558057Y-81280000D01*
X129585764Y-81561309D01*
X129667818Y-81831808D01*
X129801068Y-82081101D01*
X129980392Y-82299608D01*
X130198899Y-82478932D01*
X130331858Y-82550000D01*
X130198899Y-82621068D01*
X129980392Y-82800392D01*
X129801068Y-83018899D01*
X129667818Y-83268192D01*
X129585764Y-83538691D01*
X129558057Y-83820000D01*
X129585764Y-84101309D01*
X129667818Y-84371808D01*
X129801068Y-84621101D01*
X129980392Y-84839608D01*
X130198899Y-85018932D01*
X130331858Y-85090000D01*
X130198899Y-85161068D01*
X129980392Y-85340392D01*
X129801068Y-85558899D01*
X129667818Y-85808192D01*
X129585764Y-86078691D01*
X129558057Y-86360000D01*
X129585764Y-86641309D01*
X129667818Y-86911808D01*
X129801068Y-87161101D01*
X129980392Y-87379608D01*
X130198899Y-87558932D01*
X130331858Y-87630000D01*
X130198899Y-87701068D01*
X129980392Y-87880392D01*
X129801068Y-88098899D01*
X129667818Y-88348192D01*
X129585764Y-88618691D01*
X129558057Y-88900000D01*
X129585764Y-89181309D01*
X129667818Y-89451808D01*
X129801068Y-89701101D01*
X129980392Y-89919608D01*
X130198899Y-90098932D01*
X130331858Y-90170000D01*
X130198899Y-90241068D01*
X129980392Y-90420392D01*
X129801068Y-90638899D01*
X129667818Y-90888192D01*
X129585764Y-91158691D01*
X129558057Y-91440000D01*
X129585764Y-91721309D01*
X129667818Y-91991808D01*
X129801068Y-92241101D01*
X129980392Y-92459608D01*
X130198899Y-92638932D01*
X130448192Y-92772182D01*
X130718691Y-92854236D01*
X130929508Y-92875000D01*
X131070492Y-92875000D01*
X131281309Y-92854236D01*
X131551808Y-92772182D01*
X131801101Y-92638932D01*
X132019608Y-92459608D01*
X132198932Y-92241101D01*
X132332182Y-91991808D01*
X132414236Y-91721309D01*
X132441943Y-91440000D01*
X132414236Y-91158691D01*
X132332182Y-90888192D01*
X132198932Y-90638899D01*
X132019608Y-90420392D01*
X131801101Y-90241068D01*
X131668142Y-90170000D01*
X131801101Y-90098932D01*
X132019608Y-89919608D01*
X132198932Y-89701101D01*
X132332182Y-89451808D01*
X132414236Y-89181309D01*
X132441943Y-88900000D01*
X132414236Y-88618691D01*
X132332182Y-88348192D01*
X132198932Y-88098899D01*
X132019608Y-87880392D01*
X131801101Y-87701068D01*
X131668142Y-87630000D01*
X131801101Y-87558932D01*
X132019608Y-87379608D01*
X132198932Y-87161101D01*
X132332182Y-86911808D01*
X132414236Y-86641309D01*
X132440858Y-86371016D01*
X132914990Y-86845148D01*
X132914991Y-99568547D01*
X132911193Y-99607110D01*
X132926349Y-99760996D01*
X132971236Y-99908969D01*
X132971237Y-99908970D01*
X133044129Y-100045343D01*
X133052762Y-100055862D01*
X133117645Y-100134922D01*
X133117649Y-100134926D01*
X133142227Y-100164874D01*
X133172175Y-100189452D01*
X140677000Y-107694277D01*
X140677000Y-113856841D01*
X131790001Y-104969842D01*
X131790001Y-104943060D01*
X131750227Y-104743101D01*
X131672206Y-104554743D01*
X131558938Y-104385225D01*
X131414775Y-104241062D01*
X131245257Y-104127794D01*
X131056899Y-104049773D01*
X130856940Y-104009999D01*
X130653062Y-104009999D01*
X130453103Y-104049773D01*
X130264745Y-104127794D01*
X130095227Y-104241062D01*
X129951064Y-104385225D01*
X129837796Y-104554743D01*
X129759775Y-104743101D01*
X129720001Y-104943060D01*
X129720001Y-105146938D01*
X129759775Y-105346897D01*
X129837796Y-105535255D01*
X129951064Y-105704773D01*
X130095227Y-105848936D01*
X130264745Y-105962204D01*
X130453103Y-106040225D01*
X130653062Y-106079999D01*
X130679844Y-106079999D01*
X139407001Y-114807157D01*
X139407000Y-119921289D01*
X139388063Y-119940226D01*
X139274795Y-120109744D01*
X139196774Y-120298102D01*
X139157000Y-120498061D01*
X139157000Y-120701939D01*
X139196774Y-120901898D01*
X139274795Y-121090256D01*
X139388063Y-121259774D01*
X139532226Y-121403937D01*
X139701744Y-121517205D01*
X139890102Y-121595226D01*
X140090061Y-121635000D01*
X140293939Y-121635000D01*
X140493898Y-121595226D01*
X140682256Y-121517205D01*
X140827000Y-121420490D01*
X140971744Y-121517205D01*
X141160102Y-121595226D01*
X141360061Y-121635000D01*
X141563939Y-121635000D01*
X141763898Y-121595226D01*
X141952256Y-121517205D01*
X142121774Y-121403937D01*
X142265937Y-121259774D01*
X142379205Y-121090256D01*
X142457226Y-120901898D01*
X142497000Y-120701939D01*
X142497000Y-120498061D01*
X142457226Y-120298102D01*
X142379205Y-120109744D01*
X142265937Y-119940226D01*
X142247000Y-119921289D01*
X142247000Y-108557158D01*
X143215001Y-109525159D01*
X143215000Y-119921289D01*
X143196063Y-119940226D01*
X143082795Y-120109744D01*
X143004774Y-120298102D01*
X142965000Y-120498061D01*
X142965000Y-120701939D01*
X143004774Y-120901898D01*
X143082795Y-121090256D01*
X143196063Y-121259774D01*
X143340226Y-121403937D01*
X143509744Y-121517205D01*
X143698102Y-121595226D01*
X143898061Y-121635000D01*
X144101939Y-121635000D01*
X144301898Y-121595226D01*
X144490256Y-121517205D01*
X144659774Y-121403937D01*
X144803937Y-121259774D01*
X144917205Y-121090256D01*
X144995226Y-120901898D01*
X145035000Y-120701939D01*
X145035000Y-120498061D01*
X144995226Y-120298102D01*
X144917205Y-120109744D01*
X144803937Y-119940226D01*
X144785000Y-119921289D01*
X144785000Y-109238556D01*
X144788797Y-109200000D01*
X144785000Y-109161444D01*
X144785000Y-109161439D01*
X144779953Y-109110197D01*
X144773642Y-109046113D01*
X144728754Y-108898140D01*
X144726315Y-108893577D01*
X144655862Y-108761767D01*
X144557764Y-108642236D01*
X144527816Y-108617658D01*
X134985000Y-99074843D01*
X134985000Y-97233854D01*
X135109744Y-97317205D01*
X135298102Y-97395226D01*
X135498061Y-97435000D01*
X135701939Y-97435000D01*
X135901898Y-97395226D01*
X136090256Y-97317205D01*
X136259774Y-97203937D01*
X136300000Y-97163711D01*
X136340226Y-97203937D01*
X136509744Y-97317205D01*
X136698102Y-97395226D01*
X136898061Y-97435000D01*
X137101939Y-97435000D01*
X137301898Y-97395226D01*
X137490256Y-97317205D01*
X137659774Y-97203937D01*
X137803937Y-97059774D01*
X137917205Y-96890256D01*
X137995226Y-96701898D01*
X138035000Y-96501939D01*
X138035000Y-96475158D01*
X138477816Y-96032342D01*
X138507763Y-96007765D01*
X138540241Y-95968192D01*
X138556449Y-95948442D01*
X138605861Y-95888234D01*
X138678753Y-95751861D01*
X138723640Y-95603888D01*
X138734999Y-95488562D01*
X138734999Y-95488555D01*
X138738796Y-95450002D01*
X138734999Y-95411449D01*
X138734999Y-78435857D01*
X138838287Y-78561714D01*
X138861928Y-78581116D01*
X138861928Y-78650000D01*
X138874188Y-78774482D01*
X138910498Y-78894180D01*
X138969463Y-79004494D01*
X139048815Y-79101185D01*
X139145506Y-79180537D01*
X139255820Y-79239502D01*
X139375518Y-79275812D01*
X139500000Y-79288072D01*
X140368927Y-79288072D01*
X140145072Y-79511928D01*
X139500000Y-79511928D01*
X139375518Y-79524188D01*
X139255820Y-79560498D01*
X139145506Y-79619463D01*
X139048815Y-79698815D01*
X138969463Y-79795506D01*
X138910498Y-79905820D01*
X138874188Y-80025518D01*
X138861928Y-80150000D01*
X138861928Y-82650000D01*
X138874188Y-82774482D01*
X138910498Y-82894180D01*
X138940335Y-82950000D01*
X138910498Y-83005820D01*
X138874188Y-83125518D01*
X138861928Y-83250000D01*
X138861928Y-85750000D01*
X138874188Y-85874482D01*
X138910498Y-85994180D01*
X138969463Y-86104494D01*
X139048815Y-86201185D01*
X139145506Y-86280537D01*
X139255820Y-86339502D01*
X139375518Y-86375812D01*
X139500000Y-86388072D01*
X141282810Y-86388072D01*
X141299999Y-86389765D01*
X141348379Y-86385000D01*
X141649258Y-86385000D01*
X141631785Y-86442600D01*
X141609388Y-86670000D01*
X141612024Y-86696762D01*
X141544180Y-86660498D01*
X141424482Y-86624188D01*
X141300000Y-86611928D01*
X139500000Y-86611928D01*
X139375518Y-86624188D01*
X139255820Y-86660498D01*
X139145506Y-86719463D01*
X139048815Y-86798815D01*
X138969463Y-86895506D01*
X138910498Y-87005820D01*
X138874188Y-87125518D01*
X138861928Y-87250000D01*
X138861928Y-87937943D01*
X138788657Y-88179485D01*
X138765000Y-88419678D01*
X138757089Y-88500000D01*
X138765000Y-88580320D01*
X138765001Y-91719671D01*
X138757089Y-91800000D01*
X138788658Y-92120516D01*
X138861928Y-92362057D01*
X138861928Y-93050000D01*
X138874188Y-93174482D01*
X138910498Y-93294180D01*
X138969463Y-93404494D01*
X139048815Y-93501185D01*
X139145506Y-93580537D01*
X139255820Y-93639502D01*
X139375518Y-93675812D01*
X139500000Y-93688072D01*
X140143635Y-93688072D01*
X139919779Y-93911928D01*
X139500000Y-93911928D01*
X139375518Y-93924188D01*
X139255820Y-93960498D01*
X139145506Y-94019463D01*
X139048815Y-94098815D01*
X138969463Y-94195506D01*
X138910498Y-94305820D01*
X138874188Y-94425518D01*
X138861928Y-94550000D01*
X138861928Y-97050000D01*
X138874188Y-97174482D01*
X138910498Y-97294180D01*
X138969463Y-97404494D01*
X139048815Y-97501185D01*
X139145506Y-97580537D01*
X139255820Y-97639502D01*
X139375518Y-97675812D01*
X139500000Y-97688072D01*
X141300000Y-97688072D01*
X141424482Y-97675812D01*
X141544180Y-97639502D01*
X141654494Y-97580537D01*
X141751185Y-97501185D01*
X141830537Y-97404494D01*
X141889502Y-97294180D01*
X141925812Y-97174482D01*
X141938072Y-97050000D01*
X141938072Y-94778718D01*
X141950788Y-94794212D01*
X142127421Y-94939171D01*
X142328940Y-95046885D01*
X142547600Y-95113215D01*
X142718021Y-95130000D01*
X143281979Y-95130000D01*
X143452400Y-95113215D01*
X143671060Y-95046885D01*
X143872579Y-94939171D01*
X144049212Y-94794212D01*
X144194171Y-94617579D01*
X144301885Y-94416060D01*
X144368215Y-94197400D01*
X144390612Y-93970000D01*
X144368215Y-93742600D01*
X144304907Y-93533902D01*
X144339502Y-93469180D01*
X144375812Y-93349482D01*
X144388072Y-93225000D01*
X144388072Y-92609999D01*
X144497761Y-92609999D01*
X145787081Y-93899320D01*
X145823958Y-93944255D01*
X145795506Y-93959463D01*
X145698815Y-94038815D01*
X145619463Y-94135506D01*
X145560498Y-94245820D01*
X145524188Y-94365518D01*
X145511928Y-94490000D01*
X145511928Y-96190000D01*
X145524188Y-96314482D01*
X145560498Y-96434180D01*
X145619463Y-96544494D01*
X145698815Y-96641185D01*
X145795506Y-96720537D01*
X145905820Y-96779502D01*
X146025518Y-96815812D01*
X146150000Y-96828072D01*
X147850000Y-96828072D01*
X147974482Y-96815812D01*
X148094180Y-96779502D01*
X148204494Y-96720537D01*
X148301185Y-96641185D01*
X148380537Y-96544494D01*
X148439502Y-96434180D01*
X148475812Y-96314482D01*
X148488072Y-96190000D01*
X148488072Y-94490000D01*
X148475812Y-94365518D01*
X148439502Y-94245820D01*
X148380537Y-94135506D01*
X148301185Y-94038815D01*
X148204494Y-93959463D01*
X148176042Y-93944255D01*
X148366031Y-93712752D01*
X148517852Y-93428715D01*
X148611343Y-93120516D01*
X148635000Y-92880322D01*
X148635000Y-92880319D01*
X148642911Y-92799999D01*
X148635000Y-92719680D01*
X148635000Y-89230318D01*
X148642911Y-89149999D01*
X148635000Y-89069679D01*
X148635000Y-88020330D01*
X148642912Y-87940000D01*
X148611343Y-87619484D01*
X148517852Y-87311285D01*
X148510826Y-87298140D01*
X148366031Y-87027248D01*
X148176042Y-86795745D01*
X148204494Y-86780537D01*
X148301185Y-86701185D01*
X148380537Y-86604494D01*
X148439502Y-86494180D01*
X148475812Y-86374482D01*
X148488072Y-86250000D01*
X148488072Y-84550000D01*
X148475812Y-84425518D01*
X148439502Y-84305820D01*
X148380537Y-84195506D01*
X148301185Y-84098815D01*
X148204494Y-84019463D01*
X148094180Y-83960498D01*
X147974482Y-83924188D01*
X147850000Y-83911928D01*
X146150000Y-83911928D01*
X146025518Y-83924188D01*
X145905820Y-83960498D01*
X145795506Y-84019463D01*
X145698815Y-84098815D01*
X145619463Y-84195506D01*
X145560498Y-84305820D01*
X145524188Y-84425518D01*
X145511928Y-84550000D01*
X145511928Y-86250000D01*
X145524188Y-86374482D01*
X145560498Y-86494180D01*
X145619463Y-86604494D01*
X145698815Y-86701185D01*
X145795506Y-86780537D01*
X145823958Y-86795745D01*
X145787085Y-86840675D01*
X144597751Y-88030010D01*
X142242249Y-88030010D01*
X141938072Y-87725834D01*
X141938072Y-87478718D01*
X141950788Y-87494212D01*
X142127421Y-87639171D01*
X142328940Y-87746885D01*
X142547600Y-87813215D01*
X142718021Y-87830000D01*
X143281979Y-87830000D01*
X143452400Y-87813215D01*
X143671060Y-87746885D01*
X143872579Y-87639171D01*
X144049212Y-87494212D01*
X144194171Y-87317579D01*
X144301885Y-87116060D01*
X144368215Y-86897400D01*
X144390612Y-86670000D01*
X144368215Y-86442600D01*
X144304907Y-86233902D01*
X144339502Y-86169180D01*
X144375812Y-86049482D01*
X144388072Y-85925000D01*
X144388072Y-84875000D01*
X144375812Y-84750518D01*
X144339502Y-84630820D01*
X144280537Y-84520506D01*
X144201185Y-84423815D01*
X144104494Y-84344463D01*
X143994180Y-84285498D01*
X143874482Y-84249188D01*
X143750000Y-84236928D01*
X142250000Y-84236928D01*
X142125518Y-84249188D01*
X142005820Y-84285498D01*
X141938072Y-84321711D01*
X141938072Y-83250000D01*
X141925812Y-83125518D01*
X141889502Y-83005820D01*
X141859665Y-82950000D01*
X141889502Y-82894180D01*
X141925812Y-82774482D01*
X141938072Y-82650000D01*
X141938072Y-80504929D01*
X142307549Y-80135452D01*
X142328940Y-80146885D01*
X142547600Y-80213215D01*
X142718021Y-80230000D01*
X143281979Y-80230000D01*
X143452400Y-80213215D01*
X143671060Y-80146885D01*
X143872579Y-80039171D01*
X144049212Y-79894212D01*
X144194171Y-79717579D01*
X144301885Y-79516060D01*
X144368215Y-79297400D01*
X144390612Y-79070000D01*
X144368215Y-78842600D01*
X144304907Y-78633902D01*
X144339502Y-78569180D01*
X144375812Y-78449482D01*
X144388072Y-78325000D01*
X144388072Y-77709999D01*
X144597761Y-77709999D01*
X145787081Y-78899320D01*
X145823958Y-78944255D01*
X145795506Y-78959463D01*
X145698815Y-79038815D01*
X145619463Y-79135506D01*
X145560498Y-79245820D01*
X145524188Y-79365518D01*
X145511928Y-79490000D01*
X145511928Y-81190000D01*
X145524188Y-81314482D01*
X145560498Y-81434180D01*
X145619463Y-81544494D01*
X145698815Y-81641185D01*
X145795506Y-81720537D01*
X145905820Y-81779502D01*
X146025518Y-81815812D01*
X146150000Y-81828072D01*
X147850000Y-81828072D01*
X147974482Y-81815812D01*
X148094180Y-81779502D01*
X148204494Y-81720537D01*
X148301185Y-81641185D01*
X148380537Y-81544494D01*
X148439502Y-81434180D01*
X148475812Y-81314482D01*
X148488072Y-81190000D01*
X148488072Y-79490000D01*
X148475812Y-79365518D01*
X148439502Y-79245820D01*
X148380537Y-79135506D01*
X148301185Y-79038815D01*
X148204494Y-78959463D01*
X148176042Y-78944255D01*
X148366031Y-78712752D01*
X148517852Y-78428715D01*
X148611343Y-78120516D01*
X148635000Y-77880322D01*
X148635000Y-77880321D01*
X148642911Y-77800000D01*
X148635000Y-77719678D01*
X148635000Y-73620322D01*
X148642911Y-73540000D01*
X148611343Y-73219484D01*
X148584563Y-73131202D01*
X148517852Y-72911285D01*
X148366031Y-72627248D01*
X148176042Y-72395745D01*
X148204494Y-72380537D01*
X148301185Y-72301185D01*
X148380537Y-72204494D01*
X148439502Y-72094180D01*
X148475812Y-71974482D01*
X148488072Y-71850000D01*
X148488072Y-70150000D01*
X148475812Y-70025518D01*
X148439502Y-69905820D01*
X148380537Y-69795506D01*
X148301185Y-69698815D01*
X148204494Y-69619463D01*
X148094180Y-69560498D01*
X147974482Y-69524188D01*
X147850000Y-69511928D01*
X146150000Y-69511928D01*
X146025518Y-69524188D01*
X145905820Y-69560498D01*
X145795506Y-69619463D01*
X145698815Y-69698815D01*
X145619463Y-69795506D01*
X145560498Y-69905820D01*
X145524188Y-70025518D01*
X145511928Y-70150000D01*
X145511928Y-71850000D01*
X145524188Y-71974482D01*
X145560498Y-72094180D01*
X145619463Y-72204494D01*
X145698815Y-72301185D01*
X145795506Y-72380537D01*
X145823958Y-72395745D01*
X145787085Y-72440676D01*
X144397752Y-73830010D01*
X141938072Y-73830010D01*
X141938072Y-73278718D01*
X141950788Y-73294212D01*
X142127421Y-73439171D01*
X142328940Y-73546885D01*
X142547600Y-73613215D01*
X142718021Y-73630000D01*
X143281979Y-73630000D01*
X143452400Y-73613215D01*
X143671060Y-73546885D01*
X143872579Y-73439171D01*
X144049212Y-73294212D01*
X144194171Y-73117579D01*
X144301885Y-72916060D01*
X144368215Y-72697400D01*
X144390612Y-72470000D01*
X144368215Y-72242600D01*
X144304907Y-72033902D01*
X144339502Y-71969180D01*
X144375812Y-71849482D01*
X144388072Y-71725000D01*
X144388072Y-70675000D01*
X144375812Y-70550518D01*
X144339502Y-70430820D01*
X144280537Y-70320506D01*
X144201185Y-70223815D01*
X144104494Y-70144463D01*
X143994180Y-70085498D01*
X143874482Y-70049188D01*
X143750000Y-70036928D01*
X143459928Y-70036928D01*
X143160716Y-69737716D01*
X143129870Y-69700130D01*
X142979884Y-69577040D01*
X142808767Y-69485576D01*
X142623094Y-69429253D01*
X142478380Y-69415000D01*
X142430000Y-69410235D01*
X142381620Y-69415000D01*
X141938072Y-69415000D01*
X141938072Y-69150000D01*
X141925812Y-69025518D01*
X141889502Y-68905820D01*
X141830537Y-68795506D01*
X141751185Y-68698815D01*
X141654494Y-68619463D01*
X141544180Y-68560498D01*
X141424482Y-68524188D01*
X141300000Y-68511928D01*
X139500000Y-68511928D01*
X139375518Y-68524188D01*
X139255820Y-68560498D01*
X139145506Y-68619463D01*
X139048815Y-68698815D01*
X138969463Y-68795506D01*
X138910498Y-68905820D01*
X138874188Y-69025518D01*
X138861928Y-69150000D01*
X138861928Y-71650000D01*
X138874188Y-71774482D01*
X138910498Y-71894180D01*
X138969463Y-72004494D01*
X139048815Y-72101185D01*
X139145506Y-72180537D01*
X139255820Y-72239502D01*
X139375518Y-72275812D01*
X139500000Y-72288072D01*
X141300000Y-72288072D01*
X141424482Y-72275812D01*
X141544180Y-72239502D01*
X141649860Y-72183014D01*
X141631785Y-72242600D01*
X141609388Y-72470000D01*
X141622420Y-72602319D01*
X141544180Y-72560498D01*
X141424482Y-72524188D01*
X141300000Y-72511928D01*
X139500000Y-72511928D01*
X139375518Y-72524188D01*
X139255820Y-72560498D01*
X139145506Y-72619463D01*
X139048815Y-72698815D01*
X138969463Y-72795506D01*
X138910498Y-72905820D01*
X138874188Y-73025518D01*
X138861928Y-73150000D01*
X138861928Y-73218884D01*
X138838286Y-73238286D01*
X138734999Y-73364143D01*
X138734999Y-63792738D01*
X140465000Y-63792738D01*
X140465000Y-64607262D01*
X140623906Y-65406135D01*
X140935611Y-66158657D01*
X141388136Y-66835909D01*
X141964091Y-67411864D01*
X142641343Y-67864389D01*
X143393865Y-68176094D01*
X144192738Y-68335000D01*
X145007262Y-68335000D01*
X145806135Y-68176094D01*
X146558657Y-67864389D01*
X147235909Y-67411864D01*
X147811864Y-66835909D01*
X148264389Y-66158657D01*
X148576094Y-65406135D01*
X148735000Y-64607262D01*
X148735000Y-63792738D01*
X148576094Y-62993865D01*
X148264389Y-62241343D01*
X147811864Y-61564091D01*
X147235909Y-60988136D01*
X146558657Y-60535611D01*
X145806135Y-60223906D01*
X145007262Y-60065000D01*
X144192738Y-60065000D01*
X143393865Y-60223906D01*
X142641343Y-60535611D01*
X141964091Y-60988136D01*
X141388136Y-61564091D01*
X140935611Y-62241343D01*
X140623906Y-62993865D01*
X140465000Y-63792738D01*
X138734999Y-63792738D01*
X138734999Y-58195158D01*
X143581132Y-53349026D01*
X143628889Y-53363513D01*
X143847050Y-53385000D01*
X143992950Y-53385000D01*
X144211111Y-53363513D01*
X144331478Y-53327000D01*
X146048522Y-53327000D01*
X146168889Y-53363513D01*
X146387050Y-53385000D01*
X146532950Y-53385000D01*
X146751111Y-53363513D01*
X146871478Y-53327000D01*
X148588522Y-53327000D01*
X148708889Y-53363513D01*
X148927050Y-53385000D01*
X149072950Y-53385000D01*
X149291111Y-53363513D01*
X149411478Y-53327000D01*
X150200000Y-53327000D01*
X150224776Y-53324560D01*
X150248601Y-53317333D01*
X150270557Y-53305597D01*
X150289803Y-53289803D01*
X150305597Y-53270557D01*
X150317333Y-53248601D01*
X150324560Y-53224776D01*
X150327000Y-53200000D01*
X150327000Y-52567569D01*
X150378599Y-52471034D01*
X150463513Y-52191111D01*
X150492185Y-51900000D01*
X150463513Y-51608889D01*
X150378599Y-51328966D01*
X150327000Y-51232431D01*
X150327000Y-48257481D01*
X150337000Y-48155949D01*
X150337000Y-47760050D01*
X150327000Y-47658518D01*
X150327000Y-46400000D01*
X150324560Y-46375224D01*
X150317333Y-46351399D01*
X150305597Y-46329443D01*
X150289803Y-46310197D01*
X150270557Y-46294403D01*
X150248601Y-46282667D01*
X150224776Y-46275440D01*
X150200000Y-46273000D01*
X142600000Y-46273000D01*
X142575224Y-46275440D01*
X142551399Y-46282667D01*
X142529443Y-46294403D01*
X142510197Y-46310197D01*
X142494403Y-46329443D01*
X142482667Y-46351399D01*
X142475440Y-46375224D01*
X142473000Y-46400000D01*
X142473000Y-47263289D01*
X142388487Y-47541890D01*
X142367000Y-47760051D01*
X142367000Y-48155950D01*
X142388487Y-48374111D01*
X142473000Y-48652712D01*
X142473000Y-49914999D01*
X140288551Y-49914999D01*
X140249998Y-49911202D01*
X140211445Y-49914999D01*
X140211438Y-49914999D01*
X140110489Y-49924942D01*
X140096111Y-49926358D01*
X139948139Y-49971245D01*
X139811766Y-50044137D01*
X139751558Y-50093549D01*
X139722186Y-50117654D01*
X139722183Y-50117657D01*
X139692235Y-50142235D01*
X139667657Y-50172183D01*
X137127000Y-52712841D01*
X137127000Y-46400000D01*
X137124560Y-46375224D01*
X137117333Y-46351399D01*
X137105597Y-46329443D01*
X137089803Y-46310197D01*
X137070557Y-46294403D01*
X137048601Y-46282667D01*
X137024776Y-46275440D01*
X137000000Y-46273000D01*
X129400000Y-46273000D01*
X129375224Y-46275440D01*
X129351399Y-46282667D01*
X129329443Y-46294403D01*
X129310197Y-46310197D01*
X129294403Y-46329443D01*
X129282667Y-46351399D01*
X129275440Y-46375224D01*
X129273000Y-46400000D01*
X129273000Y-47146723D01*
X129211401Y-47261967D01*
X129126487Y-47541890D01*
X129105000Y-47760051D01*
X129105000Y-48155950D01*
X129126487Y-48374111D01*
X129211401Y-48654034D01*
X129273000Y-48769278D01*
X129273000Y-51420179D01*
X129161401Y-51628966D01*
X129076487Y-51908889D01*
X129047815Y-52200000D01*
X129076487Y-52491111D01*
X129161401Y-52771034D01*
X129273000Y-52979821D01*
X129273000Y-53200000D01*
X129275440Y-53224776D01*
X129282667Y-53248601D01*
X129294403Y-53270557D01*
X129310197Y-53289803D01*
X129329443Y-53305597D01*
X129351399Y-53317333D01*
X129375224Y-53324560D01*
X129400000Y-53327000D01*
X129572435Y-53327000D01*
X129710986Y-53440706D01*
X129755001Y-53464232D01*
X129755000Y-59134842D01*
X129676777Y-59213066D01*
X129659774Y-59196063D01*
X129490256Y-59082795D01*
X129301898Y-59004774D01*
X129101939Y-58965000D01*
X128898061Y-58965000D01*
X128698102Y-59004774D01*
X128509744Y-59082795D01*
X128340226Y-59196063D01*
X128196063Y-59340226D01*
X128082795Y-59509744D01*
X128004774Y-59698102D01*
X127965000Y-59898061D01*
X127965000Y-60101939D01*
X128004774Y-60301898D01*
X128082795Y-60490256D01*
X128196063Y-60659774D01*
X128340226Y-60803937D01*
X128509744Y-60917205D01*
X128698102Y-60995226D01*
X128898061Y-61035000D01*
X129101939Y-61035000D01*
X129301898Y-60995226D01*
X129490256Y-60917205D01*
X129659774Y-60803937D01*
X129678711Y-60785000D01*
X129961447Y-60785000D01*
X130000000Y-60788797D01*
X130038553Y-60785000D01*
X130038561Y-60785000D01*
X130153887Y-60773641D01*
X130301860Y-60728754D01*
X130438233Y-60655862D01*
X130557764Y-60557764D01*
X130582346Y-60527811D01*
X131067816Y-60042342D01*
X131097764Y-60017764D01*
X131195862Y-59898233D01*
X131268754Y-59761860D01*
X131303194Y-59648328D01*
X131313641Y-59613888D01*
X131318774Y-59561768D01*
X131325000Y-59498561D01*
X131325000Y-59498554D01*
X131328797Y-59460001D01*
X131325000Y-59421448D01*
X131325000Y-53464232D01*
X131369014Y-53440706D01*
X131507565Y-53327000D01*
X132112435Y-53327000D01*
X132250986Y-53440706D01*
X132295000Y-53464232D01*
X132295001Y-65418631D01*
X132198932Y-65238899D01*
X132019608Y-65020392D01*
X131801101Y-64841068D01*
X131551808Y-64707818D01*
X131281309Y-64625764D01*
X131070492Y-64605000D01*
X130929508Y-64605000D01*
X130718691Y-64625764D01*
X130448192Y-64707818D01*
X130198899Y-64841068D01*
X129980392Y-65020392D01*
X129801068Y-65238899D01*
X129667818Y-65488192D01*
X129585764Y-65758691D01*
X129559142Y-66028984D01*
X126402347Y-62872190D01*
X126377764Y-62842236D01*
X126258233Y-62744138D01*
X126121860Y-62671246D01*
X125973887Y-62626359D01*
X125858561Y-62615000D01*
X125858553Y-62615000D01*
X125820000Y-62611203D01*
X125781447Y-62615000D01*
X113707538Y-62615000D01*
X113698932Y-62598899D01*
X113519608Y-62380392D01*
X113301101Y-62201068D01*
X113051808Y-62067818D01*
X112781309Y-61985764D01*
X112570492Y-61965000D01*
X112429508Y-61965000D01*
X112218691Y-61985764D01*
X111948192Y-62067818D01*
X111698899Y-62201068D01*
X111480392Y-62380392D01*
X111301068Y-62598899D01*
X111167818Y-62848192D01*
X111085764Y-63118691D01*
X111058057Y-63400000D01*
X111085764Y-63681309D01*
X111167818Y-63951808D01*
X111301068Y-64201101D01*
X111480392Y-64419608D01*
X111698899Y-64598932D01*
X111831858Y-64670000D01*
X111698899Y-64741068D01*
X111480392Y-64920392D01*
X111301068Y-65138899D01*
X111167818Y-65388192D01*
X111085764Y-65658691D01*
X111058057Y-65940000D01*
X111085764Y-66221309D01*
X111167818Y-66491808D01*
X111301068Y-66741101D01*
X111480392Y-66959608D01*
X111698899Y-67138932D01*
X111831858Y-67210000D01*
X111698899Y-67281068D01*
X111480392Y-67460392D01*
X111301068Y-67678899D01*
X111167818Y-67928192D01*
X111085764Y-68198691D01*
X111058057Y-68480000D01*
X111085764Y-68761309D01*
X111167818Y-69031808D01*
X111301068Y-69281101D01*
X111480392Y-69499608D01*
X111698899Y-69678932D01*
X111831858Y-69750000D01*
X111698899Y-69821068D01*
X111480392Y-70000392D01*
X111301068Y-70218899D01*
X111167818Y-70468192D01*
X111085764Y-70738691D01*
X111058057Y-71020000D01*
X111085764Y-71301309D01*
X111167818Y-71571808D01*
X111301068Y-71821101D01*
X111480392Y-72039608D01*
X111698899Y-72218932D01*
X111831858Y-72290000D01*
X111698899Y-72361068D01*
X111480392Y-72540392D01*
X111301068Y-72758899D01*
X111167818Y-73008192D01*
X111085764Y-73278691D01*
X111058057Y-73560000D01*
X111085764Y-73841309D01*
X111167818Y-74111808D01*
X111301068Y-74361101D01*
X111480392Y-74579608D01*
X111698899Y-74758932D01*
X111831858Y-74830000D01*
X111698899Y-74901068D01*
X111480392Y-75080392D01*
X111301068Y-75298899D01*
X111167818Y-75548192D01*
X111085764Y-75818691D01*
X111060716Y-76073000D01*
X105400000Y-76073000D01*
X105375224Y-76075440D01*
X105351399Y-76082667D01*
X105329443Y-76094403D01*
X105310197Y-76110197D01*
X105294403Y-76129443D01*
X105282667Y-76151399D01*
X105275440Y-76175224D01*
X105273000Y-76200000D01*
X105273000Y-83054841D01*
X101437973Y-86889868D01*
X101411343Y-86619484D01*
X101317852Y-86311285D01*
X101166031Y-86027248D01*
X100961714Y-85778286D01*
X100712752Y-85573969D01*
X100428715Y-85422148D01*
X100120516Y-85328657D01*
X99880322Y-85305000D01*
X99007867Y-85305000D01*
X98327000Y-83773049D01*
X98327000Y-81180000D01*
X98358057Y-81180000D01*
X98385764Y-81461309D01*
X98467818Y-81731808D01*
X98601068Y-81981101D01*
X98780392Y-82199608D01*
X98998899Y-82378932D01*
X99248192Y-82512182D01*
X99518691Y-82594236D01*
X99729508Y-82615000D01*
X99870492Y-82615000D01*
X100081309Y-82594236D01*
X100351808Y-82512182D01*
X100601101Y-82378932D01*
X100819608Y-82199608D01*
X100998932Y-81981101D01*
X101132182Y-81731808D01*
X101214236Y-81461309D01*
X101241943Y-81180000D01*
X101214236Y-80898691D01*
X101132182Y-80628192D01*
X100998932Y-80378899D01*
X100819608Y-80160392D01*
X100601101Y-79981068D01*
X100351808Y-79847818D01*
X100081309Y-79765764D01*
X99870492Y-79745000D01*
X99729508Y-79745000D01*
X99518691Y-79765764D01*
X99248192Y-79847818D01*
X98998899Y-79981068D01*
X98780392Y-80160392D01*
X98601068Y-80378899D01*
X98467818Y-80628192D01*
X98385764Y-80898691D01*
X98358057Y-81180000D01*
X98327000Y-81180000D01*
X98327000Y-67706819D01*
X98619969Y-67655868D01*
X98601068Y-67678899D01*
X98467818Y-67928192D01*
X98385764Y-68198691D01*
X98358057Y-68480000D01*
X98385764Y-68761309D01*
X98467818Y-69031808D01*
X98601068Y-69281101D01*
X98780392Y-69499608D01*
X98998899Y-69678932D01*
X99131858Y-69750000D01*
X98998899Y-69821068D01*
X98780392Y-70000392D01*
X98601068Y-70218899D01*
X98467818Y-70468192D01*
X98385764Y-70738691D01*
X98358057Y-71020000D01*
X98385764Y-71301309D01*
X98467818Y-71571808D01*
X98601068Y-71821101D01*
X98780392Y-72039608D01*
X98998899Y-72218932D01*
X99131858Y-72290000D01*
X98998899Y-72361068D01*
X98780392Y-72540392D01*
X98601068Y-72758899D01*
X98467818Y-73008192D01*
X98385764Y-73278691D01*
X98358057Y-73560000D01*
X98385764Y-73841309D01*
X98467818Y-74111808D01*
X98601068Y-74361101D01*
X98780392Y-74579608D01*
X98998899Y-74758932D01*
X99131858Y-74830000D01*
X98998899Y-74901068D01*
X98780392Y-75080392D01*
X98601068Y-75298899D01*
X98467818Y-75548192D01*
X98385764Y-75818691D01*
X98358057Y-76100000D01*
X98385764Y-76381309D01*
X98467818Y-76651808D01*
X98601068Y-76901101D01*
X98780392Y-77119608D01*
X98998899Y-77298932D01*
X99248192Y-77432182D01*
X99518691Y-77514236D01*
X99729508Y-77535000D01*
X99870492Y-77535000D01*
X100081309Y-77514236D01*
X100351808Y-77432182D01*
X100601101Y-77298932D01*
X100819608Y-77119608D01*
X100998932Y-76901101D01*
X101132182Y-76651808D01*
X101214236Y-76381309D01*
X101241943Y-76100000D01*
X101214236Y-75818691D01*
X101132182Y-75548192D01*
X100998932Y-75298899D01*
X100819608Y-75080392D01*
X100601101Y-74901068D01*
X100468142Y-74830000D01*
X100601101Y-74758932D01*
X100819608Y-74579608D01*
X100998932Y-74361101D01*
X101132182Y-74111808D01*
X101214236Y-73841309D01*
X101241943Y-73560000D01*
X101214236Y-73278691D01*
X101132182Y-73008192D01*
X100998932Y-72758899D01*
X100819608Y-72540392D01*
X100601101Y-72361068D01*
X100468142Y-72290000D01*
X100601101Y-72218932D01*
X100819608Y-72039608D01*
X100998932Y-71821101D01*
X101132182Y-71571808D01*
X101214236Y-71301309D01*
X101241943Y-71020000D01*
X101214236Y-70738691D01*
X101132182Y-70468192D01*
X100998932Y-70218899D01*
X100819608Y-70000392D01*
X100601101Y-69821068D01*
X100468142Y-69750000D01*
X100601101Y-69678932D01*
X100819608Y-69499608D01*
X100998932Y-69281101D01*
X101132182Y-69031808D01*
X101214236Y-68761309D01*
X101241943Y-68480000D01*
X101214236Y-68198691D01*
X101132182Y-67928192D01*
X100998932Y-67678899D01*
X100819608Y-67460392D01*
X100663558Y-67332326D01*
X100712752Y-67306031D01*
X100961714Y-67101714D01*
X101166031Y-66852752D01*
X101317852Y-66568715D01*
X101411343Y-66260516D01*
X101442911Y-65940000D01*
X101411343Y-65619484D01*
X101317852Y-65311285D01*
X101166031Y-65027248D01*
X101127167Y-64979892D01*
X101120483Y-64959839D01*
X101110333Y-64937106D01*
X101095943Y-64916789D01*
X101075336Y-64897758D01*
X101035937Y-64868727D01*
X100961714Y-64778286D01*
X100712752Y-64573969D01*
X100432904Y-64424387D01*
X100125336Y-64197758D01*
X100103942Y-64185025D01*
X100080475Y-64176711D01*
X100061002Y-64173477D01*
X99133712Y-64092844D01*
X98127000Y-63086132D01*
X98127000Y-61252606D01*
X99453102Y-59926504D01*
X120601198Y-59726994D01*
X120625950Y-59724320D01*
X120649705Y-59716869D01*
X120671550Y-59704926D01*
X120690646Y-59688951D01*
X120706258Y-59669558D01*
X120717786Y-59647492D01*
X120724788Y-59623600D01*
X120727000Y-59600000D01*
X120727000Y-55600000D01*
X120724560Y-55575224D01*
X120717333Y-55551399D01*
X120705597Y-55529443D01*
X120689803Y-55510197D01*
X120670557Y-55494403D01*
X120648601Y-55482667D01*
X120624776Y-55475440D01*
X120600000Y-55473000D01*
X97800000Y-55473000D01*
X97775224Y-55475440D01*
X97751399Y-55482667D01*
X97729443Y-55494403D01*
X97710197Y-55510197D01*
X94310197Y-58910197D01*
X94294403Y-58929443D01*
X94282667Y-58951399D01*
X94275440Y-58975224D01*
X94273004Y-59000984D01*
X94296818Y-62073000D01*
X89000000Y-62073000D01*
X88975224Y-62075440D01*
X88951399Y-62082667D01*
X88929443Y-62094403D01*
X88910197Y-62110197D01*
X88894403Y-62129443D01*
X88882667Y-62151399D01*
X88875440Y-62175224D01*
X88873000Y-62200000D01*
X88873000Y-103400000D01*
X88875440Y-103424776D01*
X88882667Y-103448601D01*
X88894403Y-103470557D01*
X88910197Y-103489803D01*
X88929443Y-103505597D01*
X88951399Y-103517333D01*
X88975224Y-103524560D01*
X89000000Y-103527000D01*
X94800000Y-103527000D01*
X94824776Y-103524560D01*
X94848601Y-103517333D01*
X94870557Y-103505597D01*
X94889803Y-103489803D01*
X94905597Y-103470557D01*
X94917333Y-103448601D01*
X94924560Y-103424776D01*
X94927000Y-103400000D01*
X94927000Y-85427289D01*
X97299752Y-88477970D01*
X97316890Y-88496030D01*
X97337221Y-88510398D01*
X97359965Y-88520525D01*
X97384248Y-88526019D01*
X97400000Y-88527000D01*
X98139236Y-88527000D01*
X98219484Y-88551343D01*
X98459678Y-88575000D01*
X98686336Y-88575000D01*
X98601068Y-88678899D01*
X98467818Y-88928192D01*
X98385764Y-89198691D01*
X98358057Y-89480000D01*
X98385764Y-89761309D01*
X98467818Y-90031808D01*
X98601068Y-90281101D01*
X98780392Y-90499608D01*
X98998899Y-90678932D01*
X99131858Y-90750000D01*
X98998899Y-90821068D01*
X98780392Y-91000392D01*
X98601068Y-91218899D01*
X98467818Y-91468192D01*
X98385764Y-91738691D01*
X98358057Y-92020000D01*
X98385764Y-92301309D01*
X98467818Y-92571808D01*
X98601068Y-92821101D01*
X98780392Y-93039608D01*
X98998899Y-93218932D01*
X99131858Y-93290000D01*
X98998899Y-93361068D01*
X98780392Y-93540392D01*
X98601068Y-93758899D01*
X98467818Y-94008192D01*
X98385764Y-94278691D01*
X98358057Y-94560000D01*
X98385764Y-94841309D01*
X98467818Y-95111808D01*
X98601068Y-95361101D01*
X98780392Y-95579608D01*
X98998899Y-95758932D01*
X99131858Y-95830000D01*
X98998899Y-95901068D01*
X98780392Y-96080392D01*
X98601068Y-96298899D01*
X98467818Y-96548192D01*
X98385764Y-96818691D01*
X98358057Y-97100000D01*
X98385764Y-97381309D01*
X98467818Y-97651808D01*
X98601068Y-97901101D01*
X98780392Y-98119608D01*
X98998899Y-98298932D01*
X99248192Y-98432182D01*
X99518691Y-98514236D01*
X99729508Y-98535000D01*
X99870492Y-98535000D01*
X100081309Y-98514236D01*
X100351808Y-98432182D01*
X100601101Y-98298932D01*
X100815000Y-98123389D01*
X100815000Y-101156610D01*
X100601101Y-100981068D01*
X100351808Y-100847818D01*
X100081309Y-100765764D01*
X99870492Y-100745000D01*
X99729508Y-100745000D01*
X99518691Y-100765764D01*
X99248192Y-100847818D01*
X98998899Y-100981068D01*
X98780392Y-101160392D01*
X98601068Y-101378899D01*
X98467818Y-101628192D01*
X98385764Y-101898691D01*
X98358057Y-102180000D01*
X98385764Y-102461309D01*
X98411151Y-102545001D01*
X97108555Y-102545001D01*
X97069999Y-102541204D01*
X97031443Y-102545001D01*
X97031438Y-102545001D01*
X96991025Y-102548981D01*
X96916112Y-102556359D01*
X96768139Y-102601247D01*
X96631766Y-102674139D01*
X96512235Y-102772237D01*
X96487654Y-102802189D01*
X94227613Y-105062230D01*
X94199999Y-105059510D01*
X93977501Y-105081424D01*
X93949230Y-105090000D01*
X92744248Y-105090000D01*
X92577501Y-105106423D01*
X92383800Y-105165182D01*
X92376592Y-105165892D01*
X92215858Y-105214650D01*
X92067725Y-105293829D01*
X91937885Y-105400385D01*
X91831329Y-105530225D01*
X91752150Y-105678358D01*
X91703392Y-105839092D01*
X91690122Y-105973826D01*
X91681423Y-106002501D01*
X91659509Y-106225000D01*
X91681423Y-106447499D01*
X91690122Y-106476174D01*
X91703392Y-106610908D01*
X91752150Y-106771642D01*
X91831329Y-106919775D01*
X91937885Y-107049615D01*
X92067725Y-107156171D01*
X92215858Y-107235350D01*
X92376592Y-107284108D01*
X92383800Y-107284818D01*
X92577501Y-107343577D01*
X92744248Y-107360000D01*
X93112217Y-107360000D01*
X93103392Y-107389092D01*
X93090122Y-107523826D01*
X93081423Y-107552501D01*
X93059509Y-107775000D01*
X93081423Y-107997499D01*
X93090122Y-108026174D01*
X93103392Y-108160908D01*
X93152150Y-108321642D01*
X93231329Y-108469775D01*
X93337885Y-108599615D01*
X93467725Y-108706171D01*
X93615858Y-108785350D01*
X93776592Y-108834108D01*
X93783800Y-108834818D01*
X93977501Y-108893577D01*
X94144248Y-108910000D01*
X95065001Y-108910000D01*
X95065000Y-110129867D01*
X93329869Y-111865000D01*
X92070132Y-111865000D01*
X88805000Y-108599869D01*
X88805000Y-106679480D01*
X88813215Y-106652399D01*
X88830000Y-106481978D01*
X88830000Y-105918021D01*
X88813215Y-105747600D01*
X88746885Y-105528940D01*
X88639171Y-105327421D01*
X88494212Y-105150788D01*
X88317578Y-105005829D01*
X88116059Y-104898115D01*
X87897399Y-104831785D01*
X87670000Y-104809388D01*
X87442600Y-104831785D01*
X87233902Y-104895093D01*
X87169180Y-104860498D01*
X87049482Y-104824188D01*
X86925000Y-104811928D01*
X85875000Y-104811928D01*
X85750518Y-104824188D01*
X85660000Y-104851646D01*
X85660000Y-49400000D01*
X92073000Y-49400000D01*
X92073000Y-54600000D01*
X92075440Y-54624776D01*
X92082667Y-54648601D01*
X92094403Y-54670557D01*
X92110197Y-54689803D01*
X92129443Y-54705597D01*
X92151399Y-54717333D01*
X92175224Y-54724560D01*
X92200000Y-54727000D01*
X98000000Y-54727000D01*
X98024776Y-54724560D01*
X98048601Y-54717333D01*
X98070557Y-54705597D01*
X98089803Y-54689803D01*
X98105597Y-54670557D01*
X98117333Y-54648601D01*
X98124560Y-54624776D01*
X98127000Y-54600000D01*
X98127000Y-49400000D01*
X98124560Y-49375224D01*
X98117333Y-49351399D01*
X98105597Y-49329443D01*
X98089803Y-49310197D01*
X98070557Y-49294403D01*
X98048601Y-49282667D01*
X98024776Y-49275440D01*
X98000000Y-49273000D01*
X92200000Y-49273000D01*
X92175224Y-49275440D01*
X92151399Y-49282667D01*
X92129443Y-49294403D01*
X92110197Y-49310197D01*
X92094403Y-49329443D01*
X92082667Y-49351399D01*
X92075440Y-49375224D01*
X92073000Y-49400000D01*
X85660000Y-49400000D01*
X85660000Y-44460000D01*
X151340000Y-44460000D01*
X151340001Y-141140000D01*
G36*
X118062652Y-105572809D02*
G01*
X118087235Y-105602763D01*
X118206766Y-105700861D01*
X118324056Y-105763553D01*
X118343139Y-105773753D01*
X118491112Y-105818641D01*
X118566025Y-105826019D01*
X118606438Y-105829999D01*
X118606443Y-105829999D01*
X118644999Y-105833796D01*
X118683555Y-105829999D01*
X125966288Y-105829999D01*
X125985225Y-105848936D01*
X126154743Y-105962204D01*
X126343101Y-106040225D01*
X126543060Y-106079999D01*
X126746938Y-106079999D01*
X126946897Y-106040225D01*
X127135255Y-105962204D01*
X127304773Y-105848936D01*
X127415000Y-105738709D01*
X127415000Y-116157875D01*
X127415001Y-116157882D01*
X127415000Y-116762725D01*
X124360265Y-119817460D01*
X124171939Y-119780000D01*
X123968061Y-119780000D01*
X123768102Y-119819774D01*
X123579744Y-119897795D01*
X123410226Y-120011063D01*
X123266063Y-120155226D01*
X123152795Y-120324744D01*
X123074774Y-120513102D01*
X123035000Y-120713061D01*
X123035000Y-120914990D01*
X122740147Y-120914990D01*
X122565000Y-120739843D01*
X122565000Y-120713061D01*
X122525226Y-120513102D01*
X122447205Y-120324744D01*
X122333937Y-120155226D01*
X122189774Y-120011063D01*
X122020256Y-119897795D01*
X121831898Y-119819774D01*
X121631939Y-119780000D01*
X121428061Y-119780000D01*
X121228102Y-119819774D01*
X121039744Y-119897795D01*
X120895000Y-119994510D01*
X120750256Y-119897795D01*
X120561898Y-119819774D01*
X120361939Y-119780000D01*
X120335158Y-119780000D01*
X117695001Y-117139844D01*
X117695001Y-105205158D01*
X118062652Y-105572809D01*
X118062652Y-105572809D01*
G37*
X118062652Y-105572809D02*
X118087235Y-105602763D01*
X118206766Y-105700861D01*
X118324056Y-105763553D01*
X118343139Y-105773753D01*
X118491112Y-105818641D01*
X118566025Y-105826019D01*
X118606438Y-105829999D01*
X118606443Y-105829999D01*
X118644999Y-105833796D01*
X118683555Y-105829999D01*
X125966288Y-105829999D01*
X125985225Y-105848936D01*
X126154743Y-105962204D01*
X126343101Y-106040225D01*
X126543060Y-106079999D01*
X126746938Y-106079999D01*
X126946897Y-106040225D01*
X127135255Y-105962204D01*
X127304773Y-105848936D01*
X127415000Y-105738709D01*
X127415000Y-116157875D01*
X127415001Y-116157882D01*
X127415000Y-116762725D01*
X124360265Y-119817460D01*
X124171939Y-119780000D01*
X123968061Y-119780000D01*
X123768102Y-119819774D01*
X123579744Y-119897795D01*
X123410226Y-120011063D01*
X123266063Y-120155226D01*
X123152795Y-120324744D01*
X123074774Y-120513102D01*
X123035000Y-120713061D01*
X123035000Y-120914990D01*
X122740147Y-120914990D01*
X122565000Y-120739843D01*
X122565000Y-120713061D01*
X122525226Y-120513102D01*
X122447205Y-120324744D01*
X122333937Y-120155226D01*
X122189774Y-120011063D01*
X122020256Y-119897795D01*
X121831898Y-119819774D01*
X121631939Y-119780000D01*
X121428061Y-119780000D01*
X121228102Y-119819774D01*
X121039744Y-119897795D01*
X120895000Y-119994510D01*
X120750256Y-119897795D01*
X120561898Y-119819774D01*
X120361939Y-119780000D01*
X120335158Y-119780000D01*
X117695001Y-117139844D01*
X117695001Y-105205158D01*
X118062652Y-105572809D01*
G36*
X116125001Y-100211152D02*
G01*
X116041309Y-100185764D01*
X115830492Y-100165000D01*
X115689508Y-100165000D01*
X115478691Y-100185764D01*
X115394999Y-100211151D01*
X115394999Y-97908849D01*
X115478691Y-97934236D01*
X115689508Y-97955000D01*
X115830492Y-97955000D01*
X116041309Y-97934236D01*
X116125002Y-97908848D01*
X116125001Y-100211152D01*
X116125001Y-100211152D01*
G37*
X116125001Y-100211152D02*
X116041309Y-100185764D01*
X115830492Y-100165000D01*
X115689508Y-100165000D01*
X115478691Y-100185764D01*
X115394999Y-100211151D01*
X115394999Y-97908849D01*
X115478691Y-97934236D01*
X115689508Y-97955000D01*
X115830492Y-97955000D01*
X116041309Y-97934236D01*
X116125002Y-97908848D01*
X116125001Y-100211152D01*
G36*
X142473000Y-51554453D02*
G01*
X142456487Y-51608889D01*
X142427815Y-51900000D01*
X142456487Y-52191111D01*
X142470974Y-52238868D01*
X138234989Y-56474854D01*
X138234989Y-53825166D01*
X140575157Y-51484999D01*
X142473000Y-51484999D01*
X142473000Y-51554453D01*
X142473000Y-51554453D01*
G37*
X142473000Y-51554453D02*
X142456487Y-51608889D01*
X142427815Y-51900000D01*
X142456487Y-52191111D01*
X142470974Y-52238868D01*
X138234989Y-56474854D01*
X138234989Y-53825166D01*
X140575157Y-51484999D01*
X142473000Y-51484999D01*
X142473000Y-51554453D01*
M02*
