G04 #@! TF.GenerationSoftware,KiCad,Pcbnew,(5.1.0)-1*
G04 #@! TF.CreationDate,2019-05-09T16:46:23+02:00*
G04 #@! TF.ProjectId,Actuator,41637475-6174-46f7-922e-6b696361645f,rev?*
G04 #@! TF.SameCoordinates,Original*
G04 #@! TF.FileFunction,Legend,Top*
G04 #@! TF.FilePolarity,Positive*
%FSLAX46Y46*%
G04 Gerber Fmt 4.6, Leading zero omitted, Abs format (unit mm)*
G04 Created by KiCad (PCBNEW (5.1.0)-1) date 2019-05-09 16:46:23*
%MOMM*%
%LPD*%
G04 APERTURE LIST*
%ADD10C,0.300000*%
%ADD11C,0.400000*%
%ADD12C,0.150000*%
%ADD13C,0.120000*%
%ADD14C,0.127000*%
%ADD15C,0.200000*%
%ADD16C,0.050000*%
G04 APERTURE END LIST*
D10*
X150711904Y-77707142D02*
X149188095Y-77707142D01*
X149950000Y-76945238D02*
X149950000Y-78469047D01*
X149957142Y-79688095D02*
X149957142Y-81211904D01*
X149188095Y-73592857D02*
X150711904Y-73592857D01*
X149950000Y-74354761D02*
X149950000Y-72830952D01*
X149942857Y-71611904D02*
X149942857Y-70088095D01*
X150811904Y-92857142D02*
X149288095Y-92857142D01*
X150050000Y-92095238D02*
X150050000Y-93619047D01*
X150057142Y-94838095D02*
X150057142Y-96361904D01*
X150142857Y-86011904D02*
X150142857Y-84488095D01*
X149388095Y-87992857D02*
X150911904Y-87992857D01*
X150150000Y-88754761D02*
X150150000Y-87230952D01*
D11*
X88457142Y-45414285D02*
X90742857Y-45414285D01*
X93657142Y-45414285D02*
X95942857Y-45414285D01*
X94800000Y-46557142D02*
X94800000Y-44271428D01*
X86457142Y-140214285D02*
X88742857Y-140214285D01*
X91657142Y-140214285D02*
X93942857Y-140214285D01*
X92800000Y-141357142D02*
X92800000Y-139071428D01*
X101657142Y-140214285D02*
X103942857Y-140214285D01*
X106857142Y-140214285D02*
X109142857Y-140214285D01*
X108000000Y-141357142D02*
X108000000Y-139071428D01*
X138857142Y-137614285D02*
X141142857Y-137614285D01*
X144057142Y-137614285D02*
X146342857Y-137614285D01*
X145200000Y-138757142D02*
X145200000Y-136471428D01*
D12*
X86166666Y-75500000D02*
X86166666Y-75166666D01*
X86452380Y-75566666D02*
X85452380Y-75333333D01*
X86452380Y-75100000D01*
X85547619Y-74900000D02*
X85500000Y-74866666D01*
X85452380Y-74800000D01*
X85452380Y-74633333D01*
X85500000Y-74566666D01*
X85547619Y-74533333D01*
X85642857Y-74500000D01*
X85738095Y-74500000D01*
X85880952Y-74533333D01*
X86452380Y-74933333D01*
X86452380Y-74500000D01*
X85928571Y-65083333D02*
X85976190Y-64983333D01*
X86023809Y-64950000D01*
X86119047Y-64916666D01*
X86261904Y-64916666D01*
X86357142Y-64950000D01*
X86404761Y-64983333D01*
X86452380Y-65050000D01*
X86452380Y-65316666D01*
X85452380Y-65316666D01*
X85452380Y-65083333D01*
X85500000Y-65016666D01*
X85547619Y-64983333D01*
X85642857Y-64950000D01*
X85738095Y-64950000D01*
X85833333Y-64983333D01*
X85880952Y-65016666D01*
X85928571Y-65083333D01*
X85928571Y-65316666D01*
X86452380Y-64250000D02*
X86452380Y-64650000D01*
X86452380Y-64450000D02*
X85452380Y-64450000D01*
X85595238Y-64516666D01*
X85690476Y-64583333D01*
X85738095Y-64650000D01*
X85928571Y-80483333D02*
X85976190Y-80383333D01*
X86023809Y-80350000D01*
X86119047Y-80316666D01*
X86261904Y-80316666D01*
X86357142Y-80350000D01*
X86404761Y-80383333D01*
X86452380Y-80450000D01*
X86452380Y-80716666D01*
X85452380Y-80716666D01*
X85452380Y-80483333D01*
X85500000Y-80416666D01*
X85547619Y-80383333D01*
X85642857Y-80350000D01*
X85738095Y-80350000D01*
X85833333Y-80383333D01*
X85880952Y-80416666D01*
X85928571Y-80483333D01*
X85928571Y-80716666D01*
X85547619Y-80050000D02*
X85500000Y-80016666D01*
X85452380Y-79950000D01*
X85452380Y-79783333D01*
X85500000Y-79716666D01*
X85547619Y-79683333D01*
X85642857Y-79650000D01*
X85738095Y-79650000D01*
X85880952Y-79683333D01*
X86452380Y-80083333D01*
X86452380Y-79650000D01*
X86166666Y-70300000D02*
X86166666Y-69966666D01*
X86452380Y-70366666D02*
X85452380Y-70133333D01*
X86452380Y-69900000D01*
X86452380Y-69300000D02*
X86452380Y-69700000D01*
X86452380Y-69500000D02*
X85452380Y-69500000D01*
X85595238Y-69566666D01*
X85690476Y-69633333D01*
X85738095Y-69700000D01*
X86366666Y-91100000D02*
X86366666Y-90766666D01*
X86652380Y-91166666D02*
X85652380Y-90933333D01*
X86652380Y-90700000D01*
X86652380Y-90100000D02*
X86652380Y-90500000D01*
X86652380Y-90300000D02*
X85652380Y-90300000D01*
X85795238Y-90366666D01*
X85890476Y-90433333D01*
X85938095Y-90500000D01*
X86366666Y-96300000D02*
X86366666Y-95966666D01*
X86652380Y-96366666D02*
X85652380Y-96133333D01*
X86652380Y-95900000D01*
X85747619Y-95700000D02*
X85700000Y-95666666D01*
X85652380Y-95600000D01*
X85652380Y-95433333D01*
X85700000Y-95366666D01*
X85747619Y-95333333D01*
X85842857Y-95300000D01*
X85938095Y-95300000D01*
X86080952Y-95333333D01*
X86652380Y-95733333D01*
X86652380Y-95300000D01*
X86128571Y-101283333D02*
X86176190Y-101183333D01*
X86223809Y-101150000D01*
X86319047Y-101116666D01*
X86461904Y-101116666D01*
X86557142Y-101150000D01*
X86604761Y-101183333D01*
X86652380Y-101250000D01*
X86652380Y-101516666D01*
X85652380Y-101516666D01*
X85652380Y-101283333D01*
X85700000Y-101216666D01*
X85747619Y-101183333D01*
X85842857Y-101150000D01*
X85938095Y-101150000D01*
X86033333Y-101183333D01*
X86080952Y-101216666D01*
X86128571Y-101283333D01*
X86128571Y-101516666D01*
X85747619Y-100850000D02*
X85700000Y-100816666D01*
X85652380Y-100750000D01*
X85652380Y-100583333D01*
X85700000Y-100516666D01*
X85747619Y-100483333D01*
X85842857Y-100450000D01*
X85938095Y-100450000D01*
X86080952Y-100483333D01*
X86652380Y-100883333D01*
X86652380Y-100450000D01*
X86128571Y-85883333D02*
X86176190Y-85783333D01*
X86223809Y-85750000D01*
X86319047Y-85716666D01*
X86461904Y-85716666D01*
X86557142Y-85750000D01*
X86604761Y-85783333D01*
X86652380Y-85850000D01*
X86652380Y-86116666D01*
X85652380Y-86116666D01*
X85652380Y-85883333D01*
X85700000Y-85816666D01*
X85747619Y-85783333D01*
X85842857Y-85750000D01*
X85938095Y-85750000D01*
X86033333Y-85783333D01*
X86080952Y-85816666D01*
X86128571Y-85883333D01*
X86128571Y-86116666D01*
X86652380Y-85050000D02*
X86652380Y-85450000D01*
X86652380Y-85250000D02*
X85652380Y-85250000D01*
X85795238Y-85316666D01*
X85890476Y-85383333D01*
X85938095Y-85450000D01*
D11*
X124257142Y-137614285D02*
X126542857Y-137614285D01*
X125400000Y-138757142D02*
X125400000Y-136471428D01*
X119057142Y-137614285D02*
X121342857Y-137614285D01*
D12*
X145866666Y-45052380D02*
X146266666Y-45052380D01*
X146066666Y-46052380D02*
X146066666Y-45052380D01*
X146433333Y-45052380D02*
X146900000Y-46052380D01*
X146900000Y-45052380D02*
X146433333Y-46052380D01*
X143683333Y-46052380D02*
X143450000Y-45576190D01*
X143283333Y-46052380D02*
X143283333Y-45052380D01*
X143550000Y-45052380D01*
X143616666Y-45100000D01*
X143650000Y-45147619D01*
X143683333Y-45242857D01*
X143683333Y-45385714D01*
X143650000Y-45480952D01*
X143616666Y-45528571D01*
X143550000Y-45576190D01*
X143283333Y-45576190D01*
X143916666Y-45052380D02*
X144383333Y-46052380D01*
X144383333Y-45052380D02*
X143916666Y-46052380D01*
X147700000Y-45671428D02*
X148233333Y-45671428D01*
X147966666Y-46052380D02*
X147966666Y-45290476D01*
X148900000Y-45052380D02*
X148566666Y-45052380D01*
X148533333Y-45528571D01*
X148566666Y-45480952D01*
X148633333Y-45433333D01*
X148800000Y-45433333D01*
X148866666Y-45480952D01*
X148900000Y-45528571D01*
X148933333Y-45623809D01*
X148933333Y-45861904D01*
X148900000Y-45957142D01*
X148866666Y-46004761D01*
X148800000Y-46052380D01*
X148633333Y-46052380D01*
X148566666Y-46004761D01*
X148533333Y-45957142D01*
X149133333Y-45052380D02*
X149366666Y-46052380D01*
X149600000Y-45052380D01*
X140866666Y-45100000D02*
X140800000Y-45052380D01*
X140700000Y-45052380D01*
X140600000Y-45100000D01*
X140533333Y-45195238D01*
X140500000Y-45290476D01*
X140466666Y-45480952D01*
X140466666Y-45623809D01*
X140500000Y-45814285D01*
X140533333Y-45909523D01*
X140600000Y-46004761D01*
X140700000Y-46052380D01*
X140766666Y-46052380D01*
X140866666Y-46004761D01*
X140900000Y-45957142D01*
X140900000Y-45623809D01*
X140766666Y-45623809D01*
X141200000Y-46052380D02*
X141200000Y-45052380D01*
X141600000Y-46052380D01*
X141600000Y-45052380D01*
X141933333Y-46052380D02*
X141933333Y-45052380D01*
X142100000Y-45052380D01*
X142200000Y-45100000D01*
X142266666Y-45195238D01*
X142300000Y-45290476D01*
X142333333Y-45480952D01*
X142333333Y-45623809D01*
X142300000Y-45814285D01*
X142266666Y-45909523D01*
X142200000Y-46004761D01*
X142100000Y-46052380D01*
X141933333Y-46052380D01*
X134500000Y-45671428D02*
X135033333Y-45671428D01*
X134766666Y-46052380D02*
X134766666Y-45290476D01*
X135700000Y-45052380D02*
X135366666Y-45052380D01*
X135333333Y-45528571D01*
X135366666Y-45480952D01*
X135433333Y-45433333D01*
X135600000Y-45433333D01*
X135666666Y-45480952D01*
X135700000Y-45528571D01*
X135733333Y-45623809D01*
X135733333Y-45861904D01*
X135700000Y-45957142D01*
X135666666Y-46004761D01*
X135600000Y-46052380D01*
X135433333Y-46052380D01*
X135366666Y-46004761D01*
X135333333Y-45957142D01*
X135933333Y-45052380D02*
X136166666Y-46052380D01*
X136400000Y-45052380D01*
X132150000Y-46004761D02*
X132250000Y-46052380D01*
X132416666Y-46052380D01*
X132483333Y-46004761D01*
X132516666Y-45957142D01*
X132550000Y-45861904D01*
X132550000Y-45766666D01*
X132516666Y-45671428D01*
X132483333Y-45623809D01*
X132416666Y-45576190D01*
X132283333Y-45528571D01*
X132216666Y-45480952D01*
X132183333Y-45433333D01*
X132150000Y-45338095D01*
X132150000Y-45242857D01*
X132183333Y-45147619D01*
X132216666Y-45100000D01*
X132283333Y-45052380D01*
X132450000Y-45052380D01*
X132550000Y-45100000D01*
X132850000Y-46052380D02*
X132850000Y-45052380D01*
X133016666Y-45052380D01*
X133116666Y-45100000D01*
X133183333Y-45195238D01*
X133216666Y-45290476D01*
X133250000Y-45480952D01*
X133250000Y-45623809D01*
X133216666Y-45814285D01*
X133183333Y-45909523D01*
X133116666Y-46004761D01*
X133016666Y-46052380D01*
X132850000Y-46052380D01*
X133516666Y-45766666D02*
X133850000Y-45766666D01*
X133450000Y-46052380D02*
X133683333Y-45052380D01*
X133916666Y-46052380D01*
X129766666Y-46004761D02*
X129866666Y-46052380D01*
X130033333Y-46052380D01*
X130100000Y-46004761D01*
X130133333Y-45957142D01*
X130166666Y-45861904D01*
X130166666Y-45766666D01*
X130133333Y-45671428D01*
X130100000Y-45623809D01*
X130033333Y-45576190D01*
X129900000Y-45528571D01*
X129833333Y-45480952D01*
X129800000Y-45433333D01*
X129766666Y-45338095D01*
X129766666Y-45242857D01*
X129800000Y-45147619D01*
X129833333Y-45100000D01*
X129900000Y-45052380D01*
X130066666Y-45052380D01*
X130166666Y-45100000D01*
X130866666Y-45957142D02*
X130833333Y-46004761D01*
X130733333Y-46052380D01*
X130666666Y-46052380D01*
X130566666Y-46004761D01*
X130500000Y-45909523D01*
X130466666Y-45814285D01*
X130433333Y-45623809D01*
X130433333Y-45480952D01*
X130466666Y-45290476D01*
X130500000Y-45195238D01*
X130566666Y-45100000D01*
X130666666Y-45052380D01*
X130733333Y-45052380D01*
X130833333Y-45100000D01*
X130866666Y-45147619D01*
X131500000Y-46052380D02*
X131166666Y-46052380D01*
X131166666Y-45052380D01*
X127666666Y-45100000D02*
X127600000Y-45052380D01*
X127500000Y-45052380D01*
X127400000Y-45100000D01*
X127333333Y-45195238D01*
X127300000Y-45290476D01*
X127266666Y-45480952D01*
X127266666Y-45623809D01*
X127300000Y-45814285D01*
X127333333Y-45909523D01*
X127400000Y-46004761D01*
X127500000Y-46052380D01*
X127566666Y-46052380D01*
X127666666Y-46004761D01*
X127700000Y-45957142D01*
X127700000Y-45623809D01*
X127566666Y-45623809D01*
X128000000Y-46052380D02*
X128000000Y-45052380D01*
X128400000Y-46052380D01*
X128400000Y-45052380D01*
X128733333Y-46052380D02*
X128733333Y-45052380D01*
X128900000Y-45052380D01*
X129000000Y-45100000D01*
X129066666Y-45195238D01*
X129100000Y-45290476D01*
X129133333Y-45480952D01*
X129133333Y-45623809D01*
X129100000Y-45814285D01*
X129066666Y-45909523D01*
X129000000Y-46004761D01*
X128900000Y-46052380D01*
X128733333Y-46052380D01*
D13*
X118950279Y-78290000D02*
X118624721Y-78290000D01*
X118950279Y-79310000D02*
X118624721Y-79310000D01*
X118950279Y-80890000D02*
X118624721Y-80890000D01*
X118950279Y-81910000D02*
X118624721Y-81910000D01*
X86700000Y-61960000D02*
X86700000Y-62460000D01*
X87440000Y-61960000D02*
X86700000Y-61960000D01*
X90577000Y-78813000D02*
X90531000Y-78766000D01*
X92875000Y-81110000D02*
X92839000Y-81075000D01*
X90361000Y-79006000D02*
X90326000Y-78971000D01*
X92669000Y-81315000D02*
X92623000Y-81268000D01*
X90577000Y-73733000D02*
X90531000Y-73686000D01*
X92875000Y-76030000D02*
X92839000Y-75995000D01*
X90361000Y-73926000D02*
X90326000Y-73891000D01*
X92669000Y-76235000D02*
X92623000Y-76188000D01*
X90577000Y-68653000D02*
X90531000Y-68606000D01*
X92875000Y-70950000D02*
X92839000Y-70915000D01*
X90361000Y-68846000D02*
X90326000Y-68811000D01*
X92669000Y-71155000D02*
X92623000Y-71108000D01*
X96861000Y-82640000D02*
X86940000Y-82640000D01*
X96861000Y-62200000D02*
X86940000Y-62200000D01*
X86940000Y-62200000D02*
X86940000Y-82640000D01*
X96861000Y-62200000D02*
X96861000Y-82640000D01*
X93901000Y-62200000D02*
X93901000Y-82640000D01*
X89000000Y-62200000D02*
X89000000Y-82640000D01*
X87500000Y-62200000D02*
X87500000Y-82640000D01*
X93280000Y-80040000D02*
G75*
G03X93280000Y-80040000I-1680000J0D01*
G01*
X93280000Y-74960000D02*
G75*
G03X93280000Y-74960000I-1680000J0D01*
G01*
X93280000Y-69880000D02*
G75*
G03X93280000Y-69880000I-1680000J0D01*
G01*
X89919747Y-64828805D02*
G75*
G02X90065000Y-64116000I1680253J28805D01*
G01*
X90916958Y-63264574D02*
G75*
G02X92284000Y-63265000I683042J-1535426D01*
G01*
X93135426Y-64116958D02*
G75*
G02X93135000Y-65484000I-1535426J-683042D01*
G01*
X92283042Y-66335426D02*
G75*
G02X90916000Y-66335000I-683042J1535426D01*
G01*
X90065244Y-65483318D02*
G75*
G02X89920000Y-64800000I1534756J683318D01*
G01*
X128200000Y-125500000D02*
X127700000Y-125500000D01*
X128200000Y-126240000D02*
X128200000Y-125500000D01*
X121627000Y-129377000D02*
X121674000Y-129331000D01*
X119330000Y-131675000D02*
X119365000Y-131639000D01*
X121434000Y-129161000D02*
X121469000Y-129126000D01*
X119125000Y-131469000D02*
X119172000Y-131423000D01*
X117840000Y-135661000D02*
X117840000Y-125740000D01*
X127960000Y-135661000D02*
X127960000Y-125740000D01*
X127960000Y-125740000D02*
X117840000Y-125740000D01*
X127960000Y-135661000D02*
X117840000Y-135661000D01*
X127960000Y-132701000D02*
X117840000Y-132701000D01*
X127960000Y-127800000D02*
X117840000Y-127800000D01*
X127960000Y-126300000D02*
X117840000Y-126300000D01*
X122080000Y-130400000D02*
G75*
G03X122080000Y-130400000I-1680000J0D01*
G01*
X125371195Y-128719747D02*
G75*
G02X126084000Y-128865000I28805J-1680253D01*
G01*
X126935426Y-129716958D02*
G75*
G02X126935000Y-131084000I-1535426J-683042D01*
G01*
X126083042Y-131935426D02*
G75*
G02X124716000Y-131935000I-683042J1535426D01*
G01*
X123864574Y-131083042D02*
G75*
G02X123865000Y-129716000I1535426J683042D01*
G01*
X124716682Y-128865244D02*
G75*
G02X125400000Y-128720000I683318J-1534756D01*
G01*
X108130000Y-54730000D02*
X108130000Y-56230000D01*
X108130000Y-56230000D02*
X108400000Y-56230000D01*
X108400000Y-56230000D02*
X108400000Y-59060000D01*
X115030000Y-54730000D02*
X115030000Y-56230000D01*
X115030000Y-56230000D02*
X114760000Y-56230000D01*
X114760000Y-56230000D02*
X114760000Y-57330000D01*
X106850000Y-117850000D02*
X106850000Y-113850000D01*
X110450000Y-117850000D02*
X106850000Y-117850000D01*
X110450000Y-113850000D02*
X110450000Y-117850000D01*
X106850000Y-113850000D02*
X110450000Y-113850000D01*
X106850000Y-117850000D02*
X110450000Y-113850000D01*
X106850000Y-115850000D02*
X102650000Y-115850000D01*
X114650000Y-115850000D02*
X110450000Y-115850000D01*
X108650000Y-112450000D02*
X105050000Y-112450000D01*
X108650000Y-119250000D02*
X105050000Y-119250000D01*
X105050000Y-119250000D02*
X105050000Y-112450000D01*
X108650000Y-120750000D02*
X111150000Y-125350000D01*
X108650000Y-119250000D02*
X108650000Y-120750000D01*
X114650000Y-115850000D02*
X114650000Y-113350000D01*
X108650000Y-112450000D02*
X108650000Y-111650000D01*
X102650000Y-113350000D02*
X102650000Y-115850000D01*
X112900000Y-123950000D02*
X110400000Y-123950000D01*
X104500000Y-123950000D02*
X106950000Y-123950000D01*
X100900000Y-128200000D02*
X100900000Y-108400000D01*
X116500000Y-128200000D02*
X100900000Y-128200000D01*
X116500000Y-108400000D02*
X116500000Y-128200000D01*
X116500000Y-108400000D02*
X109900000Y-108400000D01*
X107500000Y-108400000D02*
X100900000Y-108400000D01*
X90950000Y-117850000D02*
X90950000Y-113850000D01*
X94550000Y-117850000D02*
X90950000Y-117850000D01*
X94550000Y-113850000D02*
X94550000Y-117850000D01*
X90950000Y-113850000D02*
X94550000Y-113850000D01*
X90950000Y-117850000D02*
X94550000Y-113850000D01*
X90950000Y-115850000D02*
X86750000Y-115850000D01*
X98750000Y-115850000D02*
X94550000Y-115850000D01*
X92750000Y-112450000D02*
X89150000Y-112450000D01*
X92750000Y-119250000D02*
X89150000Y-119250000D01*
X89150000Y-119250000D02*
X89150000Y-112450000D01*
X92750000Y-120750000D02*
X95250000Y-125350000D01*
X92750000Y-119250000D02*
X92750000Y-120750000D01*
X98750000Y-115850000D02*
X98750000Y-113350000D01*
X92750000Y-112450000D02*
X92750000Y-111650000D01*
X86750000Y-113350000D02*
X86750000Y-115850000D01*
X97000000Y-123950000D02*
X94500000Y-123950000D01*
X88600000Y-123950000D02*
X91050000Y-123950000D01*
X85000000Y-128200000D02*
X85000000Y-108400000D01*
X100600000Y-128200000D02*
X85000000Y-128200000D01*
X100600000Y-108400000D02*
X100600000Y-128200000D01*
X100600000Y-108400000D02*
X94000000Y-108400000D01*
X91600000Y-108400000D02*
X85000000Y-108400000D01*
X129730000Y-100330000D02*
X129730000Y-102870000D01*
X129730000Y-102870000D02*
X132400000Y-102870000D01*
X132400000Y-100330000D02*
X132400000Y-62100000D01*
X132400000Y-105540000D02*
X132400000Y-102870000D01*
X117030000Y-102870000D02*
X114360000Y-102870000D01*
X117030000Y-102870000D02*
X117030000Y-64770000D01*
X117030000Y-64770000D02*
X114360000Y-64770000D01*
X129730000Y-100330000D02*
X132400000Y-100330000D01*
X129730000Y-100330000D02*
X129730000Y-64770000D01*
X129730000Y-64770000D02*
X132400000Y-64770000D01*
X132400000Y-62100000D02*
X114360000Y-62100000D01*
X114360000Y-62100000D02*
X114360000Y-105540000D01*
X114360000Y-105540000D02*
X132400000Y-105540000D01*
X113900000Y-83000000D02*
X101070000Y-83000000D01*
X113900000Y-103580000D02*
X113900000Y-83000000D01*
X98400000Y-103580000D02*
X113900000Y-103580000D01*
X98400000Y-85670000D02*
X98400000Y-103580000D01*
X101070000Y-85670000D02*
X98400000Y-85670000D01*
X101070000Y-83000000D02*
X101070000Y-85670000D01*
X98400000Y-83000000D02*
X98400000Y-84400000D01*
X99800000Y-83000000D02*
X98400000Y-83000000D01*
X101070000Y-85670000D02*
X101070000Y-103580000D01*
X111230000Y-83000000D02*
X111230000Y-103580000D01*
X111230000Y-62000000D02*
X111230000Y-82580000D01*
X101070000Y-64670000D02*
X101070000Y-82580000D01*
X99800000Y-62000000D02*
X98400000Y-62000000D01*
X98400000Y-62000000D02*
X98400000Y-63400000D01*
X101070000Y-62000000D02*
X101070000Y-64670000D01*
X101070000Y-64670000D02*
X98400000Y-64670000D01*
X98400000Y-64670000D02*
X98400000Y-82580000D01*
X98400000Y-82580000D02*
X113900000Y-82580000D01*
X113900000Y-82580000D02*
X113900000Y-62000000D01*
X113900000Y-62000000D02*
X101070000Y-62000000D01*
X103462779Y-53060000D02*
X103137221Y-53060000D01*
X103462779Y-52040000D02*
X103137221Y-52040000D01*
X106743750Y-59341250D02*
X106743750Y-58553750D01*
X107137500Y-58947500D02*
X106350000Y-58947500D01*
X106110000Y-54754437D02*
X105045563Y-53690000D01*
X106110000Y-59445563D02*
X105045563Y-60510000D01*
X106110000Y-59445563D02*
X106110000Y-58160000D01*
X106110000Y-54754437D02*
X106110000Y-56040000D01*
X105045563Y-53690000D02*
X99290000Y-53690000D01*
X105045563Y-60510000D02*
X99290000Y-60510000D01*
X99290000Y-60510000D02*
X99290000Y-58160000D01*
X99290000Y-53690000D02*
X99290000Y-56040000D01*
X124550000Y-46190000D02*
X122200000Y-46190000D01*
X117730000Y-46190000D02*
X120080000Y-46190000D01*
X117730000Y-51945563D02*
X117730000Y-46190000D01*
X124550000Y-51945563D02*
X124550000Y-46190000D01*
X123485563Y-53010000D02*
X122200000Y-53010000D01*
X118794437Y-53010000D02*
X120080000Y-53010000D01*
X118794437Y-53010000D02*
X117730000Y-51945563D01*
X123485563Y-53010000D02*
X124550000Y-51945563D01*
X119292500Y-54037500D02*
X119292500Y-53250000D01*
X118898750Y-53643750D02*
X119686250Y-53643750D01*
X109843750Y-80241250D02*
X109843750Y-79453750D01*
X110237500Y-79847500D02*
X109450000Y-79847500D01*
X109210000Y-75654437D02*
X108145563Y-74590000D01*
X109210000Y-80345563D02*
X108145563Y-81410000D01*
X109210000Y-80345563D02*
X109210000Y-79060000D01*
X109210000Y-75654437D02*
X109210000Y-76940000D01*
X108145563Y-74590000D02*
X102390000Y-74590000D01*
X108145563Y-81410000D02*
X102390000Y-81410000D01*
X102390000Y-81410000D02*
X102390000Y-79060000D01*
X102390000Y-74590000D02*
X102390000Y-76940000D01*
X102390000Y-82190000D02*
X102390000Y-84540000D01*
X102390000Y-89010000D02*
X102390000Y-86660000D01*
X108145563Y-89010000D02*
X102390000Y-89010000D01*
X108145563Y-82190000D02*
X102390000Y-82190000D01*
X109210000Y-83254437D02*
X109210000Y-84540000D01*
X109210000Y-87945563D02*
X109210000Y-86660000D01*
X109210000Y-87945563D02*
X108145563Y-89010000D01*
X109210000Y-83254437D02*
X108145563Y-82190000D01*
X110237500Y-87447500D02*
X109450000Y-87447500D01*
X109843750Y-87841250D02*
X109843750Y-87053750D01*
X137110000Y-120624721D02*
X137110000Y-120950279D01*
X136090000Y-120624721D02*
X136090000Y-120950279D01*
X137110000Y-117950279D02*
X137110000Y-117624721D01*
X136090000Y-117950279D02*
X136090000Y-117624721D01*
X128740000Y-128040000D02*
X131090000Y-128040000D01*
X135560000Y-128040000D02*
X133210000Y-128040000D01*
X135560000Y-122284437D02*
X135560000Y-128040000D01*
X128740000Y-122284437D02*
X128740000Y-128040000D01*
X129804437Y-121220000D02*
X131090000Y-121220000D01*
X134495563Y-121220000D02*
X133210000Y-121220000D01*
X134495563Y-121220000D02*
X135560000Y-122284437D01*
X129804437Y-121220000D02*
X128740000Y-122284437D01*
X133997500Y-120192500D02*
X133997500Y-120980000D01*
X134391250Y-120586250D02*
X133603750Y-120586250D01*
X135610000Y-110790000D02*
X133260000Y-110790000D01*
X128790000Y-110790000D02*
X131140000Y-110790000D01*
X128790000Y-116545563D02*
X128790000Y-110790000D01*
X135610000Y-116545563D02*
X135610000Y-110790000D01*
X134545563Y-117610000D02*
X133260000Y-117610000D01*
X129854437Y-117610000D02*
X131140000Y-117610000D01*
X129854437Y-117610000D02*
X128790000Y-116545563D01*
X134545563Y-117610000D02*
X135610000Y-116545563D01*
X130352500Y-118637500D02*
X130352500Y-117850000D01*
X129958750Y-118243750D02*
X130746250Y-118243750D01*
X100600000Y-104550000D02*
X106000000Y-104550000D01*
X100600000Y-107850000D02*
X106000000Y-107850000D01*
X100600000Y-104550000D02*
X100600000Y-107850000D01*
X98200000Y-107850000D02*
X98200000Y-104550000D01*
X98200000Y-104550000D02*
X92800000Y-104550000D01*
X98200000Y-107850000D02*
X92800000Y-107850000D01*
X90683318Y-53634756D02*
G75*
G02X90000000Y-53780000I-683318J1534756D01*
G01*
X91535426Y-51416958D02*
G75*
G02X91535000Y-52784000I-1535426J-683042D01*
G01*
X89316958Y-50564574D02*
G75*
G02X90684000Y-50565000I683042J-1535426D01*
G01*
X88464574Y-52783042D02*
G75*
G02X88465000Y-51416000I1535426J683042D01*
G01*
X90028805Y-53780253D02*
G75*
G02X89316000Y-53635000I-28805J1680253D01*
G01*
X96760000Y-52100000D02*
G75*
G03X96760000Y-52100000I-1680000J0D01*
G01*
X87400000Y-56200000D02*
X97680000Y-56200000D01*
X87400000Y-54700000D02*
X97680000Y-54700000D01*
X87400000Y-49799000D02*
X97680000Y-49799000D01*
X87400000Y-46839000D02*
X97680000Y-46839000D01*
X87400000Y-56760000D02*
X97680000Y-56760000D01*
X87400000Y-46839000D02*
X87400000Y-56760000D01*
X97680000Y-46839000D02*
X97680000Y-56760000D01*
X96355000Y-51031000D02*
X96308000Y-51077000D01*
X94046000Y-53339000D02*
X94011000Y-53374000D01*
X96150000Y-50825000D02*
X96115000Y-50861000D01*
X93853000Y-53123000D02*
X93806000Y-53169000D01*
X87160000Y-56260000D02*
X87160000Y-57000000D01*
X87160000Y-57000000D02*
X87660000Y-57000000D01*
X150330000Y-53230000D02*
X150330000Y-50570000D01*
X142650000Y-53230000D02*
X150330000Y-53230000D01*
X142650000Y-50570000D02*
X150330000Y-50570000D01*
X142650000Y-53230000D02*
X142650000Y-50570000D01*
X141380000Y-53230000D02*
X140050000Y-53230000D01*
X140050000Y-53230000D02*
X140050000Y-51900000D01*
X148330000Y-91470000D02*
X145670000Y-91470000D01*
X148330000Y-94070000D02*
X148330000Y-91470000D01*
X145670000Y-94070000D02*
X145670000Y-91470000D01*
X148330000Y-94070000D02*
X145670000Y-94070000D01*
X148330000Y-95340000D02*
X148330000Y-96670000D01*
X148330000Y-96670000D02*
X147000000Y-96670000D01*
X148330000Y-76470000D02*
X145670000Y-76470000D01*
X148330000Y-79070000D02*
X148330000Y-76470000D01*
X145670000Y-79070000D02*
X145670000Y-76470000D01*
X148330000Y-79070000D02*
X145670000Y-79070000D01*
X148330000Y-80340000D02*
X148330000Y-81670000D01*
X148330000Y-81670000D02*
X147000000Y-81670000D01*
X126670000Y-53530000D02*
X126670000Y-52200000D01*
X128000000Y-53530000D02*
X126670000Y-53530000D01*
X129270000Y-53530000D02*
X129270000Y-50870000D01*
X129270000Y-50870000D02*
X136950000Y-50870000D01*
X129270000Y-53530000D02*
X136950000Y-53530000D01*
X136950000Y-53530000D02*
X136950000Y-50870000D01*
X145670000Y-84070000D02*
X147000000Y-84070000D01*
X145670000Y-85400000D02*
X145670000Y-84070000D01*
X145670000Y-86670000D02*
X148330000Y-86670000D01*
X148330000Y-86670000D02*
X148330000Y-89270000D01*
X145670000Y-86670000D02*
X145670000Y-89270000D01*
X145670000Y-89270000D02*
X148330000Y-89270000D01*
X145670000Y-69670000D02*
X147000000Y-69670000D01*
X145670000Y-71000000D02*
X145670000Y-69670000D01*
X145670000Y-72270000D02*
X148330000Y-72270000D01*
X148330000Y-72270000D02*
X148330000Y-74870000D01*
X145670000Y-72270000D02*
X145670000Y-74870000D01*
X145670000Y-74870000D02*
X148330000Y-74870000D01*
X138742000Y-46248000D02*
X138742000Y-50268000D01*
X138742000Y-50268000D02*
X151462000Y-50268000D01*
X151462000Y-50268000D02*
X151462000Y-46248000D01*
X151462000Y-46248000D02*
X138742000Y-46248000D01*
X138742000Y-47958000D02*
X139242000Y-47958000D01*
X139242000Y-47958000D02*
X139242000Y-46748000D01*
X139242000Y-46748000D02*
X150962000Y-46748000D01*
X150962000Y-46748000D02*
X150962000Y-47958000D01*
X150962000Y-47958000D02*
X151462000Y-47958000D01*
X138742000Y-48768000D02*
X139742000Y-48768000D01*
X139742000Y-48768000D02*
X139742000Y-50268000D01*
X151462000Y-48768000D02*
X150462000Y-48768000D01*
X150462000Y-48768000D02*
X150462000Y-50268000D01*
X138442000Y-48068000D02*
X138442000Y-50568000D01*
X138442000Y-50568000D02*
X140942000Y-50568000D01*
X110720000Y-128500000D02*
X110220000Y-128500000D01*
X110720000Y-129240000D02*
X110720000Y-128500000D01*
X104027000Y-132377000D02*
X104074000Y-132331000D01*
X101730000Y-134675000D02*
X101765000Y-134639000D01*
X103834000Y-132161000D02*
X103869000Y-132126000D01*
X101525000Y-134469000D02*
X101572000Y-134423000D01*
X100200000Y-138661000D02*
X100200000Y-128740000D01*
X110480000Y-138661000D02*
X110480000Y-128740000D01*
X110480000Y-128740000D02*
X100200000Y-128740000D01*
X110480000Y-138661000D02*
X100200000Y-138661000D01*
X110480000Y-135701000D02*
X100200000Y-135701000D01*
X110480000Y-130800000D02*
X100200000Y-130800000D01*
X110480000Y-129300000D02*
X100200000Y-129300000D01*
X104480000Y-133400000D02*
G75*
G03X104480000Y-133400000I-1680000J0D01*
G01*
X107851195Y-131719747D02*
G75*
G02X108564000Y-131865000I28805J-1680253D01*
G01*
X109415426Y-132716958D02*
G75*
G02X109415000Y-134084000I-1535426J-683042D01*
G01*
X108563042Y-134935426D02*
G75*
G02X107196000Y-134935000I-683042J1535426D01*
G01*
X106344574Y-134083042D02*
G75*
G02X106345000Y-132716000I1535426J683042D01*
G01*
X107196682Y-131865244D02*
G75*
G02X107880000Y-131720000I683318J-1534756D01*
G01*
X92116682Y-131865244D02*
G75*
G02X92800000Y-131720000I683318J-1534756D01*
G01*
X91264574Y-134083042D02*
G75*
G02X91265000Y-132716000I1535426J683042D01*
G01*
X93483042Y-134935426D02*
G75*
G02X92116000Y-134935000I-683042J1535426D01*
G01*
X94335426Y-132716958D02*
G75*
G02X94335000Y-134084000I-1535426J-683042D01*
G01*
X92771195Y-131719747D02*
G75*
G02X93484000Y-131865000I28805J-1680253D01*
G01*
X89400000Y-133400000D02*
G75*
G03X89400000Y-133400000I-1680000J0D01*
G01*
X95400000Y-129300000D02*
X85120000Y-129300000D01*
X95400000Y-130800000D02*
X85120000Y-130800000D01*
X95400000Y-135701000D02*
X85120000Y-135701000D01*
X95400000Y-138661000D02*
X85120000Y-138661000D01*
X95400000Y-128740000D02*
X85120000Y-128740000D01*
X95400000Y-138661000D02*
X95400000Y-128740000D01*
X85120000Y-138661000D02*
X85120000Y-128740000D01*
X86445000Y-134469000D02*
X86492000Y-134423000D01*
X88754000Y-132161000D02*
X88789000Y-132126000D01*
X86650000Y-134675000D02*
X86685000Y-134639000D01*
X88947000Y-132377000D02*
X88994000Y-132331000D01*
X95640000Y-129240000D02*
X95640000Y-128500000D01*
X95640000Y-128500000D02*
X95140000Y-128500000D01*
X90065244Y-86283318D02*
G75*
G02X89920000Y-85600000I1534756J683318D01*
G01*
X92283042Y-87135426D02*
G75*
G02X90916000Y-87135000I-683042J1535426D01*
G01*
X93135426Y-84916958D02*
G75*
G02X93135000Y-86284000I-1535426J-683042D01*
G01*
X90916958Y-84064574D02*
G75*
G02X92284000Y-84065000I683042J-1535426D01*
G01*
X89919747Y-85628805D02*
G75*
G02X90065000Y-84916000I1680253J28805D01*
G01*
X93280000Y-90680000D02*
G75*
G03X93280000Y-90680000I-1680000J0D01*
G01*
X93280000Y-95760000D02*
G75*
G03X93280000Y-95760000I-1680000J0D01*
G01*
X93280000Y-100840000D02*
G75*
G03X93280000Y-100840000I-1680000J0D01*
G01*
X87500000Y-83000000D02*
X87500000Y-103440000D01*
X89000000Y-83000000D02*
X89000000Y-103440000D01*
X93901000Y-83000000D02*
X93901000Y-103440000D01*
X96861000Y-83000000D02*
X96861000Y-103440000D01*
X86940000Y-83000000D02*
X86940000Y-103440000D01*
X96861000Y-83000000D02*
X86940000Y-83000000D01*
X96861000Y-103440000D02*
X86940000Y-103440000D01*
X92669000Y-91955000D02*
X92623000Y-91908000D01*
X90361000Y-89646000D02*
X90326000Y-89611000D01*
X92875000Y-91750000D02*
X92839000Y-91715000D01*
X90577000Y-89453000D02*
X90531000Y-89406000D01*
X92669000Y-97035000D02*
X92623000Y-96988000D01*
X90361000Y-94726000D02*
X90326000Y-94691000D01*
X92875000Y-96830000D02*
X92839000Y-96795000D01*
X90577000Y-94533000D02*
X90531000Y-94486000D01*
X92669000Y-102115000D02*
X92623000Y-102068000D01*
X90361000Y-99806000D02*
X90326000Y-99771000D01*
X92875000Y-101910000D02*
X92839000Y-101875000D01*
X90577000Y-99613000D02*
X90531000Y-99566000D01*
X87440000Y-82760000D02*
X86700000Y-82760000D01*
X86700000Y-82760000D02*
X86700000Y-83260000D01*
X125180000Y-50568000D02*
X127680000Y-50568000D01*
X125180000Y-48068000D02*
X125180000Y-50568000D01*
X137200000Y-48768000D02*
X137200000Y-50268000D01*
X138200000Y-48768000D02*
X137200000Y-48768000D01*
X126480000Y-48768000D02*
X126480000Y-50268000D01*
X125480000Y-48768000D02*
X126480000Y-48768000D01*
X137700000Y-47958000D02*
X138200000Y-47958000D01*
X137700000Y-46748000D02*
X137700000Y-47958000D01*
X125980000Y-46748000D02*
X137700000Y-46748000D01*
X125980000Y-47958000D02*
X125980000Y-46748000D01*
X125480000Y-47958000D02*
X125980000Y-47958000D01*
X138200000Y-46248000D02*
X125480000Y-46248000D01*
X138200000Y-50268000D02*
X138200000Y-46248000D01*
X125480000Y-50268000D02*
X138200000Y-50268000D01*
X125480000Y-46248000D02*
X125480000Y-50268000D01*
X148000000Y-125500000D02*
X147500000Y-125500000D01*
X148000000Y-126240000D02*
X148000000Y-125500000D01*
X141427000Y-129377000D02*
X141474000Y-129331000D01*
X139130000Y-131675000D02*
X139165000Y-131639000D01*
X141234000Y-129161000D02*
X141269000Y-129126000D01*
X138925000Y-131469000D02*
X138972000Y-131423000D01*
X137640000Y-135661000D02*
X137640000Y-125740000D01*
X147760000Y-135661000D02*
X147760000Y-125740000D01*
X147760000Y-125740000D02*
X137640000Y-125740000D01*
X147760000Y-135661000D02*
X137640000Y-135661000D01*
X147760000Y-132701000D02*
X137640000Y-132701000D01*
X147760000Y-127800000D02*
X137640000Y-127800000D01*
X147760000Y-126300000D02*
X137640000Y-126300000D01*
X141880000Y-130400000D02*
G75*
G03X141880000Y-130400000I-1680000J0D01*
G01*
X145171195Y-128719747D02*
G75*
G02X145884000Y-128865000I28805J-1680253D01*
G01*
X146735426Y-129716958D02*
G75*
G02X146735000Y-131084000I-1535426J-683042D01*
G01*
X145883042Y-131935426D02*
G75*
G02X144516000Y-131935000I-683042J1535426D01*
G01*
X143664574Y-131083042D02*
G75*
G02X143665000Y-129716000I1535426J683042D01*
G01*
X144516682Y-128865244D02*
G75*
G02X145200000Y-128720000I683318J-1534756D01*
G01*
X141150000Y-92170000D02*
X141150000Y-95770000D01*
X141161522Y-92131522D02*
G75*
G02X145600000Y-93970000I1838478J-1838478D01*
G01*
X141161522Y-95808478D02*
G75*
G03X145600000Y-93970000I1838478J1838478D01*
G01*
X141150000Y-77270000D02*
X141150000Y-80870000D01*
X141161522Y-77231522D02*
G75*
G02X145600000Y-79070000I1838478J-1838478D01*
G01*
X141161522Y-80908478D02*
G75*
G03X145600000Y-79070000I1838478J1838478D01*
G01*
X141150000Y-84870000D02*
X141150000Y-88470000D01*
X141161522Y-84831522D02*
G75*
G02X145600000Y-86670000I1838478J-1838478D01*
G01*
X141161522Y-88508478D02*
G75*
G03X145600000Y-86670000I1838478J1838478D01*
G01*
X141150000Y-70670000D02*
X141150000Y-74270000D01*
X141161522Y-70631522D02*
G75*
G02X145600000Y-72470000I1838478J-1838478D01*
G01*
X141161522Y-74308478D02*
G75*
G03X145600000Y-72470000I1838478J1838478D01*
G01*
X104880000Y-48996000D02*
X103950000Y-48996000D01*
X101720000Y-48996000D02*
X102650000Y-48996000D01*
X101720000Y-48996000D02*
X101720000Y-51156000D01*
X104880000Y-48996000D02*
X104880000Y-50456000D01*
X110308478Y-103438478D02*
G75*
G03X108470000Y-99000000I-1838478J1838478D01*
G01*
X106631522Y-103438478D02*
G75*
G02X108470000Y-99000000I1838478J1838478D01*
G01*
X106670000Y-103450000D02*
X110270000Y-103450000D01*
X89508478Y-108038478D02*
G75*
G03X87670000Y-103600000I-1838478J1838478D01*
G01*
X85831522Y-108038478D02*
G75*
G02X87670000Y-103600000I1838478J1838478D01*
G01*
X85870000Y-108050000D02*
X89470000Y-108050000D01*
X109460000Y-93975279D02*
X109460000Y-93649721D01*
X108440000Y-93975279D02*
X108440000Y-93649721D01*
X110860000Y-93649721D02*
X110860000Y-93975279D01*
X109840000Y-93649721D02*
X109840000Y-93975279D01*
X139890000Y-95350279D02*
X139890000Y-95024721D01*
X140910000Y-95350279D02*
X140910000Y-95024721D01*
X140910000Y-80662779D02*
X140910000Y-80337221D01*
X139890000Y-80662779D02*
X139890000Y-80337221D01*
X140910000Y-92424721D02*
X140910000Y-92750279D01*
X139890000Y-92424721D02*
X139890000Y-92750279D01*
X139890000Y-77737221D02*
X139890000Y-78062779D01*
X140910000Y-77737221D02*
X140910000Y-78062779D01*
X139790000Y-88175279D02*
X139790000Y-87849721D01*
X140810000Y-88175279D02*
X140810000Y-87849721D01*
X140910000Y-73952279D02*
X140910000Y-73626721D01*
X139890000Y-73952279D02*
X139890000Y-73626721D01*
X139790000Y-85224721D02*
X139790000Y-85550279D01*
X140810000Y-85224721D02*
X140810000Y-85550279D01*
X140910000Y-71024721D02*
X140910000Y-71350279D01*
X139890000Y-71024721D02*
X139890000Y-71350279D01*
D14*
X127500000Y-110520000D02*
X127900000Y-110520000D01*
X117700000Y-110520000D02*
X118100000Y-110520000D01*
X117700000Y-119990000D02*
X117700000Y-110520000D01*
X127900000Y-119990000D02*
X117700000Y-119990000D01*
X127900000Y-110520000D02*
X127900000Y-119990000D01*
D15*
X117895000Y-122635000D02*
G75*
G03X117895000Y-122635000I-150000J0D01*
G01*
X137827000Y-122539000D02*
G75*
G03X137827000Y-122539000I-150000J0D01*
G01*
D14*
X147832000Y-110424000D02*
X147832000Y-119894000D01*
X147832000Y-119894000D02*
X137632000Y-119894000D01*
X137632000Y-119894000D02*
X137632000Y-110424000D01*
X137632000Y-110424000D02*
X138032000Y-110424000D01*
X147432000Y-110424000D02*
X147832000Y-110424000D01*
D12*
X118833333Y-77852380D02*
X118500000Y-77376190D01*
X118261904Y-77852380D02*
X118261904Y-76852380D01*
X118642857Y-76852380D01*
X118738095Y-76900000D01*
X118785714Y-76947619D01*
X118833333Y-77042857D01*
X118833333Y-77185714D01*
X118785714Y-77280952D01*
X118738095Y-77328571D01*
X118642857Y-77376190D01*
X118261904Y-77376190D01*
X119309523Y-77852380D02*
X119500000Y-77852380D01*
X119595238Y-77804761D01*
X119642857Y-77757142D01*
X119738095Y-77614285D01*
X119785714Y-77423809D01*
X119785714Y-77042857D01*
X119738095Y-76947619D01*
X119690476Y-76900000D01*
X119595238Y-76852380D01*
X119404761Y-76852380D01*
X119309523Y-76900000D01*
X119261904Y-76947619D01*
X119214285Y-77042857D01*
X119214285Y-77280952D01*
X119261904Y-77376190D01*
X119309523Y-77423809D01*
X119404761Y-77471428D01*
X119595238Y-77471428D01*
X119690476Y-77423809D01*
X119738095Y-77376190D01*
X119785714Y-77280952D01*
X119357142Y-80652380D02*
X119023809Y-80176190D01*
X118785714Y-80652380D02*
X118785714Y-79652380D01*
X119166666Y-79652380D01*
X119261904Y-79700000D01*
X119309523Y-79747619D01*
X119357142Y-79842857D01*
X119357142Y-79985714D01*
X119309523Y-80080952D01*
X119261904Y-80128571D01*
X119166666Y-80176190D01*
X118785714Y-80176190D01*
X120309523Y-80652380D02*
X119738095Y-80652380D01*
X120023809Y-80652380D02*
X120023809Y-79652380D01*
X119928571Y-79795238D01*
X119833333Y-79890476D01*
X119738095Y-79938095D01*
X120690476Y-79747619D02*
X120738095Y-79700000D01*
X120833333Y-79652380D01*
X121071428Y-79652380D01*
X121166666Y-79700000D01*
X121214285Y-79747619D01*
X121261904Y-79842857D01*
X121261904Y-79938095D01*
X121214285Y-80080952D01*
X120642857Y-80652380D01*
X121261904Y-80652380D01*
X95252380Y-73859523D02*
X95966666Y-73859523D01*
X96109523Y-73907142D01*
X96204761Y-74002380D01*
X96252380Y-74145238D01*
X96252380Y-74240476D01*
X96252380Y-72859523D02*
X96252380Y-73430952D01*
X96252380Y-73145238D02*
X95252380Y-73145238D01*
X95395238Y-73240476D01*
X95490476Y-73335714D01*
X95538095Y-73430952D01*
X95347619Y-72478571D02*
X95300000Y-72430952D01*
X95252380Y-72335714D01*
X95252380Y-72097619D01*
X95300000Y-72002380D01*
X95347619Y-71954761D01*
X95442857Y-71907142D01*
X95538095Y-71907142D01*
X95680952Y-71954761D01*
X96252380Y-72526190D01*
X96252380Y-71907142D01*
X122090476Y-132852380D02*
X122090476Y-133566666D01*
X122042857Y-133709523D01*
X121947619Y-133804761D01*
X121804761Y-133852380D01*
X121709523Y-133852380D01*
X123090476Y-133852380D02*
X122519047Y-133852380D01*
X122804761Y-133852380D02*
X122804761Y-132852380D01*
X122709523Y-132995238D01*
X122614285Y-133090476D01*
X122519047Y-133138095D01*
X123947619Y-133185714D02*
X123947619Y-133852380D01*
X123709523Y-132804761D02*
X123471428Y-133519047D01*
X124090476Y-133519047D01*
X116282380Y-55171904D02*
X117091904Y-55171904D01*
X117187142Y-55124285D01*
X117234761Y-55076666D01*
X117282380Y-54981428D01*
X117282380Y-54790952D01*
X117234761Y-54695714D01*
X117187142Y-54648095D01*
X117091904Y-54600476D01*
X116282380Y-54600476D01*
X117282380Y-53600476D02*
X117282380Y-54171904D01*
X117282380Y-53886190D02*
X116282380Y-53886190D01*
X116425238Y-53981428D01*
X116520476Y-54076666D01*
X116568095Y-54171904D01*
X102322380Y-118908095D02*
X101322380Y-118908095D01*
X102322380Y-118336666D02*
X101750952Y-118765238D01*
X101322380Y-118336666D02*
X101893809Y-118908095D01*
X102322380Y-117384285D02*
X102322380Y-117955714D01*
X102322380Y-117670000D02*
X101322380Y-117670000D01*
X101465238Y-117765238D01*
X101560476Y-117860476D01*
X101608095Y-117955714D01*
X86302380Y-118818095D02*
X85302380Y-118818095D01*
X86302380Y-118246666D02*
X85730952Y-118675238D01*
X85302380Y-118246666D02*
X85873809Y-118818095D01*
X85397619Y-117865714D02*
X85350000Y-117818095D01*
X85302380Y-117722857D01*
X85302380Y-117484761D01*
X85350000Y-117389523D01*
X85397619Y-117341904D01*
X85492857Y-117294285D01*
X85588095Y-117294285D01*
X85730952Y-117341904D01*
X86302380Y-117913333D01*
X86302380Y-117294285D01*
X122665714Y-106846666D02*
X123141904Y-106846666D01*
X122570476Y-107132380D02*
X122903809Y-106132380D01*
X123237142Y-107132380D01*
X124094285Y-107132380D02*
X123522857Y-107132380D01*
X123808571Y-107132380D02*
X123808571Y-106132380D01*
X123713333Y-106275238D01*
X123618095Y-106370476D01*
X123522857Y-106418095D01*
X105085714Y-91166666D02*
X105561904Y-91166666D01*
X104990476Y-91452380D02*
X105323809Y-90452380D01*
X105657142Y-91452380D01*
X105942857Y-90547619D02*
X105990476Y-90500000D01*
X106085714Y-90452380D01*
X106323809Y-90452380D01*
X106419047Y-90500000D01*
X106466666Y-90547619D01*
X106514285Y-90642857D01*
X106514285Y-90738095D01*
X106466666Y-90880952D01*
X105895238Y-91452380D01*
X106514285Y-91452380D01*
X105535714Y-64016666D02*
X106011904Y-64016666D01*
X105440476Y-64302380D02*
X105773809Y-63302380D01*
X106107142Y-64302380D01*
X106345238Y-63302380D02*
X106964285Y-63302380D01*
X106630952Y-63683333D01*
X106773809Y-63683333D01*
X106869047Y-63730952D01*
X106916666Y-63778571D01*
X106964285Y-63873809D01*
X106964285Y-64111904D01*
X106916666Y-64207142D01*
X106869047Y-64254761D01*
X106773809Y-64302380D01*
X106488095Y-64302380D01*
X106392857Y-64254761D01*
X106345238Y-64207142D01*
X100833333Y-52957142D02*
X100785714Y-53004761D01*
X100642857Y-53052380D01*
X100547619Y-53052380D01*
X100404761Y-53004761D01*
X100309523Y-52909523D01*
X100261904Y-52814285D01*
X100214285Y-52623809D01*
X100214285Y-52480952D01*
X100261904Y-52290476D01*
X100309523Y-52195238D01*
X100404761Y-52100000D01*
X100547619Y-52052380D01*
X100642857Y-52052380D01*
X100785714Y-52100000D01*
X100833333Y-52147619D01*
X101785714Y-53052380D02*
X101214285Y-53052380D01*
X101500000Y-53052380D02*
X101500000Y-52052380D01*
X101404761Y-52195238D01*
X101309523Y-52290476D01*
X101214285Y-52338095D01*
X100483333Y-59757142D02*
X100435714Y-59804761D01*
X100292857Y-59852380D01*
X100197619Y-59852380D01*
X100054761Y-59804761D01*
X99959523Y-59709523D01*
X99911904Y-59614285D01*
X99864285Y-59423809D01*
X99864285Y-59280952D01*
X99911904Y-59090476D01*
X99959523Y-58995238D01*
X100054761Y-58900000D01*
X100197619Y-58852380D01*
X100292857Y-58852380D01*
X100435714Y-58900000D01*
X100483333Y-58947619D01*
X100864285Y-58947619D02*
X100911904Y-58900000D01*
X101007142Y-58852380D01*
X101245238Y-58852380D01*
X101340476Y-58900000D01*
X101388095Y-58947619D01*
X101435714Y-59042857D01*
X101435714Y-59138095D01*
X101388095Y-59280952D01*
X100816666Y-59852380D01*
X101435714Y-59852380D01*
X122997142Y-55266666D02*
X123044761Y-55314285D01*
X123092380Y-55457142D01*
X123092380Y-55552380D01*
X123044761Y-55695238D01*
X122949523Y-55790476D01*
X122854285Y-55838095D01*
X122663809Y-55885714D01*
X122520952Y-55885714D01*
X122330476Y-55838095D01*
X122235238Y-55790476D01*
X122140000Y-55695238D01*
X122092380Y-55552380D01*
X122092380Y-55457142D01*
X122140000Y-55314285D01*
X122187619Y-55266666D01*
X122092380Y-54933333D02*
X122092380Y-54314285D01*
X122473333Y-54647619D01*
X122473333Y-54504761D01*
X122520952Y-54409523D01*
X122568571Y-54361904D01*
X122663809Y-54314285D01*
X122901904Y-54314285D01*
X122997142Y-54361904D01*
X123044761Y-54409523D01*
X123092380Y-54504761D01*
X123092380Y-54790476D01*
X123044761Y-54885714D01*
X122997142Y-54933333D01*
X105633333Y-75657142D02*
X105585714Y-75704761D01*
X105442857Y-75752380D01*
X105347619Y-75752380D01*
X105204761Y-75704761D01*
X105109523Y-75609523D01*
X105061904Y-75514285D01*
X105014285Y-75323809D01*
X105014285Y-75180952D01*
X105061904Y-74990476D01*
X105109523Y-74895238D01*
X105204761Y-74800000D01*
X105347619Y-74752380D01*
X105442857Y-74752380D01*
X105585714Y-74800000D01*
X105633333Y-74847619D01*
X106490476Y-75085714D02*
X106490476Y-75752380D01*
X106252380Y-74704761D02*
X106014285Y-75419047D01*
X106633333Y-75419047D01*
X105533333Y-88557142D02*
X105485714Y-88604761D01*
X105342857Y-88652380D01*
X105247619Y-88652380D01*
X105104761Y-88604761D01*
X105009523Y-88509523D01*
X104961904Y-88414285D01*
X104914285Y-88223809D01*
X104914285Y-88080952D01*
X104961904Y-87890476D01*
X105009523Y-87795238D01*
X105104761Y-87700000D01*
X105247619Y-87652380D01*
X105342857Y-87652380D01*
X105485714Y-87700000D01*
X105533333Y-87747619D01*
X106438095Y-87652380D02*
X105961904Y-87652380D01*
X105914285Y-88128571D01*
X105961904Y-88080952D01*
X106057142Y-88033333D01*
X106295238Y-88033333D01*
X106390476Y-88080952D01*
X106438095Y-88128571D01*
X106485714Y-88223809D01*
X106485714Y-88461904D01*
X106438095Y-88557142D01*
X106390476Y-88604761D01*
X106295238Y-88652380D01*
X106057142Y-88652380D01*
X105961904Y-88604761D01*
X105914285Y-88557142D01*
X135757142Y-120566666D02*
X135804761Y-120614285D01*
X135852380Y-120757142D01*
X135852380Y-120852380D01*
X135804761Y-120995238D01*
X135709523Y-121090476D01*
X135614285Y-121138095D01*
X135423809Y-121185714D01*
X135280952Y-121185714D01*
X135090476Y-121138095D01*
X134995238Y-121090476D01*
X134900000Y-120995238D01*
X134852380Y-120852380D01*
X134852380Y-120757142D01*
X134900000Y-120614285D01*
X134947619Y-120566666D01*
X134852380Y-119709523D02*
X134852380Y-119900000D01*
X134900000Y-119995238D01*
X134947619Y-120042857D01*
X135090476Y-120138095D01*
X135280952Y-120185714D01*
X135661904Y-120185714D01*
X135757142Y-120138095D01*
X135804761Y-120090476D01*
X135852380Y-119995238D01*
X135852380Y-119804761D01*
X135804761Y-119709523D01*
X135757142Y-119661904D01*
X135661904Y-119614285D01*
X135423809Y-119614285D01*
X135328571Y-119661904D01*
X135280952Y-119709523D01*
X135233333Y-119804761D01*
X135233333Y-119995238D01*
X135280952Y-120090476D01*
X135328571Y-120138095D01*
X135423809Y-120185714D01*
X135757142Y-118766666D02*
X135804761Y-118814285D01*
X135852380Y-118957142D01*
X135852380Y-119052380D01*
X135804761Y-119195238D01*
X135709523Y-119290476D01*
X135614285Y-119338095D01*
X135423809Y-119385714D01*
X135280952Y-119385714D01*
X135090476Y-119338095D01*
X134995238Y-119290476D01*
X134900000Y-119195238D01*
X134852380Y-119052380D01*
X134852380Y-118957142D01*
X134900000Y-118814285D01*
X134947619Y-118766666D01*
X134852380Y-118433333D02*
X134852380Y-117766666D01*
X135852380Y-118195238D01*
X129783333Y-127707142D02*
X129735714Y-127754761D01*
X129592857Y-127802380D01*
X129497619Y-127802380D01*
X129354761Y-127754761D01*
X129259523Y-127659523D01*
X129211904Y-127564285D01*
X129164285Y-127373809D01*
X129164285Y-127230952D01*
X129211904Y-127040476D01*
X129259523Y-126945238D01*
X129354761Y-126850000D01*
X129497619Y-126802380D01*
X129592857Y-126802380D01*
X129735714Y-126850000D01*
X129783333Y-126897619D01*
X130354761Y-127230952D02*
X130259523Y-127183333D01*
X130211904Y-127135714D01*
X130164285Y-127040476D01*
X130164285Y-126992857D01*
X130211904Y-126897619D01*
X130259523Y-126850000D01*
X130354761Y-126802380D01*
X130545238Y-126802380D01*
X130640476Y-126850000D01*
X130688095Y-126897619D01*
X130735714Y-126992857D01*
X130735714Y-127040476D01*
X130688095Y-127135714D01*
X130640476Y-127183333D01*
X130545238Y-127230952D01*
X130354761Y-127230952D01*
X130259523Y-127278571D01*
X130211904Y-127326190D01*
X130164285Y-127421428D01*
X130164285Y-127611904D01*
X130211904Y-127707142D01*
X130259523Y-127754761D01*
X130354761Y-127802380D01*
X130545238Y-127802380D01*
X130640476Y-127754761D01*
X130688095Y-127707142D01*
X130735714Y-127611904D01*
X130735714Y-127421428D01*
X130688095Y-127326190D01*
X130640476Y-127278571D01*
X130545238Y-127230952D01*
X130233333Y-116977142D02*
X130185714Y-117024761D01*
X130042857Y-117072380D01*
X129947619Y-117072380D01*
X129804761Y-117024761D01*
X129709523Y-116929523D01*
X129661904Y-116834285D01*
X129614285Y-116643809D01*
X129614285Y-116500952D01*
X129661904Y-116310476D01*
X129709523Y-116215238D01*
X129804761Y-116120000D01*
X129947619Y-116072380D01*
X130042857Y-116072380D01*
X130185714Y-116120000D01*
X130233333Y-116167619D01*
X130709523Y-117072380D02*
X130900000Y-117072380D01*
X130995238Y-117024761D01*
X131042857Y-116977142D01*
X131138095Y-116834285D01*
X131185714Y-116643809D01*
X131185714Y-116262857D01*
X131138095Y-116167619D01*
X131090476Y-116120000D01*
X130995238Y-116072380D01*
X130804761Y-116072380D01*
X130709523Y-116120000D01*
X130661904Y-116167619D01*
X130614285Y-116262857D01*
X130614285Y-116500952D01*
X130661904Y-116596190D01*
X130709523Y-116643809D01*
X130804761Y-116691428D01*
X130995238Y-116691428D01*
X131090476Y-116643809D01*
X131138095Y-116596190D01*
X131185714Y-116500952D01*
X107461904Y-107052380D02*
X107461904Y-106052380D01*
X107700000Y-106052380D01*
X107842857Y-106100000D01*
X107938095Y-106195238D01*
X107985714Y-106290476D01*
X108033333Y-106480952D01*
X108033333Y-106623809D01*
X107985714Y-106814285D01*
X107938095Y-106909523D01*
X107842857Y-107004761D01*
X107700000Y-107052380D01*
X107461904Y-107052380D01*
X108366666Y-106052380D02*
X109033333Y-106052380D01*
X108604761Y-107052380D01*
X94861904Y-104652380D02*
X94861904Y-103652380D01*
X95100000Y-103652380D01*
X95242857Y-103700000D01*
X95338095Y-103795238D01*
X95385714Y-103890476D01*
X95433333Y-104080952D01*
X95433333Y-104223809D01*
X95385714Y-104414285D01*
X95338095Y-104509523D01*
X95242857Y-104604761D01*
X95100000Y-104652380D01*
X94861904Y-104652380D01*
X96004761Y-104080952D02*
X95909523Y-104033333D01*
X95861904Y-103985714D01*
X95814285Y-103890476D01*
X95814285Y-103842857D01*
X95861904Y-103747619D01*
X95909523Y-103700000D01*
X96004761Y-103652380D01*
X96195238Y-103652380D01*
X96290476Y-103700000D01*
X96338095Y-103747619D01*
X96385714Y-103842857D01*
X96385714Y-103890476D01*
X96338095Y-103985714D01*
X96290476Y-104033333D01*
X96195238Y-104080952D01*
X96004761Y-104080952D01*
X95909523Y-104128571D01*
X95861904Y-104176190D01*
X95814285Y-104271428D01*
X95814285Y-104461904D01*
X95861904Y-104557142D01*
X95909523Y-104604761D01*
X96004761Y-104652380D01*
X96195238Y-104652380D01*
X96290476Y-104604761D01*
X96338095Y-104557142D01*
X96385714Y-104461904D01*
X96385714Y-104271428D01*
X96338095Y-104176190D01*
X96290476Y-104128571D01*
X96195238Y-104080952D01*
X92066666Y-47652380D02*
X92066666Y-48366666D01*
X92019047Y-48509523D01*
X91923809Y-48604761D01*
X91780952Y-48652380D01*
X91685714Y-48652380D01*
X93066666Y-48652380D02*
X92495238Y-48652380D01*
X92780952Y-48652380D02*
X92780952Y-47652380D01*
X92685714Y-47795238D01*
X92590476Y-47890476D01*
X92495238Y-47938095D01*
X138502380Y-52233333D02*
X139216666Y-52233333D01*
X139359523Y-52280952D01*
X139454761Y-52376190D01*
X139502380Y-52519047D01*
X139502380Y-52614285D01*
X138597619Y-51804761D02*
X138550000Y-51757142D01*
X138502380Y-51661904D01*
X138502380Y-51423809D01*
X138550000Y-51328571D01*
X138597619Y-51280952D01*
X138692857Y-51233333D01*
X138788095Y-51233333D01*
X138930952Y-51280952D01*
X139502380Y-51852380D01*
X139502380Y-51233333D01*
X146666666Y-90252380D02*
X146666666Y-90966666D01*
X146619047Y-91109523D01*
X146523809Y-91204761D01*
X146380952Y-91252380D01*
X146285714Y-91252380D01*
X147047619Y-90252380D02*
X147666666Y-90252380D01*
X147333333Y-90633333D01*
X147476190Y-90633333D01*
X147571428Y-90680952D01*
X147619047Y-90728571D01*
X147666666Y-90823809D01*
X147666666Y-91061904D01*
X147619047Y-91157142D01*
X147571428Y-91204761D01*
X147476190Y-91252380D01*
X147190476Y-91252380D01*
X147095238Y-91204761D01*
X147047619Y-91157142D01*
X146666666Y-75452380D02*
X146666666Y-76166666D01*
X146619047Y-76309523D01*
X146523809Y-76404761D01*
X146380952Y-76452380D01*
X146285714Y-76452380D01*
X147571428Y-75785714D02*
X147571428Y-76452380D01*
X147333333Y-75404761D02*
X147095238Y-76119047D01*
X147714285Y-76119047D01*
X125122380Y-52533333D02*
X125836666Y-52533333D01*
X125979523Y-52580952D01*
X126074761Y-52676190D01*
X126122380Y-52819047D01*
X126122380Y-52914285D01*
X125122380Y-51580952D02*
X125122380Y-52057142D01*
X125598571Y-52104761D01*
X125550952Y-52057142D01*
X125503333Y-51961904D01*
X125503333Y-51723809D01*
X125550952Y-51628571D01*
X125598571Y-51580952D01*
X125693809Y-51533333D01*
X125931904Y-51533333D01*
X126027142Y-51580952D01*
X126074761Y-51628571D01*
X126122380Y-51723809D01*
X126122380Y-51961904D01*
X126074761Y-52057142D01*
X126027142Y-52104761D01*
X146666666Y-82852380D02*
X146666666Y-83566666D01*
X146619047Y-83709523D01*
X146523809Y-83804761D01*
X146380952Y-83852380D01*
X146285714Y-83852380D01*
X147571428Y-82852380D02*
X147380952Y-82852380D01*
X147285714Y-82900000D01*
X147238095Y-82947619D01*
X147142857Y-83090476D01*
X147095238Y-83280952D01*
X147095238Y-83661904D01*
X147142857Y-83757142D01*
X147190476Y-83804761D01*
X147285714Y-83852380D01*
X147476190Y-83852380D01*
X147571428Y-83804761D01*
X147619047Y-83757142D01*
X147666666Y-83661904D01*
X147666666Y-83423809D01*
X147619047Y-83328571D01*
X147571428Y-83280952D01*
X147476190Y-83233333D01*
X147285714Y-83233333D01*
X147190476Y-83280952D01*
X147142857Y-83328571D01*
X147095238Y-83423809D01*
X146666666Y-68452380D02*
X146666666Y-69166666D01*
X146619047Y-69309523D01*
X146523809Y-69404761D01*
X146380952Y-69452380D01*
X146285714Y-69452380D01*
X147047619Y-68452380D02*
X147714285Y-68452380D01*
X147285714Y-69452380D01*
X145066666Y-53652380D02*
X145066666Y-54366666D01*
X145019047Y-54509523D01*
X144923809Y-54604761D01*
X144780952Y-54652380D01*
X144685714Y-54652380D01*
X145685714Y-54080952D02*
X145590476Y-54033333D01*
X145542857Y-53985714D01*
X145495238Y-53890476D01*
X145495238Y-53842857D01*
X145542857Y-53747619D01*
X145590476Y-53700000D01*
X145685714Y-53652380D01*
X145876190Y-53652380D01*
X145971428Y-53700000D01*
X146019047Y-53747619D01*
X146066666Y-53842857D01*
X146066666Y-53890476D01*
X146019047Y-53985714D01*
X145971428Y-54033333D01*
X145876190Y-54080952D01*
X145685714Y-54080952D01*
X145590476Y-54128571D01*
X145542857Y-54176190D01*
X145495238Y-54271428D01*
X145495238Y-54461904D01*
X145542857Y-54557142D01*
X145590476Y-54604761D01*
X145685714Y-54652380D01*
X145876190Y-54652380D01*
X145971428Y-54604761D01*
X146019047Y-54557142D01*
X146066666Y-54461904D01*
X146066666Y-54271428D01*
X146019047Y-54176190D01*
X145971428Y-54128571D01*
X145876190Y-54080952D01*
X105066666Y-129652380D02*
X105066666Y-130366666D01*
X105019047Y-130509523D01*
X104923809Y-130604761D01*
X104780952Y-130652380D01*
X104685714Y-130652380D01*
X105590476Y-130652380D02*
X105780952Y-130652380D01*
X105876190Y-130604761D01*
X105923809Y-130557142D01*
X106019047Y-130414285D01*
X106066666Y-130223809D01*
X106066666Y-129842857D01*
X106019047Y-129747619D01*
X105971428Y-129700000D01*
X105876190Y-129652380D01*
X105685714Y-129652380D01*
X105590476Y-129700000D01*
X105542857Y-129747619D01*
X105495238Y-129842857D01*
X105495238Y-130080952D01*
X105542857Y-130176190D01*
X105590476Y-130223809D01*
X105685714Y-130271428D01*
X105876190Y-130271428D01*
X105971428Y-130223809D01*
X106019047Y-130176190D01*
X106066666Y-130080952D01*
X89190476Y-129452380D02*
X89190476Y-130166666D01*
X89142857Y-130309523D01*
X89047619Y-130404761D01*
X88904761Y-130452380D01*
X88809523Y-130452380D01*
X90190476Y-130452380D02*
X89619047Y-130452380D01*
X89904761Y-130452380D02*
X89904761Y-129452380D01*
X89809523Y-129595238D01*
X89714285Y-129690476D01*
X89619047Y-129738095D01*
X90809523Y-129452380D02*
X90904761Y-129452380D01*
X91000000Y-129500000D01*
X91047619Y-129547619D01*
X91095238Y-129642857D01*
X91142857Y-129833333D01*
X91142857Y-130071428D01*
X91095238Y-130261904D01*
X91047619Y-130357142D01*
X91000000Y-130404761D01*
X90904761Y-130452380D01*
X90809523Y-130452380D01*
X90714285Y-130404761D01*
X90666666Y-130357142D01*
X90619047Y-130261904D01*
X90571428Y-130071428D01*
X90571428Y-129833333D01*
X90619047Y-129642857D01*
X90666666Y-129547619D01*
X90714285Y-129500000D01*
X90809523Y-129452380D01*
X94752380Y-94609523D02*
X95466666Y-94609523D01*
X95609523Y-94657142D01*
X95704761Y-94752380D01*
X95752380Y-94895238D01*
X95752380Y-94990476D01*
X95752380Y-93609523D02*
X95752380Y-94180952D01*
X95752380Y-93895238D02*
X94752380Y-93895238D01*
X94895238Y-93990476D01*
X94990476Y-94085714D01*
X95038095Y-94180952D01*
X95752380Y-92657142D02*
X95752380Y-93228571D01*
X95752380Y-92942857D02*
X94752380Y-92942857D01*
X94895238Y-93038095D01*
X94990476Y-93133333D01*
X95038095Y-93228571D01*
X131190476Y-53852380D02*
X131190476Y-54566666D01*
X131142857Y-54709523D01*
X131047619Y-54804761D01*
X130904761Y-54852380D01*
X130809523Y-54852380D01*
X132190476Y-54852380D02*
X131619047Y-54852380D01*
X131904761Y-54852380D02*
X131904761Y-53852380D01*
X131809523Y-53995238D01*
X131714285Y-54090476D01*
X131619047Y-54138095D01*
X132523809Y-53852380D02*
X133142857Y-53852380D01*
X132809523Y-54233333D01*
X132952380Y-54233333D01*
X133047619Y-54280952D01*
X133095238Y-54328571D01*
X133142857Y-54423809D01*
X133142857Y-54661904D01*
X133095238Y-54757142D01*
X133047619Y-54804761D01*
X132952380Y-54852380D01*
X132666666Y-54852380D01*
X132571428Y-54804761D01*
X132523809Y-54757142D01*
X141790476Y-133052380D02*
X141790476Y-133766666D01*
X141742857Y-133909523D01*
X141647619Y-134004761D01*
X141504761Y-134052380D01*
X141409523Y-134052380D01*
X142790476Y-134052380D02*
X142219047Y-134052380D01*
X142504761Y-134052380D02*
X142504761Y-133052380D01*
X142409523Y-133195238D01*
X142314285Y-133290476D01*
X142219047Y-133338095D01*
X143695238Y-133052380D02*
X143219047Y-133052380D01*
X143171428Y-133528571D01*
X143219047Y-133480952D01*
X143314285Y-133433333D01*
X143552380Y-133433333D01*
X143647619Y-133480952D01*
X143695238Y-133528571D01*
X143742857Y-133623809D01*
X143742857Y-133861904D01*
X143695238Y-133957142D01*
X143647619Y-134004761D01*
X143552380Y-134052380D01*
X143314285Y-134052380D01*
X143219047Y-134004761D01*
X143171428Y-133957142D01*
X145147619Y-94065238D02*
X145100000Y-94160476D01*
X145004761Y-94255714D01*
X144861904Y-94398571D01*
X144814285Y-94493809D01*
X144814285Y-94589047D01*
X145052380Y-94541428D02*
X145004761Y-94636666D01*
X144909523Y-94731904D01*
X144719047Y-94779523D01*
X144385714Y-94779523D01*
X144195238Y-94731904D01*
X144100000Y-94636666D01*
X144052380Y-94541428D01*
X144052380Y-94350952D01*
X144100000Y-94255714D01*
X144195238Y-94160476D01*
X144385714Y-94112857D01*
X144719047Y-94112857D01*
X144909523Y-94160476D01*
X145004761Y-94255714D01*
X145052380Y-94350952D01*
X145052380Y-94541428D01*
X145052380Y-93160476D02*
X145052380Y-93731904D01*
X145052380Y-93446190D02*
X144052380Y-93446190D01*
X144195238Y-93541428D01*
X144290476Y-93636666D01*
X144338095Y-93731904D01*
X145347619Y-79165238D02*
X145300000Y-79260476D01*
X145204761Y-79355714D01*
X145061904Y-79498571D01*
X145014285Y-79593809D01*
X145014285Y-79689047D01*
X145252380Y-79641428D02*
X145204761Y-79736666D01*
X145109523Y-79831904D01*
X144919047Y-79879523D01*
X144585714Y-79879523D01*
X144395238Y-79831904D01*
X144300000Y-79736666D01*
X144252380Y-79641428D01*
X144252380Y-79450952D01*
X144300000Y-79355714D01*
X144395238Y-79260476D01*
X144585714Y-79212857D01*
X144919047Y-79212857D01*
X145109523Y-79260476D01*
X145204761Y-79355714D01*
X145252380Y-79450952D01*
X145252380Y-79641428D01*
X144347619Y-78831904D02*
X144300000Y-78784285D01*
X144252380Y-78689047D01*
X144252380Y-78450952D01*
X144300000Y-78355714D01*
X144347619Y-78308095D01*
X144442857Y-78260476D01*
X144538095Y-78260476D01*
X144680952Y-78308095D01*
X145252380Y-78879523D01*
X145252380Y-78260476D01*
X145147619Y-86895238D02*
X145100000Y-86990476D01*
X145004761Y-87085714D01*
X144861904Y-87228571D01*
X144814285Y-87323809D01*
X144814285Y-87419047D01*
X145052380Y-87371428D02*
X145004761Y-87466666D01*
X144909523Y-87561904D01*
X144719047Y-87609523D01*
X144385714Y-87609523D01*
X144195238Y-87561904D01*
X144100000Y-87466666D01*
X144052380Y-87371428D01*
X144052380Y-87180952D01*
X144100000Y-87085714D01*
X144195238Y-86990476D01*
X144385714Y-86942857D01*
X144719047Y-86942857D01*
X144909523Y-86990476D01*
X145004761Y-87085714D01*
X145052380Y-87180952D01*
X145052380Y-87371428D01*
X144052380Y-86609523D02*
X144052380Y-85990476D01*
X144433333Y-86323809D01*
X144433333Y-86180952D01*
X144480952Y-86085714D01*
X144528571Y-86038095D01*
X144623809Y-85990476D01*
X144861904Y-85990476D01*
X144957142Y-86038095D01*
X145004761Y-86085714D01*
X145052380Y-86180952D01*
X145052380Y-86466666D01*
X145004761Y-86561904D01*
X144957142Y-86609523D01*
X145347619Y-72565238D02*
X145300000Y-72660476D01*
X145204761Y-72755714D01*
X145061904Y-72898571D01*
X145014285Y-72993809D01*
X145014285Y-73089047D01*
X145252380Y-73041428D02*
X145204761Y-73136666D01*
X145109523Y-73231904D01*
X144919047Y-73279523D01*
X144585714Y-73279523D01*
X144395238Y-73231904D01*
X144300000Y-73136666D01*
X144252380Y-73041428D01*
X144252380Y-72850952D01*
X144300000Y-72755714D01*
X144395238Y-72660476D01*
X144585714Y-72612857D01*
X144919047Y-72612857D01*
X145109523Y-72660476D01*
X145204761Y-72755714D01*
X145252380Y-72850952D01*
X145252380Y-73041428D01*
X144585714Y-71755714D02*
X145252380Y-71755714D01*
X144204761Y-71993809D02*
X144919047Y-72231904D01*
X144919047Y-71612857D01*
X101307619Y-50105238D02*
X101260000Y-50200476D01*
X101164761Y-50295714D01*
X101021904Y-50438571D01*
X100974285Y-50533809D01*
X100974285Y-50629047D01*
X101212380Y-50581428D02*
X101164761Y-50676666D01*
X101069523Y-50771904D01*
X100879047Y-50819523D01*
X100545714Y-50819523D01*
X100355238Y-50771904D01*
X100260000Y-50676666D01*
X100212380Y-50581428D01*
X100212380Y-50390952D01*
X100260000Y-50295714D01*
X100355238Y-50200476D01*
X100545714Y-50152857D01*
X100879047Y-50152857D01*
X101069523Y-50200476D01*
X101164761Y-50295714D01*
X101212380Y-50390952D01*
X101212380Y-50581428D01*
X100212380Y-49248095D02*
X100212380Y-49724285D01*
X100688571Y-49771904D01*
X100640952Y-49724285D01*
X100593333Y-49629047D01*
X100593333Y-49390952D01*
X100640952Y-49295714D01*
X100688571Y-49248095D01*
X100783809Y-49200476D01*
X101021904Y-49200476D01*
X101117142Y-49248095D01*
X101164761Y-49295714D01*
X101212380Y-49390952D01*
X101212380Y-49629047D01*
X101164761Y-49724285D01*
X101117142Y-49771904D01*
X108504761Y-98747619D02*
X108409523Y-98700000D01*
X108314285Y-98604761D01*
X108171428Y-98461904D01*
X108076190Y-98414285D01*
X107980952Y-98414285D01*
X108028571Y-98652380D02*
X107933333Y-98604761D01*
X107838095Y-98509523D01*
X107790476Y-98319047D01*
X107790476Y-97985714D01*
X107838095Y-97795238D01*
X107933333Y-97700000D01*
X108028571Y-97652380D01*
X108219047Y-97652380D01*
X108314285Y-97700000D01*
X108409523Y-97795238D01*
X108457142Y-97985714D01*
X108457142Y-98319047D01*
X108409523Y-98509523D01*
X108314285Y-98604761D01*
X108219047Y-98652380D01*
X108028571Y-98652380D01*
X109314285Y-97652380D02*
X109123809Y-97652380D01*
X109028571Y-97700000D01*
X108980952Y-97747619D01*
X108885714Y-97890476D01*
X108838095Y-98080952D01*
X108838095Y-98461904D01*
X108885714Y-98557142D01*
X108933333Y-98604761D01*
X109028571Y-98652380D01*
X109219047Y-98652380D01*
X109314285Y-98604761D01*
X109361904Y-98557142D01*
X109409523Y-98461904D01*
X109409523Y-98223809D01*
X109361904Y-98128571D01*
X109314285Y-98080952D01*
X109219047Y-98033333D01*
X109028571Y-98033333D01*
X108933333Y-98080952D01*
X108885714Y-98128571D01*
X108838095Y-98223809D01*
X87704761Y-105147619D02*
X87609523Y-105100000D01*
X87514285Y-105004761D01*
X87371428Y-104861904D01*
X87276190Y-104814285D01*
X87180952Y-104814285D01*
X87228571Y-105052380D02*
X87133333Y-105004761D01*
X87038095Y-104909523D01*
X86990476Y-104719047D01*
X86990476Y-104385714D01*
X87038095Y-104195238D01*
X87133333Y-104100000D01*
X87228571Y-104052380D01*
X87419047Y-104052380D01*
X87514285Y-104100000D01*
X87609523Y-104195238D01*
X87657142Y-104385714D01*
X87657142Y-104719047D01*
X87609523Y-104909523D01*
X87514285Y-105004761D01*
X87419047Y-105052380D01*
X87228571Y-105052380D01*
X87990476Y-104052380D02*
X88657142Y-104052380D01*
X88228571Y-105052380D01*
X110852380Y-96166666D02*
X110376190Y-96500000D01*
X110852380Y-96738095D02*
X109852380Y-96738095D01*
X109852380Y-96357142D01*
X109900000Y-96261904D01*
X109947619Y-96214285D01*
X110042857Y-96166666D01*
X110185714Y-96166666D01*
X110280952Y-96214285D01*
X110328571Y-96261904D01*
X110376190Y-96357142D01*
X110376190Y-96738095D01*
X110852380Y-95214285D02*
X110852380Y-95785714D01*
X110852380Y-95500000D02*
X109852380Y-95500000D01*
X109995238Y-95595238D01*
X110090476Y-95690476D01*
X110138095Y-95785714D01*
X109452380Y-96166666D02*
X108976190Y-96500000D01*
X109452380Y-96738095D02*
X108452380Y-96738095D01*
X108452380Y-96357142D01*
X108500000Y-96261904D01*
X108547619Y-96214285D01*
X108642857Y-96166666D01*
X108785714Y-96166666D01*
X108880952Y-96214285D01*
X108928571Y-96261904D01*
X108976190Y-96357142D01*
X108976190Y-96738095D01*
X108547619Y-95785714D02*
X108500000Y-95738095D01*
X108452380Y-95642857D01*
X108452380Y-95404761D01*
X108500000Y-95309523D01*
X108547619Y-95261904D01*
X108642857Y-95214285D01*
X108738095Y-95214285D01*
X108880952Y-95261904D01*
X109452380Y-95833333D01*
X109452380Y-95214285D01*
X139652380Y-95366666D02*
X139176190Y-95700000D01*
X139652380Y-95938095D02*
X138652380Y-95938095D01*
X138652380Y-95557142D01*
X138700000Y-95461904D01*
X138747619Y-95414285D01*
X138842857Y-95366666D01*
X138985714Y-95366666D01*
X139080952Y-95414285D01*
X139128571Y-95461904D01*
X139176190Y-95557142D01*
X139176190Y-95938095D01*
X138652380Y-95033333D02*
X138652380Y-94414285D01*
X139033333Y-94747619D01*
X139033333Y-94604761D01*
X139080952Y-94509523D01*
X139128571Y-94461904D01*
X139223809Y-94414285D01*
X139461904Y-94414285D01*
X139557142Y-94461904D01*
X139604761Y-94509523D01*
X139652380Y-94604761D01*
X139652380Y-94890476D01*
X139604761Y-94985714D01*
X139557142Y-95033333D01*
X139752380Y-80966666D02*
X139276190Y-81300000D01*
X139752380Y-81538095D02*
X138752380Y-81538095D01*
X138752380Y-81157142D01*
X138800000Y-81061904D01*
X138847619Y-81014285D01*
X138942857Y-80966666D01*
X139085714Y-80966666D01*
X139180952Y-81014285D01*
X139228571Y-81061904D01*
X139276190Y-81157142D01*
X139276190Y-81538095D01*
X139085714Y-80109523D02*
X139752380Y-80109523D01*
X138704761Y-80347619D02*
X139419047Y-80585714D01*
X139419047Y-79966666D01*
X139652380Y-92741666D02*
X139176190Y-93075000D01*
X139652380Y-93313095D02*
X138652380Y-93313095D01*
X138652380Y-92932142D01*
X138700000Y-92836904D01*
X138747619Y-92789285D01*
X138842857Y-92741666D01*
X138985714Y-92741666D01*
X139080952Y-92789285D01*
X139128571Y-92836904D01*
X139176190Y-92932142D01*
X139176190Y-93313095D01*
X138652380Y-91836904D02*
X138652380Y-92313095D01*
X139128571Y-92360714D01*
X139080952Y-92313095D01*
X139033333Y-92217857D01*
X139033333Y-91979761D01*
X139080952Y-91884523D01*
X139128571Y-91836904D01*
X139223809Y-91789285D01*
X139461904Y-91789285D01*
X139557142Y-91836904D01*
X139604761Y-91884523D01*
X139652380Y-91979761D01*
X139652380Y-92217857D01*
X139604761Y-92313095D01*
X139557142Y-92360714D01*
X139642380Y-77415166D02*
X139166190Y-77748500D01*
X139642380Y-77986595D02*
X138642380Y-77986595D01*
X138642380Y-77605642D01*
X138690000Y-77510404D01*
X138737619Y-77462785D01*
X138832857Y-77415166D01*
X138975714Y-77415166D01*
X139070952Y-77462785D01*
X139118571Y-77510404D01*
X139166190Y-77605642D01*
X139166190Y-77986595D01*
X138642380Y-76558023D02*
X138642380Y-76748500D01*
X138690000Y-76843738D01*
X138737619Y-76891357D01*
X138880476Y-76986595D01*
X139070952Y-77034214D01*
X139451904Y-77034214D01*
X139547142Y-76986595D01*
X139594761Y-76938976D01*
X139642380Y-76843738D01*
X139642380Y-76653261D01*
X139594761Y-76558023D01*
X139547142Y-76510404D01*
X139451904Y-76462785D01*
X139213809Y-76462785D01*
X139118571Y-76510404D01*
X139070952Y-76558023D01*
X139023333Y-76653261D01*
X139023333Y-76843738D01*
X139070952Y-76938976D01*
X139118571Y-76986595D01*
X139213809Y-77034214D01*
X139652380Y-88166666D02*
X139176190Y-88500000D01*
X139652380Y-88738095D02*
X138652380Y-88738095D01*
X138652380Y-88357142D01*
X138700000Y-88261904D01*
X138747619Y-88214285D01*
X138842857Y-88166666D01*
X138985714Y-88166666D01*
X139080952Y-88214285D01*
X139128571Y-88261904D01*
X139176190Y-88357142D01*
X139176190Y-88738095D01*
X138652380Y-87833333D02*
X138652380Y-87166666D01*
X139652380Y-87595238D01*
X139642380Y-74066666D02*
X139166190Y-74400000D01*
X139642380Y-74638095D02*
X138642380Y-74638095D01*
X138642380Y-74257142D01*
X138690000Y-74161904D01*
X138737619Y-74114285D01*
X138832857Y-74066666D01*
X138975714Y-74066666D01*
X139070952Y-74114285D01*
X139118571Y-74161904D01*
X139166190Y-74257142D01*
X139166190Y-74638095D01*
X139070952Y-73495238D02*
X139023333Y-73590476D01*
X138975714Y-73638095D01*
X138880476Y-73685714D01*
X138832857Y-73685714D01*
X138737619Y-73638095D01*
X138690000Y-73590476D01*
X138642380Y-73495238D01*
X138642380Y-73304761D01*
X138690000Y-73209523D01*
X138737619Y-73161904D01*
X138832857Y-73114285D01*
X138880476Y-73114285D01*
X138975714Y-73161904D01*
X139023333Y-73209523D01*
X139070952Y-73304761D01*
X139070952Y-73495238D01*
X139118571Y-73590476D01*
X139166190Y-73638095D01*
X139261428Y-73685714D01*
X139451904Y-73685714D01*
X139547142Y-73638095D01*
X139594761Y-73590476D01*
X139642380Y-73495238D01*
X139642380Y-73304761D01*
X139594761Y-73209523D01*
X139547142Y-73161904D01*
X139451904Y-73114285D01*
X139261428Y-73114285D01*
X139166190Y-73161904D01*
X139118571Y-73209523D01*
X139070952Y-73304761D01*
X139452380Y-86142857D02*
X138976190Y-86476190D01*
X139452380Y-86714285D02*
X138452380Y-86714285D01*
X138452380Y-86333333D01*
X138500000Y-86238095D01*
X138547619Y-86190476D01*
X138642857Y-86142857D01*
X138785714Y-86142857D01*
X138880952Y-86190476D01*
X138928571Y-86238095D01*
X138976190Y-86333333D01*
X138976190Y-86714285D01*
X139452380Y-85190476D02*
X139452380Y-85761904D01*
X139452380Y-85476190D02*
X138452380Y-85476190D01*
X138595238Y-85571428D01*
X138690476Y-85666666D01*
X138738095Y-85761904D01*
X138452380Y-84571428D02*
X138452380Y-84476190D01*
X138500000Y-84380952D01*
X138547619Y-84333333D01*
X138642857Y-84285714D01*
X138833333Y-84238095D01*
X139071428Y-84238095D01*
X139261904Y-84285714D01*
X139357142Y-84333333D01*
X139404761Y-84380952D01*
X139452380Y-84476190D01*
X139452380Y-84571428D01*
X139404761Y-84666666D01*
X139357142Y-84714285D01*
X139261904Y-84761904D01*
X139071428Y-84809523D01*
X138833333Y-84809523D01*
X138642857Y-84761904D01*
X138547619Y-84714285D01*
X138500000Y-84666666D01*
X138452380Y-84571428D01*
X139542380Y-71739857D02*
X139066190Y-72073190D01*
X139542380Y-72311285D02*
X138542380Y-72311285D01*
X138542380Y-71930333D01*
X138590000Y-71835095D01*
X138637619Y-71787476D01*
X138732857Y-71739857D01*
X138875714Y-71739857D01*
X138970952Y-71787476D01*
X139018571Y-71835095D01*
X139066190Y-71930333D01*
X139066190Y-72311285D01*
X139542380Y-70787476D02*
X139542380Y-71358904D01*
X139542380Y-71073190D02*
X138542380Y-71073190D01*
X138685238Y-71168428D01*
X138780476Y-71263666D01*
X138828095Y-71358904D01*
X139542380Y-69835095D02*
X139542380Y-70406523D01*
X139542380Y-70120809D02*
X138542380Y-70120809D01*
X138685238Y-70216047D01*
X138780476Y-70311285D01*
X138828095Y-70406523D01*
D16*
X119504761Y-107793050D02*
X119504761Y-108603343D01*
X119552425Y-108698672D01*
X119600090Y-108746336D01*
X119695418Y-108794000D01*
X119886075Y-108794000D01*
X119981404Y-108746336D01*
X120029068Y-108698672D01*
X120076732Y-108603343D01*
X120076732Y-107793050D01*
X120505711Y-107888379D02*
X120553375Y-107840715D01*
X120648704Y-107793050D01*
X120887025Y-107793050D01*
X120982354Y-107840715D01*
X121030018Y-107888379D01*
X121077682Y-107983707D01*
X121077682Y-108079036D01*
X121030018Y-108222029D01*
X120458047Y-108794000D01*
X121077682Y-108794000D01*
X118070682Y-134132090D02*
X118642413Y-134132090D01*
X118356547Y-135132620D02*
X118356547Y-134132090D01*
X119452366Y-135132620D02*
X118975923Y-135132620D01*
X118975923Y-134132090D01*
X119785876Y-134608533D02*
X120119386Y-134608533D01*
X120262319Y-135132620D02*
X119785876Y-135132620D01*
X119785876Y-134132090D01*
X120262319Y-134132090D01*
X121167560Y-134132090D02*
X120691117Y-134132090D01*
X120643473Y-134608533D01*
X120691117Y-134560889D01*
X120786406Y-134513245D01*
X121024627Y-134513245D01*
X121119916Y-134560889D01*
X121167560Y-134608533D01*
X121215205Y-134703822D01*
X121215205Y-134942043D01*
X121167560Y-135037332D01*
X121119916Y-135084976D01*
X121024627Y-135132620D01*
X120786406Y-135132620D01*
X120691117Y-135084976D01*
X120643473Y-135037332D01*
X121596359Y-134227379D02*
X121644003Y-134179735D01*
X121739292Y-134132090D01*
X121977513Y-134132090D01*
X122072802Y-134179735D01*
X122120446Y-134227379D01*
X122168090Y-134322667D01*
X122168090Y-134417956D01*
X122120446Y-134560889D01*
X121548715Y-135132620D01*
X122168090Y-135132620D01*
X122787466Y-134132090D02*
X122882755Y-134132090D01*
X122978043Y-134179735D01*
X123025687Y-134227379D01*
X123073332Y-134322667D01*
X123120976Y-134513245D01*
X123120976Y-134751466D01*
X123073332Y-134942043D01*
X123025687Y-135037332D01*
X122978043Y-135084976D01*
X122882755Y-135132620D01*
X122787466Y-135132620D01*
X122692177Y-135084976D01*
X122644533Y-135037332D01*
X122596889Y-134942043D01*
X122549245Y-134751466D01*
X122549245Y-134513245D01*
X122596889Y-134322667D01*
X122644533Y-134227379D01*
X122692177Y-134179735D01*
X122787466Y-134132090D01*
X123978573Y-134132090D02*
X123787996Y-134132090D01*
X123692707Y-134179735D01*
X123645063Y-134227379D01*
X123549775Y-134370312D01*
X123502130Y-134560889D01*
X123502130Y-134942043D01*
X123549775Y-135037332D01*
X123597419Y-135084976D01*
X123692707Y-135132620D01*
X123883285Y-135132620D01*
X123978573Y-135084976D01*
X124026217Y-135037332D01*
X124073862Y-134942043D01*
X124073862Y-134703822D01*
X124026217Y-134608533D01*
X123978573Y-134560889D01*
X123883285Y-134513245D01*
X123692707Y-134513245D01*
X123597419Y-134560889D01*
X123549775Y-134608533D01*
X123502130Y-134703822D01*
X124502660Y-134751466D02*
X125264969Y-134751466D01*
X125693767Y-134227379D02*
X125741412Y-134179735D01*
X125836700Y-134132090D01*
X126074922Y-134132090D01*
X126170210Y-134179735D01*
X126217855Y-134227379D01*
X126265499Y-134322667D01*
X126265499Y-134417956D01*
X126217855Y-134560889D01*
X125646123Y-135132620D01*
X126265499Y-135132620D01*
X127218385Y-134179735D02*
X127123096Y-134132090D01*
X126980163Y-134132090D01*
X126837230Y-134179735D01*
X126741942Y-134275023D01*
X126694297Y-134370312D01*
X126646653Y-134560889D01*
X126646653Y-134703822D01*
X126694297Y-134894399D01*
X126741942Y-134989687D01*
X126837230Y-135084976D01*
X126980163Y-135132620D01*
X127075452Y-135132620D01*
X127218385Y-135084976D01*
X127266029Y-135037332D01*
X127266029Y-134703822D01*
X127075452Y-134703822D01*
X145437371Y-107801860D02*
X145437371Y-108612153D01*
X145485035Y-108707482D01*
X145532700Y-108755146D01*
X145628028Y-108802810D01*
X145818685Y-108802810D01*
X145914014Y-108755146D01*
X145961678Y-108707482D01*
X146009342Y-108612153D01*
X146009342Y-107801860D01*
X146390657Y-107801860D02*
X147010292Y-107801860D01*
X146676642Y-108183175D01*
X146819635Y-108183175D01*
X146914964Y-108230839D01*
X146962628Y-108278503D01*
X147010292Y-108373832D01*
X147010292Y-108612153D01*
X146962628Y-108707482D01*
X146914964Y-108755146D01*
X146819635Y-108802810D01*
X146533650Y-108802810D01*
X146438321Y-108755146D01*
X146390657Y-108707482D01*
X137954682Y-134452090D02*
X138526413Y-134452090D01*
X138240547Y-135452620D02*
X138240547Y-134452090D01*
X139336366Y-135452620D02*
X138859923Y-135452620D01*
X138859923Y-134452090D01*
X139669876Y-134928533D02*
X140003386Y-134928533D01*
X140146319Y-135452620D02*
X139669876Y-135452620D01*
X139669876Y-134452090D01*
X140146319Y-134452090D01*
X141051560Y-134452090D02*
X140575117Y-134452090D01*
X140527473Y-134928533D01*
X140575117Y-134880889D01*
X140670406Y-134833245D01*
X140908627Y-134833245D01*
X141003916Y-134880889D01*
X141051560Y-134928533D01*
X141099205Y-135023822D01*
X141099205Y-135262043D01*
X141051560Y-135357332D01*
X141003916Y-135404976D01*
X140908627Y-135452620D01*
X140670406Y-135452620D01*
X140575117Y-135404976D01*
X140527473Y-135357332D01*
X141480359Y-134547379D02*
X141528003Y-134499735D01*
X141623292Y-134452090D01*
X141861513Y-134452090D01*
X141956802Y-134499735D01*
X142004446Y-134547379D01*
X142052090Y-134642667D01*
X142052090Y-134737956D01*
X142004446Y-134880889D01*
X141432715Y-135452620D01*
X142052090Y-135452620D01*
X142671466Y-134452090D02*
X142766755Y-134452090D01*
X142862043Y-134499735D01*
X142909687Y-134547379D01*
X142957332Y-134642667D01*
X143004976Y-134833245D01*
X143004976Y-135071466D01*
X142957332Y-135262043D01*
X142909687Y-135357332D01*
X142862043Y-135404976D01*
X142766755Y-135452620D01*
X142671466Y-135452620D01*
X142576177Y-135404976D01*
X142528533Y-135357332D01*
X142480889Y-135262043D01*
X142433245Y-135071466D01*
X142433245Y-134833245D01*
X142480889Y-134642667D01*
X142528533Y-134547379D01*
X142576177Y-134499735D01*
X142671466Y-134452090D01*
X143862573Y-134452090D02*
X143671996Y-134452090D01*
X143576707Y-134499735D01*
X143529063Y-134547379D01*
X143433775Y-134690312D01*
X143386130Y-134880889D01*
X143386130Y-135262043D01*
X143433775Y-135357332D01*
X143481419Y-135404976D01*
X143576707Y-135452620D01*
X143767285Y-135452620D01*
X143862573Y-135404976D01*
X143910217Y-135357332D01*
X143957862Y-135262043D01*
X143957862Y-135023822D01*
X143910217Y-134928533D01*
X143862573Y-134880889D01*
X143767285Y-134833245D01*
X143576707Y-134833245D01*
X143481419Y-134880889D01*
X143433775Y-134928533D01*
X143386130Y-135023822D01*
X144386660Y-135071466D02*
X145148969Y-135071466D01*
X145577767Y-134547379D02*
X145625412Y-134499735D01*
X145720700Y-134452090D01*
X145958922Y-134452090D01*
X146054210Y-134499735D01*
X146101855Y-134547379D01*
X146149499Y-134642667D01*
X146149499Y-134737956D01*
X146101855Y-134880889D01*
X145530123Y-135452620D01*
X146149499Y-135452620D01*
X147102385Y-134499735D02*
X147007096Y-134452090D01*
X146864163Y-134452090D01*
X146721230Y-134499735D01*
X146625942Y-134595023D01*
X146578297Y-134690312D01*
X146530653Y-134880889D01*
X146530653Y-135023822D01*
X146578297Y-135214399D01*
X146625942Y-135309687D01*
X146721230Y-135404976D01*
X146864163Y-135452620D01*
X146959452Y-135452620D01*
X147102385Y-135404976D01*
X147150029Y-135357332D01*
X147150029Y-135023822D01*
X146959452Y-135023822D01*
M02*
