M48
; DRILL file {KiCad (5.1.0)-1} date 5/9/2019 4:49:39 PM
; FORMAT={2:4/ absolute / inch / suppress leading zeros}
; #@! TF.CreationDate,2019-05-09T16:49:39+02:00
; #@! TF.GenerationSoftware,Kicad,Pcbnew,(5.1.0)-1
; #@! TF.FileFunction,Plated,1,2,PTH
FMAT,2
INCH,TZ
T1C0.0157
T2C0.0197
T3C0.0295
T4C0.0315
T5C0.0374
T6C0.0394
T7C0.0512
T8C0.1378
%
G90
G05
T1
X1575Y-1654
X1575Y-2047
X1575Y-2441
X1969Y-1654
X1969Y-2047
X1969Y-2441
X2362Y-1654
X2362Y-2047
X2362Y-2441
X7244Y-17402
X7244Y-17795
X7638Y-17402
X7638Y-17795
X8504Y-787
X8504Y-1575
X8504Y-2362
X8504Y-3150
X8898Y-1181
X8898Y-1969
X8898Y-2756
X8898Y-3543
X9291Y-787
X9291Y-1575
X9685Y-1181
X10079Y-787
X10079Y-1575
X10472Y-1181
X10866Y-787
X10866Y-1575
X11260Y-1181
X11496Y-14252
X11654Y-787
X11654Y-1575
X11654Y-23622
X12047Y-1181
X12047Y-1969
X12047Y-2756
X12047Y-3543
X12047Y-5039
X12047Y-5433
X12047Y-5827
X12441Y-787
X12441Y-1575
X12441Y-2362
X12441Y-3150
X12441Y-5039
X12441Y-5433
X12441Y-5827
X12835Y-1181
X12835Y-5039
X12835Y-5433
X12835Y-5827
X12992Y-14173
X12992Y-15354
X13071Y-15827
X13071Y-16299
X13071Y-16772
X13071Y-17244
X13228Y-787
X13228Y-1575
X13228Y-5039
X13228Y-5433
X13228Y-5827
X13622Y-5039
X13622Y-5433
X13622Y-5827
X13882Y-30321
X14252Y-32520
X14382Y-30321
X14409Y-16299
X14409Y-32835
X14567Y-33150
X14882Y-30321
X14882Y-32441
X14882Y-32835
X15197Y-33150
X15354Y-32835
X15382Y-30321
X15512Y-32520
X15630Y-9173
X15748Y-8110
X15866Y-9961
X16396Y-24112
X16693Y-13622
X17323Y-6378
X17521Y-13899
X18014Y-24112
X18346Y-33937
X18346Y-34331
X18425Y-25354
X18425Y-25748
X18740Y-33937
X18740Y-34331
X18819Y-25748
X18929Y-8850
X19921Y-20709
X20236Y-10236
X20472Y-20709
X21729Y-30236
X22205Y-32441
X22229Y-30236
X22362Y-32756
X22520Y-33071
X22729Y-30236
X22756Y-32362
X22756Y-32756
X22992Y-33071
X23150Y-32756
X23228Y-30236
X23307Y-32441
X23622Y-10551
X23622Y-10945
T2
X14242Y-21339
X14545Y-20608
X14545Y-22069
X15276Y-20305
X15276Y-22372
X16006Y-20608
X16006Y-22069
X16309Y-21339
X10463Y-35748
X10765Y-35017
X10765Y-36479
X11496Y-34715
X11496Y-36781
X12227Y-35017
X12227Y-36479
X12530Y-35748
X22431Y-8031
X22734Y-7301
X22734Y-8762
X23465Y-6998
X23465Y-9065
X24195Y-7301
X24195Y-8762
X24498Y-8031
T3
X22835Y-13386
X22835Y-13886
X22835Y-14386
X551Y-24567
X1051Y-24567
X1551Y-24567
X22835Y-19252
X22835Y-19752
X22835Y-20252
X22835Y-10787
X22835Y-11287
X22835Y-11787
X8740Y-22756
X9240Y-22756
X9740Y-22756
X22835Y-16378
X22835Y-16878
X22835Y-17378
T4
X5827Y-7717
X5827Y-8717
X5827Y-9717
X5827Y-10717
X5827Y-11717
X5827Y-12717
X5827Y-13717
X5827Y-14717
X10827Y-7717
X10827Y-8717
X10827Y-9717
X10827Y-10717
X10827Y-11717
X10827Y-12717
X10827Y-13717
X10827Y-14717
X5827Y-15984
X5827Y-16984
X5827Y-17984
X5827Y-18984
X5827Y-19984
X5827Y-20984
X5827Y-21984
X5827Y-22984
X10827Y-15984
X10827Y-16984
X10827Y-17984
X10827Y-18984
X10827Y-19984
X10827Y-20984
X10827Y-21984
X10827Y-22984
X12110Y-8756
X12110Y-9756
X12110Y-10756
X12110Y-11756
X12110Y-12756
X12110Y-13756
X12110Y-14756
X12110Y-15756
X12110Y-16756
X12110Y-17756
X12110Y-18756
X12110Y-19756
X12110Y-20756
X12110Y-21756
X12110Y-22756
X18110Y-8756
X18110Y-9756
X18110Y-10756
X18110Y-11756
X18110Y-12756
X18110Y-13756
X18110Y-14756
X18110Y-15756
X18110Y-16756
X18110Y-17756
X18110Y-18756
X18110Y-19756
X18110Y-20756
X18110Y-21756
X18110Y-22756
T5
X16965Y-1637
X17949Y-1637
X18933Y-1637
X19917Y-1637
X22186Y-1637
X23170Y-1637
X24154Y-1637
X25139Y-1637
T6
X24409Y-19291
X24409Y-20291
X24409Y-16378
X24409Y-17378
X6949Y-26752
X11673Y-26752
X22197Y-3189
X23197Y-3189
X24197Y-3189
X25197Y-3189
X16929Y-3307
X17929Y-3307
X18929Y-3307
X19929Y-3307
X689Y-26752
X5413Y-26752
X24409Y-13386
X24409Y-14386
X24409Y-10709
X24409Y-11709
T7
X13937Y-34094
X15906Y-34094
X7008Y-35276
X9008Y-35276
X6949Y-31555
X9331Y-25984
X11693Y-31575
X2598Y-8268
X2598Y-10268
X2598Y-12268
X2598Y-14268
X2598Y-16457
X2598Y-18457
X2598Y-20457
X2598Y-22457
X689Y-31555
X3071Y-25984
X5433Y-31575
X1969Y-3268
X3969Y-3268
X1071Y-35276
X3071Y-35276
X21732Y-34094
X23701Y-34094
T8
X15276Y-21339
X11496Y-35748
X23465Y-8031
T0
M30
