G04 #@! TF.GenerationSoftware,KiCad,Pcbnew,(5.1.0)-1*
G04 #@! TF.CreationDate,2019-05-09T16:13:53+02:00*
G04 #@! TF.ProjectId,Actuator,41637475-6174-46f7-922e-6b696361645f,rev?*
G04 #@! TF.SameCoordinates,Original*
G04 #@! TF.FileFunction,Copper,L1,Top*
G04 #@! TF.FilePolarity,Positive*
%FSLAX46Y46*%
G04 Gerber Fmt 4.6, Leading zero omitted, Abs format (unit mm)*
G04 Created by KiCad (PCBNEW (5.1.0)-1) date 2019-05-09 16:13:53*
%MOMM*%
%LPD*%
G04 APERTURE LIST*
%ADD10C,7.000000*%
%ADD11C,0.800000*%
%ADD12C,0.100000*%
%ADD13C,0.875000*%
%ADD14C,2.600000*%
%ADD15R,2.600000X2.600000*%
%ADD16R,1.200000X2.200000*%
%ADD17R,5.800000X6.400000*%
%ADD18C,3.000000*%
%ADD19C,2.500000*%
%ADD20R,1.600000X1.600000*%
%ADD21O,1.600000X1.600000*%
%ADD22C,1.600000*%
%ADD23R,2.500000X1.800000*%
%ADD24R,1.700000X1.700000*%
%ADD25O,1.700000X1.700000*%
%ADD26C,1.700000*%
%ADD27O,1.700000X1.950000*%
%ADD28O,1.500000X1.050000*%
%ADD29R,1.500000X1.050000*%
%ADD30R,0.800000X0.900000*%
%ADD31R,1.050000X1.500000*%
%ADD32O,1.050000X1.500000*%
%ADD33R,8.670000X8.060000*%
%ADD34R,0.790000X3.690000*%
%ADD35C,1.500000*%
%ADD36C,0.300000*%
%ADD37C,0.700000*%
%ADD38C,1.200000*%
%ADD39C,0.500000*%
%ADD40C,1.000000*%
%ADD41C,2.000000*%
%ADD42C,0.254000*%
G04 APERTURE END LIST*
D10*
X123800000Y-98000000D03*
D11*
X126425000Y-98000000D03*
X125656155Y-99856155D03*
X123800000Y-100625000D03*
X121943845Y-99856155D03*
X121175000Y-98000000D03*
X121943845Y-96143845D03*
X123800000Y-95375000D03*
X125656155Y-96143845D03*
D12*
G36*
X118240191Y-78326053D02*
G01*
X118261426Y-78329203D01*
X118282250Y-78334419D01*
X118302462Y-78341651D01*
X118321868Y-78350830D01*
X118340281Y-78361866D01*
X118357524Y-78374654D01*
X118373430Y-78389070D01*
X118387846Y-78404976D01*
X118400634Y-78422219D01*
X118411670Y-78440632D01*
X118420849Y-78460038D01*
X118428081Y-78480250D01*
X118433297Y-78501074D01*
X118436447Y-78522309D01*
X118437500Y-78543750D01*
X118437500Y-79056250D01*
X118436447Y-79077691D01*
X118433297Y-79098926D01*
X118428081Y-79119750D01*
X118420849Y-79139962D01*
X118411670Y-79159368D01*
X118400634Y-79177781D01*
X118387846Y-79195024D01*
X118373430Y-79210930D01*
X118357524Y-79225346D01*
X118340281Y-79238134D01*
X118321868Y-79249170D01*
X118302462Y-79258349D01*
X118282250Y-79265581D01*
X118261426Y-79270797D01*
X118240191Y-79273947D01*
X118218750Y-79275000D01*
X117781250Y-79275000D01*
X117759809Y-79273947D01*
X117738574Y-79270797D01*
X117717750Y-79265581D01*
X117697538Y-79258349D01*
X117678132Y-79249170D01*
X117659719Y-79238134D01*
X117642476Y-79225346D01*
X117626570Y-79210930D01*
X117612154Y-79195024D01*
X117599366Y-79177781D01*
X117588330Y-79159368D01*
X117579151Y-79139962D01*
X117571919Y-79119750D01*
X117566703Y-79098926D01*
X117563553Y-79077691D01*
X117562500Y-79056250D01*
X117562500Y-78543750D01*
X117563553Y-78522309D01*
X117566703Y-78501074D01*
X117571919Y-78480250D01*
X117579151Y-78460038D01*
X117588330Y-78440632D01*
X117599366Y-78422219D01*
X117612154Y-78404976D01*
X117626570Y-78389070D01*
X117642476Y-78374654D01*
X117659719Y-78361866D01*
X117678132Y-78350830D01*
X117697538Y-78341651D01*
X117717750Y-78334419D01*
X117738574Y-78329203D01*
X117759809Y-78326053D01*
X117781250Y-78325000D01*
X118218750Y-78325000D01*
X118240191Y-78326053D01*
X118240191Y-78326053D01*
G37*
D13*
X118000000Y-78800000D03*
D12*
G36*
X119815191Y-78326053D02*
G01*
X119836426Y-78329203D01*
X119857250Y-78334419D01*
X119877462Y-78341651D01*
X119896868Y-78350830D01*
X119915281Y-78361866D01*
X119932524Y-78374654D01*
X119948430Y-78389070D01*
X119962846Y-78404976D01*
X119975634Y-78422219D01*
X119986670Y-78440632D01*
X119995849Y-78460038D01*
X120003081Y-78480250D01*
X120008297Y-78501074D01*
X120011447Y-78522309D01*
X120012500Y-78543750D01*
X120012500Y-79056250D01*
X120011447Y-79077691D01*
X120008297Y-79098926D01*
X120003081Y-79119750D01*
X119995849Y-79139962D01*
X119986670Y-79159368D01*
X119975634Y-79177781D01*
X119962846Y-79195024D01*
X119948430Y-79210930D01*
X119932524Y-79225346D01*
X119915281Y-79238134D01*
X119896868Y-79249170D01*
X119877462Y-79258349D01*
X119857250Y-79265581D01*
X119836426Y-79270797D01*
X119815191Y-79273947D01*
X119793750Y-79275000D01*
X119356250Y-79275000D01*
X119334809Y-79273947D01*
X119313574Y-79270797D01*
X119292750Y-79265581D01*
X119272538Y-79258349D01*
X119253132Y-79249170D01*
X119234719Y-79238134D01*
X119217476Y-79225346D01*
X119201570Y-79210930D01*
X119187154Y-79195024D01*
X119174366Y-79177781D01*
X119163330Y-79159368D01*
X119154151Y-79139962D01*
X119146919Y-79119750D01*
X119141703Y-79098926D01*
X119138553Y-79077691D01*
X119137500Y-79056250D01*
X119137500Y-78543750D01*
X119138553Y-78522309D01*
X119141703Y-78501074D01*
X119146919Y-78480250D01*
X119154151Y-78460038D01*
X119163330Y-78440632D01*
X119174366Y-78422219D01*
X119187154Y-78404976D01*
X119201570Y-78389070D01*
X119217476Y-78374654D01*
X119234719Y-78361866D01*
X119253132Y-78350830D01*
X119272538Y-78341651D01*
X119292750Y-78334419D01*
X119313574Y-78329203D01*
X119334809Y-78326053D01*
X119356250Y-78325000D01*
X119793750Y-78325000D01*
X119815191Y-78326053D01*
X119815191Y-78326053D01*
G37*
D13*
X119575000Y-78800000D03*
D12*
G36*
X118240191Y-80926053D02*
G01*
X118261426Y-80929203D01*
X118282250Y-80934419D01*
X118302462Y-80941651D01*
X118321868Y-80950830D01*
X118340281Y-80961866D01*
X118357524Y-80974654D01*
X118373430Y-80989070D01*
X118387846Y-81004976D01*
X118400634Y-81022219D01*
X118411670Y-81040632D01*
X118420849Y-81060038D01*
X118428081Y-81080250D01*
X118433297Y-81101074D01*
X118436447Y-81122309D01*
X118437500Y-81143750D01*
X118437500Y-81656250D01*
X118436447Y-81677691D01*
X118433297Y-81698926D01*
X118428081Y-81719750D01*
X118420849Y-81739962D01*
X118411670Y-81759368D01*
X118400634Y-81777781D01*
X118387846Y-81795024D01*
X118373430Y-81810930D01*
X118357524Y-81825346D01*
X118340281Y-81838134D01*
X118321868Y-81849170D01*
X118302462Y-81858349D01*
X118282250Y-81865581D01*
X118261426Y-81870797D01*
X118240191Y-81873947D01*
X118218750Y-81875000D01*
X117781250Y-81875000D01*
X117759809Y-81873947D01*
X117738574Y-81870797D01*
X117717750Y-81865581D01*
X117697538Y-81858349D01*
X117678132Y-81849170D01*
X117659719Y-81838134D01*
X117642476Y-81825346D01*
X117626570Y-81810930D01*
X117612154Y-81795024D01*
X117599366Y-81777781D01*
X117588330Y-81759368D01*
X117579151Y-81739962D01*
X117571919Y-81719750D01*
X117566703Y-81698926D01*
X117563553Y-81677691D01*
X117562500Y-81656250D01*
X117562500Y-81143750D01*
X117563553Y-81122309D01*
X117566703Y-81101074D01*
X117571919Y-81080250D01*
X117579151Y-81060038D01*
X117588330Y-81040632D01*
X117599366Y-81022219D01*
X117612154Y-81004976D01*
X117626570Y-80989070D01*
X117642476Y-80974654D01*
X117659719Y-80961866D01*
X117678132Y-80950830D01*
X117697538Y-80941651D01*
X117717750Y-80934419D01*
X117738574Y-80929203D01*
X117759809Y-80926053D01*
X117781250Y-80925000D01*
X118218750Y-80925000D01*
X118240191Y-80926053D01*
X118240191Y-80926053D01*
G37*
D13*
X118000000Y-81400000D03*
D12*
G36*
X119815191Y-80926053D02*
G01*
X119836426Y-80929203D01*
X119857250Y-80934419D01*
X119877462Y-80941651D01*
X119896868Y-80950830D01*
X119915281Y-80961866D01*
X119932524Y-80974654D01*
X119948430Y-80989070D01*
X119962846Y-81004976D01*
X119975634Y-81022219D01*
X119986670Y-81040632D01*
X119995849Y-81060038D01*
X120003081Y-81080250D01*
X120008297Y-81101074D01*
X120011447Y-81122309D01*
X120012500Y-81143750D01*
X120012500Y-81656250D01*
X120011447Y-81677691D01*
X120008297Y-81698926D01*
X120003081Y-81719750D01*
X119995849Y-81739962D01*
X119986670Y-81759368D01*
X119975634Y-81777781D01*
X119962846Y-81795024D01*
X119948430Y-81810930D01*
X119932524Y-81825346D01*
X119915281Y-81838134D01*
X119896868Y-81849170D01*
X119877462Y-81858349D01*
X119857250Y-81865581D01*
X119836426Y-81870797D01*
X119815191Y-81873947D01*
X119793750Y-81875000D01*
X119356250Y-81875000D01*
X119334809Y-81873947D01*
X119313574Y-81870797D01*
X119292750Y-81865581D01*
X119272538Y-81858349D01*
X119253132Y-81849170D01*
X119234719Y-81838134D01*
X119217476Y-81825346D01*
X119201570Y-81810930D01*
X119187154Y-81795024D01*
X119174366Y-81777781D01*
X119163330Y-81759368D01*
X119154151Y-81739962D01*
X119146919Y-81719750D01*
X119141703Y-81698926D01*
X119138553Y-81677691D01*
X119137500Y-81656250D01*
X119137500Y-81143750D01*
X119138553Y-81122309D01*
X119141703Y-81101074D01*
X119146919Y-81080250D01*
X119154151Y-81060038D01*
X119163330Y-81040632D01*
X119174366Y-81022219D01*
X119187154Y-81004976D01*
X119201570Y-80989070D01*
X119217476Y-80974654D01*
X119234719Y-80961866D01*
X119253132Y-80950830D01*
X119272538Y-80941651D01*
X119292750Y-80934419D01*
X119313574Y-80929203D01*
X119334809Y-80926053D01*
X119356250Y-80925000D01*
X119793750Y-80925000D01*
X119815191Y-80926053D01*
X119815191Y-80926053D01*
G37*
D13*
X119575000Y-81400000D03*
D14*
X91600000Y-80040000D03*
X91600000Y-74960000D03*
X91600000Y-69880000D03*
D15*
X91600000Y-64800000D03*
D11*
X116056155Y-132743845D03*
X114200000Y-131975000D03*
X112343845Y-132743845D03*
X111575000Y-134600000D03*
X112343845Y-136456155D03*
X114200000Y-137225000D03*
X116056155Y-136456155D03*
X116825000Y-134600000D03*
D10*
X114200000Y-134600000D03*
D11*
X146456155Y-62343845D03*
X144600000Y-61575000D03*
X142743845Y-62343845D03*
X141975000Y-64200000D03*
X142743845Y-66056155D03*
X144600000Y-66825000D03*
X146456155Y-66056155D03*
X147225000Y-64200000D03*
D10*
X144600000Y-64200000D03*
D14*
X120400000Y-130400000D03*
D15*
X125400000Y-130400000D03*
D16*
X109300000Y-57960000D03*
X113860000Y-57960000D03*
D17*
X111580000Y-51660000D03*
D18*
X108700000Y-109800000D03*
D19*
X114650000Y-111750000D03*
D18*
X114700000Y-124000000D03*
X102650000Y-123950000D03*
D19*
X102650000Y-111750000D03*
D18*
X92800000Y-109800000D03*
D19*
X98750000Y-111750000D03*
D18*
X98800000Y-124000000D03*
X86750000Y-123950000D03*
D19*
X86750000Y-111750000D03*
D20*
X131000000Y-101600000D03*
D21*
X115760000Y-68580000D03*
X131000000Y-99060000D03*
X115760000Y-71120000D03*
X131000000Y-96520000D03*
X115760000Y-73660000D03*
X131000000Y-93980000D03*
X115760000Y-76200000D03*
X131000000Y-91440000D03*
X115760000Y-78740000D03*
X131000000Y-88900000D03*
X115760000Y-81280000D03*
X131000000Y-86360000D03*
X115760000Y-83820000D03*
X131000000Y-83820000D03*
X115760000Y-86360000D03*
X131000000Y-81280000D03*
X115760000Y-88900000D03*
X131000000Y-78740000D03*
X115760000Y-91440000D03*
X131000000Y-76200000D03*
X115760000Y-93980000D03*
X131000000Y-73660000D03*
X115760000Y-96520000D03*
X131000000Y-71120000D03*
X115760000Y-99060000D03*
X131000000Y-68580000D03*
X115760000Y-101600000D03*
X131000000Y-66040000D03*
X115760000Y-66040000D03*
X112500000Y-84400000D03*
X99800000Y-102180000D03*
X112500000Y-86940000D03*
X99800000Y-99640000D03*
X112500000Y-89480000D03*
X99800000Y-97100000D03*
X112500000Y-92020000D03*
X99800000Y-94560000D03*
X112500000Y-94560000D03*
X99800000Y-92020000D03*
X112500000Y-97100000D03*
X99800000Y-89480000D03*
X112500000Y-99640000D03*
X99800000Y-86940000D03*
X112500000Y-102180000D03*
D20*
X99800000Y-84400000D03*
X99800000Y-63400000D03*
D21*
X112500000Y-81180000D03*
X99800000Y-65940000D03*
X112500000Y-78640000D03*
X99800000Y-68480000D03*
X112500000Y-76100000D03*
X99800000Y-71020000D03*
X112500000Y-73560000D03*
X99800000Y-73560000D03*
X112500000Y-71020000D03*
X99800000Y-76100000D03*
X112500000Y-68480000D03*
X99800000Y-78640000D03*
X112500000Y-65940000D03*
X99800000Y-81180000D03*
X112500000Y-63400000D03*
D12*
G36*
X104327691Y-52076053D02*
G01*
X104348926Y-52079203D01*
X104369750Y-52084419D01*
X104389962Y-52091651D01*
X104409368Y-52100830D01*
X104427781Y-52111866D01*
X104445024Y-52124654D01*
X104460930Y-52139070D01*
X104475346Y-52154976D01*
X104488134Y-52172219D01*
X104499170Y-52190632D01*
X104508349Y-52210038D01*
X104515581Y-52230250D01*
X104520797Y-52251074D01*
X104523947Y-52272309D01*
X104525000Y-52293750D01*
X104525000Y-52806250D01*
X104523947Y-52827691D01*
X104520797Y-52848926D01*
X104515581Y-52869750D01*
X104508349Y-52889962D01*
X104499170Y-52909368D01*
X104488134Y-52927781D01*
X104475346Y-52945024D01*
X104460930Y-52960930D01*
X104445024Y-52975346D01*
X104427781Y-52988134D01*
X104409368Y-52999170D01*
X104389962Y-53008349D01*
X104369750Y-53015581D01*
X104348926Y-53020797D01*
X104327691Y-53023947D01*
X104306250Y-53025000D01*
X103868750Y-53025000D01*
X103847309Y-53023947D01*
X103826074Y-53020797D01*
X103805250Y-53015581D01*
X103785038Y-53008349D01*
X103765632Y-52999170D01*
X103747219Y-52988134D01*
X103729976Y-52975346D01*
X103714070Y-52960930D01*
X103699654Y-52945024D01*
X103686866Y-52927781D01*
X103675830Y-52909368D01*
X103666651Y-52889962D01*
X103659419Y-52869750D01*
X103654203Y-52848926D01*
X103651053Y-52827691D01*
X103650000Y-52806250D01*
X103650000Y-52293750D01*
X103651053Y-52272309D01*
X103654203Y-52251074D01*
X103659419Y-52230250D01*
X103666651Y-52210038D01*
X103675830Y-52190632D01*
X103686866Y-52172219D01*
X103699654Y-52154976D01*
X103714070Y-52139070D01*
X103729976Y-52124654D01*
X103747219Y-52111866D01*
X103765632Y-52100830D01*
X103785038Y-52091651D01*
X103805250Y-52084419D01*
X103826074Y-52079203D01*
X103847309Y-52076053D01*
X103868750Y-52075000D01*
X104306250Y-52075000D01*
X104327691Y-52076053D01*
X104327691Y-52076053D01*
G37*
D13*
X104087500Y-52550000D03*
D12*
G36*
X102752691Y-52076053D02*
G01*
X102773926Y-52079203D01*
X102794750Y-52084419D01*
X102814962Y-52091651D01*
X102834368Y-52100830D01*
X102852781Y-52111866D01*
X102870024Y-52124654D01*
X102885930Y-52139070D01*
X102900346Y-52154976D01*
X102913134Y-52172219D01*
X102924170Y-52190632D01*
X102933349Y-52210038D01*
X102940581Y-52230250D01*
X102945797Y-52251074D01*
X102948947Y-52272309D01*
X102950000Y-52293750D01*
X102950000Y-52806250D01*
X102948947Y-52827691D01*
X102945797Y-52848926D01*
X102940581Y-52869750D01*
X102933349Y-52889962D01*
X102924170Y-52909368D01*
X102913134Y-52927781D01*
X102900346Y-52945024D01*
X102885930Y-52960930D01*
X102870024Y-52975346D01*
X102852781Y-52988134D01*
X102834368Y-52999170D01*
X102814962Y-53008349D01*
X102794750Y-53015581D01*
X102773926Y-53020797D01*
X102752691Y-53023947D01*
X102731250Y-53025000D01*
X102293750Y-53025000D01*
X102272309Y-53023947D01*
X102251074Y-53020797D01*
X102230250Y-53015581D01*
X102210038Y-53008349D01*
X102190632Y-52999170D01*
X102172219Y-52988134D01*
X102154976Y-52975346D01*
X102139070Y-52960930D01*
X102124654Y-52945024D01*
X102111866Y-52927781D01*
X102100830Y-52909368D01*
X102091651Y-52889962D01*
X102084419Y-52869750D01*
X102079203Y-52848926D01*
X102076053Y-52827691D01*
X102075000Y-52806250D01*
X102075000Y-52293750D01*
X102076053Y-52272309D01*
X102079203Y-52251074D01*
X102084419Y-52230250D01*
X102091651Y-52210038D01*
X102100830Y-52190632D01*
X102111866Y-52172219D01*
X102124654Y-52154976D01*
X102139070Y-52139070D01*
X102154976Y-52124654D01*
X102172219Y-52111866D01*
X102190632Y-52100830D01*
X102210038Y-52091651D01*
X102230250Y-52084419D01*
X102251074Y-52079203D01*
X102272309Y-52076053D01*
X102293750Y-52075000D01*
X102731250Y-52075000D01*
X102752691Y-52076053D01*
X102752691Y-52076053D01*
G37*
D13*
X102512500Y-52550000D03*
D12*
G36*
X101424504Y-56301204D02*
G01*
X101448773Y-56304804D01*
X101472571Y-56310765D01*
X101495671Y-56319030D01*
X101517849Y-56329520D01*
X101538893Y-56342133D01*
X101558598Y-56356747D01*
X101576777Y-56373223D01*
X101593253Y-56391402D01*
X101607867Y-56411107D01*
X101620480Y-56432151D01*
X101630970Y-56454329D01*
X101639235Y-56477429D01*
X101645196Y-56501227D01*
X101648796Y-56525496D01*
X101650000Y-56550000D01*
X101650000Y-57650000D01*
X101648796Y-57674504D01*
X101645196Y-57698773D01*
X101639235Y-57722571D01*
X101630970Y-57745671D01*
X101620480Y-57767849D01*
X101607867Y-57788893D01*
X101593253Y-57808598D01*
X101576777Y-57826777D01*
X101558598Y-57843253D01*
X101538893Y-57857867D01*
X101517849Y-57870480D01*
X101495671Y-57880970D01*
X101472571Y-57889235D01*
X101448773Y-57895196D01*
X101424504Y-57898796D01*
X101400000Y-57900000D01*
X98400000Y-57900000D01*
X98375496Y-57898796D01*
X98351227Y-57895196D01*
X98327429Y-57889235D01*
X98304329Y-57880970D01*
X98282151Y-57870480D01*
X98261107Y-57857867D01*
X98241402Y-57843253D01*
X98223223Y-57826777D01*
X98206747Y-57808598D01*
X98192133Y-57788893D01*
X98179520Y-57767849D01*
X98169030Y-57745671D01*
X98160765Y-57722571D01*
X98154804Y-57698773D01*
X98151204Y-57674504D01*
X98150000Y-57650000D01*
X98150000Y-56550000D01*
X98151204Y-56525496D01*
X98154804Y-56501227D01*
X98160765Y-56477429D01*
X98169030Y-56454329D01*
X98179520Y-56432151D01*
X98192133Y-56411107D01*
X98206747Y-56391402D01*
X98223223Y-56373223D01*
X98241402Y-56356747D01*
X98261107Y-56342133D01*
X98282151Y-56329520D01*
X98304329Y-56319030D01*
X98327429Y-56310765D01*
X98351227Y-56304804D01*
X98375496Y-56301204D01*
X98400000Y-56300000D01*
X101400000Y-56300000D01*
X101424504Y-56301204D01*
X101424504Y-56301204D01*
G37*
D22*
X99900000Y-57100000D03*
D12*
G36*
X107024504Y-56301204D02*
G01*
X107048773Y-56304804D01*
X107072571Y-56310765D01*
X107095671Y-56319030D01*
X107117849Y-56329520D01*
X107138893Y-56342133D01*
X107158598Y-56356747D01*
X107176777Y-56373223D01*
X107193253Y-56391402D01*
X107207867Y-56411107D01*
X107220480Y-56432151D01*
X107230970Y-56454329D01*
X107239235Y-56477429D01*
X107245196Y-56501227D01*
X107248796Y-56525496D01*
X107250000Y-56550000D01*
X107250000Y-57650000D01*
X107248796Y-57674504D01*
X107245196Y-57698773D01*
X107239235Y-57722571D01*
X107230970Y-57745671D01*
X107220480Y-57767849D01*
X107207867Y-57788893D01*
X107193253Y-57808598D01*
X107176777Y-57826777D01*
X107158598Y-57843253D01*
X107138893Y-57857867D01*
X107117849Y-57870480D01*
X107095671Y-57880970D01*
X107072571Y-57889235D01*
X107048773Y-57895196D01*
X107024504Y-57898796D01*
X107000000Y-57900000D01*
X104000000Y-57900000D01*
X103975496Y-57898796D01*
X103951227Y-57895196D01*
X103927429Y-57889235D01*
X103904329Y-57880970D01*
X103882151Y-57870480D01*
X103861107Y-57857867D01*
X103841402Y-57843253D01*
X103823223Y-57826777D01*
X103806747Y-57808598D01*
X103792133Y-57788893D01*
X103779520Y-57767849D01*
X103769030Y-57745671D01*
X103760765Y-57722571D01*
X103754804Y-57698773D01*
X103751204Y-57674504D01*
X103750000Y-57650000D01*
X103750000Y-56550000D01*
X103751204Y-56525496D01*
X103754804Y-56501227D01*
X103760765Y-56477429D01*
X103769030Y-56454329D01*
X103779520Y-56432151D01*
X103792133Y-56411107D01*
X103806747Y-56391402D01*
X103823223Y-56373223D01*
X103841402Y-56356747D01*
X103861107Y-56342133D01*
X103882151Y-56329520D01*
X103904329Y-56319030D01*
X103927429Y-56310765D01*
X103951227Y-56304804D01*
X103975496Y-56301204D01*
X104000000Y-56300000D01*
X107000000Y-56300000D01*
X107024504Y-56301204D01*
X107024504Y-56301204D01*
G37*
D22*
X105500000Y-57100000D03*
D12*
G36*
X121714504Y-50651204D02*
G01*
X121738773Y-50654804D01*
X121762571Y-50660765D01*
X121785671Y-50669030D01*
X121807849Y-50679520D01*
X121828893Y-50692133D01*
X121848598Y-50706747D01*
X121866777Y-50723223D01*
X121883253Y-50741402D01*
X121897867Y-50761107D01*
X121910480Y-50782151D01*
X121920970Y-50804329D01*
X121929235Y-50827429D01*
X121935196Y-50851227D01*
X121938796Y-50875496D01*
X121940000Y-50900000D01*
X121940000Y-53900000D01*
X121938796Y-53924504D01*
X121935196Y-53948773D01*
X121929235Y-53972571D01*
X121920970Y-53995671D01*
X121910480Y-54017849D01*
X121897867Y-54038893D01*
X121883253Y-54058598D01*
X121866777Y-54076777D01*
X121848598Y-54093253D01*
X121828893Y-54107867D01*
X121807849Y-54120480D01*
X121785671Y-54130970D01*
X121762571Y-54139235D01*
X121738773Y-54145196D01*
X121714504Y-54148796D01*
X121690000Y-54150000D01*
X120590000Y-54150000D01*
X120565496Y-54148796D01*
X120541227Y-54145196D01*
X120517429Y-54139235D01*
X120494329Y-54130970D01*
X120472151Y-54120480D01*
X120451107Y-54107867D01*
X120431402Y-54093253D01*
X120413223Y-54076777D01*
X120396747Y-54058598D01*
X120382133Y-54038893D01*
X120369520Y-54017849D01*
X120359030Y-53995671D01*
X120350765Y-53972571D01*
X120344804Y-53948773D01*
X120341204Y-53924504D01*
X120340000Y-53900000D01*
X120340000Y-50900000D01*
X120341204Y-50875496D01*
X120344804Y-50851227D01*
X120350765Y-50827429D01*
X120359030Y-50804329D01*
X120369520Y-50782151D01*
X120382133Y-50761107D01*
X120396747Y-50741402D01*
X120413223Y-50723223D01*
X120431402Y-50706747D01*
X120451107Y-50692133D01*
X120472151Y-50679520D01*
X120494329Y-50669030D01*
X120517429Y-50660765D01*
X120541227Y-50654804D01*
X120565496Y-50651204D01*
X120590000Y-50650000D01*
X121690000Y-50650000D01*
X121714504Y-50651204D01*
X121714504Y-50651204D01*
G37*
D22*
X121140000Y-52400000D03*
D12*
G36*
X121714504Y-45051204D02*
G01*
X121738773Y-45054804D01*
X121762571Y-45060765D01*
X121785671Y-45069030D01*
X121807849Y-45079520D01*
X121828893Y-45092133D01*
X121848598Y-45106747D01*
X121866777Y-45123223D01*
X121883253Y-45141402D01*
X121897867Y-45161107D01*
X121910480Y-45182151D01*
X121920970Y-45204329D01*
X121929235Y-45227429D01*
X121935196Y-45251227D01*
X121938796Y-45275496D01*
X121940000Y-45300000D01*
X121940000Y-48300000D01*
X121938796Y-48324504D01*
X121935196Y-48348773D01*
X121929235Y-48372571D01*
X121920970Y-48395671D01*
X121910480Y-48417849D01*
X121897867Y-48438893D01*
X121883253Y-48458598D01*
X121866777Y-48476777D01*
X121848598Y-48493253D01*
X121828893Y-48507867D01*
X121807849Y-48520480D01*
X121785671Y-48530970D01*
X121762571Y-48539235D01*
X121738773Y-48545196D01*
X121714504Y-48548796D01*
X121690000Y-48550000D01*
X120590000Y-48550000D01*
X120565496Y-48548796D01*
X120541227Y-48545196D01*
X120517429Y-48539235D01*
X120494329Y-48530970D01*
X120472151Y-48520480D01*
X120451107Y-48507867D01*
X120431402Y-48493253D01*
X120413223Y-48476777D01*
X120396747Y-48458598D01*
X120382133Y-48438893D01*
X120369520Y-48417849D01*
X120359030Y-48395671D01*
X120350765Y-48372571D01*
X120344804Y-48348773D01*
X120341204Y-48324504D01*
X120340000Y-48300000D01*
X120340000Y-45300000D01*
X120341204Y-45275496D01*
X120344804Y-45251227D01*
X120350765Y-45227429D01*
X120359030Y-45204329D01*
X120369520Y-45182151D01*
X120382133Y-45161107D01*
X120396747Y-45141402D01*
X120413223Y-45123223D01*
X120431402Y-45106747D01*
X120451107Y-45092133D01*
X120472151Y-45079520D01*
X120494329Y-45069030D01*
X120517429Y-45060765D01*
X120541227Y-45054804D01*
X120565496Y-45051204D01*
X120590000Y-45050000D01*
X121690000Y-45050000D01*
X121714504Y-45051204D01*
X121714504Y-45051204D01*
G37*
D22*
X121140000Y-46800000D03*
D12*
G36*
X104524504Y-77201204D02*
G01*
X104548773Y-77204804D01*
X104572571Y-77210765D01*
X104595671Y-77219030D01*
X104617849Y-77229520D01*
X104638893Y-77242133D01*
X104658598Y-77256747D01*
X104676777Y-77273223D01*
X104693253Y-77291402D01*
X104707867Y-77311107D01*
X104720480Y-77332151D01*
X104730970Y-77354329D01*
X104739235Y-77377429D01*
X104745196Y-77401227D01*
X104748796Y-77425496D01*
X104750000Y-77450000D01*
X104750000Y-78550000D01*
X104748796Y-78574504D01*
X104745196Y-78598773D01*
X104739235Y-78622571D01*
X104730970Y-78645671D01*
X104720480Y-78667849D01*
X104707867Y-78688893D01*
X104693253Y-78708598D01*
X104676777Y-78726777D01*
X104658598Y-78743253D01*
X104638893Y-78757867D01*
X104617849Y-78770480D01*
X104595671Y-78780970D01*
X104572571Y-78789235D01*
X104548773Y-78795196D01*
X104524504Y-78798796D01*
X104500000Y-78800000D01*
X101500000Y-78800000D01*
X101475496Y-78798796D01*
X101451227Y-78795196D01*
X101427429Y-78789235D01*
X101404329Y-78780970D01*
X101382151Y-78770480D01*
X101361107Y-78757867D01*
X101341402Y-78743253D01*
X101323223Y-78726777D01*
X101306747Y-78708598D01*
X101292133Y-78688893D01*
X101279520Y-78667849D01*
X101269030Y-78645671D01*
X101260765Y-78622571D01*
X101254804Y-78598773D01*
X101251204Y-78574504D01*
X101250000Y-78550000D01*
X101250000Y-77450000D01*
X101251204Y-77425496D01*
X101254804Y-77401227D01*
X101260765Y-77377429D01*
X101269030Y-77354329D01*
X101279520Y-77332151D01*
X101292133Y-77311107D01*
X101306747Y-77291402D01*
X101323223Y-77273223D01*
X101341402Y-77256747D01*
X101361107Y-77242133D01*
X101382151Y-77229520D01*
X101404329Y-77219030D01*
X101427429Y-77210765D01*
X101451227Y-77204804D01*
X101475496Y-77201204D01*
X101500000Y-77200000D01*
X104500000Y-77200000D01*
X104524504Y-77201204D01*
X104524504Y-77201204D01*
G37*
D22*
X103000000Y-78000000D03*
D12*
G36*
X110124504Y-77201204D02*
G01*
X110148773Y-77204804D01*
X110172571Y-77210765D01*
X110195671Y-77219030D01*
X110217849Y-77229520D01*
X110238893Y-77242133D01*
X110258598Y-77256747D01*
X110276777Y-77273223D01*
X110293253Y-77291402D01*
X110307867Y-77311107D01*
X110320480Y-77332151D01*
X110330970Y-77354329D01*
X110339235Y-77377429D01*
X110345196Y-77401227D01*
X110348796Y-77425496D01*
X110350000Y-77450000D01*
X110350000Y-78550000D01*
X110348796Y-78574504D01*
X110345196Y-78598773D01*
X110339235Y-78622571D01*
X110330970Y-78645671D01*
X110320480Y-78667849D01*
X110307867Y-78688893D01*
X110293253Y-78708598D01*
X110276777Y-78726777D01*
X110258598Y-78743253D01*
X110238893Y-78757867D01*
X110217849Y-78770480D01*
X110195671Y-78780970D01*
X110172571Y-78789235D01*
X110148773Y-78795196D01*
X110124504Y-78798796D01*
X110100000Y-78800000D01*
X107100000Y-78800000D01*
X107075496Y-78798796D01*
X107051227Y-78795196D01*
X107027429Y-78789235D01*
X107004329Y-78780970D01*
X106982151Y-78770480D01*
X106961107Y-78757867D01*
X106941402Y-78743253D01*
X106923223Y-78726777D01*
X106906747Y-78708598D01*
X106892133Y-78688893D01*
X106879520Y-78667849D01*
X106869030Y-78645671D01*
X106860765Y-78622571D01*
X106854804Y-78598773D01*
X106851204Y-78574504D01*
X106850000Y-78550000D01*
X106850000Y-77450000D01*
X106851204Y-77425496D01*
X106854804Y-77401227D01*
X106860765Y-77377429D01*
X106869030Y-77354329D01*
X106879520Y-77332151D01*
X106892133Y-77311107D01*
X106906747Y-77291402D01*
X106923223Y-77273223D01*
X106941402Y-77256747D01*
X106961107Y-77242133D01*
X106982151Y-77229520D01*
X107004329Y-77219030D01*
X107027429Y-77210765D01*
X107051227Y-77204804D01*
X107075496Y-77201204D01*
X107100000Y-77200000D01*
X110100000Y-77200000D01*
X110124504Y-77201204D01*
X110124504Y-77201204D01*
G37*
D22*
X108600000Y-78000000D03*
D12*
G36*
X110124504Y-84801204D02*
G01*
X110148773Y-84804804D01*
X110172571Y-84810765D01*
X110195671Y-84819030D01*
X110217849Y-84829520D01*
X110238893Y-84842133D01*
X110258598Y-84856747D01*
X110276777Y-84873223D01*
X110293253Y-84891402D01*
X110307867Y-84911107D01*
X110320480Y-84932151D01*
X110330970Y-84954329D01*
X110339235Y-84977429D01*
X110345196Y-85001227D01*
X110348796Y-85025496D01*
X110350000Y-85050000D01*
X110350000Y-86150000D01*
X110348796Y-86174504D01*
X110345196Y-86198773D01*
X110339235Y-86222571D01*
X110330970Y-86245671D01*
X110320480Y-86267849D01*
X110307867Y-86288893D01*
X110293253Y-86308598D01*
X110276777Y-86326777D01*
X110258598Y-86343253D01*
X110238893Y-86357867D01*
X110217849Y-86370480D01*
X110195671Y-86380970D01*
X110172571Y-86389235D01*
X110148773Y-86395196D01*
X110124504Y-86398796D01*
X110100000Y-86400000D01*
X107100000Y-86400000D01*
X107075496Y-86398796D01*
X107051227Y-86395196D01*
X107027429Y-86389235D01*
X107004329Y-86380970D01*
X106982151Y-86370480D01*
X106961107Y-86357867D01*
X106941402Y-86343253D01*
X106923223Y-86326777D01*
X106906747Y-86308598D01*
X106892133Y-86288893D01*
X106879520Y-86267849D01*
X106869030Y-86245671D01*
X106860765Y-86222571D01*
X106854804Y-86198773D01*
X106851204Y-86174504D01*
X106850000Y-86150000D01*
X106850000Y-85050000D01*
X106851204Y-85025496D01*
X106854804Y-85001227D01*
X106860765Y-84977429D01*
X106869030Y-84954329D01*
X106879520Y-84932151D01*
X106892133Y-84911107D01*
X106906747Y-84891402D01*
X106923223Y-84873223D01*
X106941402Y-84856747D01*
X106961107Y-84842133D01*
X106982151Y-84829520D01*
X107004329Y-84819030D01*
X107027429Y-84810765D01*
X107051227Y-84804804D01*
X107075496Y-84801204D01*
X107100000Y-84800000D01*
X110100000Y-84800000D01*
X110124504Y-84801204D01*
X110124504Y-84801204D01*
G37*
D22*
X108600000Y-85600000D03*
D12*
G36*
X104524504Y-84801204D02*
G01*
X104548773Y-84804804D01*
X104572571Y-84810765D01*
X104595671Y-84819030D01*
X104617849Y-84829520D01*
X104638893Y-84842133D01*
X104658598Y-84856747D01*
X104676777Y-84873223D01*
X104693253Y-84891402D01*
X104707867Y-84911107D01*
X104720480Y-84932151D01*
X104730970Y-84954329D01*
X104739235Y-84977429D01*
X104745196Y-85001227D01*
X104748796Y-85025496D01*
X104750000Y-85050000D01*
X104750000Y-86150000D01*
X104748796Y-86174504D01*
X104745196Y-86198773D01*
X104739235Y-86222571D01*
X104730970Y-86245671D01*
X104720480Y-86267849D01*
X104707867Y-86288893D01*
X104693253Y-86308598D01*
X104676777Y-86326777D01*
X104658598Y-86343253D01*
X104638893Y-86357867D01*
X104617849Y-86370480D01*
X104595671Y-86380970D01*
X104572571Y-86389235D01*
X104548773Y-86395196D01*
X104524504Y-86398796D01*
X104500000Y-86400000D01*
X101500000Y-86400000D01*
X101475496Y-86398796D01*
X101451227Y-86395196D01*
X101427429Y-86389235D01*
X101404329Y-86380970D01*
X101382151Y-86370480D01*
X101361107Y-86357867D01*
X101341402Y-86343253D01*
X101323223Y-86326777D01*
X101306747Y-86308598D01*
X101292133Y-86288893D01*
X101279520Y-86267849D01*
X101269030Y-86245671D01*
X101260765Y-86222571D01*
X101254804Y-86198773D01*
X101251204Y-86174504D01*
X101250000Y-86150000D01*
X101250000Y-85050000D01*
X101251204Y-85025496D01*
X101254804Y-85001227D01*
X101260765Y-84977429D01*
X101269030Y-84954329D01*
X101279520Y-84932151D01*
X101292133Y-84911107D01*
X101306747Y-84891402D01*
X101323223Y-84873223D01*
X101341402Y-84856747D01*
X101361107Y-84842133D01*
X101382151Y-84829520D01*
X101404329Y-84819030D01*
X101427429Y-84810765D01*
X101451227Y-84804804D01*
X101475496Y-84801204D01*
X101500000Y-84800000D01*
X104500000Y-84800000D01*
X104524504Y-84801204D01*
X104524504Y-84801204D01*
G37*
D22*
X103000000Y-85600000D03*
D12*
G36*
X136877691Y-119563553D02*
G01*
X136898926Y-119566703D01*
X136919750Y-119571919D01*
X136939962Y-119579151D01*
X136959368Y-119588330D01*
X136977781Y-119599366D01*
X136995024Y-119612154D01*
X137010930Y-119626570D01*
X137025346Y-119642476D01*
X137038134Y-119659719D01*
X137049170Y-119678132D01*
X137058349Y-119697538D01*
X137065581Y-119717750D01*
X137070797Y-119738574D01*
X137073947Y-119759809D01*
X137075000Y-119781250D01*
X137075000Y-120218750D01*
X137073947Y-120240191D01*
X137070797Y-120261426D01*
X137065581Y-120282250D01*
X137058349Y-120302462D01*
X137049170Y-120321868D01*
X137038134Y-120340281D01*
X137025346Y-120357524D01*
X137010930Y-120373430D01*
X136995024Y-120387846D01*
X136977781Y-120400634D01*
X136959368Y-120411670D01*
X136939962Y-120420849D01*
X136919750Y-120428081D01*
X136898926Y-120433297D01*
X136877691Y-120436447D01*
X136856250Y-120437500D01*
X136343750Y-120437500D01*
X136322309Y-120436447D01*
X136301074Y-120433297D01*
X136280250Y-120428081D01*
X136260038Y-120420849D01*
X136240632Y-120411670D01*
X136222219Y-120400634D01*
X136204976Y-120387846D01*
X136189070Y-120373430D01*
X136174654Y-120357524D01*
X136161866Y-120340281D01*
X136150830Y-120321868D01*
X136141651Y-120302462D01*
X136134419Y-120282250D01*
X136129203Y-120261426D01*
X136126053Y-120240191D01*
X136125000Y-120218750D01*
X136125000Y-119781250D01*
X136126053Y-119759809D01*
X136129203Y-119738574D01*
X136134419Y-119717750D01*
X136141651Y-119697538D01*
X136150830Y-119678132D01*
X136161866Y-119659719D01*
X136174654Y-119642476D01*
X136189070Y-119626570D01*
X136204976Y-119612154D01*
X136222219Y-119599366D01*
X136240632Y-119588330D01*
X136260038Y-119579151D01*
X136280250Y-119571919D01*
X136301074Y-119566703D01*
X136322309Y-119563553D01*
X136343750Y-119562500D01*
X136856250Y-119562500D01*
X136877691Y-119563553D01*
X136877691Y-119563553D01*
G37*
D13*
X136600000Y-120000000D03*
D12*
G36*
X136877691Y-121138553D02*
G01*
X136898926Y-121141703D01*
X136919750Y-121146919D01*
X136939962Y-121154151D01*
X136959368Y-121163330D01*
X136977781Y-121174366D01*
X136995024Y-121187154D01*
X137010930Y-121201570D01*
X137025346Y-121217476D01*
X137038134Y-121234719D01*
X137049170Y-121253132D01*
X137058349Y-121272538D01*
X137065581Y-121292750D01*
X137070797Y-121313574D01*
X137073947Y-121334809D01*
X137075000Y-121356250D01*
X137075000Y-121793750D01*
X137073947Y-121815191D01*
X137070797Y-121836426D01*
X137065581Y-121857250D01*
X137058349Y-121877462D01*
X137049170Y-121896868D01*
X137038134Y-121915281D01*
X137025346Y-121932524D01*
X137010930Y-121948430D01*
X136995024Y-121962846D01*
X136977781Y-121975634D01*
X136959368Y-121986670D01*
X136939962Y-121995849D01*
X136919750Y-122003081D01*
X136898926Y-122008297D01*
X136877691Y-122011447D01*
X136856250Y-122012500D01*
X136343750Y-122012500D01*
X136322309Y-122011447D01*
X136301074Y-122008297D01*
X136280250Y-122003081D01*
X136260038Y-121995849D01*
X136240632Y-121986670D01*
X136222219Y-121975634D01*
X136204976Y-121962846D01*
X136189070Y-121948430D01*
X136174654Y-121932524D01*
X136161866Y-121915281D01*
X136150830Y-121896868D01*
X136141651Y-121877462D01*
X136134419Y-121857250D01*
X136129203Y-121836426D01*
X136126053Y-121815191D01*
X136125000Y-121793750D01*
X136125000Y-121356250D01*
X136126053Y-121334809D01*
X136129203Y-121313574D01*
X136134419Y-121292750D01*
X136141651Y-121272538D01*
X136150830Y-121253132D01*
X136161866Y-121234719D01*
X136174654Y-121217476D01*
X136189070Y-121201570D01*
X136204976Y-121187154D01*
X136222219Y-121174366D01*
X136240632Y-121163330D01*
X136260038Y-121154151D01*
X136280250Y-121146919D01*
X136301074Y-121141703D01*
X136322309Y-121138553D01*
X136343750Y-121137500D01*
X136856250Y-121137500D01*
X136877691Y-121138553D01*
X136877691Y-121138553D01*
G37*
D13*
X136600000Y-121575000D03*
D12*
G36*
X136877691Y-116563553D02*
G01*
X136898926Y-116566703D01*
X136919750Y-116571919D01*
X136939962Y-116579151D01*
X136959368Y-116588330D01*
X136977781Y-116599366D01*
X136995024Y-116612154D01*
X137010930Y-116626570D01*
X137025346Y-116642476D01*
X137038134Y-116659719D01*
X137049170Y-116678132D01*
X137058349Y-116697538D01*
X137065581Y-116717750D01*
X137070797Y-116738574D01*
X137073947Y-116759809D01*
X137075000Y-116781250D01*
X137075000Y-117218750D01*
X137073947Y-117240191D01*
X137070797Y-117261426D01*
X137065581Y-117282250D01*
X137058349Y-117302462D01*
X137049170Y-117321868D01*
X137038134Y-117340281D01*
X137025346Y-117357524D01*
X137010930Y-117373430D01*
X136995024Y-117387846D01*
X136977781Y-117400634D01*
X136959368Y-117411670D01*
X136939962Y-117420849D01*
X136919750Y-117428081D01*
X136898926Y-117433297D01*
X136877691Y-117436447D01*
X136856250Y-117437500D01*
X136343750Y-117437500D01*
X136322309Y-117436447D01*
X136301074Y-117433297D01*
X136280250Y-117428081D01*
X136260038Y-117420849D01*
X136240632Y-117411670D01*
X136222219Y-117400634D01*
X136204976Y-117387846D01*
X136189070Y-117373430D01*
X136174654Y-117357524D01*
X136161866Y-117340281D01*
X136150830Y-117321868D01*
X136141651Y-117302462D01*
X136134419Y-117282250D01*
X136129203Y-117261426D01*
X136126053Y-117240191D01*
X136125000Y-117218750D01*
X136125000Y-116781250D01*
X136126053Y-116759809D01*
X136129203Y-116738574D01*
X136134419Y-116717750D01*
X136141651Y-116697538D01*
X136150830Y-116678132D01*
X136161866Y-116659719D01*
X136174654Y-116642476D01*
X136189070Y-116626570D01*
X136204976Y-116612154D01*
X136222219Y-116599366D01*
X136240632Y-116588330D01*
X136260038Y-116579151D01*
X136280250Y-116571919D01*
X136301074Y-116566703D01*
X136322309Y-116563553D01*
X136343750Y-116562500D01*
X136856250Y-116562500D01*
X136877691Y-116563553D01*
X136877691Y-116563553D01*
G37*
D13*
X136600000Y-117000000D03*
D12*
G36*
X136877691Y-118138553D02*
G01*
X136898926Y-118141703D01*
X136919750Y-118146919D01*
X136939962Y-118154151D01*
X136959368Y-118163330D01*
X136977781Y-118174366D01*
X136995024Y-118187154D01*
X137010930Y-118201570D01*
X137025346Y-118217476D01*
X137038134Y-118234719D01*
X137049170Y-118253132D01*
X137058349Y-118272538D01*
X137065581Y-118292750D01*
X137070797Y-118313574D01*
X137073947Y-118334809D01*
X137075000Y-118356250D01*
X137075000Y-118793750D01*
X137073947Y-118815191D01*
X137070797Y-118836426D01*
X137065581Y-118857250D01*
X137058349Y-118877462D01*
X137049170Y-118896868D01*
X137038134Y-118915281D01*
X137025346Y-118932524D01*
X137010930Y-118948430D01*
X136995024Y-118962846D01*
X136977781Y-118975634D01*
X136959368Y-118986670D01*
X136939962Y-118995849D01*
X136919750Y-119003081D01*
X136898926Y-119008297D01*
X136877691Y-119011447D01*
X136856250Y-119012500D01*
X136343750Y-119012500D01*
X136322309Y-119011447D01*
X136301074Y-119008297D01*
X136280250Y-119003081D01*
X136260038Y-118995849D01*
X136240632Y-118986670D01*
X136222219Y-118975634D01*
X136204976Y-118962846D01*
X136189070Y-118948430D01*
X136174654Y-118932524D01*
X136161866Y-118915281D01*
X136150830Y-118896868D01*
X136141651Y-118877462D01*
X136134419Y-118857250D01*
X136129203Y-118836426D01*
X136126053Y-118815191D01*
X136125000Y-118793750D01*
X136125000Y-118356250D01*
X136126053Y-118334809D01*
X136129203Y-118313574D01*
X136134419Y-118292750D01*
X136141651Y-118272538D01*
X136150830Y-118253132D01*
X136161866Y-118234719D01*
X136174654Y-118217476D01*
X136189070Y-118201570D01*
X136204976Y-118187154D01*
X136222219Y-118174366D01*
X136240632Y-118163330D01*
X136260038Y-118154151D01*
X136280250Y-118146919D01*
X136301074Y-118141703D01*
X136322309Y-118138553D01*
X136343750Y-118137500D01*
X136856250Y-118137500D01*
X136877691Y-118138553D01*
X136877691Y-118138553D01*
G37*
D13*
X136600000Y-118575000D03*
D12*
G36*
X132724504Y-120081204D02*
G01*
X132748773Y-120084804D01*
X132772571Y-120090765D01*
X132795671Y-120099030D01*
X132817849Y-120109520D01*
X132838893Y-120122133D01*
X132858598Y-120136747D01*
X132876777Y-120153223D01*
X132893253Y-120171402D01*
X132907867Y-120191107D01*
X132920480Y-120212151D01*
X132930970Y-120234329D01*
X132939235Y-120257429D01*
X132945196Y-120281227D01*
X132948796Y-120305496D01*
X132950000Y-120330000D01*
X132950000Y-123330000D01*
X132948796Y-123354504D01*
X132945196Y-123378773D01*
X132939235Y-123402571D01*
X132930970Y-123425671D01*
X132920480Y-123447849D01*
X132907867Y-123468893D01*
X132893253Y-123488598D01*
X132876777Y-123506777D01*
X132858598Y-123523253D01*
X132838893Y-123537867D01*
X132817849Y-123550480D01*
X132795671Y-123560970D01*
X132772571Y-123569235D01*
X132748773Y-123575196D01*
X132724504Y-123578796D01*
X132700000Y-123580000D01*
X131600000Y-123580000D01*
X131575496Y-123578796D01*
X131551227Y-123575196D01*
X131527429Y-123569235D01*
X131504329Y-123560970D01*
X131482151Y-123550480D01*
X131461107Y-123537867D01*
X131441402Y-123523253D01*
X131423223Y-123506777D01*
X131406747Y-123488598D01*
X131392133Y-123468893D01*
X131379520Y-123447849D01*
X131369030Y-123425671D01*
X131360765Y-123402571D01*
X131354804Y-123378773D01*
X131351204Y-123354504D01*
X131350000Y-123330000D01*
X131350000Y-120330000D01*
X131351204Y-120305496D01*
X131354804Y-120281227D01*
X131360765Y-120257429D01*
X131369030Y-120234329D01*
X131379520Y-120212151D01*
X131392133Y-120191107D01*
X131406747Y-120171402D01*
X131423223Y-120153223D01*
X131441402Y-120136747D01*
X131461107Y-120122133D01*
X131482151Y-120109520D01*
X131504329Y-120099030D01*
X131527429Y-120090765D01*
X131551227Y-120084804D01*
X131575496Y-120081204D01*
X131600000Y-120080000D01*
X132700000Y-120080000D01*
X132724504Y-120081204D01*
X132724504Y-120081204D01*
G37*
D22*
X132150000Y-121830000D03*
D12*
G36*
X132724504Y-125681204D02*
G01*
X132748773Y-125684804D01*
X132772571Y-125690765D01*
X132795671Y-125699030D01*
X132817849Y-125709520D01*
X132838893Y-125722133D01*
X132858598Y-125736747D01*
X132876777Y-125753223D01*
X132893253Y-125771402D01*
X132907867Y-125791107D01*
X132920480Y-125812151D01*
X132930970Y-125834329D01*
X132939235Y-125857429D01*
X132945196Y-125881227D01*
X132948796Y-125905496D01*
X132950000Y-125930000D01*
X132950000Y-128930000D01*
X132948796Y-128954504D01*
X132945196Y-128978773D01*
X132939235Y-129002571D01*
X132930970Y-129025671D01*
X132920480Y-129047849D01*
X132907867Y-129068893D01*
X132893253Y-129088598D01*
X132876777Y-129106777D01*
X132858598Y-129123253D01*
X132838893Y-129137867D01*
X132817849Y-129150480D01*
X132795671Y-129160970D01*
X132772571Y-129169235D01*
X132748773Y-129175196D01*
X132724504Y-129178796D01*
X132700000Y-129180000D01*
X131600000Y-129180000D01*
X131575496Y-129178796D01*
X131551227Y-129175196D01*
X131527429Y-129169235D01*
X131504329Y-129160970D01*
X131482151Y-129150480D01*
X131461107Y-129137867D01*
X131441402Y-129123253D01*
X131423223Y-129106777D01*
X131406747Y-129088598D01*
X131392133Y-129068893D01*
X131379520Y-129047849D01*
X131369030Y-129025671D01*
X131360765Y-129002571D01*
X131354804Y-128978773D01*
X131351204Y-128954504D01*
X131350000Y-128930000D01*
X131350000Y-125930000D01*
X131351204Y-125905496D01*
X131354804Y-125881227D01*
X131360765Y-125857429D01*
X131369030Y-125834329D01*
X131379520Y-125812151D01*
X131392133Y-125791107D01*
X131406747Y-125771402D01*
X131423223Y-125753223D01*
X131441402Y-125736747D01*
X131461107Y-125722133D01*
X131482151Y-125709520D01*
X131504329Y-125699030D01*
X131527429Y-125690765D01*
X131551227Y-125684804D01*
X131575496Y-125681204D01*
X131600000Y-125680000D01*
X132700000Y-125680000D01*
X132724504Y-125681204D01*
X132724504Y-125681204D01*
G37*
D22*
X132150000Y-127430000D03*
D12*
G36*
X132774504Y-115251204D02*
G01*
X132798773Y-115254804D01*
X132822571Y-115260765D01*
X132845671Y-115269030D01*
X132867849Y-115279520D01*
X132888893Y-115292133D01*
X132908598Y-115306747D01*
X132926777Y-115323223D01*
X132943253Y-115341402D01*
X132957867Y-115361107D01*
X132970480Y-115382151D01*
X132980970Y-115404329D01*
X132989235Y-115427429D01*
X132995196Y-115451227D01*
X132998796Y-115475496D01*
X133000000Y-115500000D01*
X133000000Y-118500000D01*
X132998796Y-118524504D01*
X132995196Y-118548773D01*
X132989235Y-118572571D01*
X132980970Y-118595671D01*
X132970480Y-118617849D01*
X132957867Y-118638893D01*
X132943253Y-118658598D01*
X132926777Y-118676777D01*
X132908598Y-118693253D01*
X132888893Y-118707867D01*
X132867849Y-118720480D01*
X132845671Y-118730970D01*
X132822571Y-118739235D01*
X132798773Y-118745196D01*
X132774504Y-118748796D01*
X132750000Y-118750000D01*
X131650000Y-118750000D01*
X131625496Y-118748796D01*
X131601227Y-118745196D01*
X131577429Y-118739235D01*
X131554329Y-118730970D01*
X131532151Y-118720480D01*
X131511107Y-118707867D01*
X131491402Y-118693253D01*
X131473223Y-118676777D01*
X131456747Y-118658598D01*
X131442133Y-118638893D01*
X131429520Y-118617849D01*
X131419030Y-118595671D01*
X131410765Y-118572571D01*
X131404804Y-118548773D01*
X131401204Y-118524504D01*
X131400000Y-118500000D01*
X131400000Y-115500000D01*
X131401204Y-115475496D01*
X131404804Y-115451227D01*
X131410765Y-115427429D01*
X131419030Y-115404329D01*
X131429520Y-115382151D01*
X131442133Y-115361107D01*
X131456747Y-115341402D01*
X131473223Y-115323223D01*
X131491402Y-115306747D01*
X131511107Y-115292133D01*
X131532151Y-115279520D01*
X131554329Y-115269030D01*
X131577429Y-115260765D01*
X131601227Y-115254804D01*
X131625496Y-115251204D01*
X131650000Y-115250000D01*
X132750000Y-115250000D01*
X132774504Y-115251204D01*
X132774504Y-115251204D01*
G37*
D22*
X132200000Y-117000000D03*
D12*
G36*
X132774504Y-109651204D02*
G01*
X132798773Y-109654804D01*
X132822571Y-109660765D01*
X132845671Y-109669030D01*
X132867849Y-109679520D01*
X132888893Y-109692133D01*
X132908598Y-109706747D01*
X132926777Y-109723223D01*
X132943253Y-109741402D01*
X132957867Y-109761107D01*
X132970480Y-109782151D01*
X132980970Y-109804329D01*
X132989235Y-109827429D01*
X132995196Y-109851227D01*
X132998796Y-109875496D01*
X133000000Y-109900000D01*
X133000000Y-112900000D01*
X132998796Y-112924504D01*
X132995196Y-112948773D01*
X132989235Y-112972571D01*
X132980970Y-112995671D01*
X132970480Y-113017849D01*
X132957867Y-113038893D01*
X132943253Y-113058598D01*
X132926777Y-113076777D01*
X132908598Y-113093253D01*
X132888893Y-113107867D01*
X132867849Y-113120480D01*
X132845671Y-113130970D01*
X132822571Y-113139235D01*
X132798773Y-113145196D01*
X132774504Y-113148796D01*
X132750000Y-113150000D01*
X131650000Y-113150000D01*
X131625496Y-113148796D01*
X131601227Y-113145196D01*
X131577429Y-113139235D01*
X131554329Y-113130970D01*
X131532151Y-113120480D01*
X131511107Y-113107867D01*
X131491402Y-113093253D01*
X131473223Y-113076777D01*
X131456747Y-113058598D01*
X131442133Y-113038893D01*
X131429520Y-113017849D01*
X131419030Y-112995671D01*
X131410765Y-112972571D01*
X131404804Y-112948773D01*
X131401204Y-112924504D01*
X131400000Y-112900000D01*
X131400000Y-109900000D01*
X131401204Y-109875496D01*
X131404804Y-109851227D01*
X131410765Y-109827429D01*
X131419030Y-109804329D01*
X131429520Y-109782151D01*
X131442133Y-109761107D01*
X131456747Y-109741402D01*
X131473223Y-109723223D01*
X131491402Y-109706747D01*
X131511107Y-109692133D01*
X131532151Y-109679520D01*
X131554329Y-109669030D01*
X131577429Y-109660765D01*
X131601227Y-109654804D01*
X131625496Y-109651204D01*
X131650000Y-109650000D01*
X132750000Y-109650000D01*
X132774504Y-109651204D01*
X132774504Y-109651204D01*
G37*
D22*
X132200000Y-111400000D03*
D23*
X106000000Y-106200000D03*
X102000000Y-106200000D03*
X96800000Y-106200000D03*
X92800000Y-106200000D03*
D15*
X90000000Y-52100000D03*
D14*
X95080000Y-52100000D03*
D24*
X141380000Y-51900000D03*
D25*
X143920000Y-51900000D03*
X146460000Y-51900000D03*
X149000000Y-51900000D03*
D24*
X147000000Y-95340000D03*
D25*
X147000000Y-92800000D03*
D24*
X147000000Y-80340000D03*
D25*
X147000000Y-77800000D03*
X135620000Y-52200000D03*
X133080000Y-52200000D03*
X130540000Y-52200000D03*
D24*
X128000000Y-52200000D03*
D25*
X147000000Y-87940000D03*
D24*
X147000000Y-85400000D03*
D25*
X147000000Y-73540000D03*
D24*
X147000000Y-71000000D03*
D12*
G36*
X141976504Y-46984204D02*
G01*
X142000773Y-46987804D01*
X142024571Y-46993765D01*
X142047671Y-47002030D01*
X142069849Y-47012520D01*
X142090893Y-47025133D01*
X142110598Y-47039747D01*
X142128777Y-47056223D01*
X142145253Y-47074402D01*
X142159867Y-47094107D01*
X142172480Y-47115151D01*
X142182970Y-47137329D01*
X142191235Y-47160429D01*
X142197196Y-47184227D01*
X142200796Y-47208496D01*
X142202000Y-47233000D01*
X142202000Y-48683000D01*
X142200796Y-48707504D01*
X142197196Y-48731773D01*
X142191235Y-48755571D01*
X142182970Y-48778671D01*
X142172480Y-48800849D01*
X142159867Y-48821893D01*
X142145253Y-48841598D01*
X142128777Y-48859777D01*
X142110598Y-48876253D01*
X142090893Y-48890867D01*
X142069849Y-48903480D01*
X142047671Y-48913970D01*
X142024571Y-48922235D01*
X142000773Y-48928196D01*
X141976504Y-48931796D01*
X141952000Y-48933000D01*
X140752000Y-48933000D01*
X140727496Y-48931796D01*
X140703227Y-48928196D01*
X140679429Y-48922235D01*
X140656329Y-48913970D01*
X140634151Y-48903480D01*
X140613107Y-48890867D01*
X140593402Y-48876253D01*
X140575223Y-48859777D01*
X140558747Y-48841598D01*
X140544133Y-48821893D01*
X140531520Y-48800849D01*
X140521030Y-48778671D01*
X140512765Y-48755571D01*
X140506804Y-48731773D01*
X140503204Y-48707504D01*
X140502000Y-48683000D01*
X140502000Y-47233000D01*
X140503204Y-47208496D01*
X140506804Y-47184227D01*
X140512765Y-47160429D01*
X140521030Y-47137329D01*
X140531520Y-47115151D01*
X140544133Y-47094107D01*
X140558747Y-47074402D01*
X140575223Y-47056223D01*
X140593402Y-47039747D01*
X140613107Y-47025133D01*
X140634151Y-47012520D01*
X140656329Y-47002030D01*
X140679429Y-46993765D01*
X140703227Y-46987804D01*
X140727496Y-46984204D01*
X140752000Y-46983000D01*
X141952000Y-46983000D01*
X141976504Y-46984204D01*
X141976504Y-46984204D01*
G37*
D26*
X141352000Y-47958000D03*
D27*
X143852000Y-47958000D03*
X146352000Y-47958000D03*
X148852000Y-47958000D03*
D14*
X102800000Y-133400000D03*
D15*
X107880000Y-133400000D03*
X92800000Y-133400000D03*
D14*
X87720000Y-133400000D03*
D15*
X91600000Y-85600000D03*
D14*
X91600000Y-90680000D03*
X91600000Y-95760000D03*
X91600000Y-100840000D03*
D27*
X135590000Y-47958000D03*
X133090000Y-47958000D03*
X130590000Y-47958000D03*
D12*
G36*
X128714504Y-46984204D02*
G01*
X128738773Y-46987804D01*
X128762571Y-46993765D01*
X128785671Y-47002030D01*
X128807849Y-47012520D01*
X128828893Y-47025133D01*
X128848598Y-47039747D01*
X128866777Y-47056223D01*
X128883253Y-47074402D01*
X128897867Y-47094107D01*
X128910480Y-47115151D01*
X128920970Y-47137329D01*
X128929235Y-47160429D01*
X128935196Y-47184227D01*
X128938796Y-47208496D01*
X128940000Y-47233000D01*
X128940000Y-48683000D01*
X128938796Y-48707504D01*
X128935196Y-48731773D01*
X128929235Y-48755571D01*
X128920970Y-48778671D01*
X128910480Y-48800849D01*
X128897867Y-48821893D01*
X128883253Y-48841598D01*
X128866777Y-48859777D01*
X128848598Y-48876253D01*
X128828893Y-48890867D01*
X128807849Y-48903480D01*
X128785671Y-48913970D01*
X128762571Y-48922235D01*
X128738773Y-48928196D01*
X128714504Y-48931796D01*
X128690000Y-48933000D01*
X127490000Y-48933000D01*
X127465496Y-48931796D01*
X127441227Y-48928196D01*
X127417429Y-48922235D01*
X127394329Y-48913970D01*
X127372151Y-48903480D01*
X127351107Y-48890867D01*
X127331402Y-48876253D01*
X127313223Y-48859777D01*
X127296747Y-48841598D01*
X127282133Y-48821893D01*
X127269520Y-48800849D01*
X127259030Y-48778671D01*
X127250765Y-48755571D01*
X127244804Y-48731773D01*
X127241204Y-48707504D01*
X127240000Y-48683000D01*
X127240000Y-47233000D01*
X127241204Y-47208496D01*
X127244804Y-47184227D01*
X127250765Y-47160429D01*
X127259030Y-47137329D01*
X127269520Y-47115151D01*
X127282133Y-47094107D01*
X127296747Y-47074402D01*
X127313223Y-47056223D01*
X127331402Y-47039747D01*
X127351107Y-47025133D01*
X127372151Y-47012520D01*
X127394329Y-47002030D01*
X127417429Y-46993765D01*
X127441227Y-46987804D01*
X127465496Y-46984204D01*
X127490000Y-46983000D01*
X128690000Y-46983000D01*
X128714504Y-46984204D01*
X128714504Y-46984204D01*
G37*
D26*
X128090000Y-47958000D03*
D14*
X140200000Y-130400000D03*
D15*
X145200000Y-130400000D03*
D28*
X143000000Y-93970000D03*
X143000000Y-95240000D03*
D29*
X143000000Y-92700000D03*
D28*
X143000000Y-79070000D03*
X143000000Y-80340000D03*
D29*
X143000000Y-77800000D03*
D28*
X143000000Y-86670000D03*
X143000000Y-87940000D03*
D29*
X143000000Y-85400000D03*
D28*
X143000000Y-72470000D03*
X143000000Y-73740000D03*
D29*
X143000000Y-71200000D03*
D30*
X102350000Y-50756000D03*
X104250000Y-50756000D03*
X103300000Y-48756000D03*
D31*
X107200000Y-101600000D03*
D32*
X109740000Y-101600000D03*
X108470000Y-101600000D03*
D31*
X86400000Y-106200000D03*
D32*
X88940000Y-106200000D03*
X87670000Y-106200000D03*
D12*
G36*
X109227691Y-92588553D02*
G01*
X109248926Y-92591703D01*
X109269750Y-92596919D01*
X109289962Y-92604151D01*
X109309368Y-92613330D01*
X109327781Y-92624366D01*
X109345024Y-92637154D01*
X109360930Y-92651570D01*
X109375346Y-92667476D01*
X109388134Y-92684719D01*
X109399170Y-92703132D01*
X109408349Y-92722538D01*
X109415581Y-92742750D01*
X109420797Y-92763574D01*
X109423947Y-92784809D01*
X109425000Y-92806250D01*
X109425000Y-93243750D01*
X109423947Y-93265191D01*
X109420797Y-93286426D01*
X109415581Y-93307250D01*
X109408349Y-93327462D01*
X109399170Y-93346868D01*
X109388134Y-93365281D01*
X109375346Y-93382524D01*
X109360930Y-93398430D01*
X109345024Y-93412846D01*
X109327781Y-93425634D01*
X109309368Y-93436670D01*
X109289962Y-93445849D01*
X109269750Y-93453081D01*
X109248926Y-93458297D01*
X109227691Y-93461447D01*
X109206250Y-93462500D01*
X108693750Y-93462500D01*
X108672309Y-93461447D01*
X108651074Y-93458297D01*
X108630250Y-93453081D01*
X108610038Y-93445849D01*
X108590632Y-93436670D01*
X108572219Y-93425634D01*
X108554976Y-93412846D01*
X108539070Y-93398430D01*
X108524654Y-93382524D01*
X108511866Y-93365281D01*
X108500830Y-93346868D01*
X108491651Y-93327462D01*
X108484419Y-93307250D01*
X108479203Y-93286426D01*
X108476053Y-93265191D01*
X108475000Y-93243750D01*
X108475000Y-92806250D01*
X108476053Y-92784809D01*
X108479203Y-92763574D01*
X108484419Y-92742750D01*
X108491651Y-92722538D01*
X108500830Y-92703132D01*
X108511866Y-92684719D01*
X108524654Y-92667476D01*
X108539070Y-92651570D01*
X108554976Y-92637154D01*
X108572219Y-92624366D01*
X108590632Y-92613330D01*
X108610038Y-92604151D01*
X108630250Y-92596919D01*
X108651074Y-92591703D01*
X108672309Y-92588553D01*
X108693750Y-92587500D01*
X109206250Y-92587500D01*
X109227691Y-92588553D01*
X109227691Y-92588553D01*
G37*
D13*
X108950000Y-93025000D03*
D12*
G36*
X109227691Y-94163553D02*
G01*
X109248926Y-94166703D01*
X109269750Y-94171919D01*
X109289962Y-94179151D01*
X109309368Y-94188330D01*
X109327781Y-94199366D01*
X109345024Y-94212154D01*
X109360930Y-94226570D01*
X109375346Y-94242476D01*
X109388134Y-94259719D01*
X109399170Y-94278132D01*
X109408349Y-94297538D01*
X109415581Y-94317750D01*
X109420797Y-94338574D01*
X109423947Y-94359809D01*
X109425000Y-94381250D01*
X109425000Y-94818750D01*
X109423947Y-94840191D01*
X109420797Y-94861426D01*
X109415581Y-94882250D01*
X109408349Y-94902462D01*
X109399170Y-94921868D01*
X109388134Y-94940281D01*
X109375346Y-94957524D01*
X109360930Y-94973430D01*
X109345024Y-94987846D01*
X109327781Y-95000634D01*
X109309368Y-95011670D01*
X109289962Y-95020849D01*
X109269750Y-95028081D01*
X109248926Y-95033297D01*
X109227691Y-95036447D01*
X109206250Y-95037500D01*
X108693750Y-95037500D01*
X108672309Y-95036447D01*
X108651074Y-95033297D01*
X108630250Y-95028081D01*
X108610038Y-95020849D01*
X108590632Y-95011670D01*
X108572219Y-95000634D01*
X108554976Y-94987846D01*
X108539070Y-94973430D01*
X108524654Y-94957524D01*
X108511866Y-94940281D01*
X108500830Y-94921868D01*
X108491651Y-94902462D01*
X108484419Y-94882250D01*
X108479203Y-94861426D01*
X108476053Y-94840191D01*
X108475000Y-94818750D01*
X108475000Y-94381250D01*
X108476053Y-94359809D01*
X108479203Y-94338574D01*
X108484419Y-94317750D01*
X108491651Y-94297538D01*
X108500830Y-94278132D01*
X108511866Y-94259719D01*
X108524654Y-94242476D01*
X108539070Y-94226570D01*
X108554976Y-94212154D01*
X108572219Y-94199366D01*
X108590632Y-94188330D01*
X108610038Y-94179151D01*
X108630250Y-94171919D01*
X108651074Y-94166703D01*
X108672309Y-94163553D01*
X108693750Y-94162500D01*
X109206250Y-94162500D01*
X109227691Y-94163553D01*
X109227691Y-94163553D01*
G37*
D13*
X108950000Y-94600000D03*
D12*
G36*
X110627691Y-92588553D02*
G01*
X110648926Y-92591703D01*
X110669750Y-92596919D01*
X110689962Y-92604151D01*
X110709368Y-92613330D01*
X110727781Y-92624366D01*
X110745024Y-92637154D01*
X110760930Y-92651570D01*
X110775346Y-92667476D01*
X110788134Y-92684719D01*
X110799170Y-92703132D01*
X110808349Y-92722538D01*
X110815581Y-92742750D01*
X110820797Y-92763574D01*
X110823947Y-92784809D01*
X110825000Y-92806250D01*
X110825000Y-93243750D01*
X110823947Y-93265191D01*
X110820797Y-93286426D01*
X110815581Y-93307250D01*
X110808349Y-93327462D01*
X110799170Y-93346868D01*
X110788134Y-93365281D01*
X110775346Y-93382524D01*
X110760930Y-93398430D01*
X110745024Y-93412846D01*
X110727781Y-93425634D01*
X110709368Y-93436670D01*
X110689962Y-93445849D01*
X110669750Y-93453081D01*
X110648926Y-93458297D01*
X110627691Y-93461447D01*
X110606250Y-93462500D01*
X110093750Y-93462500D01*
X110072309Y-93461447D01*
X110051074Y-93458297D01*
X110030250Y-93453081D01*
X110010038Y-93445849D01*
X109990632Y-93436670D01*
X109972219Y-93425634D01*
X109954976Y-93412846D01*
X109939070Y-93398430D01*
X109924654Y-93382524D01*
X109911866Y-93365281D01*
X109900830Y-93346868D01*
X109891651Y-93327462D01*
X109884419Y-93307250D01*
X109879203Y-93286426D01*
X109876053Y-93265191D01*
X109875000Y-93243750D01*
X109875000Y-92806250D01*
X109876053Y-92784809D01*
X109879203Y-92763574D01*
X109884419Y-92742750D01*
X109891651Y-92722538D01*
X109900830Y-92703132D01*
X109911866Y-92684719D01*
X109924654Y-92667476D01*
X109939070Y-92651570D01*
X109954976Y-92637154D01*
X109972219Y-92624366D01*
X109990632Y-92613330D01*
X110010038Y-92604151D01*
X110030250Y-92596919D01*
X110051074Y-92591703D01*
X110072309Y-92588553D01*
X110093750Y-92587500D01*
X110606250Y-92587500D01*
X110627691Y-92588553D01*
X110627691Y-92588553D01*
G37*
D13*
X110350000Y-93025000D03*
D12*
G36*
X110627691Y-94163553D02*
G01*
X110648926Y-94166703D01*
X110669750Y-94171919D01*
X110689962Y-94179151D01*
X110709368Y-94188330D01*
X110727781Y-94199366D01*
X110745024Y-94212154D01*
X110760930Y-94226570D01*
X110775346Y-94242476D01*
X110788134Y-94259719D01*
X110799170Y-94278132D01*
X110808349Y-94297538D01*
X110815581Y-94317750D01*
X110820797Y-94338574D01*
X110823947Y-94359809D01*
X110825000Y-94381250D01*
X110825000Y-94818750D01*
X110823947Y-94840191D01*
X110820797Y-94861426D01*
X110815581Y-94882250D01*
X110808349Y-94902462D01*
X110799170Y-94921868D01*
X110788134Y-94940281D01*
X110775346Y-94957524D01*
X110760930Y-94973430D01*
X110745024Y-94987846D01*
X110727781Y-95000634D01*
X110709368Y-95011670D01*
X110689962Y-95020849D01*
X110669750Y-95028081D01*
X110648926Y-95033297D01*
X110627691Y-95036447D01*
X110606250Y-95037500D01*
X110093750Y-95037500D01*
X110072309Y-95036447D01*
X110051074Y-95033297D01*
X110030250Y-95028081D01*
X110010038Y-95020849D01*
X109990632Y-95011670D01*
X109972219Y-95000634D01*
X109954976Y-94987846D01*
X109939070Y-94973430D01*
X109924654Y-94957524D01*
X109911866Y-94940281D01*
X109900830Y-94921868D01*
X109891651Y-94902462D01*
X109884419Y-94882250D01*
X109879203Y-94861426D01*
X109876053Y-94840191D01*
X109875000Y-94818750D01*
X109875000Y-94381250D01*
X109876053Y-94359809D01*
X109879203Y-94338574D01*
X109884419Y-94317750D01*
X109891651Y-94297538D01*
X109900830Y-94278132D01*
X109911866Y-94259719D01*
X109924654Y-94242476D01*
X109939070Y-94226570D01*
X109954976Y-94212154D01*
X109972219Y-94199366D01*
X109990632Y-94188330D01*
X110010038Y-94179151D01*
X110030250Y-94171919D01*
X110051074Y-94166703D01*
X110072309Y-94163553D01*
X110093750Y-94162500D01*
X110606250Y-94162500D01*
X110627691Y-94163553D01*
X110627691Y-94163553D01*
G37*
D13*
X110350000Y-94600000D03*
D12*
G36*
X140677691Y-95538553D02*
G01*
X140698926Y-95541703D01*
X140719750Y-95546919D01*
X140739962Y-95554151D01*
X140759368Y-95563330D01*
X140777781Y-95574366D01*
X140795024Y-95587154D01*
X140810930Y-95601570D01*
X140825346Y-95617476D01*
X140838134Y-95634719D01*
X140849170Y-95653132D01*
X140858349Y-95672538D01*
X140865581Y-95692750D01*
X140870797Y-95713574D01*
X140873947Y-95734809D01*
X140875000Y-95756250D01*
X140875000Y-96193750D01*
X140873947Y-96215191D01*
X140870797Y-96236426D01*
X140865581Y-96257250D01*
X140858349Y-96277462D01*
X140849170Y-96296868D01*
X140838134Y-96315281D01*
X140825346Y-96332524D01*
X140810930Y-96348430D01*
X140795024Y-96362846D01*
X140777781Y-96375634D01*
X140759368Y-96386670D01*
X140739962Y-96395849D01*
X140719750Y-96403081D01*
X140698926Y-96408297D01*
X140677691Y-96411447D01*
X140656250Y-96412500D01*
X140143750Y-96412500D01*
X140122309Y-96411447D01*
X140101074Y-96408297D01*
X140080250Y-96403081D01*
X140060038Y-96395849D01*
X140040632Y-96386670D01*
X140022219Y-96375634D01*
X140004976Y-96362846D01*
X139989070Y-96348430D01*
X139974654Y-96332524D01*
X139961866Y-96315281D01*
X139950830Y-96296868D01*
X139941651Y-96277462D01*
X139934419Y-96257250D01*
X139929203Y-96236426D01*
X139926053Y-96215191D01*
X139925000Y-96193750D01*
X139925000Y-95756250D01*
X139926053Y-95734809D01*
X139929203Y-95713574D01*
X139934419Y-95692750D01*
X139941651Y-95672538D01*
X139950830Y-95653132D01*
X139961866Y-95634719D01*
X139974654Y-95617476D01*
X139989070Y-95601570D01*
X140004976Y-95587154D01*
X140022219Y-95574366D01*
X140040632Y-95563330D01*
X140060038Y-95554151D01*
X140080250Y-95546919D01*
X140101074Y-95541703D01*
X140122309Y-95538553D01*
X140143750Y-95537500D01*
X140656250Y-95537500D01*
X140677691Y-95538553D01*
X140677691Y-95538553D01*
G37*
D13*
X140400000Y-95975000D03*
D12*
G36*
X140677691Y-93963553D02*
G01*
X140698926Y-93966703D01*
X140719750Y-93971919D01*
X140739962Y-93979151D01*
X140759368Y-93988330D01*
X140777781Y-93999366D01*
X140795024Y-94012154D01*
X140810930Y-94026570D01*
X140825346Y-94042476D01*
X140838134Y-94059719D01*
X140849170Y-94078132D01*
X140858349Y-94097538D01*
X140865581Y-94117750D01*
X140870797Y-94138574D01*
X140873947Y-94159809D01*
X140875000Y-94181250D01*
X140875000Y-94618750D01*
X140873947Y-94640191D01*
X140870797Y-94661426D01*
X140865581Y-94682250D01*
X140858349Y-94702462D01*
X140849170Y-94721868D01*
X140838134Y-94740281D01*
X140825346Y-94757524D01*
X140810930Y-94773430D01*
X140795024Y-94787846D01*
X140777781Y-94800634D01*
X140759368Y-94811670D01*
X140739962Y-94820849D01*
X140719750Y-94828081D01*
X140698926Y-94833297D01*
X140677691Y-94836447D01*
X140656250Y-94837500D01*
X140143750Y-94837500D01*
X140122309Y-94836447D01*
X140101074Y-94833297D01*
X140080250Y-94828081D01*
X140060038Y-94820849D01*
X140040632Y-94811670D01*
X140022219Y-94800634D01*
X140004976Y-94787846D01*
X139989070Y-94773430D01*
X139974654Y-94757524D01*
X139961866Y-94740281D01*
X139950830Y-94721868D01*
X139941651Y-94702462D01*
X139934419Y-94682250D01*
X139929203Y-94661426D01*
X139926053Y-94640191D01*
X139925000Y-94618750D01*
X139925000Y-94181250D01*
X139926053Y-94159809D01*
X139929203Y-94138574D01*
X139934419Y-94117750D01*
X139941651Y-94097538D01*
X139950830Y-94078132D01*
X139961866Y-94059719D01*
X139974654Y-94042476D01*
X139989070Y-94026570D01*
X140004976Y-94012154D01*
X140022219Y-93999366D01*
X140040632Y-93988330D01*
X140060038Y-93979151D01*
X140080250Y-93971919D01*
X140101074Y-93966703D01*
X140122309Y-93963553D01*
X140143750Y-93962500D01*
X140656250Y-93962500D01*
X140677691Y-93963553D01*
X140677691Y-93963553D01*
G37*
D13*
X140400000Y-94400000D03*
D12*
G36*
X140677691Y-79276053D02*
G01*
X140698926Y-79279203D01*
X140719750Y-79284419D01*
X140739962Y-79291651D01*
X140759368Y-79300830D01*
X140777781Y-79311866D01*
X140795024Y-79324654D01*
X140810930Y-79339070D01*
X140825346Y-79354976D01*
X140838134Y-79372219D01*
X140849170Y-79390632D01*
X140858349Y-79410038D01*
X140865581Y-79430250D01*
X140870797Y-79451074D01*
X140873947Y-79472309D01*
X140875000Y-79493750D01*
X140875000Y-79931250D01*
X140873947Y-79952691D01*
X140870797Y-79973926D01*
X140865581Y-79994750D01*
X140858349Y-80014962D01*
X140849170Y-80034368D01*
X140838134Y-80052781D01*
X140825346Y-80070024D01*
X140810930Y-80085930D01*
X140795024Y-80100346D01*
X140777781Y-80113134D01*
X140759368Y-80124170D01*
X140739962Y-80133349D01*
X140719750Y-80140581D01*
X140698926Y-80145797D01*
X140677691Y-80148947D01*
X140656250Y-80150000D01*
X140143750Y-80150000D01*
X140122309Y-80148947D01*
X140101074Y-80145797D01*
X140080250Y-80140581D01*
X140060038Y-80133349D01*
X140040632Y-80124170D01*
X140022219Y-80113134D01*
X140004976Y-80100346D01*
X139989070Y-80085930D01*
X139974654Y-80070024D01*
X139961866Y-80052781D01*
X139950830Y-80034368D01*
X139941651Y-80014962D01*
X139934419Y-79994750D01*
X139929203Y-79973926D01*
X139926053Y-79952691D01*
X139925000Y-79931250D01*
X139925000Y-79493750D01*
X139926053Y-79472309D01*
X139929203Y-79451074D01*
X139934419Y-79430250D01*
X139941651Y-79410038D01*
X139950830Y-79390632D01*
X139961866Y-79372219D01*
X139974654Y-79354976D01*
X139989070Y-79339070D01*
X140004976Y-79324654D01*
X140022219Y-79311866D01*
X140040632Y-79300830D01*
X140060038Y-79291651D01*
X140080250Y-79284419D01*
X140101074Y-79279203D01*
X140122309Y-79276053D01*
X140143750Y-79275000D01*
X140656250Y-79275000D01*
X140677691Y-79276053D01*
X140677691Y-79276053D01*
G37*
D13*
X140400000Y-79712500D03*
D12*
G36*
X140677691Y-80851053D02*
G01*
X140698926Y-80854203D01*
X140719750Y-80859419D01*
X140739962Y-80866651D01*
X140759368Y-80875830D01*
X140777781Y-80886866D01*
X140795024Y-80899654D01*
X140810930Y-80914070D01*
X140825346Y-80929976D01*
X140838134Y-80947219D01*
X140849170Y-80965632D01*
X140858349Y-80985038D01*
X140865581Y-81005250D01*
X140870797Y-81026074D01*
X140873947Y-81047309D01*
X140875000Y-81068750D01*
X140875000Y-81506250D01*
X140873947Y-81527691D01*
X140870797Y-81548926D01*
X140865581Y-81569750D01*
X140858349Y-81589962D01*
X140849170Y-81609368D01*
X140838134Y-81627781D01*
X140825346Y-81645024D01*
X140810930Y-81660930D01*
X140795024Y-81675346D01*
X140777781Y-81688134D01*
X140759368Y-81699170D01*
X140739962Y-81708349D01*
X140719750Y-81715581D01*
X140698926Y-81720797D01*
X140677691Y-81723947D01*
X140656250Y-81725000D01*
X140143750Y-81725000D01*
X140122309Y-81723947D01*
X140101074Y-81720797D01*
X140080250Y-81715581D01*
X140060038Y-81708349D01*
X140040632Y-81699170D01*
X140022219Y-81688134D01*
X140004976Y-81675346D01*
X139989070Y-81660930D01*
X139974654Y-81645024D01*
X139961866Y-81627781D01*
X139950830Y-81609368D01*
X139941651Y-81589962D01*
X139934419Y-81569750D01*
X139929203Y-81548926D01*
X139926053Y-81527691D01*
X139925000Y-81506250D01*
X139925000Y-81068750D01*
X139926053Y-81047309D01*
X139929203Y-81026074D01*
X139934419Y-81005250D01*
X139941651Y-80985038D01*
X139950830Y-80965632D01*
X139961866Y-80947219D01*
X139974654Y-80929976D01*
X139989070Y-80914070D01*
X140004976Y-80899654D01*
X140022219Y-80886866D01*
X140040632Y-80875830D01*
X140060038Y-80866651D01*
X140080250Y-80859419D01*
X140101074Y-80854203D01*
X140122309Y-80851053D01*
X140143750Y-80850000D01*
X140656250Y-80850000D01*
X140677691Y-80851053D01*
X140677691Y-80851053D01*
G37*
D13*
X140400000Y-81287500D03*
D12*
G36*
X140677691Y-91363553D02*
G01*
X140698926Y-91366703D01*
X140719750Y-91371919D01*
X140739962Y-91379151D01*
X140759368Y-91388330D01*
X140777781Y-91399366D01*
X140795024Y-91412154D01*
X140810930Y-91426570D01*
X140825346Y-91442476D01*
X140838134Y-91459719D01*
X140849170Y-91478132D01*
X140858349Y-91497538D01*
X140865581Y-91517750D01*
X140870797Y-91538574D01*
X140873947Y-91559809D01*
X140875000Y-91581250D01*
X140875000Y-92018750D01*
X140873947Y-92040191D01*
X140870797Y-92061426D01*
X140865581Y-92082250D01*
X140858349Y-92102462D01*
X140849170Y-92121868D01*
X140838134Y-92140281D01*
X140825346Y-92157524D01*
X140810930Y-92173430D01*
X140795024Y-92187846D01*
X140777781Y-92200634D01*
X140759368Y-92211670D01*
X140739962Y-92220849D01*
X140719750Y-92228081D01*
X140698926Y-92233297D01*
X140677691Y-92236447D01*
X140656250Y-92237500D01*
X140143750Y-92237500D01*
X140122309Y-92236447D01*
X140101074Y-92233297D01*
X140080250Y-92228081D01*
X140060038Y-92220849D01*
X140040632Y-92211670D01*
X140022219Y-92200634D01*
X140004976Y-92187846D01*
X139989070Y-92173430D01*
X139974654Y-92157524D01*
X139961866Y-92140281D01*
X139950830Y-92121868D01*
X139941651Y-92102462D01*
X139934419Y-92082250D01*
X139929203Y-92061426D01*
X139926053Y-92040191D01*
X139925000Y-92018750D01*
X139925000Y-91581250D01*
X139926053Y-91559809D01*
X139929203Y-91538574D01*
X139934419Y-91517750D01*
X139941651Y-91497538D01*
X139950830Y-91478132D01*
X139961866Y-91459719D01*
X139974654Y-91442476D01*
X139989070Y-91426570D01*
X140004976Y-91412154D01*
X140022219Y-91399366D01*
X140040632Y-91388330D01*
X140060038Y-91379151D01*
X140080250Y-91371919D01*
X140101074Y-91366703D01*
X140122309Y-91363553D01*
X140143750Y-91362500D01*
X140656250Y-91362500D01*
X140677691Y-91363553D01*
X140677691Y-91363553D01*
G37*
D13*
X140400000Y-91800000D03*
D12*
G36*
X140677691Y-92938553D02*
G01*
X140698926Y-92941703D01*
X140719750Y-92946919D01*
X140739962Y-92954151D01*
X140759368Y-92963330D01*
X140777781Y-92974366D01*
X140795024Y-92987154D01*
X140810930Y-93001570D01*
X140825346Y-93017476D01*
X140838134Y-93034719D01*
X140849170Y-93053132D01*
X140858349Y-93072538D01*
X140865581Y-93092750D01*
X140870797Y-93113574D01*
X140873947Y-93134809D01*
X140875000Y-93156250D01*
X140875000Y-93593750D01*
X140873947Y-93615191D01*
X140870797Y-93636426D01*
X140865581Y-93657250D01*
X140858349Y-93677462D01*
X140849170Y-93696868D01*
X140838134Y-93715281D01*
X140825346Y-93732524D01*
X140810930Y-93748430D01*
X140795024Y-93762846D01*
X140777781Y-93775634D01*
X140759368Y-93786670D01*
X140739962Y-93795849D01*
X140719750Y-93803081D01*
X140698926Y-93808297D01*
X140677691Y-93811447D01*
X140656250Y-93812500D01*
X140143750Y-93812500D01*
X140122309Y-93811447D01*
X140101074Y-93808297D01*
X140080250Y-93803081D01*
X140060038Y-93795849D01*
X140040632Y-93786670D01*
X140022219Y-93775634D01*
X140004976Y-93762846D01*
X139989070Y-93748430D01*
X139974654Y-93732524D01*
X139961866Y-93715281D01*
X139950830Y-93696868D01*
X139941651Y-93677462D01*
X139934419Y-93657250D01*
X139929203Y-93636426D01*
X139926053Y-93615191D01*
X139925000Y-93593750D01*
X139925000Y-93156250D01*
X139926053Y-93134809D01*
X139929203Y-93113574D01*
X139934419Y-93092750D01*
X139941651Y-93072538D01*
X139950830Y-93053132D01*
X139961866Y-93034719D01*
X139974654Y-93017476D01*
X139989070Y-93001570D01*
X140004976Y-92987154D01*
X140022219Y-92974366D01*
X140040632Y-92963330D01*
X140060038Y-92954151D01*
X140080250Y-92946919D01*
X140101074Y-92941703D01*
X140122309Y-92938553D01*
X140143750Y-92937500D01*
X140656250Y-92937500D01*
X140677691Y-92938553D01*
X140677691Y-92938553D01*
G37*
D13*
X140400000Y-93375000D03*
D12*
G36*
X140677691Y-78251053D02*
G01*
X140698926Y-78254203D01*
X140719750Y-78259419D01*
X140739962Y-78266651D01*
X140759368Y-78275830D01*
X140777781Y-78286866D01*
X140795024Y-78299654D01*
X140810930Y-78314070D01*
X140825346Y-78329976D01*
X140838134Y-78347219D01*
X140849170Y-78365632D01*
X140858349Y-78385038D01*
X140865581Y-78405250D01*
X140870797Y-78426074D01*
X140873947Y-78447309D01*
X140875000Y-78468750D01*
X140875000Y-78906250D01*
X140873947Y-78927691D01*
X140870797Y-78948926D01*
X140865581Y-78969750D01*
X140858349Y-78989962D01*
X140849170Y-79009368D01*
X140838134Y-79027781D01*
X140825346Y-79045024D01*
X140810930Y-79060930D01*
X140795024Y-79075346D01*
X140777781Y-79088134D01*
X140759368Y-79099170D01*
X140739962Y-79108349D01*
X140719750Y-79115581D01*
X140698926Y-79120797D01*
X140677691Y-79123947D01*
X140656250Y-79125000D01*
X140143750Y-79125000D01*
X140122309Y-79123947D01*
X140101074Y-79120797D01*
X140080250Y-79115581D01*
X140060038Y-79108349D01*
X140040632Y-79099170D01*
X140022219Y-79088134D01*
X140004976Y-79075346D01*
X139989070Y-79060930D01*
X139974654Y-79045024D01*
X139961866Y-79027781D01*
X139950830Y-79009368D01*
X139941651Y-78989962D01*
X139934419Y-78969750D01*
X139929203Y-78948926D01*
X139926053Y-78927691D01*
X139925000Y-78906250D01*
X139925000Y-78468750D01*
X139926053Y-78447309D01*
X139929203Y-78426074D01*
X139934419Y-78405250D01*
X139941651Y-78385038D01*
X139950830Y-78365632D01*
X139961866Y-78347219D01*
X139974654Y-78329976D01*
X139989070Y-78314070D01*
X140004976Y-78299654D01*
X140022219Y-78286866D01*
X140040632Y-78275830D01*
X140060038Y-78266651D01*
X140080250Y-78259419D01*
X140101074Y-78254203D01*
X140122309Y-78251053D01*
X140143750Y-78250000D01*
X140656250Y-78250000D01*
X140677691Y-78251053D01*
X140677691Y-78251053D01*
G37*
D13*
X140400000Y-78687500D03*
D12*
G36*
X140677691Y-76676053D02*
G01*
X140698926Y-76679203D01*
X140719750Y-76684419D01*
X140739962Y-76691651D01*
X140759368Y-76700830D01*
X140777781Y-76711866D01*
X140795024Y-76724654D01*
X140810930Y-76739070D01*
X140825346Y-76754976D01*
X140838134Y-76772219D01*
X140849170Y-76790632D01*
X140858349Y-76810038D01*
X140865581Y-76830250D01*
X140870797Y-76851074D01*
X140873947Y-76872309D01*
X140875000Y-76893750D01*
X140875000Y-77331250D01*
X140873947Y-77352691D01*
X140870797Y-77373926D01*
X140865581Y-77394750D01*
X140858349Y-77414962D01*
X140849170Y-77434368D01*
X140838134Y-77452781D01*
X140825346Y-77470024D01*
X140810930Y-77485930D01*
X140795024Y-77500346D01*
X140777781Y-77513134D01*
X140759368Y-77524170D01*
X140739962Y-77533349D01*
X140719750Y-77540581D01*
X140698926Y-77545797D01*
X140677691Y-77548947D01*
X140656250Y-77550000D01*
X140143750Y-77550000D01*
X140122309Y-77548947D01*
X140101074Y-77545797D01*
X140080250Y-77540581D01*
X140060038Y-77533349D01*
X140040632Y-77524170D01*
X140022219Y-77513134D01*
X140004976Y-77500346D01*
X139989070Y-77485930D01*
X139974654Y-77470024D01*
X139961866Y-77452781D01*
X139950830Y-77434368D01*
X139941651Y-77414962D01*
X139934419Y-77394750D01*
X139929203Y-77373926D01*
X139926053Y-77352691D01*
X139925000Y-77331250D01*
X139925000Y-76893750D01*
X139926053Y-76872309D01*
X139929203Y-76851074D01*
X139934419Y-76830250D01*
X139941651Y-76810038D01*
X139950830Y-76790632D01*
X139961866Y-76772219D01*
X139974654Y-76754976D01*
X139989070Y-76739070D01*
X140004976Y-76724654D01*
X140022219Y-76711866D01*
X140040632Y-76700830D01*
X140060038Y-76691651D01*
X140080250Y-76684419D01*
X140101074Y-76679203D01*
X140122309Y-76676053D01*
X140143750Y-76675000D01*
X140656250Y-76675000D01*
X140677691Y-76676053D01*
X140677691Y-76676053D01*
G37*
D13*
X140400000Y-77112500D03*
D12*
G36*
X140577691Y-88363553D02*
G01*
X140598926Y-88366703D01*
X140619750Y-88371919D01*
X140639962Y-88379151D01*
X140659368Y-88388330D01*
X140677781Y-88399366D01*
X140695024Y-88412154D01*
X140710930Y-88426570D01*
X140725346Y-88442476D01*
X140738134Y-88459719D01*
X140749170Y-88478132D01*
X140758349Y-88497538D01*
X140765581Y-88517750D01*
X140770797Y-88538574D01*
X140773947Y-88559809D01*
X140775000Y-88581250D01*
X140775000Y-89018750D01*
X140773947Y-89040191D01*
X140770797Y-89061426D01*
X140765581Y-89082250D01*
X140758349Y-89102462D01*
X140749170Y-89121868D01*
X140738134Y-89140281D01*
X140725346Y-89157524D01*
X140710930Y-89173430D01*
X140695024Y-89187846D01*
X140677781Y-89200634D01*
X140659368Y-89211670D01*
X140639962Y-89220849D01*
X140619750Y-89228081D01*
X140598926Y-89233297D01*
X140577691Y-89236447D01*
X140556250Y-89237500D01*
X140043750Y-89237500D01*
X140022309Y-89236447D01*
X140001074Y-89233297D01*
X139980250Y-89228081D01*
X139960038Y-89220849D01*
X139940632Y-89211670D01*
X139922219Y-89200634D01*
X139904976Y-89187846D01*
X139889070Y-89173430D01*
X139874654Y-89157524D01*
X139861866Y-89140281D01*
X139850830Y-89121868D01*
X139841651Y-89102462D01*
X139834419Y-89082250D01*
X139829203Y-89061426D01*
X139826053Y-89040191D01*
X139825000Y-89018750D01*
X139825000Y-88581250D01*
X139826053Y-88559809D01*
X139829203Y-88538574D01*
X139834419Y-88517750D01*
X139841651Y-88497538D01*
X139850830Y-88478132D01*
X139861866Y-88459719D01*
X139874654Y-88442476D01*
X139889070Y-88426570D01*
X139904976Y-88412154D01*
X139922219Y-88399366D01*
X139940632Y-88388330D01*
X139960038Y-88379151D01*
X139980250Y-88371919D01*
X140001074Y-88366703D01*
X140022309Y-88363553D01*
X140043750Y-88362500D01*
X140556250Y-88362500D01*
X140577691Y-88363553D01*
X140577691Y-88363553D01*
G37*
D13*
X140300000Y-88800000D03*
D12*
G36*
X140577691Y-86788553D02*
G01*
X140598926Y-86791703D01*
X140619750Y-86796919D01*
X140639962Y-86804151D01*
X140659368Y-86813330D01*
X140677781Y-86824366D01*
X140695024Y-86837154D01*
X140710930Y-86851570D01*
X140725346Y-86867476D01*
X140738134Y-86884719D01*
X140749170Y-86903132D01*
X140758349Y-86922538D01*
X140765581Y-86942750D01*
X140770797Y-86963574D01*
X140773947Y-86984809D01*
X140775000Y-87006250D01*
X140775000Y-87443750D01*
X140773947Y-87465191D01*
X140770797Y-87486426D01*
X140765581Y-87507250D01*
X140758349Y-87527462D01*
X140749170Y-87546868D01*
X140738134Y-87565281D01*
X140725346Y-87582524D01*
X140710930Y-87598430D01*
X140695024Y-87612846D01*
X140677781Y-87625634D01*
X140659368Y-87636670D01*
X140639962Y-87645849D01*
X140619750Y-87653081D01*
X140598926Y-87658297D01*
X140577691Y-87661447D01*
X140556250Y-87662500D01*
X140043750Y-87662500D01*
X140022309Y-87661447D01*
X140001074Y-87658297D01*
X139980250Y-87653081D01*
X139960038Y-87645849D01*
X139940632Y-87636670D01*
X139922219Y-87625634D01*
X139904976Y-87612846D01*
X139889070Y-87598430D01*
X139874654Y-87582524D01*
X139861866Y-87565281D01*
X139850830Y-87546868D01*
X139841651Y-87527462D01*
X139834419Y-87507250D01*
X139829203Y-87486426D01*
X139826053Y-87465191D01*
X139825000Y-87443750D01*
X139825000Y-87006250D01*
X139826053Y-86984809D01*
X139829203Y-86963574D01*
X139834419Y-86942750D01*
X139841651Y-86922538D01*
X139850830Y-86903132D01*
X139861866Y-86884719D01*
X139874654Y-86867476D01*
X139889070Y-86851570D01*
X139904976Y-86837154D01*
X139922219Y-86824366D01*
X139940632Y-86813330D01*
X139960038Y-86804151D01*
X139980250Y-86796919D01*
X140001074Y-86791703D01*
X140022309Y-86788553D01*
X140043750Y-86787500D01*
X140556250Y-86787500D01*
X140577691Y-86788553D01*
X140577691Y-86788553D01*
G37*
D13*
X140300000Y-87225000D03*
D12*
G36*
X140677691Y-72565553D02*
G01*
X140698926Y-72568703D01*
X140719750Y-72573919D01*
X140739962Y-72581151D01*
X140759368Y-72590330D01*
X140777781Y-72601366D01*
X140795024Y-72614154D01*
X140810930Y-72628570D01*
X140825346Y-72644476D01*
X140838134Y-72661719D01*
X140849170Y-72680132D01*
X140858349Y-72699538D01*
X140865581Y-72719750D01*
X140870797Y-72740574D01*
X140873947Y-72761809D01*
X140875000Y-72783250D01*
X140875000Y-73220750D01*
X140873947Y-73242191D01*
X140870797Y-73263426D01*
X140865581Y-73284250D01*
X140858349Y-73304462D01*
X140849170Y-73323868D01*
X140838134Y-73342281D01*
X140825346Y-73359524D01*
X140810930Y-73375430D01*
X140795024Y-73389846D01*
X140777781Y-73402634D01*
X140759368Y-73413670D01*
X140739962Y-73422849D01*
X140719750Y-73430081D01*
X140698926Y-73435297D01*
X140677691Y-73438447D01*
X140656250Y-73439500D01*
X140143750Y-73439500D01*
X140122309Y-73438447D01*
X140101074Y-73435297D01*
X140080250Y-73430081D01*
X140060038Y-73422849D01*
X140040632Y-73413670D01*
X140022219Y-73402634D01*
X140004976Y-73389846D01*
X139989070Y-73375430D01*
X139974654Y-73359524D01*
X139961866Y-73342281D01*
X139950830Y-73323868D01*
X139941651Y-73304462D01*
X139934419Y-73284250D01*
X139929203Y-73263426D01*
X139926053Y-73242191D01*
X139925000Y-73220750D01*
X139925000Y-72783250D01*
X139926053Y-72761809D01*
X139929203Y-72740574D01*
X139934419Y-72719750D01*
X139941651Y-72699538D01*
X139950830Y-72680132D01*
X139961866Y-72661719D01*
X139974654Y-72644476D01*
X139989070Y-72628570D01*
X140004976Y-72614154D01*
X140022219Y-72601366D01*
X140040632Y-72590330D01*
X140060038Y-72581151D01*
X140080250Y-72573919D01*
X140101074Y-72568703D01*
X140122309Y-72565553D01*
X140143750Y-72564500D01*
X140656250Y-72564500D01*
X140677691Y-72565553D01*
X140677691Y-72565553D01*
G37*
D13*
X140400000Y-73002000D03*
D12*
G36*
X140677691Y-74140553D02*
G01*
X140698926Y-74143703D01*
X140719750Y-74148919D01*
X140739962Y-74156151D01*
X140759368Y-74165330D01*
X140777781Y-74176366D01*
X140795024Y-74189154D01*
X140810930Y-74203570D01*
X140825346Y-74219476D01*
X140838134Y-74236719D01*
X140849170Y-74255132D01*
X140858349Y-74274538D01*
X140865581Y-74294750D01*
X140870797Y-74315574D01*
X140873947Y-74336809D01*
X140875000Y-74358250D01*
X140875000Y-74795750D01*
X140873947Y-74817191D01*
X140870797Y-74838426D01*
X140865581Y-74859250D01*
X140858349Y-74879462D01*
X140849170Y-74898868D01*
X140838134Y-74917281D01*
X140825346Y-74934524D01*
X140810930Y-74950430D01*
X140795024Y-74964846D01*
X140777781Y-74977634D01*
X140759368Y-74988670D01*
X140739962Y-74997849D01*
X140719750Y-75005081D01*
X140698926Y-75010297D01*
X140677691Y-75013447D01*
X140656250Y-75014500D01*
X140143750Y-75014500D01*
X140122309Y-75013447D01*
X140101074Y-75010297D01*
X140080250Y-75005081D01*
X140060038Y-74997849D01*
X140040632Y-74988670D01*
X140022219Y-74977634D01*
X140004976Y-74964846D01*
X139989070Y-74950430D01*
X139974654Y-74934524D01*
X139961866Y-74917281D01*
X139950830Y-74898868D01*
X139941651Y-74879462D01*
X139934419Y-74859250D01*
X139929203Y-74838426D01*
X139926053Y-74817191D01*
X139925000Y-74795750D01*
X139925000Y-74358250D01*
X139926053Y-74336809D01*
X139929203Y-74315574D01*
X139934419Y-74294750D01*
X139941651Y-74274538D01*
X139950830Y-74255132D01*
X139961866Y-74236719D01*
X139974654Y-74219476D01*
X139989070Y-74203570D01*
X140004976Y-74189154D01*
X140022219Y-74176366D01*
X140040632Y-74165330D01*
X140060038Y-74156151D01*
X140080250Y-74148919D01*
X140101074Y-74143703D01*
X140122309Y-74140553D01*
X140143750Y-74139500D01*
X140656250Y-74139500D01*
X140677691Y-74140553D01*
X140677691Y-74140553D01*
G37*
D13*
X140400000Y-74577000D03*
D12*
G36*
X140577691Y-85738553D02*
G01*
X140598926Y-85741703D01*
X140619750Y-85746919D01*
X140639962Y-85754151D01*
X140659368Y-85763330D01*
X140677781Y-85774366D01*
X140695024Y-85787154D01*
X140710930Y-85801570D01*
X140725346Y-85817476D01*
X140738134Y-85834719D01*
X140749170Y-85853132D01*
X140758349Y-85872538D01*
X140765581Y-85892750D01*
X140770797Y-85913574D01*
X140773947Y-85934809D01*
X140775000Y-85956250D01*
X140775000Y-86393750D01*
X140773947Y-86415191D01*
X140770797Y-86436426D01*
X140765581Y-86457250D01*
X140758349Y-86477462D01*
X140749170Y-86496868D01*
X140738134Y-86515281D01*
X140725346Y-86532524D01*
X140710930Y-86548430D01*
X140695024Y-86562846D01*
X140677781Y-86575634D01*
X140659368Y-86586670D01*
X140639962Y-86595849D01*
X140619750Y-86603081D01*
X140598926Y-86608297D01*
X140577691Y-86611447D01*
X140556250Y-86612500D01*
X140043750Y-86612500D01*
X140022309Y-86611447D01*
X140001074Y-86608297D01*
X139980250Y-86603081D01*
X139960038Y-86595849D01*
X139940632Y-86586670D01*
X139922219Y-86575634D01*
X139904976Y-86562846D01*
X139889070Y-86548430D01*
X139874654Y-86532524D01*
X139861866Y-86515281D01*
X139850830Y-86496868D01*
X139841651Y-86477462D01*
X139834419Y-86457250D01*
X139829203Y-86436426D01*
X139826053Y-86415191D01*
X139825000Y-86393750D01*
X139825000Y-85956250D01*
X139826053Y-85934809D01*
X139829203Y-85913574D01*
X139834419Y-85892750D01*
X139841651Y-85872538D01*
X139850830Y-85853132D01*
X139861866Y-85834719D01*
X139874654Y-85817476D01*
X139889070Y-85801570D01*
X139904976Y-85787154D01*
X139922219Y-85774366D01*
X139940632Y-85763330D01*
X139960038Y-85754151D01*
X139980250Y-85746919D01*
X140001074Y-85741703D01*
X140022309Y-85738553D01*
X140043750Y-85737500D01*
X140556250Y-85737500D01*
X140577691Y-85738553D01*
X140577691Y-85738553D01*
G37*
D13*
X140300000Y-86175000D03*
D12*
G36*
X140577691Y-84163553D02*
G01*
X140598926Y-84166703D01*
X140619750Y-84171919D01*
X140639962Y-84179151D01*
X140659368Y-84188330D01*
X140677781Y-84199366D01*
X140695024Y-84212154D01*
X140710930Y-84226570D01*
X140725346Y-84242476D01*
X140738134Y-84259719D01*
X140749170Y-84278132D01*
X140758349Y-84297538D01*
X140765581Y-84317750D01*
X140770797Y-84338574D01*
X140773947Y-84359809D01*
X140775000Y-84381250D01*
X140775000Y-84818750D01*
X140773947Y-84840191D01*
X140770797Y-84861426D01*
X140765581Y-84882250D01*
X140758349Y-84902462D01*
X140749170Y-84921868D01*
X140738134Y-84940281D01*
X140725346Y-84957524D01*
X140710930Y-84973430D01*
X140695024Y-84987846D01*
X140677781Y-85000634D01*
X140659368Y-85011670D01*
X140639962Y-85020849D01*
X140619750Y-85028081D01*
X140598926Y-85033297D01*
X140577691Y-85036447D01*
X140556250Y-85037500D01*
X140043750Y-85037500D01*
X140022309Y-85036447D01*
X140001074Y-85033297D01*
X139980250Y-85028081D01*
X139960038Y-85020849D01*
X139940632Y-85011670D01*
X139922219Y-85000634D01*
X139904976Y-84987846D01*
X139889070Y-84973430D01*
X139874654Y-84957524D01*
X139861866Y-84940281D01*
X139850830Y-84921868D01*
X139841651Y-84902462D01*
X139834419Y-84882250D01*
X139829203Y-84861426D01*
X139826053Y-84840191D01*
X139825000Y-84818750D01*
X139825000Y-84381250D01*
X139826053Y-84359809D01*
X139829203Y-84338574D01*
X139834419Y-84317750D01*
X139841651Y-84297538D01*
X139850830Y-84278132D01*
X139861866Y-84259719D01*
X139874654Y-84242476D01*
X139889070Y-84226570D01*
X139904976Y-84212154D01*
X139922219Y-84199366D01*
X139940632Y-84188330D01*
X139960038Y-84179151D01*
X139980250Y-84171919D01*
X140001074Y-84166703D01*
X140022309Y-84163553D01*
X140043750Y-84162500D01*
X140556250Y-84162500D01*
X140577691Y-84163553D01*
X140577691Y-84163553D01*
G37*
D13*
X140300000Y-84600000D03*
D12*
G36*
X140677691Y-69963553D02*
G01*
X140698926Y-69966703D01*
X140719750Y-69971919D01*
X140739962Y-69979151D01*
X140759368Y-69988330D01*
X140777781Y-69999366D01*
X140795024Y-70012154D01*
X140810930Y-70026570D01*
X140825346Y-70042476D01*
X140838134Y-70059719D01*
X140849170Y-70078132D01*
X140858349Y-70097538D01*
X140865581Y-70117750D01*
X140870797Y-70138574D01*
X140873947Y-70159809D01*
X140875000Y-70181250D01*
X140875000Y-70618750D01*
X140873947Y-70640191D01*
X140870797Y-70661426D01*
X140865581Y-70682250D01*
X140858349Y-70702462D01*
X140849170Y-70721868D01*
X140838134Y-70740281D01*
X140825346Y-70757524D01*
X140810930Y-70773430D01*
X140795024Y-70787846D01*
X140777781Y-70800634D01*
X140759368Y-70811670D01*
X140739962Y-70820849D01*
X140719750Y-70828081D01*
X140698926Y-70833297D01*
X140677691Y-70836447D01*
X140656250Y-70837500D01*
X140143750Y-70837500D01*
X140122309Y-70836447D01*
X140101074Y-70833297D01*
X140080250Y-70828081D01*
X140060038Y-70820849D01*
X140040632Y-70811670D01*
X140022219Y-70800634D01*
X140004976Y-70787846D01*
X139989070Y-70773430D01*
X139974654Y-70757524D01*
X139961866Y-70740281D01*
X139950830Y-70721868D01*
X139941651Y-70702462D01*
X139934419Y-70682250D01*
X139929203Y-70661426D01*
X139926053Y-70640191D01*
X139925000Y-70618750D01*
X139925000Y-70181250D01*
X139926053Y-70159809D01*
X139929203Y-70138574D01*
X139934419Y-70117750D01*
X139941651Y-70097538D01*
X139950830Y-70078132D01*
X139961866Y-70059719D01*
X139974654Y-70042476D01*
X139989070Y-70026570D01*
X140004976Y-70012154D01*
X140022219Y-69999366D01*
X140040632Y-69988330D01*
X140060038Y-69979151D01*
X140080250Y-69971919D01*
X140101074Y-69966703D01*
X140122309Y-69963553D01*
X140143750Y-69962500D01*
X140656250Y-69962500D01*
X140677691Y-69963553D01*
X140677691Y-69963553D01*
G37*
D13*
X140400000Y-70400000D03*
D12*
G36*
X140677691Y-71538553D02*
G01*
X140698926Y-71541703D01*
X140719750Y-71546919D01*
X140739962Y-71554151D01*
X140759368Y-71563330D01*
X140777781Y-71574366D01*
X140795024Y-71587154D01*
X140810930Y-71601570D01*
X140825346Y-71617476D01*
X140838134Y-71634719D01*
X140849170Y-71653132D01*
X140858349Y-71672538D01*
X140865581Y-71692750D01*
X140870797Y-71713574D01*
X140873947Y-71734809D01*
X140875000Y-71756250D01*
X140875000Y-72193750D01*
X140873947Y-72215191D01*
X140870797Y-72236426D01*
X140865581Y-72257250D01*
X140858349Y-72277462D01*
X140849170Y-72296868D01*
X140838134Y-72315281D01*
X140825346Y-72332524D01*
X140810930Y-72348430D01*
X140795024Y-72362846D01*
X140777781Y-72375634D01*
X140759368Y-72386670D01*
X140739962Y-72395849D01*
X140719750Y-72403081D01*
X140698926Y-72408297D01*
X140677691Y-72411447D01*
X140656250Y-72412500D01*
X140143750Y-72412500D01*
X140122309Y-72411447D01*
X140101074Y-72408297D01*
X140080250Y-72403081D01*
X140060038Y-72395849D01*
X140040632Y-72386670D01*
X140022219Y-72375634D01*
X140004976Y-72362846D01*
X139989070Y-72348430D01*
X139974654Y-72332524D01*
X139961866Y-72315281D01*
X139950830Y-72296868D01*
X139941651Y-72277462D01*
X139934419Y-72257250D01*
X139929203Y-72236426D01*
X139926053Y-72215191D01*
X139925000Y-72193750D01*
X139925000Y-71756250D01*
X139926053Y-71734809D01*
X139929203Y-71713574D01*
X139934419Y-71692750D01*
X139941651Y-71672538D01*
X139950830Y-71653132D01*
X139961866Y-71634719D01*
X139974654Y-71617476D01*
X139989070Y-71601570D01*
X140004976Y-71587154D01*
X140022219Y-71574366D01*
X140040632Y-71563330D01*
X140060038Y-71554151D01*
X140080250Y-71546919D01*
X140101074Y-71541703D01*
X140122309Y-71538553D01*
X140143750Y-71537500D01*
X140656250Y-71537500D01*
X140677691Y-71538553D01*
X140677691Y-71538553D01*
G37*
D13*
X140400000Y-71975000D03*
D33*
X122800000Y-113400000D03*
D34*
X126610000Y-123360000D03*
X125340000Y-123360000D03*
X124070000Y-123360000D03*
X122800000Y-123360000D03*
X121530000Y-123360000D03*
X120260000Y-123360000D03*
X118990000Y-123360000D03*
X138922000Y-123264000D03*
X140192000Y-123264000D03*
X141462000Y-123264000D03*
X142732000Y-123264000D03*
X144002000Y-123264000D03*
X145272000Y-123264000D03*
X146542000Y-123264000D03*
D33*
X142732000Y-113304000D03*
D11*
X137000000Y-96400000D03*
X135600000Y-96400000D03*
X114200000Y-80000000D03*
X122000000Y-128000000D03*
X123600000Y-128000000D03*
X122800000Y-127200000D03*
X121600000Y-127200000D03*
X124000000Y-127200000D03*
X124400000Y-126400000D03*
X122800000Y-126200000D03*
X121200000Y-126400000D03*
X106600000Y-49800000D03*
X106600000Y-45800000D03*
X108600000Y-45800000D03*
X110600000Y-45800000D03*
X112600000Y-45800000D03*
X114600000Y-45800000D03*
X116600000Y-45800000D03*
X115600000Y-46800000D03*
X113600000Y-46800000D03*
X111600000Y-46800000D03*
X109600000Y-46800000D03*
X107600000Y-46800000D03*
X106600000Y-47800000D03*
X108600000Y-47800000D03*
X110600000Y-47800000D03*
X112600000Y-47800000D03*
X114600000Y-47800000D03*
X116600000Y-47800000D03*
X115600000Y-48800000D03*
X116600000Y-49800000D03*
X115600000Y-50800000D03*
X116600000Y-51800000D03*
X107600000Y-48800000D03*
X107600000Y-50800000D03*
X107600000Y-52800000D03*
X106600000Y-51800000D03*
X115600000Y-52800000D03*
X131600000Y-130000000D03*
X132600000Y-130000000D03*
X132600000Y-131000000D03*
X131600000Y-131000000D03*
X131800000Y-108200000D03*
X131800000Y-109200000D03*
X132800000Y-109200000D03*
X122800000Y-120815000D03*
X142732000Y-120600000D03*
X91000000Y-50000000D03*
X90000000Y-50000000D03*
X89000000Y-50000000D03*
X89000000Y-49000000D03*
X90000000Y-49000000D03*
X91000000Y-49000000D03*
X91000000Y-48000000D03*
X89000000Y-48000000D03*
X90000000Y-48000000D03*
X114600000Y-103800000D03*
X145000000Y-71600000D03*
X145000000Y-70600000D03*
X141800000Y-127000000D03*
X143800000Y-127000000D03*
X142800000Y-127000000D03*
X141400000Y-126200000D03*
X144200000Y-126200000D03*
X142800000Y-126000000D03*
X142200000Y-127800000D03*
X143400000Y-127800000D03*
X117600000Y-46800000D03*
X118600000Y-47800000D03*
X118600000Y-45800000D03*
X104400000Y-89000000D03*
X103400000Y-89000000D03*
X104400000Y-88000000D03*
X103400000Y-88000000D03*
X120260000Y-120815000D03*
X118000000Y-79800000D03*
X140192000Y-120600000D03*
X118000000Y-82800000D03*
X130755001Y-105044999D03*
X126644999Y-105044999D03*
X118200000Y-84000000D03*
X133080000Y-66280000D03*
X125300000Y-69100000D03*
X141462000Y-120600000D03*
X118200000Y-86400000D03*
X124700000Y-67100000D03*
X129000000Y-60000000D03*
X118200000Y-85200000D03*
X129504315Y-79104315D03*
X121600000Y-85200000D03*
X118200000Y-87600000D03*
X127400000Y-78400000D03*
X115600000Y-58600000D03*
X115600000Y-57600000D03*
X115600000Y-56600000D03*
X116600000Y-56600000D03*
X116600000Y-57600000D03*
X116600000Y-58600000D03*
X117600000Y-58600000D03*
X117600000Y-57600000D03*
X117600000Y-56600000D03*
X118600000Y-56600000D03*
X118600000Y-57600000D03*
X118600000Y-58600000D03*
X119600000Y-58600000D03*
X119600000Y-57600000D03*
X119600000Y-56600000D03*
X121530000Y-120815000D03*
X124070000Y-120815000D03*
X125000000Y-64400000D03*
X136400000Y-69800000D03*
X144000000Y-120600000D03*
D35*
X143920000Y-48026000D02*
X143852000Y-47958000D01*
X143920000Y-51900000D02*
X143920000Y-48026000D01*
D36*
X132100000Y-101600000D02*
X137000000Y-96700000D01*
X131000000Y-101600000D02*
X132100000Y-101600000D01*
X137000000Y-96700000D02*
X137000000Y-96400000D01*
X137000000Y-96400000D02*
X137000000Y-96400000D01*
D35*
X146460000Y-48066000D02*
X146352000Y-47958000D01*
X146460000Y-51900000D02*
X146460000Y-48066000D01*
D36*
X131799999Y-98260001D02*
X133939999Y-98260001D01*
X131000000Y-99060000D02*
X131799999Y-98260001D01*
X133939999Y-98260001D02*
X135600000Y-96600000D01*
X135600000Y-96600000D02*
X135600000Y-96400000D01*
X135600000Y-96400000D02*
X135600000Y-96400000D01*
X115760000Y-73660000D02*
X114200000Y-75220000D01*
X114200000Y-75220000D02*
X114200000Y-80000000D01*
X114200000Y-80000000D02*
X114200000Y-80000000D01*
D35*
X136600000Y-115800000D02*
X132200000Y-111400000D01*
X136600000Y-117000000D02*
X136600000Y-115800000D01*
X132150000Y-126225000D02*
X136600000Y-121775000D01*
X132150000Y-127430000D02*
X132150000Y-126225000D01*
X128000000Y-48048000D02*
X128090000Y-47958000D01*
X128000000Y-52200000D02*
X128000000Y-48048000D01*
X141380000Y-47986000D02*
X141352000Y-47958000D01*
X141380000Y-51900000D02*
X141380000Y-47986000D01*
D37*
X141160000Y-87940000D02*
X140300000Y-88800000D01*
X143000000Y-87940000D02*
X141160000Y-87940000D01*
X122800000Y-123360000D02*
X122800000Y-120815000D01*
X122800000Y-120815000D02*
X122800000Y-120815000D01*
X142732000Y-120668000D02*
X142732000Y-120668000D01*
X142732000Y-123264000D02*
X142732000Y-120600000D01*
D38*
X100600000Y-85200000D02*
X99800000Y-84400000D01*
X102800000Y-85200000D02*
X100600000Y-85200000D01*
X100240000Y-78200000D02*
X99800000Y-78640000D01*
X102800000Y-78200000D02*
X100240000Y-78200000D01*
D39*
X110350000Y-95137500D02*
X110350000Y-94600000D01*
X110350000Y-99740000D02*
X110350000Y-95137500D01*
X109740000Y-100350000D02*
X110350000Y-99740000D01*
X109740000Y-101600000D02*
X109740000Y-100350000D01*
D37*
X142265000Y-95975000D02*
X143000000Y-95240000D01*
X140400000Y-95975000D02*
X142265000Y-95975000D01*
D40*
X142052500Y-81287500D02*
X143000000Y-80340000D01*
X140400000Y-81287500D02*
X142052500Y-81287500D01*
X114200001Y-103400001D02*
X114600000Y-103800000D01*
X114200001Y-100619999D02*
X114200001Y-103400001D01*
X115760000Y-99060000D02*
X114200001Y-100619999D01*
X145000000Y-70600000D02*
X145000000Y-73260000D01*
D37*
X142163000Y-74577000D02*
X143000000Y-73740000D01*
X140400000Y-74577000D02*
X142163000Y-74577000D01*
X144930000Y-73260000D02*
X145000000Y-73260000D01*
X144450000Y-73740000D02*
X144930000Y-73260000D01*
X143000000Y-73740000D02*
X144450000Y-73740000D01*
D40*
X140400000Y-94400000D02*
X140400000Y-93200000D01*
D36*
X132760000Y-93200000D02*
X131000000Y-91440000D01*
X140400000Y-93200000D02*
X132760000Y-93200000D01*
D37*
X120260000Y-123360000D02*
X120260000Y-120815000D01*
X120260000Y-120815000D02*
X120260000Y-120815000D01*
D36*
X118000000Y-78800000D02*
X118000000Y-79800000D01*
X115820000Y-78800000D02*
X115760000Y-78740000D01*
X118000000Y-78800000D02*
X115820000Y-78800000D01*
D37*
X140300000Y-86075000D02*
X140300000Y-87225000D01*
D36*
X132675000Y-87225000D02*
X131000000Y-88900000D01*
X140300000Y-87225000D02*
X132675000Y-87225000D01*
D37*
X140192000Y-120808000D02*
X140192000Y-120808000D01*
X140192000Y-123264000D02*
X140192000Y-120600000D01*
D36*
X115880000Y-81400000D02*
X115760000Y-81280000D01*
X118000000Y-81400000D02*
X115880000Y-81400000D01*
X118000000Y-82800000D02*
X118000000Y-81400000D01*
X130755001Y-105044999D02*
X126644999Y-105044999D01*
X126644999Y-105044999D02*
X126644999Y-105044999D01*
D37*
X140400000Y-78687500D02*
X140400000Y-79712500D01*
D36*
X137647500Y-79712500D02*
X140400000Y-79712500D01*
X131000000Y-86360000D02*
X137647500Y-79712500D01*
D35*
X133080000Y-47968000D02*
X133090000Y-47958000D01*
X133080000Y-52200000D02*
X133080000Y-47968000D01*
D36*
X116891370Y-83820000D02*
X117071370Y-84000000D01*
X115760000Y-83820000D02*
X116891370Y-83820000D01*
X117071370Y-84000000D02*
X118200000Y-84000000D01*
X118200000Y-84000000D02*
X118200000Y-84000000D01*
X131930001Y-67429999D02*
X126970001Y-67429999D01*
X133080000Y-66280000D02*
X131930001Y-67429999D01*
X126970001Y-67429999D02*
X125300000Y-69100000D01*
X125300000Y-69100000D02*
X125200000Y-69200000D01*
D37*
X141462000Y-120719000D02*
X141462000Y-120719000D01*
X141462000Y-123264000D02*
X141462000Y-120600000D01*
D35*
X130540000Y-48008000D02*
X130590000Y-47958000D01*
X130540000Y-52200000D02*
X130540000Y-48008000D01*
D39*
X116891370Y-86360000D02*
X116931370Y-86400000D01*
X115760000Y-86360000D02*
X116891370Y-86360000D01*
X116931370Y-86400000D02*
X118200000Y-86400000D01*
X118200000Y-86400000D02*
X118200000Y-86400000D01*
D36*
X124700000Y-67100000D02*
X124249999Y-66649999D01*
X124249999Y-66649999D02*
X123600000Y-66000000D01*
X123600000Y-64689998D02*
X128289998Y-60000000D01*
X123600000Y-66000000D02*
X123600000Y-64689998D01*
X128289998Y-60000000D02*
X129000000Y-60000000D01*
X129000000Y-60000000D02*
X129000000Y-60000000D01*
X113300000Y-85200000D02*
X117000000Y-85200000D01*
X112500000Y-84400000D02*
X113300000Y-85200000D01*
X126495685Y-79104315D02*
X121600000Y-84000000D01*
X129504315Y-79104315D02*
X126495685Y-79104315D01*
X117000000Y-85200000D02*
X118200000Y-85200000D01*
X121600000Y-84000000D02*
X121600000Y-85200000D01*
D40*
X108975000Y-93000000D02*
X108950000Y-93025000D01*
X110350000Y-93000000D02*
X108975000Y-93000000D01*
D36*
X110925000Y-93025000D02*
X110350000Y-93025000D01*
X111070001Y-93170001D02*
X110925000Y-93025000D01*
X114029999Y-93170001D02*
X111070001Y-93170001D01*
X115760000Y-91440000D02*
X114029999Y-93170001D01*
X113160000Y-87600000D02*
X112500000Y-86940000D01*
X118200000Y-87600000D02*
X113160000Y-87600000D01*
X128800000Y-78400000D02*
X129600000Y-77600000D01*
X127400000Y-78400000D02*
X128800000Y-78400000D01*
X129600000Y-77600000D02*
X131000000Y-76200000D01*
D37*
X121530000Y-123360000D02*
X121530000Y-120815000D01*
X121530000Y-120815000D02*
X121530000Y-120815000D01*
X124070000Y-123360000D02*
X124070000Y-120815000D01*
X124070000Y-120815000D02*
X124070000Y-120815000D01*
D36*
X129360000Y-64400000D02*
X125000000Y-64400000D01*
X131000000Y-66040000D02*
X129360000Y-64400000D01*
X138400000Y-71800000D02*
X136400000Y-69800000D01*
D37*
X140400000Y-73002000D02*
X140400000Y-71975000D01*
X138575000Y-71975000D02*
X136400000Y-69800000D01*
X140400000Y-71975000D02*
X138575000Y-71975000D01*
D40*
X125340000Y-123360000D02*
X125340000Y-119735000D01*
X145272000Y-123264000D02*
X145272000Y-120419000D01*
X145250000Y-120397000D02*
X145250000Y-118950000D01*
X150600000Y-99600000D02*
X149800000Y-99600000D01*
X136600000Y-118575000D02*
X136600000Y-120000000D01*
X112500000Y-89480000D02*
X112500000Y-92020000D01*
D41*
X95340000Y-97100000D02*
X91600000Y-100840000D01*
X99800000Y-97100000D02*
X95340000Y-97100000D01*
X92800000Y-94560000D02*
X91600000Y-95760000D01*
X99800000Y-94560000D02*
X92800000Y-94560000D01*
X92940000Y-92020000D02*
X91600000Y-90680000D01*
X99800000Y-92020000D02*
X92940000Y-92020000D01*
X95480000Y-89480000D02*
X91600000Y-85600000D01*
X99800000Y-89480000D02*
X95480000Y-89480000D01*
X95280000Y-68480000D02*
X91600000Y-64800000D01*
X99800000Y-68480000D02*
X95280000Y-68480000D01*
X92740000Y-71020000D02*
X91600000Y-69880000D01*
X99800000Y-71020000D02*
X92740000Y-71020000D01*
X93000000Y-73560000D02*
X91600000Y-74960000D01*
X99800000Y-73560000D02*
X93000000Y-73560000D01*
D40*
X112500000Y-68480000D02*
X112500000Y-71020000D01*
D41*
X95540000Y-76100000D02*
X91600000Y-80040000D01*
X99800000Y-76100000D02*
X95540000Y-76100000D01*
D37*
X145450000Y-95340000D02*
X144400000Y-94290000D01*
X147000000Y-95340000D02*
X145450000Y-95340000D01*
X144400000Y-94290000D02*
X144400000Y-93624707D01*
X143475293Y-92700000D02*
X143000000Y-92700000D01*
X144400000Y-93624707D02*
X143475293Y-92700000D01*
X144460000Y-77800000D02*
X147000000Y-80340000D01*
X143000000Y-77800000D02*
X144460000Y-77800000D01*
X147000000Y-85400000D02*
X143000000Y-85400000D01*
X143030000Y-71000000D02*
X143000000Y-70970000D01*
D40*
X145497060Y-69399990D02*
X143800010Y-69399990D01*
X147000000Y-71000000D02*
X147000000Y-70902930D01*
X147000000Y-70902930D02*
X145497060Y-69399990D01*
X143800010Y-69399990D02*
X143200000Y-70000000D01*
X143200000Y-70000000D02*
X143200000Y-70770000D01*
X102650000Y-109550000D02*
X106000000Y-106200000D01*
X102650000Y-111750000D02*
X102650000Y-109550000D01*
X106000000Y-102800000D02*
X107200000Y-101600000D01*
X106000000Y-106200000D02*
X106000000Y-102800000D01*
X90900000Y-104300000D02*
X92800000Y-106200000D01*
X87612575Y-104300000D02*
X90900000Y-104300000D01*
X86444990Y-105467585D02*
X87612575Y-104300000D01*
X86400000Y-106200000D02*
X86444990Y-106155010D01*
X86444990Y-106155010D02*
X86444990Y-105467585D01*
D41*
X102650000Y-133250000D02*
X102800000Y-133400000D01*
X102650000Y-123950000D02*
X102650000Y-133250000D01*
X86750000Y-132430000D02*
X87720000Y-133400000D01*
X86750000Y-123950000D02*
X86750000Y-132430000D01*
D37*
X142004998Y-93970000D02*
X143000000Y-93970000D01*
X141699999Y-93665001D02*
X142004998Y-93970000D01*
X141699999Y-92924999D02*
X141699999Y-93665001D01*
X140400000Y-91625000D02*
X141699999Y-92924999D01*
X140861612Y-77574112D02*
X140400000Y-77112500D01*
X141425010Y-78137510D02*
X140861612Y-77574112D01*
X141425010Y-78625010D02*
X141425010Y-78137510D01*
X141870000Y-79070000D02*
X141425010Y-78625010D01*
X143000000Y-79070000D02*
X141870000Y-79070000D01*
X140761612Y-84961612D02*
X140300000Y-84500000D01*
X141325010Y-85525010D02*
X140761612Y-84961612D01*
X141325010Y-86445010D02*
X141325010Y-85525010D01*
X141550000Y-86670000D02*
X141325010Y-86445010D01*
X143000000Y-86670000D02*
X141550000Y-86670000D01*
X140861612Y-70861612D02*
X140400000Y-70400000D01*
X141425010Y-71425010D02*
X140861612Y-70861612D01*
X141425010Y-72345010D02*
X141425010Y-71425010D01*
X141550000Y-72470000D02*
X141425010Y-72345010D01*
X143000000Y-72470000D02*
X141550000Y-72470000D01*
X144002000Y-120719000D02*
X144000000Y-120717000D01*
X144000000Y-120717000D02*
X144000000Y-120717000D01*
X144002000Y-120602000D02*
X144000000Y-120600000D01*
X144002000Y-123264000D02*
X144002000Y-120602000D01*
D42*
G36*
X122373000Y-48723000D02*
G01*
X117187431Y-48723000D01*
X117162655Y-48725440D01*
X117138830Y-48732667D01*
X117116874Y-48744403D01*
X117097628Y-48760197D01*
X117081834Y-48779443D01*
X117070098Y-48801399D01*
X117062871Y-48825224D01*
X117060431Y-48850351D01*
X117072648Y-53273000D01*
X106126650Y-53273000D01*
X106107188Y-46227581D01*
X106117333Y-46208601D01*
X106124560Y-46184776D01*
X106127000Y-46160000D01*
X106127000Y-44727000D01*
X122373000Y-44727000D01*
X122373000Y-48723000D01*
X122373000Y-48723000D01*
G37*
X122373000Y-48723000D02*
X117187431Y-48723000D01*
X117162655Y-48725440D01*
X117138830Y-48732667D01*
X117116874Y-48744403D01*
X117097628Y-48760197D01*
X117081834Y-48779443D01*
X117070098Y-48801399D01*
X117062871Y-48825224D01*
X117060431Y-48850351D01*
X117072648Y-53273000D01*
X106126650Y-53273000D01*
X106107188Y-46227581D01*
X106117333Y-46208601D01*
X106124560Y-46184776D01*
X106127000Y-46160000D01*
X106127000Y-44727000D01*
X122373000Y-44727000D01*
X122373000Y-48723000D01*
G36*
X104873000Y-49273000D02*
G01*
X99600000Y-49273000D01*
X99575224Y-49275440D01*
X99551399Y-49282667D01*
X99529443Y-49294403D01*
X99510197Y-49310197D01*
X99494403Y-49329443D01*
X99482667Y-49351399D01*
X99475440Y-49375224D01*
X99473000Y-49400000D01*
X99473000Y-54473000D01*
X93119703Y-54473000D01*
X93134298Y-45327000D01*
X104873000Y-45327000D01*
X104873000Y-49273000D01*
X104873000Y-49273000D01*
G37*
X104873000Y-49273000D02*
X99600000Y-49273000D01*
X99575224Y-49275440D01*
X99551399Y-49282667D01*
X99529443Y-49294403D01*
X99510197Y-49310197D01*
X99494403Y-49329443D01*
X99482667Y-49351399D01*
X99475440Y-49375224D01*
X99473000Y-49400000D01*
X99473000Y-54473000D01*
X93119703Y-54473000D01*
X93134298Y-45327000D01*
X104873000Y-45327000D01*
X104873000Y-49273000D01*
G36*
X91673612Y-58873000D02*
G01*
X88124540Y-58873000D01*
X88128210Y-47327000D01*
X91672388Y-47327000D01*
X91673612Y-58873000D01*
X91673612Y-58873000D01*
G37*
X91673612Y-58873000D02*
X88124540Y-58873000D01*
X88128210Y-47327000D01*
X91672388Y-47327000D01*
X91673612Y-58873000D01*
G36*
X136673000Y-54200000D02*
G01*
X136675440Y-54224776D01*
X136682667Y-54248601D01*
X136694403Y-54270557D01*
X136706381Y-54285817D01*
X138906381Y-56685817D01*
X138924922Y-56702432D01*
X138946348Y-56715111D01*
X138969836Y-56723366D01*
X139000000Y-56727000D01*
X145800000Y-56727000D01*
X145824776Y-56724560D01*
X145848601Y-56717333D01*
X145870557Y-56705597D01*
X145889803Y-56689803D01*
X148089803Y-54489803D01*
X148105597Y-54470557D01*
X148117333Y-54448601D01*
X148124560Y-54424776D01*
X148127000Y-54400000D01*
X148127000Y-46927000D01*
X149873000Y-46927000D01*
X149873000Y-55747394D01*
X146547394Y-59073000D01*
X129466609Y-59073000D01*
X129301898Y-59004774D01*
X129101939Y-58965000D01*
X128898061Y-58965000D01*
X128698102Y-59004774D01*
X128533391Y-59073000D01*
X124600000Y-59073000D01*
X124575224Y-59075440D01*
X124551399Y-59082667D01*
X124529443Y-59094403D01*
X124510197Y-59110197D01*
X120910197Y-62710197D01*
X120894403Y-62729443D01*
X120882667Y-62751399D01*
X120875440Y-62775224D01*
X120873000Y-62800000D01*
X120873000Y-83694859D01*
X120871246Y-83698141D01*
X120826359Y-83846114D01*
X120815000Y-83961440D01*
X120815000Y-83961447D01*
X120811203Y-84000000D01*
X120815000Y-84038553D01*
X120815000Y-84521289D01*
X120796063Y-84540226D01*
X120682795Y-84709744D01*
X120604774Y-84898102D01*
X120565000Y-85098061D01*
X120565000Y-85301939D01*
X120604774Y-85501898D01*
X120682795Y-85690256D01*
X120796063Y-85859774D01*
X120873000Y-85936711D01*
X120873000Y-93502998D01*
X116582992Y-94673000D01*
X114927000Y-94673000D01*
X114927000Y-93383157D01*
X115070158Y-93239999D01*
X118841955Y-91919870D01*
X118864534Y-91909382D01*
X118884633Y-91894690D01*
X118901480Y-91876360D01*
X118914427Y-91855095D01*
X118922977Y-91831712D01*
X118927000Y-91800000D01*
X118927000Y-88336711D01*
X119003937Y-88259774D01*
X119117205Y-88090256D01*
X119195226Y-87901898D01*
X119235000Y-87701939D01*
X119235000Y-87498061D01*
X119195226Y-87298102D01*
X119117205Y-87109744D01*
X119043877Y-87000000D01*
X119117205Y-86890256D01*
X119195226Y-86701898D01*
X119235000Y-86501939D01*
X119235000Y-86298061D01*
X119195226Y-86098102D01*
X119117205Y-85909744D01*
X119043877Y-85800000D01*
X119117205Y-85690256D01*
X119195226Y-85501898D01*
X119235000Y-85301939D01*
X119235000Y-85098061D01*
X119195226Y-84898102D01*
X119117205Y-84709744D01*
X119043877Y-84600000D01*
X119117205Y-84490256D01*
X119195226Y-84301898D01*
X119235000Y-84101939D01*
X119235000Y-83898061D01*
X119195226Y-83698102D01*
X119117205Y-83509744D01*
X119003937Y-83340226D01*
X118927972Y-83264261D01*
X118995226Y-83101898D01*
X119035000Y-82901939D01*
X119035000Y-82698061D01*
X118995226Y-82498102D01*
X118927000Y-82333391D01*
X118927000Y-82137357D01*
X118931171Y-82132275D01*
X119010350Y-81984142D01*
X119059108Y-81823408D01*
X119075572Y-81656250D01*
X119075572Y-81143750D01*
X119059108Y-80976592D01*
X119010350Y-80815858D01*
X118931171Y-80667725D01*
X118927000Y-80662643D01*
X118927000Y-80266609D01*
X118995226Y-80101898D01*
X119035000Y-79901939D01*
X119035000Y-79698061D01*
X118995226Y-79498102D01*
X118975234Y-79449838D01*
X119010350Y-79384142D01*
X119059108Y-79223408D01*
X119075572Y-79056250D01*
X119075572Y-78543750D01*
X119059108Y-78376592D01*
X119010350Y-78215858D01*
X118931171Y-78067725D01*
X118927000Y-78062643D01*
X118927000Y-62800000D01*
X118924560Y-62775224D01*
X118917333Y-62751399D01*
X118905597Y-62729443D01*
X118897564Y-62718697D01*
X115897564Y-59118697D01*
X115879828Y-59101225D01*
X115859024Y-59087549D01*
X115835952Y-59078195D01*
X115800000Y-59073000D01*
X113127000Y-59073000D01*
X113127000Y-56869716D01*
X119668183Y-52707145D01*
X119687776Y-52691784D01*
X119703996Y-52672897D01*
X119716219Y-52651207D01*
X119723976Y-52627550D01*
X119727000Y-52600000D01*
X119727000Y-50727000D01*
X122521510Y-50727000D01*
X125486408Y-56656796D01*
X125499671Y-56677866D01*
X125516789Y-56695943D01*
X125537106Y-56710333D01*
X125559839Y-56720483D01*
X125584116Y-56726003D01*
X125600000Y-56727000D01*
X132000000Y-56727000D01*
X132024776Y-56724560D01*
X132048601Y-56717333D01*
X132070557Y-56705597D01*
X132089803Y-56689803D01*
X134489803Y-54289803D01*
X134505597Y-54270557D01*
X134517333Y-54248601D01*
X134524560Y-54224776D01*
X134527000Y-54200000D01*
X134527000Y-52545547D01*
X134543513Y-52491111D01*
X134572185Y-52200000D01*
X134543513Y-51908889D01*
X134527000Y-51854453D01*
X134527000Y-48461511D01*
X134553513Y-48374110D01*
X134575000Y-48155949D01*
X134575000Y-47760050D01*
X134553513Y-47541889D01*
X134527000Y-47454488D01*
X134527000Y-46927000D01*
X136673000Y-46927000D01*
X136673000Y-54200000D01*
X136673000Y-54200000D01*
G37*
X136673000Y-54200000D02*
X136675440Y-54224776D01*
X136682667Y-54248601D01*
X136694403Y-54270557D01*
X136706381Y-54285817D01*
X138906381Y-56685817D01*
X138924922Y-56702432D01*
X138946348Y-56715111D01*
X138969836Y-56723366D01*
X139000000Y-56727000D01*
X145800000Y-56727000D01*
X145824776Y-56724560D01*
X145848601Y-56717333D01*
X145870557Y-56705597D01*
X145889803Y-56689803D01*
X148089803Y-54489803D01*
X148105597Y-54470557D01*
X148117333Y-54448601D01*
X148124560Y-54424776D01*
X148127000Y-54400000D01*
X148127000Y-46927000D01*
X149873000Y-46927000D01*
X149873000Y-55747394D01*
X146547394Y-59073000D01*
X129466609Y-59073000D01*
X129301898Y-59004774D01*
X129101939Y-58965000D01*
X128898061Y-58965000D01*
X128698102Y-59004774D01*
X128533391Y-59073000D01*
X124600000Y-59073000D01*
X124575224Y-59075440D01*
X124551399Y-59082667D01*
X124529443Y-59094403D01*
X124510197Y-59110197D01*
X120910197Y-62710197D01*
X120894403Y-62729443D01*
X120882667Y-62751399D01*
X120875440Y-62775224D01*
X120873000Y-62800000D01*
X120873000Y-83694859D01*
X120871246Y-83698141D01*
X120826359Y-83846114D01*
X120815000Y-83961440D01*
X120815000Y-83961447D01*
X120811203Y-84000000D01*
X120815000Y-84038553D01*
X120815000Y-84521289D01*
X120796063Y-84540226D01*
X120682795Y-84709744D01*
X120604774Y-84898102D01*
X120565000Y-85098061D01*
X120565000Y-85301939D01*
X120604774Y-85501898D01*
X120682795Y-85690256D01*
X120796063Y-85859774D01*
X120873000Y-85936711D01*
X120873000Y-93502998D01*
X116582992Y-94673000D01*
X114927000Y-94673000D01*
X114927000Y-93383157D01*
X115070158Y-93239999D01*
X118841955Y-91919870D01*
X118864534Y-91909382D01*
X118884633Y-91894690D01*
X118901480Y-91876360D01*
X118914427Y-91855095D01*
X118922977Y-91831712D01*
X118927000Y-91800000D01*
X118927000Y-88336711D01*
X119003937Y-88259774D01*
X119117205Y-88090256D01*
X119195226Y-87901898D01*
X119235000Y-87701939D01*
X119235000Y-87498061D01*
X119195226Y-87298102D01*
X119117205Y-87109744D01*
X119043877Y-87000000D01*
X119117205Y-86890256D01*
X119195226Y-86701898D01*
X119235000Y-86501939D01*
X119235000Y-86298061D01*
X119195226Y-86098102D01*
X119117205Y-85909744D01*
X119043877Y-85800000D01*
X119117205Y-85690256D01*
X119195226Y-85501898D01*
X119235000Y-85301939D01*
X119235000Y-85098061D01*
X119195226Y-84898102D01*
X119117205Y-84709744D01*
X119043877Y-84600000D01*
X119117205Y-84490256D01*
X119195226Y-84301898D01*
X119235000Y-84101939D01*
X119235000Y-83898061D01*
X119195226Y-83698102D01*
X119117205Y-83509744D01*
X119003937Y-83340226D01*
X118927972Y-83264261D01*
X118995226Y-83101898D01*
X119035000Y-82901939D01*
X119035000Y-82698061D01*
X118995226Y-82498102D01*
X118927000Y-82333391D01*
X118927000Y-82137357D01*
X118931171Y-82132275D01*
X119010350Y-81984142D01*
X119059108Y-81823408D01*
X119075572Y-81656250D01*
X119075572Y-81143750D01*
X119059108Y-80976592D01*
X119010350Y-80815858D01*
X118931171Y-80667725D01*
X118927000Y-80662643D01*
X118927000Y-80266609D01*
X118995226Y-80101898D01*
X119035000Y-79901939D01*
X119035000Y-79698061D01*
X118995226Y-79498102D01*
X118975234Y-79449838D01*
X119010350Y-79384142D01*
X119059108Y-79223408D01*
X119075572Y-79056250D01*
X119075572Y-78543750D01*
X119059108Y-78376592D01*
X119010350Y-78215858D01*
X118931171Y-78067725D01*
X118927000Y-78062643D01*
X118927000Y-62800000D01*
X118924560Y-62775224D01*
X118917333Y-62751399D01*
X118905597Y-62729443D01*
X118897564Y-62718697D01*
X115897564Y-59118697D01*
X115879828Y-59101225D01*
X115859024Y-59087549D01*
X115835952Y-59078195D01*
X115800000Y-59073000D01*
X113127000Y-59073000D01*
X113127000Y-56869716D01*
X119668183Y-52707145D01*
X119687776Y-52691784D01*
X119703996Y-52672897D01*
X119716219Y-52651207D01*
X119723976Y-52627550D01*
X119727000Y-52600000D01*
X119727000Y-50727000D01*
X122521510Y-50727000D01*
X125486408Y-56656796D01*
X125499671Y-56677866D01*
X125516789Y-56695943D01*
X125537106Y-56710333D01*
X125559839Y-56720483D01*
X125584116Y-56726003D01*
X125600000Y-56727000D01*
X132000000Y-56727000D01*
X132024776Y-56724560D01*
X132048601Y-56717333D01*
X132070557Y-56705597D01*
X132089803Y-56689803D01*
X134489803Y-54289803D01*
X134505597Y-54270557D01*
X134517333Y-54248601D01*
X134524560Y-54224776D01*
X134527000Y-54200000D01*
X134527000Y-52545547D01*
X134543513Y-52491111D01*
X134572185Y-52200000D01*
X134543513Y-51908889D01*
X134527000Y-51854453D01*
X134527000Y-48461511D01*
X134553513Y-48374110D01*
X134575000Y-48155949D01*
X134575000Y-47760050D01*
X134553513Y-47541889D01*
X134527000Y-47454488D01*
X134527000Y-46927000D01*
X136673000Y-46927000D01*
X136673000Y-54200000D01*
G36*
X119226928Y-125205000D02*
G01*
X119239188Y-125329482D01*
X119275498Y-125449180D01*
X119334463Y-125559494D01*
X119413815Y-125656185D01*
X119470761Y-125702919D01*
X119473033Y-125802886D01*
X119476035Y-125827600D01*
X119483802Y-125851254D01*
X119490459Y-125864264D01*
X121672616Y-129583850D01*
X121649403Y-131673000D01*
X117363315Y-131673000D01*
X117289809Y-123832444D01*
X118574614Y-121527000D01*
X119226928Y-121527000D01*
X119226928Y-125205000D01*
X119226928Y-125205000D01*
G37*
X119226928Y-125205000D02*
X119239188Y-125329482D01*
X119275498Y-125449180D01*
X119334463Y-125559494D01*
X119413815Y-125656185D01*
X119470761Y-125702919D01*
X119473033Y-125802886D01*
X119476035Y-125827600D01*
X119483802Y-125851254D01*
X119490459Y-125864264D01*
X121672616Y-129583850D01*
X121649403Y-131673000D01*
X117363315Y-131673000D01*
X117289809Y-123832444D01*
X118574614Y-121527000D01*
X119226928Y-121527000D01*
X119226928Y-125205000D01*
G36*
X133073000Y-131473000D02*
G01*
X131127000Y-131473000D01*
X131127000Y-125727000D01*
X133073000Y-125727000D01*
X133073000Y-131473000D01*
X133073000Y-131473000D01*
G37*
X133073000Y-131473000D02*
X131127000Y-131473000D01*
X131127000Y-125727000D01*
X133073000Y-125727000D01*
X133073000Y-131473000D01*
G36*
X133273000Y-113325829D02*
G01*
X131277000Y-113325829D01*
X131277000Y-107727000D01*
X133273000Y-107727000D01*
X133273000Y-113325829D01*
X133273000Y-113325829D01*
G37*
X133273000Y-113325829D02*
X131277000Y-113325829D01*
X131277000Y-107727000D01*
X133273000Y-107727000D01*
X133273000Y-113325829D01*
G36*
X148473000Y-124231810D02*
G01*
X148473000Y-131673000D01*
X143903827Y-131673000D01*
X143926504Y-130085641D01*
X146309257Y-126064745D01*
X146319789Y-126042186D01*
X146325717Y-126018006D01*
X146327000Y-126000000D01*
X146327000Y-123696082D01*
X146390577Y-123486499D01*
X146407000Y-123319752D01*
X146407000Y-121427000D01*
X146973878Y-121427000D01*
X148473000Y-124231810D01*
X148473000Y-124231810D01*
G37*
X148473000Y-124231810D02*
X148473000Y-131673000D01*
X143903827Y-131673000D01*
X143926504Y-130085641D01*
X146309257Y-126064745D01*
X146319789Y-126042186D01*
X146325717Y-126018006D01*
X146327000Y-126000000D01*
X146327000Y-123696082D01*
X146390577Y-123486499D01*
X146407000Y-123319752D01*
X146407000Y-121427000D01*
X146973878Y-121427000D01*
X148473000Y-124231810D01*
G36*
X139158928Y-125109000D02*
G01*
X139171188Y-125233482D01*
X139173000Y-125239455D01*
X139173000Y-126000000D01*
X139175440Y-126024776D01*
X139182667Y-126048601D01*
X139192304Y-126067310D01*
X141673000Y-130036424D01*
X141673000Y-131873000D01*
X137127000Y-131873000D01*
X137127000Y-123341736D01*
X137505140Y-122828546D01*
X137627452Y-122706234D01*
X137757156Y-122548189D01*
X137877190Y-122323621D01*
X138464174Y-121527000D01*
X139158928Y-121527000D01*
X139158928Y-125109000D01*
X139158928Y-125109000D01*
G37*
X139158928Y-125109000D02*
X139171188Y-125233482D01*
X139173000Y-125239455D01*
X139173000Y-126000000D01*
X139175440Y-126024776D01*
X139182667Y-126048601D01*
X139192304Y-126067310D01*
X141673000Y-130036424D01*
X141673000Y-131873000D01*
X137127000Y-131873000D01*
X137127000Y-123341736D01*
X137505140Y-122828546D01*
X137627452Y-122706234D01*
X137757156Y-122548189D01*
X137877190Y-122323621D01*
X138464174Y-121527000D01*
X139158928Y-121527000D01*
X139158928Y-125109000D01*
G36*
X102873000Y-58873000D02*
G01*
X91823093Y-58873000D01*
X91731031Y-55927000D01*
X102873000Y-55927000D01*
X102873000Y-58873000D01*
X102873000Y-58873000D01*
G37*
X102873000Y-58873000D02*
X91823093Y-58873000D01*
X91731031Y-55927000D01*
X102873000Y-55927000D01*
X102873000Y-58873000D01*
G36*
X102873000Y-58873000D02*
G01*
X100527000Y-58873000D01*
X100527000Y-50327000D01*
X102873000Y-50327000D01*
X102873000Y-58873000D01*
X102873000Y-58873000D01*
G37*
X102873000Y-58873000D02*
X100527000Y-58873000D01*
X100527000Y-50327000D01*
X102873000Y-50327000D01*
X102873000Y-58873000D01*
G36*
X128473000Y-123829422D02*
G01*
X128473000Y-131673000D01*
X124127000Y-131673000D01*
X124127000Y-129239444D01*
X126304653Y-126071949D01*
X126316679Y-126050150D01*
X126324221Y-126026423D01*
X126326998Y-125999310D01*
X126324013Y-125450095D01*
X126324502Y-125449180D01*
X126360812Y-125329482D01*
X126373072Y-125205000D01*
X126373072Y-123834995D01*
X126393676Y-123796447D01*
X126458577Y-123582499D01*
X126475000Y-123415752D01*
X126475000Y-121527000D01*
X127345773Y-121527000D01*
X128473000Y-123829422D01*
X128473000Y-123829422D01*
G37*
X128473000Y-123829422D02*
X128473000Y-131673000D01*
X124127000Y-131673000D01*
X124127000Y-129239444D01*
X126304653Y-126071949D01*
X126316679Y-126050150D01*
X126324221Y-126026423D01*
X126326998Y-125999310D01*
X126324013Y-125450095D01*
X126324502Y-125449180D01*
X126360812Y-125329482D01*
X126373072Y-125205000D01*
X126373072Y-123834995D01*
X126393676Y-123796447D01*
X126458577Y-123582499D01*
X126475000Y-123415752D01*
X126475000Y-121527000D01*
X127345773Y-121527000D01*
X128473000Y-123829422D01*
G36*
X105273000Y-53800000D02*
G01*
X105275440Y-53824776D01*
X105282667Y-53848601D01*
X105294403Y-53870557D01*
X105310197Y-53889803D01*
X105329443Y-53905597D01*
X105341408Y-53912677D01*
X110273000Y-56477105D01*
X110273000Y-86376778D01*
X108053722Y-92242014D01*
X107981329Y-92330225D01*
X107902150Y-92478358D01*
X107853392Y-92639092D01*
X107840121Y-92773827D01*
X107831423Y-92802502D01*
X107827826Y-92839023D01*
X107481219Y-93755056D01*
X107474733Y-93779092D01*
X107473061Y-93803933D01*
X107476267Y-93828622D01*
X107484228Y-93852211D01*
X107496639Y-93873793D01*
X107513021Y-93892540D01*
X107532746Y-93907731D01*
X107555056Y-93918781D01*
X107572450Y-93923976D01*
X109245351Y-94295732D01*
X109236928Y-94381250D01*
X109236928Y-94818750D01*
X109253392Y-94985908D01*
X109273000Y-95050547D01*
X109273000Y-95073000D01*
X107200000Y-95073000D01*
X107175224Y-95075440D01*
X107151399Y-95082667D01*
X107129443Y-95094403D01*
X107110197Y-95110197D01*
X107094403Y-95129443D01*
X107081282Y-95154887D01*
X103281282Y-105154887D01*
X103274763Y-105178915D01*
X103273000Y-105200000D01*
X103273000Y-107112777D01*
X100754410Y-108081465D01*
X100732161Y-108092637D01*
X100712519Y-108107935D01*
X100696239Y-108126770D01*
X100683946Y-108148420D01*
X100676113Y-108172053D01*
X100673000Y-108200000D01*
X100673000Y-113150000D01*
X100675440Y-113174776D01*
X100682667Y-113198601D01*
X100694403Y-113220557D01*
X100711929Y-113241502D01*
X104711929Y-117091502D01*
X104731473Y-117106925D01*
X104753650Y-117118240D01*
X104777608Y-117125010D01*
X104800000Y-117127000D01*
X108750000Y-117127000D01*
X108774776Y-117124560D01*
X108798601Y-117117333D01*
X108820557Y-117105597D01*
X108839803Y-117089803D01*
X108849390Y-117079060D01*
X114061256Y-110527000D01*
X115873000Y-110527000D01*
X115873000Y-113600000D01*
X115875440Y-113624776D01*
X115880646Y-113643401D01*
X117480646Y-118043401D01*
X117491407Y-118065852D01*
X117506340Y-118085772D01*
X117524873Y-118102396D01*
X117546294Y-118115085D01*
X117569778Y-118123352D01*
X117600000Y-118127000D01*
X128600000Y-118127000D01*
X128624776Y-118124560D01*
X128648601Y-118117333D01*
X128670557Y-118105597D01*
X128696426Y-118082651D01*
X131058413Y-115327000D01*
X133243887Y-115327000D01*
X135401894Y-117696576D01*
X135442843Y-117773187D01*
X135615919Y-117984080D01*
X135826812Y-118157157D01*
X136067419Y-118285764D01*
X136328493Y-118364960D01*
X136600000Y-118391701D01*
X136871506Y-118364960D01*
X137132580Y-118285764D01*
X137373187Y-118157157D01*
X137409933Y-118127000D01*
X147350000Y-118127000D01*
X147374776Y-118124560D01*
X147398601Y-118117333D01*
X147420557Y-118105597D01*
X147438411Y-118091173D01*
X149088411Y-116491173D01*
X149104499Y-116472173D01*
X149116571Y-116450400D01*
X149124164Y-116426690D01*
X149127000Y-116400000D01*
X149127000Y-94000000D01*
X149124560Y-93975224D01*
X149117333Y-93951399D01*
X149105597Y-93929443D01*
X149089803Y-93910197D01*
X149070557Y-93894403D01*
X149048601Y-93882667D01*
X149024776Y-93875440D01*
X149000000Y-93873000D01*
X148003531Y-93873000D01*
X147974482Y-93864188D01*
X147850000Y-93851928D01*
X146150000Y-93851928D01*
X146025518Y-93864188D01*
X145996469Y-93873000D01*
X145927000Y-93873000D01*
X145927000Y-86927000D01*
X149000000Y-86927000D01*
X149024776Y-86924560D01*
X149048601Y-86917333D01*
X149070557Y-86905597D01*
X149089803Y-86889803D01*
X149105597Y-86870557D01*
X149117333Y-86848601D01*
X149124560Y-86824776D01*
X149127000Y-86800000D01*
X149127000Y-79000000D01*
X149124560Y-78975224D01*
X149117333Y-78951399D01*
X149105597Y-78929443D01*
X149089803Y-78910197D01*
X149070557Y-78894403D01*
X149048601Y-78882667D01*
X149024776Y-78875440D01*
X149000000Y-78873000D01*
X148003531Y-78873000D01*
X147974482Y-78864188D01*
X147850000Y-78851928D01*
X146904928Y-78851928D01*
X145927000Y-77874000D01*
X145927000Y-73919558D01*
X145948284Y-73893623D01*
X146053676Y-73696447D01*
X146118577Y-73482499D01*
X146135000Y-73315752D01*
X146135000Y-72527000D01*
X151340000Y-72527000D01*
X151340001Y-117258746D01*
X148352282Y-119873000D01*
X144736711Y-119873000D01*
X144659774Y-119796063D01*
X144490256Y-119682795D01*
X144301898Y-119604774D01*
X144101939Y-119565000D01*
X143898061Y-119565000D01*
X143698102Y-119604774D01*
X143509744Y-119682795D01*
X143366000Y-119778841D01*
X143222256Y-119682795D01*
X143033898Y-119604774D01*
X142833939Y-119565000D01*
X142630061Y-119565000D01*
X142430102Y-119604774D01*
X142241744Y-119682795D01*
X142097000Y-119779510D01*
X141952256Y-119682795D01*
X141763898Y-119604774D01*
X141563939Y-119565000D01*
X141360061Y-119565000D01*
X141160102Y-119604774D01*
X140971744Y-119682795D01*
X140827000Y-119779510D01*
X140682256Y-119682795D01*
X140493898Y-119604774D01*
X140293939Y-119565000D01*
X140090061Y-119565000D01*
X139890102Y-119604774D01*
X139701744Y-119682795D01*
X139532226Y-119796063D01*
X139455289Y-119873000D01*
X135900000Y-119873000D01*
X135875224Y-119875440D01*
X135851399Y-119882667D01*
X135829443Y-119894403D01*
X135810197Y-119910197D01*
X135797044Y-119925643D01*
X133993613Y-122422701D01*
X132943315Y-123473000D01*
X131067968Y-123473000D01*
X128705670Y-119929553D01*
X128689896Y-119910291D01*
X128670668Y-119894477D01*
X128648724Y-119882718D01*
X128624907Y-119875466D01*
X128600000Y-119873000D01*
X124500396Y-119873000D01*
X124371898Y-119819774D01*
X124171939Y-119780000D01*
X123968061Y-119780000D01*
X123768102Y-119819774D01*
X123639604Y-119873000D01*
X123230396Y-119873000D01*
X123101898Y-119819774D01*
X122901939Y-119780000D01*
X122698061Y-119780000D01*
X122498102Y-119819774D01*
X122369604Y-119873000D01*
X121960396Y-119873000D01*
X121831898Y-119819774D01*
X121631939Y-119780000D01*
X121428061Y-119780000D01*
X121228102Y-119819774D01*
X121099604Y-119873000D01*
X120690396Y-119873000D01*
X120561898Y-119819774D01*
X120361939Y-119780000D01*
X120158061Y-119780000D01*
X119958102Y-119819774D01*
X119829604Y-119873000D01*
X112600000Y-119873000D01*
X112575224Y-119875440D01*
X112551399Y-119882667D01*
X112529443Y-119894403D01*
X112502671Y-119918415D01*
X109652671Y-123318415D01*
X109638625Y-123338971D01*
X109628859Y-123361872D01*
X109623748Y-123386238D01*
X109623005Y-123401085D01*
X109721936Y-134975978D01*
X105727000Y-135069976D01*
X105727000Y-123400000D01*
X105724560Y-123375224D01*
X105717333Y-123351399D01*
X105705597Y-123329443D01*
X105682035Y-123303050D01*
X103082035Y-121103050D01*
X103061544Y-121088909D01*
X103038689Y-121079037D01*
X103014347Y-121073813D01*
X103000000Y-121073000D01*
X97950000Y-121073000D01*
X97925224Y-121075440D01*
X97901399Y-121082667D01*
X97879443Y-121094403D01*
X97862959Y-121107519D01*
X95312959Y-123507519D01*
X95296589Y-123526277D01*
X95284193Y-123547868D01*
X95276248Y-123571462D01*
X95273000Y-123600000D01*
X95273000Y-134673000D01*
X91327000Y-134673000D01*
X91327000Y-122253962D01*
X96888155Y-116891420D01*
X96904297Y-116872465D01*
X96916430Y-116850726D01*
X96924089Y-116827037D01*
X96927000Y-116800000D01*
X96927000Y-108200000D01*
X96924560Y-108175224D01*
X96917333Y-108151399D01*
X96905597Y-108129443D01*
X96889803Y-108110197D01*
X96873817Y-108096656D01*
X95527000Y-107134644D01*
X95527000Y-105269091D01*
X98868993Y-103106625D01*
X98888469Y-103091117D01*
X98904545Y-103072107D01*
X98916603Y-103050325D01*
X98924181Y-103026610D01*
X98927000Y-103000000D01*
X98927000Y-101676200D01*
X100108844Y-101045884D01*
X100351808Y-100972182D01*
X100601101Y-100838932D01*
X100794547Y-100680175D01*
X101859765Y-100112059D01*
X101880478Y-100098246D01*
X101898098Y-100080658D01*
X101911949Y-100059970D01*
X101920119Y-100041235D01*
X106520119Y-86641235D01*
X106525856Y-86617009D01*
X106527000Y-86600000D01*
X106527000Y-82200000D01*
X106524560Y-82175224D01*
X106517333Y-82151399D01*
X106505597Y-82129443D01*
X106489803Y-82110197D01*
X106470557Y-82094403D01*
X106448601Y-82082667D01*
X106424776Y-82075440D01*
X106400000Y-82073000D01*
X98927000Y-82073000D01*
X98927000Y-80515303D01*
X105012233Y-79926409D01*
X105036659Y-79921594D01*
X105059677Y-79912106D01*
X105080401Y-79898309D01*
X105098035Y-79880735D01*
X105116731Y-79850028D01*
X106316731Y-77050028D01*
X106324248Y-77026293D01*
X106327000Y-77000000D01*
X106327000Y-60500000D01*
X106324560Y-60475224D01*
X106317333Y-60451399D01*
X106305597Y-60429443D01*
X106289803Y-60410197D01*
X106270914Y-60394642D01*
X103727000Y-58682392D01*
X103727000Y-50327000D01*
X105273000Y-50327000D01*
X105273000Y-53800000D01*
X105273000Y-53800000D01*
G37*
X105273000Y-53800000D02*
X105275440Y-53824776D01*
X105282667Y-53848601D01*
X105294403Y-53870557D01*
X105310197Y-53889803D01*
X105329443Y-53905597D01*
X105341408Y-53912677D01*
X110273000Y-56477105D01*
X110273000Y-86376778D01*
X108053722Y-92242014D01*
X107981329Y-92330225D01*
X107902150Y-92478358D01*
X107853392Y-92639092D01*
X107840121Y-92773827D01*
X107831423Y-92802502D01*
X107827826Y-92839023D01*
X107481219Y-93755056D01*
X107474733Y-93779092D01*
X107473061Y-93803933D01*
X107476267Y-93828622D01*
X107484228Y-93852211D01*
X107496639Y-93873793D01*
X107513021Y-93892540D01*
X107532746Y-93907731D01*
X107555056Y-93918781D01*
X107572450Y-93923976D01*
X109245351Y-94295732D01*
X109236928Y-94381250D01*
X109236928Y-94818750D01*
X109253392Y-94985908D01*
X109273000Y-95050547D01*
X109273000Y-95073000D01*
X107200000Y-95073000D01*
X107175224Y-95075440D01*
X107151399Y-95082667D01*
X107129443Y-95094403D01*
X107110197Y-95110197D01*
X107094403Y-95129443D01*
X107081282Y-95154887D01*
X103281282Y-105154887D01*
X103274763Y-105178915D01*
X103273000Y-105200000D01*
X103273000Y-107112777D01*
X100754410Y-108081465D01*
X100732161Y-108092637D01*
X100712519Y-108107935D01*
X100696239Y-108126770D01*
X100683946Y-108148420D01*
X100676113Y-108172053D01*
X100673000Y-108200000D01*
X100673000Y-113150000D01*
X100675440Y-113174776D01*
X100682667Y-113198601D01*
X100694403Y-113220557D01*
X100711929Y-113241502D01*
X104711929Y-117091502D01*
X104731473Y-117106925D01*
X104753650Y-117118240D01*
X104777608Y-117125010D01*
X104800000Y-117127000D01*
X108750000Y-117127000D01*
X108774776Y-117124560D01*
X108798601Y-117117333D01*
X108820557Y-117105597D01*
X108839803Y-117089803D01*
X108849390Y-117079060D01*
X114061256Y-110527000D01*
X115873000Y-110527000D01*
X115873000Y-113600000D01*
X115875440Y-113624776D01*
X115880646Y-113643401D01*
X117480646Y-118043401D01*
X117491407Y-118065852D01*
X117506340Y-118085772D01*
X117524873Y-118102396D01*
X117546294Y-118115085D01*
X117569778Y-118123352D01*
X117600000Y-118127000D01*
X128600000Y-118127000D01*
X128624776Y-118124560D01*
X128648601Y-118117333D01*
X128670557Y-118105597D01*
X128696426Y-118082651D01*
X131058413Y-115327000D01*
X133243887Y-115327000D01*
X135401894Y-117696576D01*
X135442843Y-117773187D01*
X135615919Y-117984080D01*
X135826812Y-118157157D01*
X136067419Y-118285764D01*
X136328493Y-118364960D01*
X136600000Y-118391701D01*
X136871506Y-118364960D01*
X137132580Y-118285764D01*
X137373187Y-118157157D01*
X137409933Y-118127000D01*
X147350000Y-118127000D01*
X147374776Y-118124560D01*
X147398601Y-118117333D01*
X147420557Y-118105597D01*
X147438411Y-118091173D01*
X149088411Y-116491173D01*
X149104499Y-116472173D01*
X149116571Y-116450400D01*
X149124164Y-116426690D01*
X149127000Y-116400000D01*
X149127000Y-94000000D01*
X149124560Y-93975224D01*
X149117333Y-93951399D01*
X149105597Y-93929443D01*
X149089803Y-93910197D01*
X149070557Y-93894403D01*
X149048601Y-93882667D01*
X149024776Y-93875440D01*
X149000000Y-93873000D01*
X148003531Y-93873000D01*
X147974482Y-93864188D01*
X147850000Y-93851928D01*
X146150000Y-93851928D01*
X146025518Y-93864188D01*
X145996469Y-93873000D01*
X145927000Y-93873000D01*
X145927000Y-86927000D01*
X149000000Y-86927000D01*
X149024776Y-86924560D01*
X149048601Y-86917333D01*
X149070557Y-86905597D01*
X149089803Y-86889803D01*
X149105597Y-86870557D01*
X149117333Y-86848601D01*
X149124560Y-86824776D01*
X149127000Y-86800000D01*
X149127000Y-79000000D01*
X149124560Y-78975224D01*
X149117333Y-78951399D01*
X149105597Y-78929443D01*
X149089803Y-78910197D01*
X149070557Y-78894403D01*
X149048601Y-78882667D01*
X149024776Y-78875440D01*
X149000000Y-78873000D01*
X148003531Y-78873000D01*
X147974482Y-78864188D01*
X147850000Y-78851928D01*
X146904928Y-78851928D01*
X145927000Y-77874000D01*
X145927000Y-73919558D01*
X145948284Y-73893623D01*
X146053676Y-73696447D01*
X146118577Y-73482499D01*
X146135000Y-73315752D01*
X146135000Y-72527000D01*
X151340000Y-72527000D01*
X151340001Y-117258746D01*
X148352282Y-119873000D01*
X144736711Y-119873000D01*
X144659774Y-119796063D01*
X144490256Y-119682795D01*
X144301898Y-119604774D01*
X144101939Y-119565000D01*
X143898061Y-119565000D01*
X143698102Y-119604774D01*
X143509744Y-119682795D01*
X143366000Y-119778841D01*
X143222256Y-119682795D01*
X143033898Y-119604774D01*
X142833939Y-119565000D01*
X142630061Y-119565000D01*
X142430102Y-119604774D01*
X142241744Y-119682795D01*
X142097000Y-119779510D01*
X141952256Y-119682795D01*
X141763898Y-119604774D01*
X141563939Y-119565000D01*
X141360061Y-119565000D01*
X141160102Y-119604774D01*
X140971744Y-119682795D01*
X140827000Y-119779510D01*
X140682256Y-119682795D01*
X140493898Y-119604774D01*
X140293939Y-119565000D01*
X140090061Y-119565000D01*
X139890102Y-119604774D01*
X139701744Y-119682795D01*
X139532226Y-119796063D01*
X139455289Y-119873000D01*
X135900000Y-119873000D01*
X135875224Y-119875440D01*
X135851399Y-119882667D01*
X135829443Y-119894403D01*
X135810197Y-119910197D01*
X135797044Y-119925643D01*
X133993613Y-122422701D01*
X132943315Y-123473000D01*
X131067968Y-123473000D01*
X128705670Y-119929553D01*
X128689896Y-119910291D01*
X128670668Y-119894477D01*
X128648724Y-119882718D01*
X128624907Y-119875466D01*
X128600000Y-119873000D01*
X124500396Y-119873000D01*
X124371898Y-119819774D01*
X124171939Y-119780000D01*
X123968061Y-119780000D01*
X123768102Y-119819774D01*
X123639604Y-119873000D01*
X123230396Y-119873000D01*
X123101898Y-119819774D01*
X122901939Y-119780000D01*
X122698061Y-119780000D01*
X122498102Y-119819774D01*
X122369604Y-119873000D01*
X121960396Y-119873000D01*
X121831898Y-119819774D01*
X121631939Y-119780000D01*
X121428061Y-119780000D01*
X121228102Y-119819774D01*
X121099604Y-119873000D01*
X120690396Y-119873000D01*
X120561898Y-119819774D01*
X120361939Y-119780000D01*
X120158061Y-119780000D01*
X119958102Y-119819774D01*
X119829604Y-119873000D01*
X112600000Y-119873000D01*
X112575224Y-119875440D01*
X112551399Y-119882667D01*
X112529443Y-119894403D01*
X112502671Y-119918415D01*
X109652671Y-123318415D01*
X109638625Y-123338971D01*
X109628859Y-123361872D01*
X109623748Y-123386238D01*
X109623005Y-123401085D01*
X109721936Y-134975978D01*
X105727000Y-135069976D01*
X105727000Y-123400000D01*
X105724560Y-123375224D01*
X105717333Y-123351399D01*
X105705597Y-123329443D01*
X105682035Y-123303050D01*
X103082035Y-121103050D01*
X103061544Y-121088909D01*
X103038689Y-121079037D01*
X103014347Y-121073813D01*
X103000000Y-121073000D01*
X97950000Y-121073000D01*
X97925224Y-121075440D01*
X97901399Y-121082667D01*
X97879443Y-121094403D01*
X97862959Y-121107519D01*
X95312959Y-123507519D01*
X95296589Y-123526277D01*
X95284193Y-123547868D01*
X95276248Y-123571462D01*
X95273000Y-123600000D01*
X95273000Y-134673000D01*
X91327000Y-134673000D01*
X91327000Y-122253962D01*
X96888155Y-116891420D01*
X96904297Y-116872465D01*
X96916430Y-116850726D01*
X96924089Y-116827037D01*
X96927000Y-116800000D01*
X96927000Y-108200000D01*
X96924560Y-108175224D01*
X96917333Y-108151399D01*
X96905597Y-108129443D01*
X96889803Y-108110197D01*
X96873817Y-108096656D01*
X95527000Y-107134644D01*
X95527000Y-105269091D01*
X98868993Y-103106625D01*
X98888469Y-103091117D01*
X98904545Y-103072107D01*
X98916603Y-103050325D01*
X98924181Y-103026610D01*
X98927000Y-103000000D01*
X98927000Y-101676200D01*
X100108844Y-101045884D01*
X100351808Y-100972182D01*
X100601101Y-100838932D01*
X100794547Y-100680175D01*
X101859765Y-100112059D01*
X101880478Y-100098246D01*
X101898098Y-100080658D01*
X101911949Y-100059970D01*
X101920119Y-100041235D01*
X106520119Y-86641235D01*
X106525856Y-86617009D01*
X106527000Y-86600000D01*
X106527000Y-82200000D01*
X106524560Y-82175224D01*
X106517333Y-82151399D01*
X106505597Y-82129443D01*
X106489803Y-82110197D01*
X106470557Y-82094403D01*
X106448601Y-82082667D01*
X106424776Y-82075440D01*
X106400000Y-82073000D01*
X98927000Y-82073000D01*
X98927000Y-80515303D01*
X105012233Y-79926409D01*
X105036659Y-79921594D01*
X105059677Y-79912106D01*
X105080401Y-79898309D01*
X105098035Y-79880735D01*
X105116731Y-79850028D01*
X106316731Y-77050028D01*
X106324248Y-77026293D01*
X106327000Y-77000000D01*
X106327000Y-60500000D01*
X106324560Y-60475224D01*
X106317333Y-60451399D01*
X106305597Y-60429443D01*
X106289803Y-60410197D01*
X106270914Y-60394642D01*
X103727000Y-58682392D01*
X103727000Y-50327000D01*
X105273000Y-50327000D01*
X105273000Y-53800000D01*
G36*
X142968928Y-125109000D02*
G01*
X142981188Y-125233482D01*
X143017498Y-125353180D01*
X143076463Y-125463494D01*
X143155815Y-125560185D01*
X143252506Y-125639537D01*
X143287948Y-125658482D01*
X143294403Y-125670557D01*
X143310197Y-125689803D01*
X143329443Y-125705597D01*
X143351399Y-125717333D01*
X143375224Y-125724560D01*
X143400000Y-125727000D01*
X143456765Y-125727000D01*
X143482518Y-125734812D01*
X143607000Y-125747072D01*
X144397000Y-125747072D01*
X144521482Y-125734812D01*
X144547235Y-125727000D01*
X144726765Y-125727000D01*
X144752518Y-125734812D01*
X144877000Y-125747072D01*
X145184474Y-125747072D01*
X143921510Y-128273000D01*
X141678490Y-128273000D01*
X140415526Y-125747072D01*
X140587000Y-125747072D01*
X140711482Y-125734812D01*
X140737235Y-125727000D01*
X140916765Y-125727000D01*
X140942518Y-125734812D01*
X141067000Y-125747072D01*
X141857000Y-125747072D01*
X141981482Y-125734812D01*
X142007235Y-125727000D01*
X142200000Y-125727000D01*
X142224776Y-125724560D01*
X142248601Y-125717333D01*
X142270557Y-125705597D01*
X142289803Y-125689803D01*
X142305597Y-125670557D01*
X142317333Y-125648601D01*
X142324560Y-125624776D01*
X142327000Y-125600000D01*
X142327000Y-125537259D01*
X142387537Y-125463494D01*
X142446502Y-125353180D01*
X142482812Y-125233482D01*
X142495072Y-125109000D01*
X142495072Y-123127000D01*
X142968928Y-123127000D01*
X142968928Y-125109000D01*
X142968928Y-125109000D01*
G37*
X142968928Y-125109000D02*
X142981188Y-125233482D01*
X143017498Y-125353180D01*
X143076463Y-125463494D01*
X143155815Y-125560185D01*
X143252506Y-125639537D01*
X143287948Y-125658482D01*
X143294403Y-125670557D01*
X143310197Y-125689803D01*
X143329443Y-125705597D01*
X143351399Y-125717333D01*
X143375224Y-125724560D01*
X143400000Y-125727000D01*
X143456765Y-125727000D01*
X143482518Y-125734812D01*
X143607000Y-125747072D01*
X144397000Y-125747072D01*
X144521482Y-125734812D01*
X144547235Y-125727000D01*
X144726765Y-125727000D01*
X144752518Y-125734812D01*
X144877000Y-125747072D01*
X145184474Y-125747072D01*
X143921510Y-128273000D01*
X141678490Y-128273000D01*
X140415526Y-125747072D01*
X140587000Y-125747072D01*
X140711482Y-125734812D01*
X140737235Y-125727000D01*
X140916765Y-125727000D01*
X140942518Y-125734812D01*
X141067000Y-125747072D01*
X141857000Y-125747072D01*
X141981482Y-125734812D01*
X142007235Y-125727000D01*
X142200000Y-125727000D01*
X142224776Y-125724560D01*
X142248601Y-125717333D01*
X142270557Y-125705597D01*
X142289803Y-125689803D01*
X142305597Y-125670557D01*
X142317333Y-125648601D01*
X142324560Y-125624776D01*
X142327000Y-125600000D01*
X142327000Y-125537259D01*
X142387537Y-125463494D01*
X142446502Y-125353180D01*
X142482812Y-125233482D01*
X142495072Y-125109000D01*
X142495072Y-123127000D01*
X142968928Y-123127000D01*
X142968928Y-125109000D01*
G36*
X123036928Y-125205000D02*
G01*
X123049188Y-125329482D01*
X123085498Y-125449180D01*
X123144463Y-125559494D01*
X123223815Y-125656185D01*
X123273000Y-125696550D01*
X123273000Y-125800000D01*
X123275440Y-125824776D01*
X123282667Y-125848601D01*
X123294403Y-125870557D01*
X123310197Y-125889803D01*
X123329443Y-125905597D01*
X123351399Y-125917333D01*
X123375224Y-125924560D01*
X123400000Y-125927000D01*
X125367378Y-125927000D01*
X123730664Y-128473000D01*
X121873701Y-128473000D01*
X120418844Y-125927000D01*
X122200000Y-125927000D01*
X122224776Y-125924560D01*
X122248601Y-125917333D01*
X122270557Y-125905597D01*
X122289803Y-125889803D01*
X122305597Y-125870557D01*
X122317333Y-125848601D01*
X122324560Y-125824776D01*
X122327000Y-125800000D01*
X122327000Y-125696550D01*
X122376185Y-125656185D01*
X122455537Y-125559494D01*
X122514502Y-125449180D01*
X122550812Y-125329482D01*
X122563072Y-125205000D01*
X122563072Y-123327000D01*
X123036928Y-123327000D01*
X123036928Y-125205000D01*
X123036928Y-125205000D01*
G37*
X123036928Y-125205000D02*
X123049188Y-125329482D01*
X123085498Y-125449180D01*
X123144463Y-125559494D01*
X123223815Y-125656185D01*
X123273000Y-125696550D01*
X123273000Y-125800000D01*
X123275440Y-125824776D01*
X123282667Y-125848601D01*
X123294403Y-125870557D01*
X123310197Y-125889803D01*
X123329443Y-125905597D01*
X123351399Y-125917333D01*
X123375224Y-125924560D01*
X123400000Y-125927000D01*
X125367378Y-125927000D01*
X123730664Y-128473000D01*
X121873701Y-128473000D01*
X120418844Y-125927000D01*
X122200000Y-125927000D01*
X122224776Y-125924560D01*
X122248601Y-125917333D01*
X122270557Y-125905597D01*
X122289803Y-125889803D01*
X122305597Y-125870557D01*
X122317333Y-125848601D01*
X122324560Y-125824776D01*
X122327000Y-125800000D01*
X122327000Y-125696550D01*
X122376185Y-125656185D01*
X122455537Y-125559494D01*
X122514502Y-125449180D01*
X122550812Y-125329482D01*
X122563072Y-125205000D01*
X122563072Y-123327000D01*
X123036928Y-123327000D01*
X123036928Y-125205000D01*
G36*
X104867818Y-89473000D02*
G01*
X102880881Y-89473000D01*
X101527000Y-86571826D01*
X101527000Y-84727000D01*
X104677978Y-84727000D01*
X104867818Y-89473000D01*
X104867818Y-89473000D01*
G37*
X104867818Y-89473000D02*
X102880881Y-89473000D01*
X101527000Y-86571826D01*
X101527000Y-84727000D01*
X104677978Y-84727000D01*
X104867818Y-89473000D01*
M02*
