G04 #@! TF.GenerationSoftware,KiCad,Pcbnew,(5.1.0)-1*
G04 #@! TF.CreationDate,2019-05-09T16:13:53+02:00*
G04 #@! TF.ProjectId,Actuator,41637475-6174-46f7-922e-6b696361645f,rev?*
G04 #@! TF.SameCoordinates,Original*
G04 #@! TF.FileFunction,Legend,Bot*
G04 #@! TF.FilePolarity,Positive*
%FSLAX46Y46*%
G04 Gerber Fmt 4.6, Leading zero omitted, Abs format (unit mm)*
G04 Created by KiCad (PCBNEW (5.1.0)-1) date 2019-05-09 16:13:53*
%MOMM*%
%LPD*%
G04 APERTURE LIST*
%ADD10C,0.400000*%
%ADD11C,0.120000*%
%ADD12C,0.150000*%
G04 APERTURE END LIST*
D10*
X139019047Y-123504761D02*
X139019047Y-121504761D01*
X138352380Y-122933333D01*
X137685714Y-121504761D01*
X137685714Y-123504761D01*
X135876190Y-123504761D02*
X135876190Y-122457142D01*
X135971428Y-122266666D01*
X136161904Y-122171428D01*
X136542857Y-122171428D01*
X136733333Y-122266666D01*
X135876190Y-123409523D02*
X136066666Y-123504761D01*
X136542857Y-123504761D01*
X136733333Y-123409523D01*
X136828571Y-123219047D01*
X136828571Y-123028571D01*
X136733333Y-122838095D01*
X136542857Y-122742857D01*
X136066666Y-122742857D01*
X135876190Y-122647619D01*
X134923809Y-122171428D02*
X134923809Y-123885714D01*
X135019047Y-124076190D01*
X135209523Y-124171428D01*
X135304761Y-124171428D01*
X134923809Y-121504761D02*
X135019047Y-121600000D01*
X134923809Y-121695238D01*
X134828571Y-121600000D01*
X134923809Y-121504761D01*
X134923809Y-121695238D01*
X132542857Y-121695238D02*
X132447619Y-121600000D01*
X132257142Y-121504761D01*
X131780952Y-121504761D01*
X131590476Y-121600000D01*
X131495238Y-121695238D01*
X131400000Y-121885714D01*
X131400000Y-122076190D01*
X131495238Y-122361904D01*
X132638095Y-123504761D01*
X131400000Y-123504761D01*
X130161904Y-121504761D02*
X129971428Y-121504761D01*
X129780952Y-121600000D01*
X129685714Y-121695238D01*
X129590476Y-121885714D01*
X129495238Y-122266666D01*
X129495238Y-122742857D01*
X129590476Y-123123809D01*
X129685714Y-123314285D01*
X129780952Y-123409523D01*
X129971428Y-123504761D01*
X130161904Y-123504761D01*
X130352380Y-123409523D01*
X130447619Y-123314285D01*
X130542857Y-123123809D01*
X130638095Y-122742857D01*
X130638095Y-122266666D01*
X130542857Y-121885714D01*
X130447619Y-121695238D01*
X130352380Y-121600000D01*
X130161904Y-121504761D01*
X127590476Y-123504761D02*
X128733333Y-123504761D01*
X128161904Y-123504761D02*
X128161904Y-121504761D01*
X128352380Y-121790476D01*
X128542857Y-121980952D01*
X128733333Y-122076190D01*
X126638095Y-123504761D02*
X126257142Y-123504761D01*
X126066666Y-123409523D01*
X125971428Y-123314285D01*
X125780952Y-123028571D01*
X125685714Y-122647619D01*
X125685714Y-121885714D01*
X125780952Y-121695238D01*
X125876190Y-121600000D01*
X126066666Y-121504761D01*
X126447619Y-121504761D01*
X126638095Y-121600000D01*
X126733333Y-121695238D01*
X126828571Y-121885714D01*
X126828571Y-122361904D01*
X126733333Y-122552380D01*
X126638095Y-122647619D01*
X126447619Y-122742857D01*
X126066666Y-122742857D01*
X125876190Y-122647619D01*
X125780952Y-122552380D01*
X125685714Y-122361904D01*
X147638095Y-117657142D02*
X146971428Y-117657142D01*
X146685714Y-118704761D02*
X147638095Y-118704761D01*
X147638095Y-116704761D01*
X146685714Y-116704761D01*
X145542857Y-118704761D02*
X145733333Y-118609523D01*
X145828571Y-118419047D01*
X145828571Y-116704761D01*
X144019047Y-118609523D02*
X144209523Y-118704761D01*
X144590476Y-118704761D01*
X144780952Y-118609523D01*
X144876190Y-118419047D01*
X144876190Y-117657142D01*
X144780952Y-117466666D01*
X144590476Y-117371428D01*
X144209523Y-117371428D01*
X144019047Y-117466666D01*
X143923809Y-117657142D01*
X143923809Y-117847619D01*
X144876190Y-118038095D01*
X142209523Y-118609523D02*
X142400000Y-118704761D01*
X142780952Y-118704761D01*
X142971428Y-118609523D01*
X143066666Y-118514285D01*
X143161904Y-118323809D01*
X143161904Y-117752380D01*
X143066666Y-117561904D01*
X142971428Y-117466666D01*
X142780952Y-117371428D01*
X142400000Y-117371428D01*
X142209523Y-117466666D01*
X141638095Y-117371428D02*
X140876190Y-117371428D01*
X141352380Y-116704761D02*
X141352380Y-118419047D01*
X141257142Y-118609523D01*
X141066666Y-118704761D01*
X140876190Y-118704761D01*
X140209523Y-118704761D02*
X140209523Y-117371428D01*
X140209523Y-117752380D02*
X140114285Y-117561904D01*
X140019047Y-117466666D01*
X139828571Y-117371428D01*
X139638095Y-117371428D01*
X138685714Y-118704761D02*
X138876190Y-118609523D01*
X138971428Y-118514285D01*
X139066666Y-118323809D01*
X139066666Y-117752380D01*
X138971428Y-117561904D01*
X138876190Y-117466666D01*
X138685714Y-117371428D01*
X138400000Y-117371428D01*
X138209523Y-117466666D01*
X138114285Y-117561904D01*
X138019047Y-117752380D01*
X138019047Y-118323809D01*
X138114285Y-118514285D01*
X138209523Y-118609523D01*
X138400000Y-118704761D01*
X138685714Y-118704761D01*
X137161904Y-117371428D02*
X137161904Y-119371428D01*
X137161904Y-117466666D02*
X136971428Y-117371428D01*
X136590476Y-117371428D01*
X136400000Y-117466666D01*
X136304761Y-117561904D01*
X136209523Y-117752380D01*
X136209523Y-118323809D01*
X136304761Y-118514285D01*
X136400000Y-118609523D01*
X136590476Y-118704761D01*
X136971428Y-118704761D01*
X137161904Y-118609523D01*
X135352380Y-118704761D02*
X135352380Y-117371428D01*
X135352380Y-116704761D02*
X135447619Y-116800000D01*
X135352380Y-116895238D01*
X135257142Y-116800000D01*
X135352380Y-116704761D01*
X135352380Y-116895238D01*
X134114285Y-118704761D02*
X134304761Y-118609523D01*
X134400000Y-118514285D01*
X134495238Y-118323809D01*
X134495238Y-117752380D01*
X134400000Y-117561904D01*
X134304761Y-117466666D01*
X134114285Y-117371428D01*
X133828571Y-117371428D01*
X133638095Y-117466666D01*
X133542857Y-117561904D01*
X133447619Y-117752380D01*
X133447619Y-118323809D01*
X133542857Y-118514285D01*
X133638095Y-118609523D01*
X133828571Y-118704761D01*
X134114285Y-118704761D01*
X132590476Y-117371428D02*
X132590476Y-118704761D01*
X132590476Y-117561904D02*
X132495238Y-117466666D01*
X132304761Y-117371428D01*
X132019047Y-117371428D01*
X131828571Y-117466666D01*
X131733333Y-117657142D01*
X131733333Y-118704761D01*
X130019047Y-118609523D02*
X130209523Y-118704761D01*
X130590476Y-118704761D01*
X130780952Y-118609523D01*
X130876190Y-118419047D01*
X130876190Y-117657142D01*
X130780952Y-117466666D01*
X130590476Y-117371428D01*
X130209523Y-117371428D01*
X130019047Y-117466666D01*
X129923809Y-117657142D01*
X129923809Y-117847619D01*
X130876190Y-118038095D01*
X128304761Y-118609523D02*
X128495238Y-118704761D01*
X128876190Y-118704761D01*
X129066666Y-118609523D01*
X129161904Y-118419047D01*
X129161904Y-117657142D01*
X129066666Y-117466666D01*
X128876190Y-117371428D01*
X128495238Y-117371428D01*
X128304761Y-117466666D01*
X128209523Y-117657142D01*
X128209523Y-117847619D01*
X129161904Y-118038095D01*
X127352380Y-118704761D02*
X127352380Y-117371428D01*
X127352380Y-117752380D02*
X127257142Y-117561904D01*
X127161904Y-117466666D01*
X126971428Y-117371428D01*
X126780952Y-117371428D01*
X124685714Y-118133333D02*
X123733333Y-118133333D01*
X124876190Y-118704761D02*
X124209523Y-116704761D01*
X123542857Y-118704761D01*
X122019047Y-118609523D02*
X122209523Y-118704761D01*
X122590476Y-118704761D01*
X122780952Y-118609523D01*
X122876190Y-118514285D01*
X122971428Y-118323809D01*
X122971428Y-117752380D01*
X122876190Y-117561904D01*
X122780952Y-117466666D01*
X122590476Y-117371428D01*
X122209523Y-117371428D01*
X122019047Y-117466666D01*
X121447619Y-117371428D02*
X120685714Y-117371428D01*
X121161904Y-116704761D02*
X121161904Y-118419047D01*
X121066666Y-118609523D01*
X120876190Y-118704761D01*
X120685714Y-118704761D01*
X119161904Y-117371428D02*
X119161904Y-118704761D01*
X120019047Y-117371428D02*
X120019047Y-118419047D01*
X119923809Y-118609523D01*
X119733333Y-118704761D01*
X119447619Y-118704761D01*
X119257142Y-118609523D01*
X119161904Y-118514285D01*
X117352380Y-118704761D02*
X117352380Y-117657142D01*
X117447619Y-117466666D01*
X117638095Y-117371428D01*
X118019047Y-117371428D01*
X118209523Y-117466666D01*
X117352380Y-118609523D02*
X117542857Y-118704761D01*
X118019047Y-118704761D01*
X118209523Y-118609523D01*
X118304761Y-118419047D01*
X118304761Y-118228571D01*
X118209523Y-118038095D01*
X118019047Y-117942857D01*
X117542857Y-117942857D01*
X117352380Y-117847619D01*
X116685714Y-117371428D02*
X115923809Y-117371428D01*
X116400000Y-116704761D02*
X116400000Y-118419047D01*
X116304761Y-118609523D01*
X116114285Y-118704761D01*
X115923809Y-118704761D01*
X114971428Y-118704761D02*
X115161904Y-118609523D01*
X115257142Y-118514285D01*
X115352380Y-118323809D01*
X115352380Y-117752380D01*
X115257142Y-117561904D01*
X115161904Y-117466666D01*
X114971428Y-117371428D01*
X114685714Y-117371428D01*
X114495238Y-117466666D01*
X114400000Y-117561904D01*
X114304761Y-117752380D01*
X114304761Y-118323809D01*
X114400000Y-118514285D01*
X114495238Y-118609523D01*
X114685714Y-118704761D01*
X114971428Y-118704761D01*
X113447619Y-118704761D02*
X113447619Y-117371428D01*
X113447619Y-117752380D02*
X113352380Y-117561904D01*
X113257142Y-117466666D01*
X113066666Y-117371428D01*
X112876190Y-117371428D01*
X110019047Y-117657142D02*
X109733333Y-117752380D01*
X109638095Y-117847619D01*
X109542857Y-118038095D01*
X109542857Y-118323809D01*
X109638095Y-118514285D01*
X109733333Y-118609523D01*
X109923809Y-118704761D01*
X110685714Y-118704761D01*
X110685714Y-116704761D01*
X110019047Y-116704761D01*
X109828571Y-116800000D01*
X109733333Y-116895238D01*
X109638095Y-117085714D01*
X109638095Y-117276190D01*
X109733333Y-117466666D01*
X109828571Y-117561904D01*
X110019047Y-117657142D01*
X110685714Y-117657142D01*
X108400000Y-118704761D02*
X108590476Y-118609523D01*
X108685714Y-118514285D01*
X108780952Y-118323809D01*
X108780952Y-117752380D01*
X108685714Y-117561904D01*
X108590476Y-117466666D01*
X108400000Y-117371428D01*
X108114285Y-117371428D01*
X107923809Y-117466666D01*
X107828571Y-117561904D01*
X107733333Y-117752380D01*
X107733333Y-118323809D01*
X107828571Y-118514285D01*
X107923809Y-118609523D01*
X108114285Y-118704761D01*
X108400000Y-118704761D01*
X106019047Y-118704761D02*
X106019047Y-117657142D01*
X106114285Y-117466666D01*
X106304761Y-117371428D01*
X106685714Y-117371428D01*
X106876190Y-117466666D01*
X106019047Y-118609523D02*
X106209523Y-118704761D01*
X106685714Y-118704761D01*
X106876190Y-118609523D01*
X106971428Y-118419047D01*
X106971428Y-118228571D01*
X106876190Y-118038095D01*
X106685714Y-117942857D01*
X106209523Y-117942857D01*
X106019047Y-117847619D01*
X105066666Y-118704761D02*
X105066666Y-117371428D01*
X105066666Y-117752380D02*
X104971428Y-117561904D01*
X104876190Y-117466666D01*
X104685714Y-117371428D01*
X104495238Y-117371428D01*
X102971428Y-118704761D02*
X102971428Y-116704761D01*
X102971428Y-118609523D02*
X103161904Y-118704761D01*
X103542857Y-118704761D01*
X103733333Y-118609523D01*
X103828571Y-118514285D01*
X103923809Y-118323809D01*
X103923809Y-117752380D01*
X103828571Y-117561904D01*
X103733333Y-117466666D01*
X103542857Y-117371428D01*
X103161904Y-117371428D01*
X102971428Y-117466666D01*
X100685714Y-117371428D02*
X100209523Y-118704761D01*
X99733333Y-117371428D01*
X97923809Y-118704761D02*
X99066666Y-118704761D01*
X98495238Y-118704761D02*
X98495238Y-116704761D01*
X98685714Y-116990476D01*
X98876190Y-117180952D01*
X99066666Y-117276190D01*
X97066666Y-118514285D02*
X96971428Y-118609523D01*
X97066666Y-118704761D01*
X97161904Y-118609523D01*
X97066666Y-118514285D01*
X97066666Y-118704761D01*
X95733333Y-116704761D02*
X95542857Y-116704761D01*
X95352380Y-116800000D01*
X95257142Y-116895238D01*
X95161904Y-117085714D01*
X95066666Y-117466666D01*
X95066666Y-117942857D01*
X95161904Y-118323809D01*
X95257142Y-118514285D01*
X95352380Y-118609523D01*
X95542857Y-118704761D01*
X95733333Y-118704761D01*
X95923809Y-118609523D01*
X96019047Y-118514285D01*
X96114285Y-118323809D01*
X96209523Y-117942857D01*
X96209523Y-117466666D01*
X96114285Y-117085714D01*
X96019047Y-116895238D01*
X95923809Y-116800000D01*
X95733333Y-116704761D01*
D11*
X138750000Y-90400000D02*
X142050000Y-90400000D01*
X142050000Y-90400000D02*
X142050000Y-95800000D01*
X138750000Y-90400000D02*
X138750000Y-95800000D01*
X138750000Y-76000000D02*
X142050000Y-76000000D01*
X142050000Y-76000000D02*
X142050000Y-81400000D01*
X138750000Y-76000000D02*
X138750000Y-81400000D01*
X142050000Y-89900000D02*
X142050000Y-84500000D01*
X138750000Y-89900000D02*
X138750000Y-84500000D01*
X142050000Y-89900000D02*
X138750000Y-89900000D01*
X142050000Y-75800000D02*
X142050000Y-70400000D01*
X138750000Y-75800000D02*
X138750000Y-70400000D01*
X142050000Y-75800000D02*
X138750000Y-75800000D01*
X110310000Y-103824721D02*
X110310000Y-104150279D01*
X109290000Y-103824721D02*
X109290000Y-104150279D01*
X92290000Y-107175279D02*
X92290000Y-106849721D01*
X93310000Y-107175279D02*
X93310000Y-106849721D01*
X107890000Y-103849721D02*
X107890000Y-104175279D01*
X108910000Y-103849721D02*
X108910000Y-104175279D01*
X94710000Y-107150279D02*
X94710000Y-106824721D01*
X93690000Y-107150279D02*
X93690000Y-106824721D01*
D12*
X138252380Y-92661904D02*
X137252380Y-92661904D01*
X137252380Y-92900000D01*
X137300000Y-93042857D01*
X137395238Y-93138095D01*
X137490476Y-93185714D01*
X137680952Y-93233333D01*
X137823809Y-93233333D01*
X138014285Y-93185714D01*
X138109523Y-93138095D01*
X138204761Y-93042857D01*
X138252380Y-92900000D01*
X138252380Y-92661904D01*
X137347619Y-93614285D02*
X137300000Y-93661904D01*
X137252380Y-93757142D01*
X137252380Y-93995238D01*
X137300000Y-94090476D01*
X137347619Y-94138095D01*
X137442857Y-94185714D01*
X137538095Y-94185714D01*
X137680952Y-94138095D01*
X138252380Y-93566666D01*
X138252380Y-94185714D01*
X138452380Y-78861904D02*
X137452380Y-78861904D01*
X137452380Y-79100000D01*
X137500000Y-79242857D01*
X137595238Y-79338095D01*
X137690476Y-79385714D01*
X137880952Y-79433333D01*
X138023809Y-79433333D01*
X138214285Y-79385714D01*
X138309523Y-79338095D01*
X138404761Y-79242857D01*
X138452380Y-79100000D01*
X138452380Y-78861904D01*
X137452380Y-79766666D02*
X137452380Y-80385714D01*
X137833333Y-80052380D01*
X137833333Y-80195238D01*
X137880952Y-80290476D01*
X137928571Y-80338095D01*
X138023809Y-80385714D01*
X138261904Y-80385714D01*
X138357142Y-80338095D01*
X138404761Y-80290476D01*
X138452380Y-80195238D01*
X138452380Y-79909523D01*
X138404761Y-79814285D01*
X138357142Y-79766666D01*
X138252380Y-87861904D02*
X137252380Y-87861904D01*
X137252380Y-88100000D01*
X137300000Y-88242857D01*
X137395238Y-88338095D01*
X137490476Y-88385714D01*
X137680952Y-88433333D01*
X137823809Y-88433333D01*
X138014285Y-88385714D01*
X138109523Y-88338095D01*
X138204761Y-88242857D01*
X138252380Y-88100000D01*
X138252380Y-87861904D01*
X137585714Y-89290476D02*
X138252380Y-89290476D01*
X137204761Y-89052380D02*
X137919047Y-88814285D01*
X137919047Y-89433333D01*
X138652380Y-72061904D02*
X137652380Y-72061904D01*
X137652380Y-72300000D01*
X137700000Y-72442857D01*
X137795238Y-72538095D01*
X137890476Y-72585714D01*
X138080952Y-72633333D01*
X138223809Y-72633333D01*
X138414285Y-72585714D01*
X138509523Y-72538095D01*
X138604761Y-72442857D01*
X138652380Y-72300000D01*
X138652380Y-72061904D01*
X137652380Y-73538095D02*
X137652380Y-73061904D01*
X138128571Y-73014285D01*
X138080952Y-73061904D01*
X138033333Y-73157142D01*
X138033333Y-73395238D01*
X138080952Y-73490476D01*
X138128571Y-73538095D01*
X138223809Y-73585714D01*
X138461904Y-73585714D01*
X138557142Y-73538095D01*
X138604761Y-73490476D01*
X138652380Y-73395238D01*
X138652380Y-73157142D01*
X138604761Y-73061904D01*
X138557142Y-73014285D01*
X111776380Y-103157142D02*
X111300190Y-102823809D01*
X111776380Y-102585714D02*
X110776380Y-102585714D01*
X110776380Y-102966666D01*
X110824000Y-103061904D01*
X110871619Y-103109523D01*
X110966857Y-103157142D01*
X111109714Y-103157142D01*
X111204952Y-103109523D01*
X111252571Y-103061904D01*
X111300190Y-102966666D01*
X111300190Y-102585714D01*
X111776380Y-104109523D02*
X111776380Y-103538095D01*
X111776380Y-103823809D02*
X110776380Y-103823809D01*
X110919238Y-103728571D01*
X111014476Y-103633333D01*
X111062095Y-103538095D01*
X110776380Y-104442857D02*
X110776380Y-105061904D01*
X111157333Y-104728571D01*
X111157333Y-104871428D01*
X111204952Y-104966666D01*
X111252571Y-105014285D01*
X111347809Y-105061904D01*
X111585904Y-105061904D01*
X111681142Y-105014285D01*
X111728761Y-104966666D01*
X111776380Y-104871428D01*
X111776380Y-104585714D01*
X111728761Y-104490476D01*
X111681142Y-104442857D01*
X92052380Y-106357142D02*
X91576190Y-106023809D01*
X92052380Y-105785714D02*
X91052380Y-105785714D01*
X91052380Y-106166666D01*
X91100000Y-106261904D01*
X91147619Y-106309523D01*
X91242857Y-106357142D01*
X91385714Y-106357142D01*
X91480952Y-106309523D01*
X91528571Y-106261904D01*
X91576190Y-106166666D01*
X91576190Y-105785714D01*
X92052380Y-107309523D02*
X92052380Y-106738095D01*
X92052380Y-107023809D02*
X91052380Y-107023809D01*
X91195238Y-106928571D01*
X91290476Y-106833333D01*
X91338095Y-106738095D01*
X91385714Y-108166666D02*
X92052380Y-108166666D01*
X91004761Y-107928571D02*
X91719047Y-107690476D01*
X91719047Y-108309523D01*
X107452380Y-103357142D02*
X106976190Y-103023809D01*
X107452380Y-102785714D02*
X106452380Y-102785714D01*
X106452380Y-103166666D01*
X106500000Y-103261904D01*
X106547619Y-103309523D01*
X106642857Y-103357142D01*
X106785714Y-103357142D01*
X106880952Y-103309523D01*
X106928571Y-103261904D01*
X106976190Y-103166666D01*
X106976190Y-102785714D01*
X107452380Y-104309523D02*
X107452380Y-103738095D01*
X107452380Y-104023809D02*
X106452380Y-104023809D01*
X106595238Y-103928571D01*
X106690476Y-103833333D01*
X106738095Y-103738095D01*
X106452380Y-105214285D02*
X106452380Y-104738095D01*
X106928571Y-104690476D01*
X106880952Y-104738095D01*
X106833333Y-104833333D01*
X106833333Y-105071428D01*
X106880952Y-105166666D01*
X106928571Y-105214285D01*
X107023809Y-105261904D01*
X107261904Y-105261904D01*
X107357142Y-105214285D01*
X107404761Y-105166666D01*
X107452380Y-105071428D01*
X107452380Y-104833333D01*
X107404761Y-104738095D01*
X107357142Y-104690476D01*
X96052380Y-106157142D02*
X95576190Y-105823809D01*
X96052380Y-105585714D02*
X95052380Y-105585714D01*
X95052380Y-105966666D01*
X95100000Y-106061904D01*
X95147619Y-106109523D01*
X95242857Y-106157142D01*
X95385714Y-106157142D01*
X95480952Y-106109523D01*
X95528571Y-106061904D01*
X95576190Y-105966666D01*
X95576190Y-105585714D01*
X96052380Y-107109523D02*
X96052380Y-106538095D01*
X96052380Y-106823809D02*
X95052380Y-106823809D01*
X95195238Y-106728571D01*
X95290476Y-106633333D01*
X95338095Y-106538095D01*
X95052380Y-107966666D02*
X95052380Y-107776190D01*
X95100000Y-107680952D01*
X95147619Y-107633333D01*
X95290476Y-107538095D01*
X95480952Y-107490476D01*
X95861904Y-107490476D01*
X95957142Y-107538095D01*
X96004761Y-107585714D01*
X96052380Y-107680952D01*
X96052380Y-107871428D01*
X96004761Y-107966666D01*
X95957142Y-108014285D01*
X95861904Y-108061904D01*
X95623809Y-108061904D01*
X95528571Y-108014285D01*
X95480952Y-107966666D01*
X95433333Y-107871428D01*
X95433333Y-107680952D01*
X95480952Y-107585714D01*
X95528571Y-107538095D01*
X95623809Y-107490476D01*
M02*
